G04 Layer_Color=32896*
%FSLAX25Y25*%
%MOIN*%
G70*
G01*
G75*
%ADD86C,0.00394*%
%ADD90C,0.00197*%
D86*
X3451Y-1758D02*
X86128D01*
Y65958D01*
X3451D02*
X86128D01*
X3451Y-1758D02*
Y65958D01*
X3177Y110264D02*
Y177980D01*
X85854D01*
Y110264D02*
Y177980D01*
X3177Y110264D02*
X85854D01*
X312646Y-2136D02*
Y65580D01*
X395323D01*
Y-2136D02*
Y65580D01*
X312646Y-2136D02*
X395323D01*
X406649Y111042D02*
Y178758D01*
X323972Y111042D02*
X406649D01*
X323972D02*
Y178758D01*
X406649D01*
D90*
X220626Y195335D02*
Y199665D01*
X211374D02*
X220626D01*
X211374Y195335D02*
Y199665D01*
Y195335D02*
X220626D01*
X231004Y16335D02*
Y20665D01*
X221752D02*
X231004D01*
X221752Y16335D02*
Y20665D01*
Y16335D02*
X231004D01*
X182874Y13835D02*
Y18165D01*
Y13835D02*
X192126D01*
Y18165D01*
X182874D02*
X192126D01*
X161874Y195335D02*
Y199665D01*
Y195335D02*
X171126D01*
Y199665D01*
X161874D02*
X171126D01*
X215335Y191004D02*
X219665D01*
X215335Y181752D02*
Y191004D01*
Y181752D02*
X219665D01*
Y191004D01*
X225835Y14126D02*
X230165D01*
X225835Y4874D02*
Y14126D01*
Y4874D02*
X230165D01*
Y14126D01*
X183335Y19374D02*
X187665D01*
Y28626D01*
X183335D02*
X187665D01*
X183335Y19374D02*
Y28626D01*
X162335Y203874D02*
X166665D01*
Y213126D01*
X162335D02*
X166665D01*
X162335Y203874D02*
Y213126D01*
X369687Y67188D02*
Y108527D01*
X404529D01*
Y67188D02*
Y108527D01*
X369687Y67188D02*
X404529D01*
X4387Y180373D02*
Y221712D01*
X39229D01*
Y180373D02*
Y221712D01*
X4387Y180373D02*
X39229D01*
X4887Y67273D02*
Y108612D01*
X39729D01*
Y67273D02*
Y108612D01*
X4887Y67273D02*
X39729D01*
X64126Y181435D02*
Y185765D01*
X54874D02*
X64126D01*
X54874Y181435D02*
Y185765D01*
Y181435D02*
X64126D01*
X52335Y212374D02*
Y221626D01*
X56665D01*
Y212374D02*
Y221626D01*
X52335Y212374D02*
X56665D01*
X69589Y190906D02*
X73211D01*
Y198072D01*
X69589D02*
X73211D01*
X69589Y190906D02*
Y198072D01*
X77617Y181589D02*
Y185211D01*
Y181589D02*
X84783D01*
Y185211D01*
X77617D02*
X84783D01*
X45917Y180189D02*
Y183811D01*
Y180189D02*
X53083D01*
Y183811D01*
X45917D02*
X53083D01*
X284618Y52110D02*
Y65890D01*
Y52110D02*
X299382D01*
Y65890D01*
X284618D02*
X299382D01*
X130783Y54610D02*
Y68390D01*
X116217D02*
X130783D01*
X116217Y54610D02*
Y68390D01*
Y54610D02*
X130783D01*
X337272Y155392D02*
X358728D01*
X337272Y126258D02*
Y155392D01*
Y126258D02*
X358728D01*
Y155392D01*
X200472Y43354D02*
X209528D01*
Y62646D01*
X200472D02*
X209528D01*
X200472Y43354D02*
Y62646D01*
X205972Y115146D02*
X215028D01*
X205972Y95854D02*
Y115146D01*
Y95854D02*
X215028D01*
Y115146D01*
X209772Y65183D02*
X231228D01*
Y94317D01*
X209772D02*
X231228D01*
X209772Y65183D02*
Y94317D01*
X249689Y37583D02*
X253311D01*
X249689Y30417D02*
Y37583D01*
Y30417D02*
X253311D01*
Y37583D01*
X254689Y93832D02*
X258311D01*
X254689Y86667D02*
Y93832D01*
Y86667D02*
X258311D01*
Y93832D01*
X301976Y66598D02*
X314024D01*
X301976Y2917D02*
Y66598D01*
Y2917D02*
X314024D01*
Y66598D01*
X298476Y202087D02*
X310524D01*
X298476Y138406D02*
Y202087D01*
Y138406D02*
X310524D01*
Y202087D01*
X102976Y140413D02*
X115024D01*
Y204095D01*
X102976D02*
X115024D01*
X102976Y140413D02*
Y204095D01*
X256689Y153083D02*
X260311D01*
X256689Y145917D02*
Y153083D01*
Y145917D02*
X260311D01*
Y153083D01*
X380146Y125798D02*
Y134853D01*
X360854D02*
X380146D01*
X360854Y125798D02*
Y134853D01*
Y125798D02*
X380146D01*
X270216Y115110D02*
Y128890D01*
Y115110D02*
X284784D01*
Y128890D01*
X270216D02*
X284784D01*
X281618Y167610D02*
Y181390D01*
Y167610D02*
X296382D01*
Y181390D01*
X281618D02*
X296382D01*
X284216Y2110D02*
Y15890D01*
Y2110D02*
X298783D01*
Y15890D01*
X284216D02*
X298783D01*
X129382Y2110D02*
Y15890D01*
X114618D02*
X129382D01*
X114618Y2110D02*
Y15890D01*
Y2110D02*
X129382D01*
X126713Y123110D02*
Y136890D01*
X111949D02*
X126713D01*
X111949Y123110D02*
Y136890D01*
Y123110D02*
X126713D01*
X78374Y162335D02*
Y166665D01*
Y162335D02*
X87626D01*
Y166665D01*
X78374D02*
X87626D01*
X86083Y157189D02*
Y160811D01*
X78917D02*
X86083D01*
X78917Y157189D02*
Y160811D01*
Y157189D02*
X86083D01*
X29417Y161189D02*
Y164811D01*
Y161189D02*
X36583D01*
Y164811D01*
X29417D02*
X36583D01*
X40106Y169189D02*
Y172811D01*
Y169189D02*
X47272D01*
Y172811D01*
X40106D02*
X47272D01*
X39917Y174189D02*
Y177811D01*
Y174189D02*
X47083D01*
Y177811D01*
X39917D02*
X47083D01*
X59217Y176489D02*
Y180111D01*
Y176489D02*
X66383D01*
Y180111D01*
X59217D02*
X66383D01*
X79772Y170189D02*
Y173811D01*
X72606D02*
X79772D01*
X72606Y170189D02*
Y173811D01*
Y170189D02*
X79772D01*
X86083Y152189D02*
Y155811D01*
X78917D02*
X86083D01*
X78917Y152189D02*
Y155811D01*
Y152189D02*
X86083D01*
X27972Y166335D02*
Y170665D01*
Y166335D02*
X37028D01*
Y170665D01*
X27972D02*
X37028D01*
X52335Y196374D02*
X56665D01*
Y205626D01*
X52335D02*
X56665D01*
X52335Y196374D02*
Y205626D01*
X55289Y187217D02*
X58911D01*
Y194383D01*
X55289D02*
X58911D01*
X55289Y187217D02*
Y194383D01*
X53689Y171417D02*
X57311D01*
Y178583D01*
X53689D02*
X57311D01*
X53689Y171417D02*
Y178583D01*
X60083Y207189D02*
Y210811D01*
X52917D02*
X60083D01*
X52917Y207189D02*
Y210811D01*
Y207189D02*
X60083D01*
X48689Y171417D02*
X52311D01*
Y178583D01*
X48689D02*
X52311D01*
X48689Y171417D02*
Y178583D01*
X89083Y169189D02*
Y172811D01*
X81917D02*
X89083D01*
X81917Y169189D02*
Y172811D01*
Y169189D02*
X89083D01*
X29317Y135689D02*
Y139311D01*
Y135689D02*
X36483D01*
Y139311D01*
X29317D02*
X36483D01*
X49335Y185774D02*
X53665D01*
Y195026D01*
X49335D02*
X53665D01*
X49335Y185774D02*
Y195026D01*
X152589Y84917D02*
X156211D01*
Y92083D01*
X152589D02*
X156211D01*
X152589Y84917D02*
Y92083D01*
X158589Y29917D02*
X162211D01*
Y37083D01*
X158589D02*
X162211D01*
X158589Y29917D02*
Y37083D01*
X127784Y206610D02*
Y220390D01*
X113216D02*
X127784D01*
X113216Y206610D02*
Y220390D01*
Y206610D02*
X127784D01*
X98976Y1902D02*
X111024D01*
Y65583D01*
X98976D02*
X111024D01*
X98976Y1902D02*
Y65583D01*
X183672Y94067D02*
X205128D01*
X183672Y64933D02*
Y94067D01*
Y64933D02*
X205128D01*
Y94067D01*
X29217Y140789D02*
Y144411D01*
Y140789D02*
X36383D01*
Y144411D01*
X29217D02*
X36383D01*
X84083Y134489D02*
Y138111D01*
X76917D02*
X84083D01*
X76917Y134489D02*
Y138111D01*
Y134489D02*
X84083D01*
X60789Y123017D02*
X64411D01*
Y130183D01*
X60789D02*
X64411D01*
X60789Y123017D02*
Y130183D01*
X166311Y183295D02*
Y190461D01*
X162689Y183295D02*
X166311D01*
X162689D02*
Y190461D01*
X166311D01*
X187811Y4295D02*
Y11461D01*
X184189Y4295D02*
X187811D01*
X184189D02*
Y11461D01*
X187811D01*
X226189Y24417D02*
Y31583D01*
X229811D01*
Y24417D02*
Y31583D01*
X226189Y24417D02*
X229811D01*
X215689Y203917D02*
Y211083D01*
X219311D01*
Y203917D02*
Y211083D01*
X215689Y203917D02*
X219311D01*
M02*
