G04 Layer_Color=8388736*
%FSLAX25Y25*%
%MOIN*%
G70*
G01*
G75*
%ADD11R,0.03800X0.03600*%
%ADD20R,0.03600X0.03800*%
%ADD21R,0.04200X0.03200*%
%ADD22R,0.05200X0.04800*%
%ADD28R,0.05200X0.06700*%
%ADD29R,0.02400X0.06400*%
%ADD32R,0.02565X0.02184*%
%ADD56R,0.03241X0.03162*%
%ADD57R,0.06784X0.05800*%
%ADD58R,0.12808X0.10800*%
%ADD59R,0.01981X0.03769*%
%ADD60R,0.03769X0.01981*%
%ADD61R,0.00084X0.00084*%
%ADD62R,0.03162X0.03241*%
%ADD63R,0.03359X0.06706*%
%ADD64R,0.05131X0.03359*%
%ADD65R,0.03162X0.03753*%
%ADD66R,0.03556X0.03162*%
%ADD67R,0.03753X0.03162*%
%ADD68R,0.04934X0.03162*%
%ADD69R,0.07887X0.05918*%
%ADD70C,0.06800*%
%ADD71R,0.05918X0.07887*%
%ADD72R,0.04147X0.04540*%
%ADD73C,0.08477*%
%ADD74C,0.06312*%
%ADD75C,0.08674*%
%ADD76C,0.02800*%
%ADD77C,0.08674*%
%ADD78C,0.07493*%
%ADD79R,0.07001X0.07001*%
%ADD80C,0.07001*%
%ADD81R,0.07887X0.07887*%
%ADD82C,0.07887*%
G04:AMPARAMS|DCode=83|XSize=168mil|YSize=168mil|CornerRadius=44mil|HoleSize=0mil|Usage=FLASHONLY|Rotation=0.000|XOffset=0mil|YOffset=0mil|HoleType=Round|Shape=RoundedRectangle|*
%AMROUNDEDRECTD83*
21,1,0.16800,0.08000,0,0,0.0*
21,1,0.08000,0.16800,0,0,0.0*
1,1,0.08800,0.04000,-0.04000*
1,1,0.08800,-0.04000,-0.04000*
1,1,0.08800,-0.04000,0.04000*
1,1,0.08800,0.04000,0.04000*
%
%ADD83ROUNDEDRECTD83*%
%ADD84C,0.02400*%
%ADD85C,0.05800*%
G36*
X74803Y144561D02*
X71284D01*
Y146294D01*
X74803D01*
Y144561D01*
D02*
G37*
G36*
X43616D02*
X40097D01*
Y146294D01*
X43616D01*
Y144561D01*
D02*
G37*
G36*
X74803Y146530D02*
X71284D01*
Y148263D01*
X74803D01*
Y146530D01*
D02*
G37*
G36*
X43616D02*
X40097D01*
Y148263D01*
X43616D01*
Y146530D01*
D02*
G37*
G36*
X74803Y142592D02*
X71284D01*
Y144325D01*
X74803D01*
Y142592D01*
D02*
G37*
G36*
X43616Y140623D02*
X40097D01*
Y142356D01*
X43616D01*
Y140623D01*
D02*
G37*
G36*
X74803Y138654D02*
X71284D01*
Y140387D01*
X74803D01*
Y138654D01*
D02*
G37*
G36*
X43616Y142592D02*
X40097D01*
Y144325D01*
X43616D01*
Y142592D01*
D02*
G37*
G36*
X74803Y140623D02*
X71284D01*
Y142356D01*
X74803D01*
Y140623D01*
D02*
G37*
G36*
X43616Y154406D02*
X40097D01*
Y156139D01*
X43616D01*
Y154406D01*
D02*
G37*
G36*
X74803Y152437D02*
X71284D01*
Y154170D01*
X74803D01*
Y152437D01*
D02*
G37*
G36*
X43616Y156375D02*
X40097D01*
Y158108D01*
X43616D01*
Y156375D01*
D02*
G37*
G36*
X74803Y154406D02*
X71284D01*
Y156139D01*
X74803D01*
Y154406D01*
D02*
G37*
G36*
X43616Y152437D02*
X40097D01*
Y154170D01*
X43616D01*
Y152437D01*
D02*
G37*
G36*
X74803Y148499D02*
X71284D01*
Y150232D01*
X74803D01*
Y148499D01*
D02*
G37*
G36*
X43616D02*
X40097D01*
Y150232D01*
X43616D01*
Y148499D01*
D02*
G37*
G36*
X74803Y150468D02*
X71284D01*
Y152201D01*
X74803D01*
Y150468D01*
D02*
G37*
G36*
X43616D02*
X40097D01*
Y152201D01*
X43616D01*
Y150468D01*
D02*
G37*
G36*
X57332Y132997D02*
X55600D01*
Y136516D01*
X57332D01*
Y132997D01*
D02*
G37*
G36*
X55363D02*
X53631D01*
Y136516D01*
X55363D01*
Y132997D01*
D02*
G37*
G36*
X61269D02*
X59537D01*
Y136516D01*
X61269D01*
Y132997D01*
D02*
G37*
G36*
X59300D02*
X57568D01*
Y136516D01*
X59300D01*
Y132997D01*
D02*
G37*
G36*
X53395D02*
X51663D01*
Y136516D01*
X53395D01*
Y132997D01*
D02*
G37*
G36*
X47489D02*
X45757D01*
Y136516D01*
X47489D01*
Y132997D01*
D02*
G37*
G36*
X45521D02*
X43789D01*
Y136516D01*
X45521D01*
Y132997D01*
D02*
G37*
G36*
X51426D02*
X49694D01*
Y136516D01*
X51426D01*
Y132997D01*
D02*
G37*
G36*
X49458D02*
X47726D01*
Y136516D01*
X49458D01*
Y132997D01*
D02*
G37*
G36*
X74803Y136685D02*
X71284D01*
Y138418D01*
X74803D01*
Y136685D01*
D02*
G37*
G36*
X43616D02*
X40097D01*
Y138418D01*
X43616D01*
Y136685D01*
D02*
G37*
G36*
Y138654D02*
X40097D01*
Y140387D01*
X43616D01*
Y138654D01*
D02*
G37*
G36*
X70692Y161987D02*
Y160413D01*
Y158887D01*
Y157313D01*
Y155787D01*
Y154213D01*
Y152687D01*
Y151113D01*
Y149587D01*
Y148013D01*
Y146487D01*
Y144913D01*
Y143387D01*
Y141813D01*
Y140287D01*
Y138713D01*
Y137108D01*
X44208D01*
Y138713D01*
Y140287D01*
Y141813D01*
Y143387D01*
Y144913D01*
Y146487D01*
Y148013D01*
Y149587D01*
Y151113D01*
Y152687D01*
Y154213D01*
Y155787D01*
Y157313D01*
Y158887D01*
Y160413D01*
Y161987D01*
Y163592D01*
X70692D01*
Y161987D01*
D02*
G37*
G36*
X71111Y132997D02*
X69379D01*
Y136516D01*
X71111D01*
Y132997D01*
D02*
G37*
G36*
X65206D02*
X63474D01*
Y136516D01*
X65206D01*
Y132997D01*
D02*
G37*
G36*
X63237D02*
X61505D01*
Y136516D01*
X63237D01*
Y132997D01*
D02*
G37*
G36*
X69143D02*
X67411D01*
Y136516D01*
X69143D01*
Y132997D01*
D02*
G37*
G36*
X67174D02*
X65442D01*
Y136516D01*
X67174D01*
Y132997D01*
D02*
G37*
G36*
X74803Y156375D02*
X71284D01*
Y158108D01*
X74803D01*
Y156375D01*
D02*
G37*
G36*
X45521Y164184D02*
X43789D01*
Y167703D01*
X45521D01*
Y164184D01*
D02*
G37*
G36*
X74803Y162282D02*
X71284D01*
Y164015D01*
X74803D01*
Y162282D01*
D02*
G37*
G36*
X47489Y164184D02*
X45757D01*
Y167703D01*
X47489D01*
Y164184D01*
D02*
G37*
G36*
X51426D02*
X49694D01*
Y167703D01*
X51426D01*
Y164184D01*
D02*
G37*
G36*
X49458D02*
X47726D01*
Y167703D01*
X49458D01*
Y164184D01*
D02*
G37*
G36*
X43616Y160313D02*
X40097D01*
Y162046D01*
X43616D01*
Y160313D01*
D02*
G37*
G36*
X74803Y158344D02*
X71284D01*
Y160077D01*
X74803D01*
Y158344D01*
D02*
G37*
G36*
X43616D02*
X40097D01*
Y160077D01*
X43616D01*
Y158344D01*
D02*
G37*
G36*
Y162282D02*
X40097D01*
Y164015D01*
X43616D01*
Y162282D01*
D02*
G37*
G36*
X74803Y160313D02*
X71284D01*
Y162046D01*
X74803D01*
Y160313D01*
D02*
G37*
G36*
X65206Y164184D02*
X63474D01*
Y167703D01*
X65206D01*
Y164184D01*
D02*
G37*
G36*
X63237D02*
X61505D01*
Y167703D01*
X63237D01*
Y164184D01*
D02*
G37*
G36*
X71111D02*
X69379D01*
Y167703D01*
X71111D01*
Y164184D01*
D02*
G37*
G36*
X67174D02*
X65442D01*
Y167703D01*
X67174D01*
Y164184D01*
D02*
G37*
G36*
X69143D02*
X67411D01*
Y167703D01*
X69143D01*
Y164184D01*
D02*
G37*
G36*
X57332D02*
X55600D01*
Y167703D01*
X57332D01*
Y164184D01*
D02*
G37*
G36*
X55363D02*
X53631D01*
Y167703D01*
X55363D01*
Y164184D01*
D02*
G37*
G36*
X53395D02*
X51663D01*
Y167703D01*
X53395D01*
Y164184D01*
D02*
G37*
G36*
X61269D02*
X59537D01*
Y167703D01*
X61269D01*
Y164184D01*
D02*
G37*
G36*
X59300D02*
X57568D01*
Y167703D01*
X59300D01*
Y164184D01*
D02*
G37*
%LPC*%
G36*
X56687Y143387D02*
X55113D01*
Y141813D01*
X56687D01*
Y143387D01*
D02*
G37*
G36*
X50487D02*
X48913D01*
Y141813D01*
X50487D01*
Y143387D01*
D02*
G37*
G36*
X53587D02*
X52013D01*
Y141813D01*
X53587D01*
Y143387D01*
D02*
G37*
G36*
X59787D02*
X58213D01*
Y141813D01*
X59787D01*
Y143387D01*
D02*
G37*
G36*
X53587Y161987D02*
X52013D01*
Y160413D01*
X53587D01*
Y161987D01*
D02*
G37*
G36*
X50487D02*
X48913D01*
Y160413D01*
X50487D01*
Y161987D01*
D02*
G37*
G36*
X47387D02*
X45813D01*
Y160413D01*
X47387D01*
Y161987D01*
D02*
G37*
G36*
X62887Y143387D02*
X61313D01*
Y141813D01*
X62887D01*
Y143387D01*
D02*
G37*
G36*
X65987D02*
X64413D01*
Y141813D01*
X65987D01*
Y143387D01*
D02*
G37*
G36*
X69087D02*
X67513D01*
Y141813D01*
X69087D01*
Y143387D01*
D02*
G37*
G36*
X47387D02*
X45813D01*
Y141813D01*
X47387D01*
Y143387D01*
D02*
G37*
G36*
Y140287D02*
X45813D01*
Y138713D01*
X47387D01*
Y140287D01*
D02*
G37*
G36*
X50487D02*
X48913D01*
Y138713D01*
X50487D01*
Y140287D01*
D02*
G37*
G36*
X53587D02*
X52013D01*
Y138713D01*
X53587D01*
Y140287D01*
D02*
G37*
G36*
X69087Y161987D02*
X67513D01*
Y160413D01*
X69087D01*
Y161987D01*
D02*
G37*
G36*
X65987D02*
X64413D01*
Y160413D01*
X65987D01*
Y161987D01*
D02*
G37*
G36*
X62887D02*
X61313D01*
Y160413D01*
X62887D01*
Y161987D01*
D02*
G37*
G36*
X56687Y140287D02*
X55113D01*
Y138713D01*
X56687D01*
Y140287D01*
D02*
G37*
G36*
X69087D02*
X67513D01*
Y138713D01*
X69087D01*
Y140287D01*
D02*
G37*
G36*
X59787Y161987D02*
X58213D01*
Y160413D01*
X59787D01*
Y161987D01*
D02*
G37*
G36*
X56687D02*
X55113D01*
Y160413D01*
X56687D01*
Y161987D01*
D02*
G37*
G36*
X59787Y140287D02*
X58213D01*
Y138713D01*
X59787D01*
Y140287D01*
D02*
G37*
G36*
X62887D02*
X61313D01*
Y138713D01*
X62887D01*
Y140287D01*
D02*
G37*
G36*
X65987D02*
X64413D01*
Y138713D01*
X65987D01*
Y140287D01*
D02*
G37*
G36*
X69087Y152687D02*
X67513D01*
Y151113D01*
X69087D01*
Y152687D01*
D02*
G37*
G36*
X65987D02*
X64413D01*
Y151113D01*
X65987D01*
Y152687D01*
D02*
G37*
G36*
X59787Y158887D02*
X58213D01*
Y157313D01*
X59787D01*
Y158887D01*
D02*
G37*
G36*
X47387Y155787D02*
X45813D01*
Y154213D01*
X47387D01*
Y155787D01*
D02*
G37*
G36*
X56687Y158887D02*
X55113D01*
Y157313D01*
X56687D01*
Y158887D01*
D02*
G37*
G36*
X53587Y152687D02*
X52013D01*
Y151113D01*
X53587D01*
Y152687D01*
D02*
G37*
G36*
X50487D02*
X48913D01*
Y151113D01*
X50487D01*
Y152687D01*
D02*
G37*
G36*
X56687D02*
X55113D01*
Y151113D01*
X56687D01*
Y152687D01*
D02*
G37*
G36*
X62887D02*
X61313D01*
Y151113D01*
X62887D01*
Y152687D01*
D02*
G37*
G36*
X59787D02*
X58213D01*
Y151113D01*
X59787D01*
Y152687D01*
D02*
G37*
G36*
X69087Y155787D02*
X67513D01*
Y154213D01*
X69087D01*
Y155787D01*
D02*
G37*
G36*
X65987D02*
X64413D01*
Y154213D01*
X65987D01*
Y155787D01*
D02*
G37*
G36*
X53587Y158887D02*
X52013D01*
Y157313D01*
X53587D01*
Y158887D01*
D02*
G37*
G36*
X47387D02*
X45813D01*
Y157313D01*
X47387D01*
Y158887D01*
D02*
G37*
G36*
X50487D02*
X48913D01*
Y157313D01*
X50487D01*
Y158887D01*
D02*
G37*
G36*
X53587Y155787D02*
X52013D01*
Y154213D01*
X53587D01*
Y155787D01*
D02*
G37*
G36*
X50487D02*
X48913D01*
Y154213D01*
X50487D01*
Y155787D01*
D02*
G37*
G36*
X56687D02*
X55113D01*
Y154213D01*
X56687D01*
Y155787D01*
D02*
G37*
G36*
X62887D02*
X61313D01*
Y154213D01*
X62887D01*
Y155787D01*
D02*
G37*
G36*
X59787D02*
X58213D01*
Y154213D01*
X59787D01*
Y155787D01*
D02*
G37*
G36*
X65987Y146487D02*
X64413D01*
Y144913D01*
X65987D01*
Y146487D01*
D02*
G37*
G36*
X62887D02*
X61313D01*
Y144913D01*
X62887D01*
Y146487D01*
D02*
G37*
G36*
X69087D02*
X67513D01*
Y144913D01*
X69087D01*
Y146487D01*
D02*
G37*
G36*
X50487Y149587D02*
X48913D01*
Y148013D01*
X50487D01*
Y149587D01*
D02*
G37*
G36*
X47387D02*
X45813D01*
Y148013D01*
X47387D01*
Y149587D01*
D02*
G37*
G36*
X50487Y146487D02*
X48913D01*
Y144913D01*
X50487D01*
Y146487D01*
D02*
G37*
G36*
X47387D02*
X45813D01*
Y144913D01*
X47387D01*
Y146487D01*
D02*
G37*
G36*
X53587D02*
X52013D01*
Y144913D01*
X53587D01*
Y146487D01*
D02*
G37*
G36*
X59787D02*
X58213D01*
Y144913D01*
X59787D01*
Y146487D01*
D02*
G37*
G36*
X56687D02*
X55113D01*
Y144913D01*
X56687D01*
Y146487D01*
D02*
G37*
G36*
X69087Y158887D02*
X67513D01*
Y157313D01*
X69087D01*
Y158887D01*
D02*
G37*
G36*
Y149587D02*
X67513D01*
Y148013D01*
X69087D01*
Y149587D01*
D02*
G37*
G36*
X65987Y158887D02*
X64413D01*
Y157313D01*
X65987D01*
Y158887D01*
D02*
G37*
G36*
X47387Y152687D02*
X45813D01*
Y151113D01*
X47387D01*
Y152687D01*
D02*
G37*
G36*
X62887Y158887D02*
X61313D01*
Y157313D01*
X62887D01*
Y158887D01*
D02*
G37*
G36*
X56687Y149587D02*
X55113D01*
Y148013D01*
X56687D01*
Y149587D01*
D02*
G37*
G36*
X53587D02*
X52013D01*
Y148013D01*
X53587D01*
Y149587D01*
D02*
G37*
G36*
X59787D02*
X58213D01*
Y148013D01*
X59787D01*
Y149587D01*
D02*
G37*
G36*
X65987D02*
X64413D01*
Y148013D01*
X65987D01*
Y149587D01*
D02*
G37*
G36*
X62887D02*
X61313D01*
Y148013D01*
X62887D01*
Y149587D01*
D02*
G37*
%LPD*%
D11*
X290450Y94500D02*
D03*
X283550D02*
D03*
X290450Y81500D02*
D03*
X283550D02*
D03*
X292450Y42000D02*
D03*
X285550D02*
D03*
X292450Y25500D02*
D03*
X285550D02*
D03*
X119550Y24500D02*
D03*
X126450D02*
D03*
X119550Y40000D02*
D03*
X126450D02*
D03*
X117950Y78000D02*
D03*
X124850D02*
D03*
X118050Y93000D02*
D03*
X124950D02*
D03*
X227050Y163325D02*
D03*
X233950D02*
D03*
X175900Y60000D02*
D03*
X169000D02*
D03*
X169050Y48000D02*
D03*
X175950D02*
D03*
Y73500D02*
D03*
X169050D02*
D03*
X184100Y137825D02*
D03*
X191000D02*
D03*
X162450Y86500D02*
D03*
X169350D02*
D03*
X325950Y117000D02*
D03*
X319050D02*
D03*
X247950Y100750D02*
D03*
X241050D02*
D03*
X247950Y86500D02*
D03*
X241050D02*
D03*
X241550Y73500D02*
D03*
X248450D02*
D03*
X237050Y54000D02*
D03*
X243950D02*
D03*
X243950Y43250D02*
D03*
X237050D02*
D03*
X243950Y32000D02*
D03*
X237050D02*
D03*
X204100Y137825D02*
D03*
X211000D02*
D03*
X283550Y144000D02*
D03*
X290450D02*
D03*
X283550Y157000D02*
D03*
X290450D02*
D03*
X364550D02*
D03*
X371450D02*
D03*
X164150Y137825D02*
D03*
X171050D02*
D03*
X162550Y99500D02*
D03*
X169450D02*
D03*
X169050Y34000D02*
D03*
X175950D02*
D03*
D20*
X192500Y47450D02*
D03*
Y40550D02*
D03*
X195500Y109050D02*
D03*
Y115950D02*
D03*
X313500Y136950D02*
D03*
Y130050D02*
D03*
X224000Y109050D02*
D03*
Y115950D02*
D03*
X216000Y47450D02*
D03*
Y40550D02*
D03*
D21*
X150400Y22950D02*
D03*
Y29050D02*
D03*
Y37950D02*
D03*
Y44050D02*
D03*
X144400Y77950D02*
D03*
Y84050D02*
D03*
Y92950D02*
D03*
Y99050D02*
D03*
X267000Y100800D02*
D03*
Y94700D02*
D03*
Y85800D02*
D03*
Y79700D02*
D03*
X260500Y43800D02*
D03*
Y37700D02*
D03*
Y28800D02*
D03*
Y22700D02*
D03*
X248500Y142550D02*
D03*
Y136450D02*
D03*
Y162050D02*
D03*
Y155950D02*
D03*
D22*
X98400Y84750D02*
D03*
Y92250D02*
D03*
X79900Y30500D02*
D03*
Y38000D02*
D03*
X317200Y92250D02*
D03*
Y84750D02*
D03*
X332000Y39750D02*
D03*
Y32250D02*
D03*
D28*
X236400Y137825D02*
D03*
X224600D02*
D03*
D29*
X299240Y130200D02*
D03*
X291760D02*
D03*
D32*
X211000Y157175D02*
D03*
Y152825D02*
D03*
D56*
X217500Y209311D02*
D03*
Y205689D02*
D03*
X228000Y29811D02*
D03*
Y26189D02*
D03*
X186000Y6067D02*
D03*
Y9689D02*
D03*
X164500Y185067D02*
D03*
Y188689D02*
D03*
X62600Y124789D02*
D03*
Y128411D02*
D03*
X160400Y31689D02*
D03*
Y35311D02*
D03*
X154400Y86689D02*
D03*
Y90311D02*
D03*
X50500Y173189D02*
D03*
Y176811D02*
D03*
X55500Y173189D02*
D03*
Y176811D02*
D03*
X57100Y188989D02*
D03*
Y192611D02*
D03*
X258500Y151311D02*
D03*
Y147689D02*
D03*
X256500Y92061D02*
D03*
Y88439D02*
D03*
X251500Y35811D02*
D03*
Y32189D02*
D03*
X71400Y192678D02*
D03*
Y196300D02*
D03*
D57*
X87396Y81717D02*
D03*
Y89000D02*
D03*
Y96284D02*
D03*
X59404D02*
D03*
Y89000D02*
D03*
Y81717D02*
D03*
X330808Y96184D02*
D03*
Y88900D02*
D03*
Y81616D02*
D03*
X358800D02*
D03*
Y88900D02*
D03*
Y96184D02*
D03*
X344608Y43767D02*
D03*
Y36483D02*
D03*
Y29200D02*
D03*
X372600D02*
D03*
Y36483D02*
D03*
Y43767D02*
D03*
X68396Y26717D02*
D03*
Y34000D02*
D03*
Y41284D02*
D03*
X40404D02*
D03*
Y34000D02*
D03*
Y26717D02*
D03*
D58*
X73400Y99295D02*
D03*
Y78705D02*
D03*
X344804Y78605D02*
D03*
Y99195D02*
D03*
X358604Y26188D02*
D03*
Y46779D02*
D03*
X54400Y44295D02*
D03*
Y23705D02*
D03*
D59*
X44655Y134757D02*
D03*
X46623D02*
D03*
X48592D02*
D03*
X50560D02*
D03*
X52529D02*
D03*
X54497D02*
D03*
X56466D02*
D03*
X58434D02*
D03*
X60403D02*
D03*
X62371D02*
D03*
X64340D02*
D03*
X66308D02*
D03*
X68277D02*
D03*
X70245D02*
D03*
Y165944D02*
D03*
X68277D02*
D03*
X66308D02*
D03*
X64340D02*
D03*
X62371D02*
D03*
X60403D02*
D03*
X58434D02*
D03*
X56466D02*
D03*
X54497D02*
D03*
X52529D02*
D03*
X50560D02*
D03*
X48592D02*
D03*
X46623D02*
D03*
X44655D02*
D03*
D60*
X73044Y137551D02*
D03*
Y139521D02*
D03*
Y141490D02*
D03*
Y143458D02*
D03*
Y145428D02*
D03*
Y147397D02*
D03*
Y149365D02*
D03*
Y151335D02*
D03*
Y153304D02*
D03*
Y155272D02*
D03*
Y157241D02*
D03*
Y159211D02*
D03*
Y161179D02*
D03*
Y163148D02*
D03*
X41857D02*
D03*
Y161179D02*
D03*
Y159211D02*
D03*
Y157241D02*
D03*
Y155272D02*
D03*
Y153304D02*
D03*
Y151335D02*
D03*
Y149365D02*
D03*
Y147397D02*
D03*
Y145428D02*
D03*
Y143458D02*
D03*
Y141490D02*
D03*
Y139521D02*
D03*
Y137551D02*
D03*
D61*
X57450Y150350D02*
D03*
D62*
X82311Y136300D02*
D03*
X78689D02*
D03*
X30989Y142600D02*
D03*
X34611D02*
D03*
X31089Y137500D02*
D03*
X34711D02*
D03*
X87311Y171000D02*
D03*
X83689D02*
D03*
X58311Y209000D02*
D03*
X54689D02*
D03*
X84311Y154000D02*
D03*
X80689D02*
D03*
X78000Y172000D02*
D03*
X74378D02*
D03*
X60989Y178300D02*
D03*
X64611D02*
D03*
X41689Y176000D02*
D03*
X45311D02*
D03*
X41878Y171000D02*
D03*
X45500D02*
D03*
X31189Y163000D02*
D03*
X34811D02*
D03*
X84311Y159000D02*
D03*
X80689D02*
D03*
X47689Y182000D02*
D03*
X51311D02*
D03*
X79389Y183400D02*
D03*
X83011D02*
D03*
D63*
X201900Y90130D02*
D03*
X196900D02*
D03*
X191900D02*
D03*
X186900D02*
D03*
Y68870D02*
D03*
X191900D02*
D03*
X196900D02*
D03*
X201900D02*
D03*
X213000Y69120D02*
D03*
X218000D02*
D03*
X223000D02*
D03*
X228000D02*
D03*
Y90380D02*
D03*
X223000D02*
D03*
X218000D02*
D03*
X213000D02*
D03*
X355500Y151455D02*
D03*
X350500D02*
D03*
X345500D02*
D03*
X340500D02*
D03*
Y130195D02*
D03*
X345500D02*
D03*
X350500D02*
D03*
X355500D02*
D03*
D64*
X124634Y209720D02*
D03*
Y217280D02*
D03*
X116366Y213500D02*
D03*
X287366Y12779D02*
D03*
Y5221D02*
D03*
X295634Y9000D02*
D03*
X273366Y125779D02*
D03*
Y118220D02*
D03*
X281634Y122000D02*
D03*
X127634Y57721D02*
D03*
Y65280D02*
D03*
X119366Y61500D02*
D03*
D65*
X51500Y188235D02*
D03*
Y192565D02*
D03*
X54500Y198835D02*
D03*
Y203165D02*
D03*
Y219165D02*
D03*
Y214835D02*
D03*
X164500Y206335D02*
D03*
Y210665D02*
D03*
X185500Y21835D02*
D03*
Y26165D02*
D03*
X228000Y11665D02*
D03*
Y7335D02*
D03*
X217500Y188543D02*
D03*
Y184213D02*
D03*
D66*
X30335Y168500D02*
D03*
X34665D02*
D03*
D67*
X80835Y164500D02*
D03*
X85165D02*
D03*
X61665Y183600D02*
D03*
X57335D02*
D03*
X164335Y197500D02*
D03*
X168665D02*
D03*
X185335Y16000D02*
D03*
X189665D02*
D03*
X228543Y18500D02*
D03*
X224213D02*
D03*
X218165Y197500D02*
D03*
X213835D02*
D03*
D68*
X123661Y126260D02*
D03*
Y133740D02*
D03*
X115000Y130000D02*
D03*
X126331Y5260D02*
D03*
Y12740D02*
D03*
X117669Y9000D02*
D03*
X284669Y178240D02*
D03*
Y170760D02*
D03*
X293331Y174500D02*
D03*
X287669Y62740D02*
D03*
Y55260D02*
D03*
X296331Y59000D02*
D03*
D69*
X375618Y130325D02*
D03*
X365382D02*
D03*
D70*
X295500Y122325D02*
D03*
X201500Y173000D02*
D03*
X193000Y166500D02*
D03*
X215500Y6500D02*
D03*
X198500D02*
D03*
X200000Y186000D02*
D03*
X180500D02*
D03*
X215000Y18500D02*
D03*
X198500D02*
D03*
X200000Y197500D02*
D03*
X180500D02*
D03*
X6500Y135167D02*
D03*
Y127500D02*
D03*
Y119833D02*
D03*
Y112167D02*
D03*
X238500Y7800D02*
D03*
X85500Y210900D02*
D03*
D71*
X210500Y110618D02*
D03*
Y100382D02*
D03*
X205000Y47882D02*
D03*
Y58118D02*
D03*
D72*
X82964Y190046D02*
D03*
Y195754D02*
D03*
X78436D02*
D03*
Y190046D02*
D03*
D73*
X345000Y64800D02*
D03*
X384500Y154274D02*
D03*
X389326Y121278D02*
D03*
X397200Y144900D02*
D03*
X389326Y168522D02*
D03*
X341295D02*
D03*
X329969Y55344D02*
D03*
X322094Y31722D02*
D03*
X329969Y8100D02*
D03*
X378000D02*
D03*
X20500Y167744D02*
D03*
X12626Y144122D02*
D03*
X20500Y120500D02*
D03*
X68532D02*
D03*
X68805Y8478D02*
D03*
X20774D02*
D03*
X12900Y32100D02*
D03*
X20774Y55722D02*
D03*
X73600Y66400D02*
D03*
X47900Y112000D02*
D03*
D74*
X97500Y144000D02*
D03*
Y174000D02*
D03*
X168000Y123000D02*
D03*
X138000D02*
D03*
X122500Y146500D02*
D03*
Y176500D02*
D03*
X322000Y172500D02*
D03*
Y142500D02*
D03*
X244000Y177000D02*
D03*
X274000D02*
D03*
X267500Y164000D02*
D03*
Y134000D02*
D03*
X319500Y49500D02*
D03*
Y19500D02*
D03*
X247500Y62000D02*
D03*
X277500D02*
D03*
X272000Y48000D02*
D03*
Y18000D02*
D03*
X93500Y16500D02*
D03*
Y46500D02*
D03*
X171000Y7000D02*
D03*
X141000D02*
D03*
X140000Y17000D02*
D03*
Y47000D02*
D03*
D75*
X140972Y190685D02*
D03*
X150028Y151315D02*
D03*
D76*
X68300Y139500D02*
D03*
X65200D02*
D03*
X62100D02*
D03*
X59000D02*
D03*
X55900D02*
D03*
X52800D02*
D03*
X49700D02*
D03*
X46600D02*
D03*
X68300Y142600D02*
D03*
X65200D02*
D03*
X62100D02*
D03*
X59000D02*
D03*
X55900D02*
D03*
X52800D02*
D03*
X49700D02*
D03*
X46600D02*
D03*
X68300Y145700D02*
D03*
X65200D02*
D03*
X62100D02*
D03*
X59000D02*
D03*
X55900D02*
D03*
X52800D02*
D03*
X49700D02*
D03*
X46600D02*
D03*
X68300Y148800D02*
D03*
X65200D02*
D03*
X62100D02*
D03*
X59000D02*
D03*
X55900D02*
D03*
X52800D02*
D03*
X49700D02*
D03*
X46600D02*
D03*
X68300Y151900D02*
D03*
X65200D02*
D03*
X62100D02*
D03*
X59000D02*
D03*
X55900D02*
D03*
X52800D02*
D03*
X49700D02*
D03*
X46600D02*
D03*
X68300Y155000D02*
D03*
X65200D02*
D03*
X62100D02*
D03*
X59000D02*
D03*
X55900D02*
D03*
X52800D02*
D03*
X49700D02*
D03*
X46600D02*
D03*
X68300Y158100D02*
D03*
X65200D02*
D03*
X62100D02*
D03*
X59000D02*
D03*
X55900D02*
D03*
X52800D02*
D03*
X49700D02*
D03*
X46600D02*
D03*
X68300Y161200D02*
D03*
X65200D02*
D03*
X62100D02*
D03*
X59000D02*
D03*
X55900D02*
D03*
X52800D02*
D03*
X49700D02*
D03*
X46600D02*
D03*
D77*
X278000Y229660D02*
D03*
X238620D02*
D03*
X155020Y192100D02*
D03*
Y178330D02*
D03*
Y164540D02*
D03*
D78*
X386300Y191400D02*
D03*
Y211085D02*
D03*
Y230770D02*
D03*
D79*
X105000Y5988D02*
D03*
X109000Y144500D02*
D03*
X304500Y198000D02*
D03*
X308000Y62512D02*
D03*
D80*
X105000Y61500D02*
D03*
X109000Y200012D02*
D03*
X304500Y142488D02*
D03*
X308000Y7000D02*
D03*
D81*
X22800Y78100D02*
D03*
X22300Y191200D02*
D03*
X387600Y78015D02*
D03*
D82*
X22800Y97785D02*
D03*
X22300Y210885D02*
D03*
X387600Y97700D02*
D03*
D83*
X400500Y25100D02*
D03*
X130900Y234200D02*
D03*
D84*
X371800Y147000D02*
D03*
X53700Y128700D02*
D03*
X56900Y128800D02*
D03*
X84000Y131800D02*
D03*
X85800Y134500D02*
D03*
X47200Y128800D02*
D03*
X50600D02*
D03*
X275000Y134000D02*
D03*
X282500Y133000D02*
D03*
X145000Y207000D02*
D03*
X227000Y197500D02*
D03*
X210000Y121000D02*
D03*
X223500Y124500D02*
D03*
X210000Y129000D02*
D03*
X307500Y117500D02*
D03*
X279000Y13000D02*
D03*
X238000Y18500D02*
D03*
X217500Y30500D02*
D03*
X205000Y33000D02*
D03*
X192500Y30500D02*
D03*
X180500Y26000D02*
D03*
X176000Y15500D02*
D03*
X235500Y64000D02*
D03*
X160000Y70000D02*
D03*
X147000Y56000D02*
D03*
X135780Y57721D02*
D03*
X131500Y131500D02*
D03*
X103000Y152500D02*
D03*
X90300Y157100D02*
D03*
X93900Y164411D02*
D03*
X89800Y183300D02*
D03*
X41300Y180300D02*
D03*
X36000Y188500D02*
D03*
X73900Y183600D02*
D03*
X72000Y204000D02*
D03*
X43000D02*
D03*
X96000Y112000D02*
D03*
X95500Y104500D02*
D03*
X104000D02*
D03*
X112000D02*
D03*
X128400Y104700D02*
D03*
X136500Y104600D02*
D03*
X144500Y109000D02*
D03*
X153000D02*
D03*
X168000D02*
D03*
X82800Y108600D02*
D03*
X34600Y148100D02*
D03*
X1800Y220000D02*
D03*
X223000Y23700D02*
D03*
X234800Y23300D02*
D03*
X195500Y123900D02*
D03*
X150500Y216000D02*
D03*
X163600Y78400D02*
D03*
D85*
X185400Y106300D02*
D03*
M02*
