G04 Layer_Physical_Order=1*
G04 Layer_Color=255*
%FSLAX25Y25*%
%MOIN*%
G70*
G01*
G75*
%ADD10R,0.02441X0.02362*%
%ADD11R,0.03800X0.03600*%
%ADD12R,0.05984X0.05000*%
%ADD13R,0.12008X0.10000*%
%ADD14R,0.01181X0.02968*%
%ADD15R,0.02968X0.01181*%
%ADD16R,0.25984X0.25984*%
%ADD17R,0.02362X0.02441*%
%ADD18R,0.02559X0.05905*%
%ADD19R,0.04331X0.02559*%
%ADD20R,0.03600X0.03800*%
%ADD21R,0.04200X0.03200*%
%ADD22R,0.05200X0.04800*%
%ADD23R,0.02362X0.02953*%
%ADD24R,0.02756X0.02362*%
%ADD25R,0.02953X0.02362*%
%ADD26R,0.04134X0.02362*%
%ADD27R,0.07087X0.05118*%
%ADD28R,0.05200X0.06700*%
%ADD29R,0.02400X0.06400*%
%ADD30C,0.06000*%
%ADD31R,0.05118X0.07087*%
%ADD32R,0.02565X0.02184*%
%ADD33R,0.03347X0.03740*%
%ADD34C,0.00700*%
%ADD35C,0.02000*%
%ADD36C,0.01000*%
%ADD37C,0.08000*%
%ADD38C,0.07677*%
%ADD39C,0.05512*%
%ADD40C,0.07874*%
%ADD41C,0.02000*%
%ADD42C,0.07874*%
%ADD43C,0.06693*%
%ADD44R,0.06201X0.06201*%
%ADD45C,0.06201*%
%ADD46R,0.07087X0.07087*%
%ADD47C,0.07087*%
G04:AMPARAMS|DCode=48|XSize=160mil|YSize=160mil|CornerRadius=40mil|HoleSize=0mil|Usage=FLASHONLY|Rotation=0.000|XOffset=0mil|YOffset=0mil|HoleType=Round|Shape=RoundedRectangle|*
%AMROUNDEDRECTD48*
21,1,0.16000,0.08000,0,0,0.0*
21,1,0.08000,0.16000,0,0,0.0*
1,1,0.08000,0.04000,-0.04000*
1,1,0.08000,-0.04000,-0.04000*
1,1,0.08000,-0.04000,0.04000*
1,1,0.08000,0.04000,0.04000*
%
%ADD48ROUNDEDRECTD48*%
%ADD49C,0.01600*%
%ADD50C,0.05000*%
G36*
X104880Y141400D02*
X104958Y141009D01*
X105179Y140679D01*
X105509Y140458D01*
X105900Y140380D01*
X112100D01*
X112524Y139954D01*
Y137970D01*
X109527Y134973D01*
X109228Y134527D01*
X109124Y134000D01*
Y129224D01*
X108624Y129016D01*
X97882Y139758D01*
X98062Y140286D01*
X98480Y140341D01*
X99394Y140719D01*
X100179Y141321D01*
X100781Y142106D01*
X100995Y142624D01*
X104880D01*
Y141400D01*
D02*
G37*
G36*
X211416Y195929D02*
X211637Y195598D01*
X211968Y195377D01*
X212358Y195299D01*
X215311D01*
X215701Y195377D01*
X215746Y195407D01*
X216246Y195139D01*
Y193846D01*
X209923Y187523D01*
X204473Y192973D01*
X204027Y193272D01*
X203500Y193376D01*
X201804D01*
X201705Y193876D01*
X202017Y194006D01*
X202853Y194647D01*
X203494Y195483D01*
X203759Y196124D01*
X211378D01*
X211416Y195929D01*
D02*
G37*
G36*
X75743Y193884D02*
X75821Y193494D01*
X76042Y193163D01*
Y192637D01*
X75821Y192306D01*
X75743Y191916D01*
Y190546D01*
X78436D01*
Y189546D01*
X75743D01*
Y188176D01*
X75821Y187785D01*
X76042Y187455D01*
X76373Y187234D01*
X76763Y187156D01*
X77060D01*
Y184776D01*
X75279D01*
X75198Y184898D01*
X74602Y185296D01*
X74039Y185408D01*
X72776Y186670D01*
Y190508D01*
X73011Y190555D01*
X73341Y190776D01*
X73563Y191107D01*
X73640Y191497D01*
Y192178D01*
X71400D01*
X69160D01*
Y191497D01*
X69238Y191107D01*
X69459Y190776D01*
X69789Y190555D01*
X70024Y190508D01*
Y186100D01*
X70128Y185573D01*
X70427Y185127D01*
X72092Y183461D01*
X72204Y182898D01*
X72602Y182302D01*
X73198Y181904D01*
X73400Y181864D01*
Y183600D01*
X74400D01*
Y181864D01*
X74602Y181904D01*
X74781Y182024D01*
X77219D01*
X77266Y181789D01*
X77487Y181459D01*
X77818Y181238D01*
X78208Y181160D01*
X78889D01*
Y183400D01*
X79889D01*
Y181160D01*
X80570D01*
X80960Y181238D01*
X81153Y181366D01*
X81587Y181146D01*
Y180634D01*
X81330Y180376D01*
X72800D01*
X72273Y180272D01*
X71827Y179973D01*
X71827Y179973D01*
X70027Y178173D01*
X69728Y177727D01*
X69624Y177200D01*
Y174570D01*
X68608Y173554D01*
X66776D01*
X66584Y174016D01*
X68115Y175547D01*
X68414Y175994D01*
X68519Y176520D01*
Y194092D01*
X68729Y194257D01*
X69183Y193976D01*
X69160Y193859D01*
Y193178D01*
X71400D01*
X73640D01*
Y193859D01*
X73563Y194249D01*
X73402Y194489D01*
X73563Y194729D01*
X73601Y194924D01*
X75743D01*
Y193884D01*
D02*
G37*
G36*
X87811Y168553D02*
X92092Y164272D01*
X92204Y163709D01*
X92602Y163113D01*
X93198Y162715D01*
X93761Y162603D01*
X95579Y160785D01*
Y154526D01*
X95180Y154126D01*
X89068D01*
X88222Y154973D01*
X87775Y155272D01*
X87248Y155376D01*
X86481D01*
X86434Y155611D01*
X86213Y155941D01*
X85882Y156162D01*
X85688Y156201D01*
Y156799D01*
X85882Y156838D01*
X86213Y157059D01*
X86434Y157389D01*
X86512Y157780D01*
Y158500D01*
X84311D01*
Y159500D01*
X86512D01*
Y160221D01*
X86442Y160569D01*
X86465Y160598D01*
X87005Y160714D01*
X88924Y158795D01*
Y158280D01*
X88604Y157802D01*
X88465Y157100D01*
X88604Y156398D01*
X89002Y155802D01*
X89598Y155404D01*
X90300Y155265D01*
X91002Y155404D01*
X91598Y155802D01*
X91996Y156398D01*
X92135Y157100D01*
X91996Y157802D01*
X91676Y158280D01*
Y159365D01*
X91572Y159892D01*
X91273Y160339D01*
X87661Y163951D01*
Y165681D01*
X87584Y166071D01*
X87363Y166402D01*
X87032Y166623D01*
X86642Y166701D01*
X83689D01*
X83299Y166623D01*
X83000Y166423D01*
X82701Y166623D01*
X82311Y166701D01*
X82069D01*
X81862Y167201D01*
X83421Y168760D01*
X84870D01*
X85260Y168838D01*
X85500Y168998D01*
X85740Y168838D01*
X86130Y168760D01*
X86811D01*
Y171000D01*
X87811D01*
Y168553D01*
D02*
G37*
G36*
X145924Y188431D02*
Y174296D01*
X146028Y173769D01*
X146327Y173322D01*
X150622Y169027D01*
X150622Y169027D01*
X151069Y168728D01*
X151449Y168653D01*
X151612Y168198D01*
X151613Y168149D01*
X151499Y168061D01*
X150707Y167030D01*
X150210Y165829D01*
X150106Y165040D01*
X155020D01*
X159934D01*
X159830Y165829D01*
X159333Y167030D01*
X158541Y168061D01*
X158425Y168150D01*
X158586Y168624D01*
X172430D01*
X175427Y165627D01*
X170229Y160429D01*
X158551D01*
X158390Y160903D01*
X158541Y161019D01*
X159333Y162050D01*
X159830Y163251D01*
X159934Y164040D01*
X155020D01*
X150106D01*
X150210Y163251D01*
X150707Y162050D01*
X151499Y161019D01*
X151650Y160903D01*
X151489Y160429D01*
X147233D01*
X142502Y165161D01*
Y185975D01*
X143462Y186373D01*
X144494Y187164D01*
X145285Y188195D01*
X145424Y188530D01*
X145924Y188431D01*
D02*
G37*
G36*
X32077Y133877D02*
X32524Y133578D01*
X33050Y133474D01*
X43045D01*
Y133272D01*
X43122Y132882D01*
X43343Y132551D01*
X43674Y132330D01*
X44064Y132253D01*
X44155D01*
Y134757D01*
X45155D01*
Y132253D01*
X45245D01*
X45635Y132330D01*
X45639Y132333D01*
X45643Y132330D01*
X46033Y132253D01*
X46123D01*
Y134757D01*
X47123D01*
Y132253D01*
X47214D01*
X47604Y132330D01*
X47607Y132333D01*
X47611Y132330D01*
X48001Y132253D01*
X48092D01*
Y134757D01*
X49092D01*
Y132253D01*
X49182D01*
X49573Y132330D01*
X49576Y132333D01*
X49580Y132330D01*
X49970Y132253D01*
X50060D01*
Y134757D01*
X50918D01*
Y133272D01*
X50996Y132882D01*
X51060Y132786D01*
Y132253D01*
X51151D01*
X51291Y132145D01*
X51334Y131481D01*
X50461Y130608D01*
X49898Y130496D01*
X49302Y130098D01*
X49201Y129946D01*
X48599D01*
X48498Y130098D01*
X47902Y130496D01*
X47200Y130635D01*
X46498Y130496D01*
X45902Y130098D01*
X45504Y129502D01*
X45365Y128800D01*
X45504Y128098D01*
X45902Y127502D01*
X46498Y127104D01*
X47061Y126992D01*
X48877Y125177D01*
X48877Y125177D01*
X49323Y124878D01*
X49850Y124774D01*
X49850Y124774D01*
X57291D01*
X57817Y124878D01*
X58264Y125177D01*
X59759Y126672D01*
X60324Y126590D01*
X60422Y126420D01*
X60438Y126360D01*
X60360Y125970D01*
Y125289D01*
X62600D01*
Y124289D01*
X60360D01*
Y123608D01*
X60438Y123218D01*
X60659Y122887D01*
X60789Y122800D01*
X60637Y122300D01*
X30300D01*
Y114900D01*
X30200Y114800D01*
X12700D01*
Y116420D01*
X12973Y116693D01*
X12973Y116693D01*
X13272Y117140D01*
X13376Y117667D01*
Y120030D01*
X15197Y121850D01*
X15762Y121749D01*
X15781Y121728D01*
X15686Y121000D01*
X20000D01*
Y125314D01*
X19272Y125219D01*
X19251Y125238D01*
X19150Y125803D01*
X22047Y128700D01*
X30200D01*
Y135245D01*
X30700Y135254D01*
X32077Y133877D01*
D02*
G37*
G36*
X171049Y120038D02*
X171067Y120012D01*
X170974Y119543D01*
Y107720D01*
X169730Y106476D01*
X164970D01*
X156395Y115052D01*
X156586Y115514D01*
X162290D01*
X166624Y111180D01*
Y110180D01*
X166304Y109702D01*
X166165Y109000D01*
X166304Y108298D01*
X166702Y107702D01*
X167298Y107304D01*
X168000Y107165D01*
X168702Y107304D01*
X169298Y107702D01*
X169696Y108298D01*
X169835Y109000D01*
X169696Y109702D01*
X169376Y110180D01*
Y111750D01*
X169272Y112277D01*
X168973Y112723D01*
X164641Y117056D01*
X164832Y117518D01*
X165894D01*
X166421Y117622D01*
X166867Y117921D01*
X168182Y119236D01*
X168981Y119341D01*
X169894Y119719D01*
X170502Y120185D01*
X171049Y120038D01*
D02*
G37*
G36*
X263987Y135333D02*
X263841Y134980D01*
X263712Y134000D01*
X263841Y133019D01*
X264219Y132106D01*
X264821Y131321D01*
X265606Y130719D01*
X266124Y130505D01*
Y124087D01*
Y107376D01*
X242570D01*
X237376Y112570D01*
Y127624D01*
X255000D01*
X255527Y127728D01*
X255973Y128027D01*
X263563Y135616D01*
X263987Y135333D01*
D02*
G37*
G36*
X150373Y193781D02*
X150210Y193389D01*
X150040Y192100D01*
X150210Y190811D01*
X150707Y189610D01*
X151123Y189069D01*
X149138Y187085D01*
X148676Y187276D01*
Y192094D01*
X148677Y192094D01*
X148572Y192621D01*
X148273Y193067D01*
X147187Y194153D01*
X146973Y194473D01*
X146973Y194473D01*
X139973Y201473D01*
X139527Y201772D01*
X139000Y201876D01*
X138473Y201772D01*
X138027Y201473D01*
X138027Y201473D01*
X131727Y195173D01*
X131428Y194727D01*
X131324Y194200D01*
Y184866D01*
X131027Y184569D01*
X130876Y184344D01*
X130376Y184496D01*
Y211537D01*
X132616D01*
X150373Y193781D01*
D02*
G37*
G36*
X286123Y135430D02*
Y115500D01*
X286228Y114973D01*
X286527Y114527D01*
X290527Y110527D01*
X290527Y110527D01*
X290752Y110376D01*
X290600Y109876D01*
X286070D01*
X283010Y112936D01*
Y119701D01*
X283799D01*
X284189Y119779D01*
X284520Y120000D01*
X284741Y120330D01*
X284819Y120721D01*
Y123280D01*
X284741Y123670D01*
X284520Y124001D01*
X284189Y124222D01*
X283876Y124284D01*
Y131820D01*
X284196Y132298D01*
X284335Y133000D01*
X284196Y133702D01*
X283798Y134298D01*
X283202Y134696D01*
X282500Y134835D01*
X281798Y134696D01*
X281202Y134298D01*
X280804Y133702D01*
X280665Y133000D01*
X280804Y132298D01*
X281123Y131820D01*
Y124299D01*
X279468D01*
X279078Y124222D01*
X278748Y124001D01*
X278526Y123670D01*
X278449Y123280D01*
Y120721D01*
X278526Y120330D01*
X278748Y120000D01*
X279078Y119779D01*
X279468Y119701D01*
X280257D01*
Y112366D01*
X280362Y111839D01*
X280661Y111393D01*
X284177Y107876D01*
X283970Y107376D01*
X268877D01*
Y120110D01*
X269338Y120302D01*
X270181Y119459D01*
Y116941D01*
X270259Y116551D01*
X270480Y116220D01*
X270811Y115999D01*
X271201Y115921D01*
X275532D01*
X275922Y115999D01*
X276252Y116220D01*
X276473Y116551D01*
X276551Y116941D01*
Y119500D01*
X276473Y119890D01*
X276252Y120221D01*
X275922Y120442D01*
X275532Y120520D01*
X273014D01*
X268877Y124657D01*
Y130505D01*
X269394Y130719D01*
X270179Y131321D01*
X270781Y132106D01*
X271159Y133019D01*
X271288Y134000D01*
X271159Y134980D01*
X270781Y135894D01*
X270221Y136624D01*
X270332Y137124D01*
X284430D01*
X286123Y135430D01*
D02*
G37*
G36*
X342300Y134558D02*
X341800Y134164D01*
X341779Y134168D01*
X339220D01*
X338830Y134090D01*
X338499Y133869D01*
X338279Y133538D01*
X338201Y133148D01*
Y129500D01*
X333377D01*
Y132500D01*
X333377Y132500D01*
X333272Y133027D01*
X332973Y133473D01*
X332973Y133473D01*
X325823Y140624D01*
X326030Y141124D01*
X342300D01*
Y134558D01*
D02*
G37*
G36*
X37534Y150390D02*
X37981Y150091D01*
X38508Y149987D01*
X39328D01*
X39353Y149956D01*
Y148775D01*
X39430Y148385D01*
X39433Y148381D01*
X39430Y148377D01*
X39353Y147987D01*
Y146806D01*
X39430Y146416D01*
X39433Y146412D01*
X39430Y146408D01*
X39353Y146018D01*
Y144837D01*
X39430Y144447D01*
X39433Y144443D01*
X39430Y144439D01*
X39353Y144049D01*
Y142868D01*
X39430Y142478D01*
X39287Y142114D01*
X38796Y141958D01*
X38781Y141973D01*
X38334Y142272D01*
X37807Y142376D01*
X36812D01*
Y143821D01*
X36734Y144211D01*
X36513Y144541D01*
X36182Y144762D01*
X35928Y144813D01*
X35959Y146894D01*
X36296Y147398D01*
X36435Y148100D01*
X36296Y148802D01*
X35898Y149398D01*
X35302Y149796D01*
X34600Y149935D01*
X33898Y149796D01*
X33302Y149398D01*
X32904Y148802D01*
X32765Y148100D01*
X32904Y147398D01*
X33206Y146946D01*
X33176Y144871D01*
X32735Y144646D01*
X32560Y144762D01*
X32170Y144840D01*
X31489D01*
Y142600D01*
X30489D01*
Y144840D01*
X30200D01*
Y149253D01*
X32170Y151224D01*
X36700D01*
X37534Y150390D01*
D02*
G37*
G36*
X312400Y192700D02*
X311938Y192508D01*
X308620Y195827D01*
Y201100D01*
X308542Y201491D01*
X308321Y201821D01*
X307991Y202042D01*
X307600Y202120D01*
X301400D01*
X301009Y202042D01*
X300679Y201821D01*
X300458Y201491D01*
X300380Y201100D01*
Y194900D01*
X300458Y194509D01*
X300679Y194179D01*
X301009Y193958D01*
X301400Y193880D01*
X306673D01*
X312400Y188153D01*
Y158529D01*
X293370D01*
Y158800D01*
X293292Y159190D01*
X293071Y159521D01*
X292740Y159742D01*
X292350Y159820D01*
X288550D01*
X288160Y159742D01*
X287829Y159521D01*
X287608Y159190D01*
X287530Y158800D01*
Y155200D01*
X287608Y154810D01*
X287829Y154479D01*
X288160Y154258D01*
X288550Y154180D01*
X292350D01*
X292740Y154258D01*
X293071Y154479D01*
X293292Y154810D01*
X293370Y155200D01*
Y155471D01*
X324000D01*
X324585Y155587D01*
X324605Y155600D01*
X331284D01*
X331475Y155138D01*
X328867Y152529D01*
X297450D01*
X296865Y152413D01*
X296369Y152081D01*
X291107Y146820D01*
X288550D01*
X288160Y146742D01*
X287829Y146521D01*
X287608Y146190D01*
X287530Y145800D01*
Y142200D01*
X287608Y141810D01*
X287829Y141479D01*
X288160Y141258D01*
X288550Y141180D01*
X292350D01*
X292740Y141258D01*
X293071Y141479D01*
X293292Y141810D01*
X293370Y142200D01*
Y144757D01*
X298083Y149471D01*
X311971D01*
Y139870D01*
X311700D01*
X311310Y139792D01*
X310979Y139571D01*
X310758Y139240D01*
X310680Y138850D01*
Y135050D01*
X310758Y134660D01*
X310979Y134329D01*
X311310Y134108D01*
X311700Y134030D01*
X315300D01*
X315690Y134108D01*
X316021Y134329D01*
X316242Y134660D01*
X316320Y135050D01*
Y138850D01*
X316242Y139240D01*
X316021Y139571D01*
X315690Y139792D01*
X315300Y139870D01*
X315029D01*
Y149471D01*
X329500D01*
X330085Y149587D01*
X330581Y149919D01*
X335633Y154971D01*
X337838D01*
X338213Y154471D01*
X338201Y154408D01*
Y151955D01*
X340500D01*
Y151455D01*
X341000D01*
Y147483D01*
X341779D01*
X341800Y147487D01*
X342300Y147092D01*
Y143876D01*
X325495D01*
X325281Y144394D01*
X324679Y145179D01*
X323894Y145781D01*
X322980Y146159D01*
X322000Y146288D01*
X321020Y146159D01*
X320106Y145781D01*
X319321Y145179D01*
X318719Y144394D01*
X318341Y143481D01*
X318212Y142500D01*
X318341Y141519D01*
X318719Y140606D01*
X319321Y139821D01*
X320106Y139219D01*
X321020Y138841D01*
X322000Y138712D01*
X322980Y138841D01*
X323498Y139055D01*
X330624Y131930D01*
Y129500D01*
X316320D01*
Y131950D01*
X316242Y132340D01*
X316021Y132671D01*
X315690Y132892D01*
X315300Y132970D01*
X311700D01*
X311310Y132892D01*
X310979Y132671D01*
X310758Y132340D01*
X310680Y131950D01*
Y131576D01*
X301460D01*
Y133400D01*
X301382Y133790D01*
X301161Y134121D01*
X300830Y134342D01*
X300440Y134420D01*
X298040D01*
X297650Y134342D01*
X297319Y134121D01*
X297098Y133790D01*
X297021Y133400D01*
Y127000D01*
X297098Y126610D01*
X297168Y126505D01*
X296837Y126101D01*
X296544Y126222D01*
X295500Y126359D01*
X294456Y126222D01*
X294163Y126101D01*
X293832Y126505D01*
X293902Y126610D01*
X293979Y127000D01*
Y129700D01*
X292260D01*
Y125980D01*
X292872D01*
X293000Y125775D01*
X293055Y125491D01*
X292647Y125178D01*
X292006Y124342D01*
X291603Y123369D01*
X291465Y122325D01*
X291603Y121281D01*
X292006Y120308D01*
X292647Y119472D01*
X293483Y118831D01*
X294456Y118428D01*
X295500Y118290D01*
X296544Y118428D01*
X297517Y118831D01*
X298353Y119472D01*
X298994Y120308D01*
X299397Y121281D01*
X299535Y122325D01*
X299397Y123369D01*
X298994Y124342D01*
X298353Y125178D01*
X297945Y125491D01*
X298000Y125775D01*
X298128Y125980D01*
X300440D01*
X300830Y126058D01*
X301161Y126279D01*
X301382Y126610D01*
X301460Y127000D01*
Y128824D01*
X310680D01*
Y128150D01*
X310758Y127760D01*
X310979Y127429D01*
X311310Y127208D01*
X311700Y127130D01*
X311900D01*
Y118876D01*
X308680D01*
X308202Y119196D01*
X307500Y119335D01*
X306798Y119196D01*
X306202Y118798D01*
X305804Y118202D01*
X305665Y117500D01*
X305804Y116798D01*
X306202Y116202D01*
X306798Y115804D01*
X307500Y115665D01*
X308202Y115804D01*
X308680Y116124D01*
X311900D01*
Y112876D01*
X292070D01*
X288877Y116070D01*
Y136000D01*
X288772Y136527D01*
X288473Y136973D01*
X288473Y136973D01*
X285973Y139473D01*
X285527Y139772D01*
X285000Y139876D01*
X282220D01*
X282068Y140376D01*
X282131Y140419D01*
X282893Y141180D01*
X285450D01*
X285840Y141258D01*
X286171Y141479D01*
X286392Y141810D01*
X286470Y142200D01*
Y145800D01*
X286392Y146190D01*
X286171Y146521D01*
X285840Y146742D01*
X285450Y146820D01*
X281650D01*
X281260Y146742D01*
X280929Y146521D01*
X280708Y146190D01*
X280630Y145800D01*
Y143243D01*
X280416Y143029D01*
X260029D01*
Y145550D01*
X260111Y145566D01*
X260441Y145787D01*
X260662Y146118D01*
X260740Y146508D01*
Y148870D01*
X260662Y149260D01*
X260502Y149500D01*
X260662Y149740D01*
X260740Y150130D01*
Y152492D01*
X260662Y152882D01*
X260441Y153213D01*
X260111Y153434D01*
X260029Y153450D01*
Y155471D01*
X280630D01*
Y155200D01*
X280708Y154810D01*
X280929Y154479D01*
X281260Y154258D01*
X281650Y154180D01*
X285450D01*
X285840Y154258D01*
X286171Y154479D01*
X286392Y154810D01*
X286470Y155200D01*
Y158800D01*
X286392Y159190D01*
X286171Y159521D01*
X285840Y159742D01*
X285450Y159820D01*
X281650D01*
X281260Y159742D01*
X280929Y159521D01*
X280708Y159190D01*
X280630Y158800D01*
Y158529D01*
X260134D01*
X259581Y159081D01*
X259581Y159081D01*
X255531Y163131D01*
X255035Y163463D01*
X254450Y163579D01*
X251620D01*
Y163650D01*
X251542Y164040D01*
X251321Y164371D01*
X250990Y164592D01*
X250600Y164670D01*
X246463D01*
X246360Y164738D01*
X245775Y164855D01*
X236870D01*
Y165125D01*
X236792Y165515D01*
X236571Y165846D01*
X236240Y166067D01*
X235850Y166145D01*
X232050D01*
X231660Y166067D01*
X231329Y165846D01*
X231108Y165515D01*
X231030Y165125D01*
Y161525D01*
X231108Y161135D01*
X231329Y160804D01*
X231660Y160583D01*
X232050Y160506D01*
X235850D01*
X236240Y160583D01*
X236571Y160804D01*
X236792Y161135D01*
X236870Y161525D01*
Y161796D01*
X245141D01*
X245380Y161557D01*
Y160450D01*
X245458Y160060D01*
X245679Y159729D01*
X246010Y159508D01*
X246400Y159430D01*
X250600D01*
X250990Y159508D01*
X251321Y159729D01*
X251542Y160060D01*
X251620Y160450D01*
Y160521D01*
X253817D01*
X256971Y157367D01*
Y153450D01*
X256889Y153434D01*
X256559Y153213D01*
X256338Y152882D01*
X256260Y152492D01*
Y150130D01*
X256338Y149740D01*
X256498Y149500D01*
X256338Y149260D01*
X256260Y148870D01*
Y146508D01*
X256338Y146118D01*
X256559Y145787D01*
X256889Y145566D01*
X256971Y145550D01*
Y142000D01*
X257031Y141694D01*
X253316Y137979D01*
X251620D01*
Y138050D01*
X251542Y138440D01*
X251321Y138771D01*
X250990Y138992D01*
X250600Y139070D01*
X247962D01*
X247710Y139238D01*
X247125Y139355D01*
X240020D01*
Y141175D01*
X239942Y141565D01*
X239721Y141896D01*
X239390Y142117D01*
X239000Y142195D01*
X233800D01*
X233410Y142117D01*
X233079Y141896D01*
X232858Y141565D01*
X232780Y141175D01*
Y134475D01*
X232858Y134085D01*
X233079Y133754D01*
X233410Y133533D01*
X233800Y133456D01*
X239000D01*
X239390Y133533D01*
X239721Y133754D01*
X239942Y134085D01*
X240020Y134475D01*
Y136296D01*
X245380D01*
Y134850D01*
X245458Y134460D01*
X245679Y134129D01*
X246010Y133908D01*
X246400Y133830D01*
X250600D01*
X250990Y133908D01*
X251321Y134129D01*
X251542Y134460D01*
X251620Y134850D01*
Y134921D01*
X253950D01*
X254535Y135037D01*
X255031Y135369D01*
X259633Y139971D01*
X263371D01*
X263524Y139482D01*
X263524Y139471D01*
X254430Y130376D01*
X220000D01*
X220000Y130377D01*
X219473Y130272D01*
X219027Y129973D01*
X211430Y122376D01*
X211180D01*
X210702Y122696D01*
X210000Y122835D01*
X209298Y122696D01*
X208702Y122298D01*
X208304Y121702D01*
X208165Y121000D01*
X208304Y120298D01*
X208624Y119820D01*
Y115181D01*
X207941D01*
X207551Y115103D01*
X207220Y114882D01*
X206999Y114552D01*
X206921Y114161D01*
Y107075D01*
X206999Y106685D01*
X207220Y106354D01*
X207551Y106133D01*
X207941Y106055D01*
X213059D01*
X213449Y106133D01*
X213780Y106354D01*
X214001Y106685D01*
X214079Y107075D01*
Y114161D01*
X214001Y114552D01*
X213780Y114882D01*
X213449Y115103D01*
X213059Y115181D01*
X211377D01*
Y119624D01*
X212000D01*
X212527Y119728D01*
X212973Y120027D01*
X220570Y127624D01*
X234624D01*
Y112000D01*
X234728Y111473D01*
X235027Y111027D01*
X241027Y105027D01*
X241473Y104728D01*
X242000Y104624D01*
X311900D01*
Y96539D01*
X293322D01*
X293292Y96690D01*
X293071Y97021D01*
X292740Y97242D01*
X292350Y97320D01*
X290950D01*
Y94500D01*
Y91680D01*
X292350D01*
X292740Y91758D01*
X293071Y91979D01*
X293292Y92310D01*
X293322Y92461D01*
X311900D01*
Y83539D01*
X293322D01*
X293292Y83690D01*
X293071Y84021D01*
X292740Y84242D01*
X292350Y84320D01*
X288550D01*
X288160Y84242D01*
X287829Y84021D01*
X287608Y83690D01*
X287530Y83300D01*
Y79700D01*
X287608Y79310D01*
X287829Y78979D01*
X288160Y78758D01*
X288550Y78680D01*
X292350D01*
X292740Y78758D01*
X293071Y78979D01*
X293292Y79310D01*
X293322Y79461D01*
X311900D01*
Y66882D01*
X311732Y66747D01*
X311400Y66572D01*
X311100Y66632D01*
X304900D01*
X304509Y66554D01*
X304179Y66333D01*
X303958Y66002D01*
X303880Y65612D01*
Y59411D01*
X303958Y59021D01*
X304179Y58691D01*
X304509Y58469D01*
X304900Y58392D01*
X310173D01*
X311900Y56665D01*
Y41279D01*
X295370D01*
Y43800D01*
X295292Y44190D01*
X295071Y44521D01*
X294740Y44742D01*
X294350Y44820D01*
X290550D01*
X290160Y44742D01*
X289829Y44521D01*
X289608Y44190D01*
X289530Y43800D01*
Y40200D01*
X289608Y39810D01*
X289829Y39479D01*
X290160Y39258D01*
X290550Y39180D01*
X293107D01*
X293619Y38669D01*
X294115Y38337D01*
X294700Y38221D01*
X311900D01*
Y27029D01*
X295370D01*
Y27300D01*
X295292Y27690D01*
X295071Y28021D01*
X294740Y28242D01*
X294350Y28320D01*
X292950D01*
Y25500D01*
Y22680D01*
X294350D01*
X294740Y22758D01*
X295071Y22979D01*
X295292Y23310D01*
X295370Y23700D01*
Y23971D01*
X311900D01*
Y20876D01*
X306134D01*
X305607Y20772D01*
X305161Y20473D01*
X295986Y11299D01*
X293468D01*
X293078Y11221D01*
X292748Y11000D01*
X292527Y10670D01*
X292449Y10279D01*
Y7721D01*
X292527Y7330D01*
X292748Y7000D01*
X293078Y6779D01*
X293468Y6701D01*
X297799D01*
X298189Y6779D01*
X298520Y7000D01*
X298741Y7330D01*
X298819Y7721D01*
Y10238D01*
X306704Y18124D01*
X311900D01*
Y9474D01*
X311400Y9305D01*
X310924Y9924D01*
X310068Y10582D01*
X309070Y10995D01*
X308500Y11070D01*
Y7000D01*
Y2930D01*
X309070Y3005D01*
X310068Y3418D01*
X310924Y4076D01*
X311400Y4695D01*
X311900Y4526D01*
Y1529D01*
X108765D01*
X108616Y2029D01*
X108821Y2167D01*
X109042Y2498D01*
X109120Y2888D01*
Y9089D01*
X109042Y9479D01*
X108821Y9809D01*
X108491Y10031D01*
X108100Y10108D01*
X101900D01*
X101849Y10098D01*
X96945Y15002D01*
X97159Y15519D01*
X97288Y16500D01*
X97159Y17481D01*
X96781Y18394D01*
X96179Y19179D01*
X96000Y19316D01*
Y28971D01*
X112917D01*
X116630Y25257D01*
Y25000D01*
X119050D01*
Y27320D01*
X118893D01*
X114631Y31581D01*
X114135Y31913D01*
X113550Y32029D01*
X96000D01*
Y36471D01*
X117550D01*
X118135Y36587D01*
X118631Y36919D01*
X118893Y37180D01*
X121450D01*
X121840Y37258D01*
X122171Y37479D01*
X122392Y37810D01*
X122470Y38200D01*
Y41800D01*
X122392Y42190D01*
X122171Y42521D01*
X121840Y42742D01*
X121450Y42820D01*
X117650D01*
X117260Y42742D01*
X116929Y42521D01*
X116708Y42190D01*
X116630Y41800D01*
Y39529D01*
X96000D01*
Y43684D01*
X96179Y43821D01*
X96781Y44606D01*
X96995Y45124D01*
X104366D01*
X104893Y45228D01*
X105339Y45527D01*
X117528Y57715D01*
X117990Y57524D01*
Y55634D01*
X118095Y55107D01*
X118393Y54661D01*
X121527Y51527D01*
X121973Y51228D01*
X122500Y51123D01*
X122500Y51124D01*
X138900D01*
X139020Y50659D01*
X138106Y50281D01*
X137321Y49679D01*
X136719Y48894D01*
X136341Y47980D01*
X136212Y47000D01*
X136341Y46020D01*
X136719Y45106D01*
X137321Y44321D01*
X138106Y43719D01*
X139020Y43341D01*
X140000Y43212D01*
X140981Y43341D01*
X141894Y43719D01*
X142679Y44321D01*
X143281Y45106D01*
X143495Y45624D01*
X144353D01*
X144880Y45728D01*
X145327Y46027D01*
X152473Y53173D01*
X152772Y53620D01*
X152876Y54147D01*
X152876Y54147D01*
Y62800D01*
X152772Y63327D01*
X152473Y63773D01*
X152473Y63773D01*
X151197Y65050D01*
X162870Y76723D01*
X162898Y76704D01*
X163600Y76565D01*
X164302Y76704D01*
X164898Y77102D01*
X165296Y77698D01*
X165435Y78400D01*
X165296Y79102D01*
X164898Y79698D01*
X164302Y80096D01*
X163600Y80235D01*
X162898Y80096D01*
X162344Y79725D01*
X162073Y79672D01*
X161627Y79373D01*
X161627Y79373D01*
X148909Y66656D01*
X130799D01*
X130741Y66949D01*
X130520Y67280D01*
X130189Y67501D01*
X129799Y67579D01*
X125469D01*
X125078Y67501D01*
X124748Y67280D01*
X124527Y66949D01*
X124449Y66559D01*
Y64000D01*
X124527Y63610D01*
X124748Y63279D01*
X125078Y63058D01*
X125469Y62980D01*
X129799D01*
X130189Y63058D01*
X130520Y63279D01*
X130741Y63610D01*
X130799Y63903D01*
X148450D01*
X150124Y62230D01*
Y54717D01*
X143957Y48550D01*
X143389Y48632D01*
X143281Y48894D01*
X142679Y49679D01*
X141894Y50281D01*
X140981Y50659D01*
X141075Y51138D01*
X141092Y51142D01*
X141186Y51136D01*
X141353Y51194D01*
X141527Y51228D01*
X141605Y51280D01*
X141694Y51311D01*
X146691Y54226D01*
X147000Y54165D01*
X147702Y54304D01*
X148298Y54702D01*
X148696Y55298D01*
X148835Y56000D01*
X148696Y56702D01*
X148298Y57298D01*
X147702Y57696D01*
X147000Y57835D01*
X146298Y57696D01*
X145702Y57298D01*
X145304Y56702D01*
X145282Y56592D01*
X140628Y53876D01*
X123070D01*
X120743Y56204D01*
Y59201D01*
X121531D01*
X121922Y59279D01*
X122252Y59500D01*
X122474Y59830D01*
X122551Y60220D01*
Y62779D01*
X122474Y63170D01*
X122252Y63500D01*
X121922Y63722D01*
X121531Y63799D01*
X117201D01*
X116811Y63722D01*
X116480Y63500D01*
X116259Y63170D01*
X116181Y62779D01*
Y60262D01*
X103796Y47876D01*
X96995D01*
X96781Y48394D01*
X96179Y49179D01*
X96000Y49316D01*
Y79803D01*
X96147Y79833D01*
X96808Y80275D01*
X97864Y81330D01*
X99657D01*
X104069Y76919D01*
X104565Y76587D01*
X105150Y76471D01*
X115030D01*
Y76200D01*
X115108Y75810D01*
X115329Y75479D01*
X115660Y75258D01*
X116050Y75180D01*
X119850D01*
X120240Y75258D01*
X120571Y75479D01*
X120792Y75810D01*
X120870Y76200D01*
Y79800D01*
X120792Y80190D01*
X120571Y80521D01*
X120240Y80742D01*
X119850Y80820D01*
X116050D01*
X115660Y80742D01*
X115329Y80521D01*
X115108Y80190D01*
X115030Y79800D01*
Y79529D01*
X105783D01*
X102020Y83293D01*
Y87150D01*
X101942Y87540D01*
X101721Y87871D01*
X101390Y88092D01*
X101000Y88170D01*
X96000D01*
Y88830D01*
X97900D01*
Y92250D01*
Y95670D01*
X97864D01*
X96000Y97534D01*
Y102764D01*
X96202Y102804D01*
X96756Y103174D01*
X97027Y103228D01*
X97473Y103527D01*
X101873Y107927D01*
X102172Y108373D01*
X102276Y108900D01*
Y111680D01*
X102738Y111871D01*
X105624Y108986D01*
Y108070D01*
X103861Y106308D01*
X103298Y106196D01*
X102702Y105798D01*
X102304Y105202D01*
X102165Y104500D01*
X102304Y103798D01*
X102702Y103202D01*
X103298Y102804D01*
X104000Y102665D01*
X104702Y102804D01*
X105298Y103202D01*
X105696Y103798D01*
X105808Y104361D01*
X107973Y106527D01*
X108272Y106973D01*
X108376Y107500D01*
Y107984D01*
X108838Y108175D01*
X110624Y106390D01*
Y105680D01*
X110304Y105202D01*
X110165Y104500D01*
X110304Y103798D01*
X110702Y103202D01*
X111298Y102804D01*
X112000Y102665D01*
X112702Y102804D01*
X113298Y103202D01*
X113696Y103798D01*
X113835Y104500D01*
X113696Y105202D01*
X113376Y105680D01*
Y106960D01*
X113272Y107487D01*
X112973Y107933D01*
X91633Y129273D01*
X91187Y129572D01*
X90660Y129676D01*
X84918D01*
X84810Y130176D01*
X85298Y130502D01*
X85696Y131098D01*
X85835Y131800D01*
X85759Y132185D01*
X85790Y132553D01*
X86121Y132729D01*
X86502Y132804D01*
X87098Y133202D01*
X87386Y133633D01*
X87960Y133766D01*
X117999Y103727D01*
X117999Y103727D01*
X118446Y103428D01*
X118973Y103324D01*
X127220D01*
X127698Y103004D01*
X128400Y102865D01*
X129102Y103004D01*
X129698Y103402D01*
X130096Y103998D01*
X130235Y104700D01*
X130096Y105402D01*
X129698Y105998D01*
X129102Y106396D01*
X128459Y106524D01*
X128508Y107024D01*
X131029D01*
X134743Y104205D01*
X134804Y103898D01*
X135202Y103302D01*
X135798Y102904D01*
X136500Y102765D01*
X137202Y102904D01*
X137798Y103302D01*
X138196Y103898D01*
X138335Y104600D01*
X138196Y105302D01*
X137798Y105898D01*
X137202Y106296D01*
X136500Y106435D01*
X136388Y106413D01*
X132325Y109496D01*
X132166Y109574D01*
X132019Y109672D01*
X131927Y109690D01*
X131842Y109731D01*
X131666Y109742D01*
X131492Y109776D01*
X118556D01*
X118468Y109903D01*
X118729Y110403D01*
X128812D01*
X128869Y110414D01*
X141139D01*
X142692Y108861D01*
X142804Y108298D01*
X143202Y107702D01*
X143798Y107304D01*
X144500Y107165D01*
X145202Y107304D01*
X145798Y107702D01*
X146196Y108298D01*
X146335Y109000D01*
X146196Y109702D01*
X145798Y110298D01*
X145202Y110696D01*
X144639Y110808D01*
X143795Y111652D01*
X143986Y112114D01*
X147940D01*
X151192Y108861D01*
X151304Y108298D01*
X151702Y107702D01*
X152298Y107304D01*
X153000Y107165D01*
X153702Y107304D01*
X154298Y107702D01*
X154696Y108298D01*
X154835Y109000D01*
X154696Y109702D01*
X154298Y110298D01*
X153702Y110696D01*
X153139Y110808D01*
X150595Y113352D01*
X150786Y113814D01*
X153740D01*
X163427Y104127D01*
X163427Y104127D01*
X163873Y103828D01*
X164400Y103724D01*
X164400Y103724D01*
X170300D01*
X170827Y103828D01*
X171273Y104127D01*
X173323Y106177D01*
X173622Y106623D01*
X173726Y107150D01*
X173726Y107150D01*
Y118973D01*
X182377Y127624D01*
X208820D01*
X209298Y127304D01*
X210000Y127165D01*
X210702Y127304D01*
X211298Y127702D01*
X211696Y128298D01*
X211835Y129000D01*
X211696Y129702D01*
X211298Y130298D01*
X210702Y130696D01*
X210000Y130835D01*
X209298Y130696D01*
X208820Y130376D01*
X181807D01*
X181280Y130272D01*
X180833Y129973D01*
X180833Y129973D01*
X171683Y120823D01*
X171281Y121106D01*
X171659Y122020D01*
X171788Y123000D01*
X171659Y123980D01*
X171281Y124894D01*
X170679Y125679D01*
X169894Y126281D01*
X168981Y126659D01*
X168000Y126788D01*
X167019Y126659D01*
X166106Y126281D01*
X165321Y125679D01*
X164719Y124894D01*
X164341Y123980D01*
X164212Y123000D01*
X164341Y122020D01*
X164719Y121106D01*
X164977Y120771D01*
X164730Y120271D01*
X141270D01*
X141024Y120771D01*
X141281Y121106D01*
X141659Y122020D01*
X141788Y123000D01*
X141659Y123980D01*
X141281Y124894D01*
X140679Y125679D01*
X139894Y126281D01*
X138980Y126659D01*
X138000Y126788D01*
X137020Y126659D01*
X136502Y126445D01*
X135714Y127233D01*
X135267Y127532D01*
X134740Y127636D01*
X126709D01*
X126670Y127831D01*
X126449Y128162D01*
X126119Y128383D01*
X125728Y128461D01*
X121595D01*
X121204Y128383D01*
X120873Y128162D01*
X120652Y127831D01*
X120575Y127441D01*
Y125079D01*
X120652Y124689D01*
X120873Y124358D01*
X121204Y124137D01*
X121595Y124059D01*
X125728D01*
X126119Y124137D01*
X126449Y124358D01*
X126670Y124689D01*
X126709Y124883D01*
X134170D01*
X134555Y124498D01*
X134341Y123980D01*
X134212Y123000D01*
X134341Y122020D01*
X134719Y121106D01*
X134976Y120771D01*
X134730Y120271D01*
X121157D01*
X114090Y127337D01*
X114281Y127799D01*
X117067D01*
X117457Y127877D01*
X117788Y128098D01*
X118009Y128429D01*
X118087Y128819D01*
Y131181D01*
X118009Y131571D01*
X117788Y131902D01*
X117457Y132123D01*
X117276Y132159D01*
Y145124D01*
X119005D01*
X119219Y144606D01*
X119821Y143821D01*
X120606Y143219D01*
X121519Y142841D01*
X122500Y142712D01*
X123480Y142841D01*
X124394Y143219D01*
X125179Y143821D01*
X125781Y144606D01*
X126159Y145519D01*
X126288Y146500D01*
X126159Y147480D01*
X125781Y148394D01*
X125179Y149179D01*
X124394Y149781D01*
X123480Y150159D01*
X122500Y150288D01*
X121519Y150159D01*
X120606Y149781D01*
X119821Y149179D01*
X119219Y148394D01*
X119005Y147876D01*
X117276D01*
Y182830D01*
X125607Y191161D01*
X125607Y191161D01*
X125906Y191607D01*
X126010Y192134D01*
Y207421D01*
X126799D01*
X127123Y207486D01*
X127285Y207430D01*
X127624Y207188D01*
Y183570D01*
X123998Y179945D01*
X123480Y180159D01*
X122500Y180288D01*
X121519Y180159D01*
X120606Y179781D01*
X119821Y179179D01*
X119219Y178394D01*
X118841Y177480D01*
X118712Y176500D01*
X118841Y175520D01*
X119219Y174606D01*
X119821Y173821D01*
X120606Y173219D01*
X121519Y172841D01*
X122500Y172712D01*
X123480Y172841D01*
X124394Y173219D01*
X125179Y173821D01*
X125781Y174606D01*
X126159Y175520D01*
X126288Y176500D01*
X126159Y177480D01*
X125945Y177998D01*
X129973Y182027D01*
X130124Y182252D01*
X130624Y182100D01*
Y133079D01*
X130202Y132798D01*
X129804Y132202D01*
X129665Y131500D01*
X129804Y130798D01*
X130202Y130202D01*
X130798Y129804D01*
X131500Y129665D01*
X132202Y129804D01*
X132798Y130202D01*
X133196Y130798D01*
X133335Y131500D01*
X133306Y131647D01*
X133377Y132000D01*
X133376Y132000D01*
Y183026D01*
X133673Y183323D01*
X133972Y183769D01*
X134076Y184296D01*
Y193630D01*
X139000Y198553D01*
X141478Y196076D01*
X141472Y196065D01*
Y190685D01*
X140972D01*
Y190185D01*
X136059D01*
X136162Y189396D01*
X136660Y188195D01*
X137451Y187164D01*
X138483Y186373D01*
X139443Y185975D01*
Y164528D01*
X139559Y163942D01*
X139891Y163446D01*
X143675Y159662D01*
X143484Y159200D01*
X136500D01*
Y131700D01*
X218900D01*
Y136296D01*
X220980D01*
Y134475D01*
X221058Y134085D01*
X221279Y133754D01*
X221610Y133533D01*
X222000Y133456D01*
X227200D01*
X227590Y133533D01*
X227921Y133754D01*
X228142Y134085D01*
X228220Y134475D01*
Y141175D01*
X228142Y141565D01*
X227921Y141896D01*
X227590Y142117D01*
X227200Y142195D01*
X222000D01*
X221610Y142117D01*
X221279Y141896D01*
X221058Y141565D01*
X220980Y141175D01*
Y139355D01*
X218900D01*
Y161796D01*
X224130D01*
Y161525D01*
X224208Y161135D01*
X224429Y160804D01*
X224760Y160583D01*
X225150Y160506D01*
X226550D01*
Y163325D01*
Y166145D01*
X225150D01*
X224760Y166067D01*
X224429Y165846D01*
X224208Y165515D01*
X224130Y165125D01*
Y164855D01*
X218900D01*
Y165744D01*
X228779Y175624D01*
X237623D01*
X241326Y171921D01*
X241326Y171921D01*
X241773Y171622D01*
X242299Y171518D01*
X245701D01*
X246228Y171622D01*
X246674Y171921D01*
X250377Y175624D01*
X270505D01*
X270719Y175106D01*
X271321Y174321D01*
X272106Y173719D01*
X273020Y173341D01*
X274000Y173212D01*
X274980Y173341D01*
X275894Y173719D01*
X276679Y174321D01*
X277281Y175106D01*
X277495Y175624D01*
X283429D01*
X283956Y175728D01*
X284402Y176027D01*
X284415Y176040D01*
X286736D01*
X287126Y176117D01*
X287457Y176338D01*
X287678Y176669D01*
X287756Y177059D01*
Y179421D01*
X287678Y179811D01*
X287457Y180142D01*
X287126Y180363D01*
X286736Y180441D01*
X282602D01*
X282212Y180363D01*
X281881Y180142D01*
X281660Y179811D01*
X281583Y179421D01*
Y178376D01*
X277495D01*
X277281Y178894D01*
X276679Y179679D01*
X275894Y180281D01*
X274980Y180659D01*
X274000Y180788D01*
X273020Y180659D01*
X272106Y180281D01*
X271321Y179679D01*
X270719Y178894D01*
X270505Y178376D01*
X249807D01*
X249280Y178272D01*
X248833Y177973D01*
X248833Y177973D01*
X248242Y177382D01*
X247714Y177561D01*
X247659Y177980D01*
X247281Y178894D01*
X246679Y179679D01*
X245894Y180281D01*
X244981Y180659D01*
X244000Y180788D01*
X243020Y180659D01*
X242106Y180281D01*
X241321Y179679D01*
X240719Y178894D01*
X240341Y177980D01*
X240286Y177561D01*
X239758Y177382D01*
X239167Y177973D01*
X238720Y178272D01*
X238193Y178376D01*
X232130D01*
X231938Y178838D01*
X275000Y221900D01*
Y222000D01*
X312400D01*
Y192700D01*
D02*
G37*
G36*
X39589Y180923D02*
X39564Y180800D01*
X41300D01*
Y179800D01*
X39564D01*
X39604Y179598D01*
X40002Y179002D01*
X40409Y178730D01*
X40304Y178200D01*
X40118Y178162D01*
X39787Y177941D01*
X39566Y177611D01*
X39488Y177220D01*
Y176500D01*
X41689D01*
Y175500D01*
X39488D01*
Y174779D01*
X39566Y174389D01*
X39787Y174059D01*
X40118Y173838D01*
X40312Y173799D01*
Y173164D01*
X40307Y173162D01*
X39976Y172941D01*
X39755Y172611D01*
X39715Y172407D01*
X32728D01*
X32728Y172408D01*
X32201Y172303D01*
X31755Y172004D01*
X31755Y172004D01*
X30700Y170949D01*
X30200Y171157D01*
Y177653D01*
X33970Y181424D01*
X39354D01*
X39589Y180923D01*
D02*
G37*
G36*
X112430Y244441D02*
X47863D01*
Y237354D01*
X51800D01*
Y234583D01*
X55383Y230992D01*
Y222000D01*
X53572D01*
Y230244D01*
X51259Y232591D01*
X39202D01*
Y237354D01*
X43139D01*
Y240504D01*
X20304D01*
Y229992D01*
X51800D01*
Y222000D01*
X51800D01*
X51800Y198600D01*
X48900Y198600D01*
Y184265D01*
X48870Y184240D01*
X48189D01*
Y182000D01*
X47189D01*
Y184240D01*
X46508D01*
X46118Y184162D01*
X45787Y183941D01*
X45566Y183611D01*
X45488Y183221D01*
Y182337D01*
X45026Y182145D01*
X44376Y182795D01*
Y202820D01*
X44696Y203298D01*
X44835Y204000D01*
X44696Y204702D01*
X44298Y205298D01*
X43702Y205696D01*
X43000Y205835D01*
X42298Y205696D01*
X41702Y205298D01*
X41304Y204702D01*
X41165Y204000D01*
X41304Y203298D01*
X41624Y202820D01*
Y184176D01*
X34276D01*
X34085Y184638D01*
X36139Y186692D01*
X36702Y186804D01*
X37298Y187202D01*
X37696Y187798D01*
X37835Y188500D01*
X37696Y189202D01*
X37298Y189798D01*
X36702Y190196D01*
X36000Y190335D01*
X35298Y190196D01*
X34702Y189798D01*
X34304Y189202D01*
X34192Y188639D01*
X30662Y185108D01*
X30200Y185300D01*
Y219000D01*
X4385D01*
X4116Y219500D01*
X4136Y219600D01*
X2400D01*
Y220600D01*
X4136D01*
X4096Y220802D01*
X3698Y221398D01*
X3545Y221500D01*
X3696Y222000D01*
X39202D01*
Y224913D01*
X11721D01*
Y249205D01*
X112430D01*
Y244441D01*
D02*
G37*
G36*
X100880Y7173D02*
Y2888D01*
X100958Y2498D01*
X101179Y2167D01*
X101384Y2029D01*
X101235Y1529D01*
X96000D01*
Y11400D01*
X96462Y11592D01*
X100880Y7173D01*
D02*
G37*
G36*
X243900Y221500D02*
X221276Y198876D01*
X220622D01*
X220584Y199071D01*
X220363Y199402D01*
X220032Y199623D01*
X219642Y199701D01*
X218877D01*
Y203519D01*
X219111Y203566D01*
X219441Y203787D01*
X219662Y204118D01*
X219740Y204508D01*
Y206870D01*
X219662Y207260D01*
X219502Y207500D01*
X219662Y207740D01*
X219740Y208130D01*
Y208811D01*
X217500D01*
X215260D01*
Y208130D01*
X215338Y207740D01*
X215498Y207500D01*
X215338Y207260D01*
X215260Y206870D01*
Y204508D01*
X215338Y204118D01*
X215559Y203787D01*
X215889Y203566D01*
X216124Y203519D01*
Y199942D01*
X215873Y199753D01*
X215623Y199638D01*
X215311Y199701D01*
X212358D01*
X211968Y199623D01*
X211637Y199402D01*
X211416Y199071D01*
X211378Y198876D01*
X203759D01*
X203494Y199517D01*
X202853Y200353D01*
X202017Y200994D01*
X201044Y201397D01*
X200000Y201535D01*
X198956Y201397D01*
X197983Y200994D01*
X197147Y200353D01*
X196506Y199517D01*
X196103Y198544D01*
X195966Y197500D01*
X196103Y196456D01*
X196506Y195483D01*
X197147Y194647D01*
X197983Y194006D01*
X198295Y193876D01*
X198196Y193376D01*
X194070D01*
X175808Y211639D01*
X175361Y211937D01*
X174835Y212042D01*
X166701D01*
Y212142D01*
X166623Y212532D01*
X166402Y212863D01*
X166071Y213084D01*
X165681Y213161D01*
X163407D01*
X159595Y216973D01*
X159149Y217272D01*
X158622Y217376D01*
X151680D01*
X151202Y217696D01*
X150500Y217835D01*
X149798Y217696D01*
X149202Y217298D01*
X148804Y216702D01*
X148665Y216000D01*
X148804Y215298D01*
X149202Y214702D01*
X149798Y214304D01*
X150500Y214165D01*
X151202Y214304D01*
X151680Y214623D01*
X158052D01*
X162299Y210376D01*
Y209189D01*
X162377Y208799D01*
X162577Y208500D01*
X162377Y208201D01*
X162299Y207811D01*
Y204858D01*
X162377Y204468D01*
X162598Y204137D01*
X162929Y203916D01*
X163124Y203877D01*
Y199701D01*
X162858D01*
X162468Y199623D01*
X162137Y199402D01*
X162053Y199394D01*
X153473Y207973D01*
X153027Y208272D01*
X152500Y208377D01*
X146180D01*
X145702Y208696D01*
X145000Y208835D01*
X144298Y208696D01*
X143702Y208298D01*
X143304Y207702D01*
X143165Y207000D01*
X143304Y206298D01*
X143702Y205702D01*
X144298Y205304D01*
X145000Y205165D01*
X145702Y205304D01*
X146180Y205624D01*
X151930D01*
X161027Y196527D01*
X161473Y196228D01*
X161872Y196149D01*
X161916Y195929D01*
X162137Y195598D01*
X162468Y195377D01*
X162858Y195299D01*
X163124D01*
Y190859D01*
X162889Y190812D01*
X162559Y190591D01*
X162338Y190260D01*
X162260Y189870D01*
Y187508D01*
X162338Y187118D01*
X162498Y186878D01*
X162338Y186638D01*
X162260Y186248D01*
Y185567D01*
X166740D01*
Y186248D01*
X166662Y186638D01*
X166502Y186878D01*
X166662Y187118D01*
X166740Y187508D01*
Y189870D01*
X166662Y190260D01*
X166441Y190591D01*
X166111Y190812D01*
X165876Y190859D01*
Y195312D01*
X166201Y195377D01*
X166500Y195577D01*
X166799Y195377D01*
X167189Y195299D01*
X170142D01*
X170532Y195377D01*
X170863Y195598D01*
X171084Y195929D01*
X171123Y196124D01*
X176741D01*
X177006Y195483D01*
X177647Y194647D01*
X178483Y194006D01*
X179456Y193603D01*
X180500Y193465D01*
X181544Y193603D01*
X182517Y194006D01*
X183353Y194647D01*
X183994Y195483D01*
X184397Y196456D01*
X184535Y197500D01*
X184411Y198435D01*
X184701Y198643D01*
X184859Y198694D01*
X192527Y191027D01*
X192973Y190728D01*
X193500Y190624D01*
X202930D01*
X207977Y185577D01*
X202700Y180300D01*
X190100D01*
X189506Y179706D01*
X159794D01*
X159333Y180820D01*
X158541Y181851D01*
X157510Y182642D01*
X156309Y183140D01*
X155020Y183310D01*
X153731Y183140D01*
X152530Y182642D01*
X151499Y181851D01*
X150876Y181040D01*
X150376Y181210D01*
Y184430D01*
X153382Y187435D01*
X153731Y187290D01*
X155020Y187120D01*
X156309Y187290D01*
X157510Y187787D01*
X158541Y188579D01*
X159333Y189610D01*
X159830Y190811D01*
X160000Y192100D01*
X159830Y193389D01*
X159333Y194590D01*
X158541Y195621D01*
X157510Y196413D01*
X156309Y196910D01*
X155020Y197080D01*
X153731Y196910D01*
X152530Y196413D01*
X152023Y196023D01*
X134160Y213887D01*
X133713Y214185D01*
X133187Y214290D01*
X129570D01*
X127819Y216041D01*
Y218559D01*
X127741Y218949D01*
X127520Y219280D01*
X127189Y219501D01*
X126799Y219579D01*
X122468D01*
X122078Y219501D01*
X121748Y219280D01*
X121527Y218949D01*
X121449Y218559D01*
Y216000D01*
X121527Y215610D01*
X121748Y215279D01*
X122078Y215058D01*
X122468Y214980D01*
X124986D01*
X127318Y212649D01*
X127304Y212390D01*
X126799Y212020D01*
X122468D01*
X122078Y211942D01*
X121748Y211721D01*
X121527Y211390D01*
X121449Y211000D01*
Y208441D01*
X121527Y208051D01*
X121748Y207720D01*
X122078Y207499D01*
X122468Y207421D01*
X123257D01*
Y192704D01*
X114927Y184373D01*
X114628Y183927D01*
X114524Y183400D01*
Y159576D01*
X114062Y159385D01*
X100945Y172502D01*
X101159Y173020D01*
X101288Y174000D01*
X101159Y174980D01*
X100781Y175894D01*
X100179Y176679D01*
X99394Y177281D01*
X98876Y177495D01*
Y204930D01*
X106070Y212123D01*
X113200D01*
X113259Y211830D01*
X113480Y211500D01*
X113811Y211279D01*
X114201Y211201D01*
X118532D01*
X118922Y211279D01*
X119252Y211500D01*
X119474Y211830D01*
X119551Y212221D01*
Y214779D01*
X119474Y215170D01*
X119252Y215500D01*
X118922Y215722D01*
X118532Y215799D01*
X114201D01*
X113811Y215722D01*
X113480Y215500D01*
X113259Y215170D01*
X113200Y214877D01*
X105500D01*
X105500Y214877D01*
X104973Y214772D01*
X104527Y214473D01*
X96527Y206473D01*
X96228Y206027D01*
X96124Y205500D01*
Y177495D01*
X95606Y177281D01*
X94821Y176679D01*
X94219Y175894D01*
X93841Y174980D01*
X93712Y174000D01*
X93766Y173588D01*
X93292Y173354D01*
X90273Y176373D01*
X89827Y176672D01*
X89300Y176776D01*
X83778D01*
X83778Y176777D01*
X83252Y176672D01*
X82805Y176373D01*
X82805Y176373D01*
X80331Y173899D01*
X79902Y173941D01*
X79571Y174162D01*
X79181Y174240D01*
X78500D01*
Y172000D01*
X77500D01*
Y174240D01*
X76819D01*
X76429Y174162D01*
X76189Y174002D01*
X75949Y174162D01*
X75559Y174240D01*
X73197D01*
X72877Y174176D01*
X72690Y174248D01*
X72376Y174476D01*
Y176630D01*
X73370Y177624D01*
X81900D01*
X82427Y177728D01*
X82873Y178027D01*
X83937Y179090D01*
X84236Y179537D01*
X84340Y180064D01*
Y181189D01*
X84582Y181238D01*
X84913Y181459D01*
X85134Y181789D01*
X85212Y182179D01*
Y184620D01*
X85134Y185011D01*
X84913Y185341D01*
X84582Y185562D01*
X84340Y185611D01*
Y187156D01*
X84637D01*
X85027Y187234D01*
X85358Y187455D01*
X85579Y187785D01*
X85657Y188176D01*
Y191916D01*
X85579Y192306D01*
X85358Y192637D01*
Y193163D01*
X85579Y193494D01*
X85657Y193884D01*
Y195254D01*
X82964D01*
Y195754D01*
X82464D01*
Y198644D01*
X81291D01*
X80900Y198566D01*
X80700Y198433D01*
X80500Y198566D01*
X80110Y198644D01*
X76763D01*
X76373Y198566D01*
X76042Y198345D01*
X75821Y198015D01*
X75754Y197676D01*
X73601D01*
X73563Y197871D01*
X73341Y198202D01*
X73011Y198423D01*
X72620Y198501D01*
X70179D01*
X69789Y198423D01*
X69459Y198202D01*
X69238Y197871D01*
X69199Y197676D01*
X68700D01*
X68700Y197677D01*
X68157Y198078D01*
X68143Y198196D01*
X72139Y202192D01*
X72702Y202304D01*
X73180Y202624D01*
X86530D01*
X88617Y200536D01*
X88437Y184500D01*
X88104Y184002D01*
X87965Y183300D01*
X88104Y182598D01*
X88502Y182002D01*
X89098Y181604D01*
X89800Y181465D01*
X90502Y181604D01*
X91098Y182002D01*
X91496Y182598D01*
X91635Y183300D01*
X91496Y184002D01*
X91190Y184460D01*
X91376Y201084D01*
X91375Y201092D01*
X91376Y201100D01*
X91325Y201356D01*
X91277Y201612D01*
X91273Y201619D01*
X91272Y201627D01*
X91127Y201844D01*
X90984Y202062D01*
X90978Y202067D01*
X90973Y202073D01*
X88073Y204973D01*
X87627Y205272D01*
X87100Y205377D01*
X86876D01*
Y207141D01*
X87517Y207406D01*
X88353Y208047D01*
X88994Y208883D01*
X89397Y209856D01*
X89534Y210900D01*
X89397Y211944D01*
X88994Y212917D01*
X88353Y213753D01*
X87517Y214394D01*
X86544Y214797D01*
X85500Y214934D01*
X84456Y214797D01*
X83483Y214394D01*
X82647Y213753D01*
X82006Y212917D01*
X81603Y211944D01*
X81466Y210900D01*
X81603Y209856D01*
X82006Y208883D01*
X82647Y208047D01*
X83483Y207406D01*
X84124Y207141D01*
Y205377D01*
X73180D01*
X72702Y205696D01*
X72000Y205835D01*
X71298Y205696D01*
X70702Y205298D01*
X70304Y204702D01*
X70192Y204139D01*
X64338Y198284D01*
X64039Y197838D01*
X63935Y197311D01*
Y186055D01*
X63777Y185925D01*
X63435Y185742D01*
X63142Y185801D01*
X62165D01*
Y183600D01*
X61165D01*
Y185801D01*
X60200D01*
Y198500D01*
X57454Y198500D01*
X57100Y198854D01*
Y206735D01*
X57130Y206760D01*
X57811D01*
Y209000D01*
Y211240D01*
X57130D01*
X57100Y211265D01*
Y222000D01*
X243759D01*
X243900Y221500D01*
D02*
G37*
G36*
X112524Y157030D02*
Y149046D01*
X112100Y148620D01*
X105900D01*
X105509Y148542D01*
X105179Y148321D01*
X104958Y147991D01*
X104880Y147600D01*
Y145376D01*
X100995D01*
X100781Y145894D01*
X100179Y146679D01*
X99394Y147281D01*
X98480Y147659D01*
X97500Y147788D01*
X96520Y147659D01*
X95606Y147281D01*
X94821Y146679D01*
X94219Y145894D01*
X93841Y144981D01*
X93786Y144562D01*
X93258Y144382D01*
X88428Y149212D01*
X88620Y149674D01*
X97550D01*
X98077Y149778D01*
X98523Y150077D01*
X100370Y151924D01*
X101279D01*
X101304Y151798D01*
X101702Y151202D01*
X102298Y150804D01*
X103000Y150665D01*
X103702Y150804D01*
X104298Y151202D01*
X104696Y151798D01*
X104835Y152500D01*
X104696Y153202D01*
X104298Y153798D01*
X103702Y154196D01*
X103115Y154312D01*
X102727Y154572D01*
X102200Y154676D01*
X101176D01*
Y164900D01*
X101072Y165427D01*
X100773Y165873D01*
X96854Y169792D01*
X97088Y170266D01*
X97500Y170212D01*
X98480Y170341D01*
X98998Y170555D01*
X112524Y157030D01*
D02*
G37*
G36*
X186292Y176492D02*
X183676Y173876D01*
X158147D01*
X157977Y174376D01*
X158541Y174809D01*
X159333Y175840D01*
X159794Y176953D01*
X186100D01*
X186292Y176492D01*
D02*
G37*
G36*
X181694Y201859D02*
X181643Y201701D01*
X181435Y201411D01*
X180500Y201535D01*
X179456Y201397D01*
X178483Y200994D01*
X177647Y200353D01*
X177006Y199517D01*
X176741Y198876D01*
X171123D01*
X171084Y199071D01*
X170863Y199402D01*
X170532Y199623D01*
X170142Y199701D01*
X167189D01*
X166799Y199623D01*
X166500Y199423D01*
X166201Y199623D01*
X165876Y199688D01*
Y203877D01*
X166071Y203916D01*
X166402Y204137D01*
X166623Y204468D01*
X166701Y204858D01*
Y207811D01*
X166623Y208201D01*
X166423Y208500D01*
X166623Y208799D01*
X166701Y209189D01*
Y209289D01*
X174265D01*
X181694Y201859D01*
D02*
G37*
%LPC*%
G36*
X20000Y120000D02*
X15686D01*
X15786Y119237D01*
X16274Y118060D01*
X17049Y117049D01*
X18060Y116273D01*
X19237Y115786D01*
X20000Y115685D01*
Y120000D01*
D02*
G37*
G36*
X25315D02*
X21000D01*
Y115685D01*
X21763Y115786D01*
X22940Y116273D01*
X23951Y117049D01*
X24726Y118060D01*
X25214Y119237D01*
X25315Y120000D01*
D02*
G37*
G36*
X21000Y125314D02*
Y121000D01*
X25315D01*
X25214Y121763D01*
X24726Y122940D01*
X23951Y123951D01*
X22940Y124726D01*
X21763Y125214D01*
X21000Y125314D01*
D02*
G37*
G36*
X275000Y135835D02*
X274298Y135696D01*
X273702Y135298D01*
X273304Y134702D01*
X273165Y134000D01*
X273304Y133298D01*
X273623Y132820D01*
Y128079D01*
X271201D01*
X270811Y128001D01*
X270480Y127780D01*
X270259Y127449D01*
X270181Y127059D01*
Y124500D01*
X270259Y124110D01*
X270480Y123779D01*
X270811Y123558D01*
X271201Y123480D01*
X275532D01*
X275922Y123558D01*
X276252Y123779D01*
X276473Y124110D01*
X276551Y124500D01*
Y127059D01*
X276473Y127449D01*
X276377Y127594D01*
Y132820D01*
X276696Y133298D01*
X276835Y134000D01*
X276696Y134702D01*
X276298Y135298D01*
X275702Y135696D01*
X275000Y135835D01*
D02*
G37*
G36*
X277500Y65788D02*
X276519Y65659D01*
X275606Y65281D01*
X274821Y64679D01*
X274219Y63894D01*
X273841Y62981D01*
X273712Y62000D01*
X273841Y61019D01*
X274219Y60106D01*
X274821Y59321D01*
X275606Y58719D01*
X276519Y58341D01*
X277500Y58212D01*
X278481Y58341D01*
X279394Y58719D01*
X280179Y59321D01*
X280781Y60106D01*
X280995Y60624D01*
X285203D01*
X285212Y60617D01*
X285602Y60540D01*
X289736D01*
X290126Y60617D01*
X290457Y60838D01*
X290678Y61169D01*
X290756Y61559D01*
Y63921D01*
X290678Y64311D01*
X290457Y64642D01*
X290126Y64863D01*
X289736Y64941D01*
X285602D01*
X285212Y64863D01*
X284881Y64642D01*
X284660Y64311D01*
X284583Y63921D01*
Y63376D01*
X280995D01*
X280781Y63894D01*
X280179Y64679D01*
X279394Y65281D01*
X278481Y65659D01*
X277500Y65788D01*
D02*
G37*
G36*
X287169Y54760D02*
X284583D01*
Y54079D01*
X284660Y53689D01*
X284881Y53358D01*
X285212Y53137D01*
X285602Y53059D01*
X287169D01*
Y54760D01*
D02*
G37*
G36*
X290756D02*
X288169D01*
Y53059D01*
X289736D01*
X290126Y53137D01*
X290457Y53358D01*
X290678Y53689D01*
X290756Y54079D01*
Y54760D01*
D02*
G37*
G36*
X170950Y50820D02*
X167150D01*
X166760Y50742D01*
X166429Y50521D01*
X166208Y50190D01*
X166130Y49800D01*
Y47243D01*
X164467Y45579D01*
X153520D01*
Y45650D01*
X153442Y46040D01*
X153221Y46371D01*
X152890Y46592D01*
X152500Y46670D01*
X148300D01*
X147910Y46592D01*
X147579Y46371D01*
X147358Y46040D01*
X147280Y45650D01*
Y45579D01*
X146050D01*
X145465Y45463D01*
X144969Y45131D01*
X141367Y41529D01*
X129370D01*
Y41800D01*
X129292Y42190D01*
X129071Y42521D01*
X128740Y42742D01*
X128350Y42820D01*
X124550D01*
X124160Y42742D01*
X123829Y42521D01*
X123608Y42190D01*
X123530Y41800D01*
Y38200D01*
X123608Y37810D01*
X123829Y37479D01*
X124160Y37258D01*
X124550Y37180D01*
X128350D01*
X128740Y37258D01*
X129071Y37479D01*
X129292Y37810D01*
X129370Y38200D01*
Y38471D01*
X142000D01*
X142585Y38587D01*
X143081Y38919D01*
X146684Y42521D01*
X147280D01*
Y42450D01*
X147358Y42060D01*
X147579Y41729D01*
X147910Y41508D01*
X148300Y41430D01*
X152500D01*
X152890Y41508D01*
X153221Y41729D01*
X153442Y42060D01*
X153520Y42450D01*
Y42521D01*
X158471D01*
Y37221D01*
X158459Y37213D01*
X158238Y36882D01*
X158160Y36492D01*
Y34130D01*
X158238Y33740D01*
X158398Y33500D01*
X158238Y33260D01*
X158160Y32870D01*
Y30508D01*
X158238Y30118D01*
X158459Y29787D01*
X158789Y29566D01*
X158871Y29550D01*
Y24479D01*
X153520D01*
Y24550D01*
X153442Y24940D01*
X153221Y25271D01*
X152890Y25492D01*
X152500Y25570D01*
X149943D01*
X149931Y25581D01*
X149435Y25913D01*
X149348Y25930D01*
X149397Y26430D01*
X149900D01*
Y28550D01*
X147280D01*
Y27450D01*
X147358Y27060D01*
X147579Y26729D01*
X147878Y26529D01*
X147883Y26493D01*
X147603Y26029D01*
X129370D01*
Y26300D01*
X129292Y26690D01*
X129071Y27021D01*
X128740Y27242D01*
X128350Y27320D01*
X124550D01*
X124160Y27242D01*
X123829Y27021D01*
X123608Y26690D01*
X123530Y26300D01*
Y22700D01*
X123608Y22310D01*
X123829Y21979D01*
X124160Y21758D01*
X124550Y21680D01*
X128350D01*
X128740Y21758D01*
X129071Y21979D01*
X129292Y22310D01*
X129370Y22700D01*
Y22971D01*
X147280D01*
Y21350D01*
X147358Y20960D01*
X147579Y20629D01*
X147910Y20408D01*
X148300Y20330D01*
X152500D01*
X152890Y20408D01*
X153221Y20629D01*
X153442Y20960D01*
X153520Y21350D01*
Y21421D01*
X164950D01*
X165535Y21537D01*
X166031Y21869D01*
X170131Y25969D01*
X170463Y26465D01*
X170579Y27050D01*
Y31180D01*
X170950D01*
X171340Y31258D01*
X171671Y31479D01*
X171892Y31810D01*
X171970Y32200D01*
Y35800D01*
X171892Y36190D01*
X171671Y36521D01*
X171340Y36742D01*
X170950Y36820D01*
X167150D01*
X166760Y36742D01*
X166429Y36521D01*
X166208Y36190D01*
X166130Y35800D01*
Y32200D01*
X166208Y31810D01*
X166429Y31479D01*
X166760Y31258D01*
X167150Y31180D01*
X167521D01*
Y27683D01*
X164316Y24479D01*
X161929D01*
Y29550D01*
X162011Y29566D01*
X162341Y29787D01*
X162562Y30118D01*
X162640Y30508D01*
Y32870D01*
X162562Y33260D01*
X162402Y33500D01*
X162562Y33740D01*
X162640Y34130D01*
Y36492D01*
X162562Y36882D01*
X162341Y37213D01*
X162011Y37434D01*
X161620Y37512D01*
X161529D01*
Y42521D01*
X165100D01*
X165685Y42637D01*
X166181Y42969D01*
X168393Y45180D01*
X170950D01*
X171340Y45258D01*
X171671Y45479D01*
X171892Y45810D01*
X171970Y46200D01*
Y49800D01*
X171892Y50190D01*
X171671Y50521D01*
X171340Y50742D01*
X170950Y50820D01*
D02*
G37*
G36*
X298398Y61201D02*
X294264D01*
X293874Y61123D01*
X293543Y60902D01*
X293322Y60571D01*
X293244Y60181D01*
Y57819D01*
X293322Y57429D01*
X293543Y57098D01*
X293874Y56877D01*
X294264Y56799D01*
X294954D01*
Y53901D01*
X292930Y51876D01*
X274500D01*
X273973Y51772D01*
X273527Y51473D01*
X273527Y51473D01*
X273498Y51445D01*
X272980Y51659D01*
X272000Y51788D01*
X271020Y51659D01*
X270106Y51281D01*
X269321Y50679D01*
X268719Y49894D01*
X268341Y48981D01*
X268212Y48000D01*
X268341Y47019D01*
X268719Y46106D01*
X269321Y45321D01*
X270106Y44719D01*
X271020Y44341D01*
X272000Y44212D01*
X272980Y44341D01*
X273894Y44719D01*
X274679Y45321D01*
X275281Y46106D01*
X275659Y47019D01*
X275788Y48000D01*
X275706Y48623D01*
X276110Y49124D01*
X293500D01*
X294027Y49228D01*
X294473Y49527D01*
X297304Y52357D01*
X297602Y52804D01*
X297707Y53331D01*
X297707Y53331D01*
Y56799D01*
X298398D01*
X298788Y56877D01*
X299119Y57098D01*
X299340Y57429D01*
X299417Y57819D01*
Y60181D01*
X299340Y60571D01*
X299119Y60902D01*
X298788Y61123D01*
X298398Y61201D01*
D02*
G37*
G36*
X287169Y57460D02*
X285602D01*
X285212Y57383D01*
X284881Y57162D01*
X284660Y56831D01*
X284583Y56441D01*
Y55760D01*
X287169D01*
Y57460D01*
D02*
G37*
G36*
X104500Y61000D02*
X100930D01*
X101005Y60430D01*
X101418Y59432D01*
X102076Y58576D01*
X102932Y57918D01*
X103930Y57505D01*
X104500Y57430D01*
Y61000D01*
D02*
G37*
G36*
X109070D02*
X105500D01*
Y57430D01*
X106070Y57505D01*
X107068Y57918D01*
X107924Y58576D01*
X108582Y59432D01*
X108995Y60430D01*
X109070Y61000D01*
D02*
G37*
G36*
X289736Y57460D02*
X288169D01*
Y55760D01*
X290756D01*
Y56441D01*
X290678Y56831D01*
X290457Y57162D01*
X290126Y57383D01*
X289736Y57460D01*
D02*
G37*
G36*
X129799Y60020D02*
X125469D01*
X125078Y59942D01*
X124748Y59721D01*
X124527Y59390D01*
X124449Y59000D01*
Y56441D01*
X124527Y56051D01*
X124748Y55720D01*
X125078Y55499D01*
X125469Y55421D01*
X129799D01*
X130189Y55499D01*
X130520Y55720D01*
X130741Y56051D01*
X130799Y56344D01*
X134600D01*
X135077Y56025D01*
X135780Y55885D01*
X136482Y56025D01*
X137077Y56423D01*
X137475Y57018D01*
X137615Y57721D01*
X137475Y58423D01*
X137077Y59018D01*
X136482Y59416D01*
X135780Y59556D01*
X135077Y59416D01*
X134600Y59097D01*
X130799D01*
X130741Y59390D01*
X130520Y59721D01*
X130189Y59942D01*
X129799Y60020D01*
D02*
G37*
G36*
X104500Y65570D02*
X103930Y65495D01*
X102932Y65082D01*
X102076Y64424D01*
X101418Y63568D01*
X101005Y62570D01*
X100930Y62000D01*
X104500D01*
Y65570D01*
D02*
G37*
G36*
X186400Y89630D02*
X184601D01*
Y87177D01*
X184678Y86787D01*
X184899Y86456D01*
X185230Y86235D01*
X185620Y86158D01*
X186400D01*
Y89630D01*
D02*
G37*
G36*
X270120Y94200D02*
X267000D01*
X263880D01*
Y93100D01*
X263958Y92709D01*
X264179Y92379D01*
X264510Y92158D01*
X264900Y92080D01*
X265623D01*
Y88419D01*
X264900D01*
X264510Y88342D01*
X264179Y88121D01*
X263958Y87790D01*
X263880Y87400D01*
Y86300D01*
X267000D01*
X270120D01*
Y87400D01*
X270042Y87790D01*
X269821Y88121D01*
X269490Y88342D01*
X269100Y88419D01*
X268376D01*
Y92080D01*
X269100D01*
X269490Y92158D01*
X269821Y92379D01*
X270042Y92709D01*
X270120Y93100D01*
Y94200D01*
D02*
G37*
G36*
Y85300D02*
X267500D01*
Y83180D01*
X269100D01*
X269490Y83258D01*
X269821Y83479D01*
X270042Y83809D01*
X270120Y84200D01*
Y85300D01*
D02*
G37*
G36*
X147520Y92450D02*
X144400D01*
X141280D01*
Y91350D01*
X141358Y90960D01*
X141579Y90629D01*
X141910Y90408D01*
X142300Y90330D01*
X143024D01*
Y86670D01*
X142300D01*
X141910Y86592D01*
X141579Y86371D01*
X141358Y86040D01*
X141280Y85650D01*
Y84550D01*
X144400D01*
X147520D01*
Y85650D01*
X147442Y86040D01*
X147221Y86371D01*
X146890Y86592D01*
X146500Y86670D01*
X145776D01*
Y90330D01*
X146500D01*
X146890Y90408D01*
X147221Y90629D01*
X147442Y90960D01*
X147520Y91350D01*
Y92450D01*
D02*
G37*
G36*
X249850Y103569D02*
X246050D01*
X245660Y103492D01*
X245329Y103271D01*
X245108Y102940D01*
X245030Y102550D01*
Y98950D01*
X245108Y98559D01*
X245329Y98229D01*
X245660Y98008D01*
X246050Y97930D01*
X249850D01*
X250240Y98008D01*
X250571Y98229D01*
X250792Y98559D01*
X250869Y98950D01*
Y99270D01*
X254971D01*
Y94200D01*
X254889Y94184D01*
X254558Y93963D01*
X254338Y93632D01*
X254260Y93242D01*
Y90879D01*
X254338Y90489D01*
X254498Y90250D01*
X254338Y90010D01*
X254260Y89620D01*
Y87257D01*
X254338Y86867D01*
X254558Y86537D01*
X254889Y86316D01*
X254971Y86299D01*
Y82296D01*
X254509Y82104D01*
X250870Y85743D01*
Y88300D01*
X250792Y88690D01*
X250571Y89021D01*
X250240Y89242D01*
X249850Y89320D01*
X246050D01*
X245660Y89242D01*
X245329Y89021D01*
X245108Y88690D01*
X245030Y88300D01*
Y84700D01*
X245108Y84310D01*
X245329Y83979D01*
X245660Y83758D01*
X246050Y83680D01*
X248607D01*
X253669Y78618D01*
X254165Y78287D01*
X254750Y78170D01*
X263880D01*
Y78100D01*
X263958Y77709D01*
X264179Y77379D01*
X264510Y77158D01*
X264900Y77080D01*
X269100D01*
X269490Y77158D01*
X269821Y77379D01*
X270042Y77709D01*
X270120Y78100D01*
Y78170D01*
X281750D01*
X282335Y78287D01*
X282831Y78618D01*
X282893Y78680D01*
X285450D01*
X285840Y78758D01*
X286171Y78979D01*
X286392Y79310D01*
X286470Y79700D01*
Y83300D01*
X286392Y83690D01*
X286171Y84021D01*
X285840Y84242D01*
X285450Y84320D01*
X281650D01*
X281260Y84242D01*
X280929Y84021D01*
X280708Y83690D01*
X280630Y83300D01*
Y81229D01*
X270120D01*
Y81300D01*
X270042Y81690D01*
X269821Y82021D01*
X269490Y82242D01*
X269100Y82319D01*
X264900D01*
X264510Y82242D01*
X264179Y82021D01*
X263958Y81690D01*
X263880Y81300D01*
Y81229D01*
X258029D01*
Y86299D01*
X258111Y86316D01*
X258441Y86537D01*
X258662Y86867D01*
X258740Y87257D01*
Y89620D01*
X258662Y90010D01*
X258502Y90250D01*
X258662Y90489D01*
X258740Y90879D01*
Y93242D01*
X258662Y93632D01*
X258441Y93963D01*
X258111Y94184D01*
X258029Y94200D01*
Y99270D01*
X263880D01*
Y99200D01*
X263958Y98809D01*
X264179Y98479D01*
X264510Y98258D01*
X264900Y98180D01*
X269100D01*
X269490Y98258D01*
X269821Y98479D01*
X270042Y98809D01*
X270120Y99200D01*
Y99270D01*
X274167D01*
X280019Y93419D01*
X280515Y93087D01*
X280630Y93064D01*
Y92700D01*
X280708Y92310D01*
X280929Y91979D01*
X281260Y91758D01*
X281650Y91680D01*
X285450D01*
X285840Y91758D01*
X286171Y91979D01*
X286392Y92310D01*
X286470Y92700D01*
Y96300D01*
X286392Y96690D01*
X286171Y97021D01*
X285840Y97242D01*
X285450Y97320D01*
X281650D01*
X281260Y97242D01*
X280929Y97021D01*
X280759Y97004D01*
X275882Y101881D01*
X275386Y102213D01*
X274800Y102329D01*
X270120D01*
Y102400D01*
X270042Y102790D01*
X269821Y103121D01*
X269490Y103342D01*
X269100Y103419D01*
X264900D01*
X264510Y103342D01*
X264179Y103121D01*
X263958Y102790D01*
X263880Y102400D01*
Y102329D01*
X250869D01*
Y102550D01*
X250792Y102940D01*
X250571Y103271D01*
X250240Y103492D01*
X249850Y103569D01*
D02*
G37*
G36*
X289950Y94000D02*
X287530D01*
Y92700D01*
X287608Y92310D01*
X287829Y91979D01*
X288160Y91758D01*
X288550Y91680D01*
X289950D01*
Y94000D01*
D02*
G37*
G36*
X120970Y92500D02*
X118550D01*
Y90180D01*
X119950D01*
X120340Y90258D01*
X120671Y90479D01*
X120892Y90810D01*
X120970Y91200D01*
Y92500D01*
D02*
G37*
G36*
X186400Y94102D02*
X185620D01*
X185230Y94025D01*
X184899Y93804D01*
X184678Y93473D01*
X184601Y93083D01*
Y90630D01*
X186400D01*
Y94102D01*
D02*
G37*
G36*
X266500Y85300D02*
X263880D01*
Y84200D01*
X263958Y83809D01*
X264179Y83479D01*
X264510Y83258D01*
X264900Y83180D01*
X266500D01*
Y85300D01*
D02*
G37*
G36*
X250350Y76320D02*
X246550D01*
X246160Y76242D01*
X245829Y76021D01*
X245608Y75690D01*
X245530Y75300D01*
Y71700D01*
X245608Y71310D01*
X245829Y70979D01*
X246160Y70758D01*
X246531Y70684D01*
X246570Y70626D01*
X246734Y70180D01*
X241930Y65376D01*
X236680D01*
X236202Y65696D01*
X235500Y65835D01*
X234798Y65696D01*
X234202Y65298D01*
X233804Y64702D01*
X233665Y64000D01*
X233804Y63298D01*
X234202Y62702D01*
X234798Y62304D01*
X235361Y62192D01*
X241210Y56343D01*
X241108Y56190D01*
X241030Y55800D01*
Y52200D01*
X241108Y51810D01*
X241329Y51479D01*
X241660Y51258D01*
X242050Y51180D01*
X245850D01*
X246240Y51258D01*
X246571Y51479D01*
X246792Y51810D01*
X246870Y52200D01*
Y55800D01*
X246792Y56190D01*
X246571Y56521D01*
X246240Y56742D01*
X245850Y56820D01*
X244627D01*
X239285Y62162D01*
X239476Y62624D01*
X242500D01*
X243027Y62728D01*
X243330Y62931D01*
X243753Y62713D01*
X243799Y62661D01*
X243712Y62000D01*
X243841Y61019D01*
X244219Y60106D01*
X244821Y59321D01*
X245606Y58719D01*
X246519Y58341D01*
X247500Y58212D01*
X248481Y58341D01*
X249394Y58719D01*
X250179Y59321D01*
X250781Y60106D01*
X251159Y61019D01*
X251288Y62000D01*
X251159Y62981D01*
X250781Y63894D01*
X250179Y64679D01*
X249394Y65281D01*
X248481Y65659D01*
X247500Y65788D01*
X246857Y65704D01*
X246624Y66177D01*
X249423Y68977D01*
X249722Y69423D01*
X249827Y69950D01*
Y70680D01*
X250350D01*
X250740Y70758D01*
X251071Y70979D01*
X251292Y71310D01*
X251370Y71700D01*
Y75300D01*
X251292Y75690D01*
X251071Y76021D01*
X250740Y76242D01*
X250350Y76320D01*
D02*
G37*
G36*
X229279Y73092D02*
X228500D01*
Y69620D01*
X230299D01*
Y72072D01*
X230222Y72463D01*
X230000Y72793D01*
X229670Y73014D01*
X229279Y73092D01*
D02*
G37*
G36*
X105500Y65570D02*
Y62000D01*
X109070D01*
X108995Y62570D01*
X108582Y63568D01*
X107924Y64424D01*
X107068Y65082D01*
X106070Y65495D01*
X105500Y65570D01*
D02*
G37*
G36*
X230299Y68620D02*
X228500D01*
Y65147D01*
X229279D01*
X229670Y65225D01*
X230000Y65446D01*
X230222Y65777D01*
X230299Y66167D01*
Y68620D01*
D02*
G37*
G36*
X143900Y83550D02*
X141280D01*
Y82450D01*
X141358Y82060D01*
X141579Y81729D01*
X141910Y81508D01*
X142300Y81430D01*
X143900D01*
Y83550D01*
D02*
G37*
G36*
X147520D02*
X144900D01*
Y81430D01*
X146500D01*
X146890Y81508D01*
X147221Y81729D01*
X147442Y82060D01*
X147520Y82450D01*
Y83550D01*
D02*
G37*
G36*
X170950Y76320D02*
X167150D01*
X166760Y76242D01*
X166429Y76021D01*
X166208Y75690D01*
X166130Y75300D01*
Y75264D01*
X165814Y74864D01*
X165647Y74806D01*
X165473Y74772D01*
X165395Y74720D01*
X165306Y74689D01*
X160309Y71774D01*
X160000Y71835D01*
X159298Y71696D01*
X158702Y71298D01*
X158304Y70702D01*
X158165Y70000D01*
X158304Y69298D01*
X158702Y68702D01*
X159298Y68304D01*
X159485Y68267D01*
X165346Y59250D01*
X165447Y59147D01*
X165527Y59027D01*
X165632Y58956D01*
X165721Y58865D01*
X165853Y58808D01*
X165973Y58728D01*
X166080Y58707D01*
Y58200D01*
X166158Y57810D01*
X166379Y57479D01*
X166710Y57258D01*
X167100Y57180D01*
X170900D01*
X171290Y57258D01*
X171621Y57479D01*
X171842Y57810D01*
X171920Y58200D01*
Y61800D01*
X171842Y62190D01*
X171621Y62521D01*
X171290Y62742D01*
X170900Y62820D01*
X167100D01*
X166710Y62742D01*
X166305Y62825D01*
X162139Y69235D01*
X162254Y69722D01*
X165661Y71709D01*
X166183Y71434D01*
X166208Y71310D01*
X166429Y70979D01*
X166760Y70758D01*
X167150Y70680D01*
X170950D01*
X171340Y70758D01*
X171671Y70979D01*
X171892Y71310D01*
X171970Y71700D01*
Y75300D01*
X171892Y75690D01*
X171671Y76021D01*
X171340Y76242D01*
X170950Y76320D01*
D02*
G37*
G36*
X227500Y73092D02*
X226720D01*
X226330Y73014D01*
X225999Y72793D01*
X225779Y72463D01*
X225755Y72344D01*
X225245D01*
X225221Y72463D01*
X225001Y72793D01*
X224670Y73014D01*
X224279Y73092D01*
X221721D01*
X221330Y73014D01*
X221000Y72793D01*
X220778Y72463D01*
X220755Y72344D01*
X220245D01*
X220221Y72463D01*
X220001Y72793D01*
X219670Y73014D01*
X219280Y73092D01*
X216721D01*
X216330Y73014D01*
X216000Y72793D01*
X215778Y72463D01*
X215755Y72344D01*
X215245D01*
X215222Y72463D01*
X215001Y72793D01*
X214670Y73014D01*
X214280Y73092D01*
X211720D01*
X211330Y73014D01*
X210999Y72793D01*
X210778Y72463D01*
X210701Y72072D01*
Y66167D01*
X210778Y65777D01*
X210999Y65446D01*
X211330Y65225D01*
X211471Y65197D01*
Y64134D01*
X209419Y62081D01*
X209087Y61585D01*
X209079Y61543D01*
X208579Y61592D01*
Y61661D01*
X208501Y62052D01*
X208280Y62382D01*
X207949Y62603D01*
X207559Y62681D01*
X206529D01*
Y65770D01*
X206413Y66355D01*
X206081Y66852D01*
X204199Y68734D01*
Y71823D01*
X204121Y72213D01*
X203901Y72544D01*
X203570Y72765D01*
X203180Y72842D01*
X200621D01*
X200230Y72765D01*
X199899Y72544D01*
X199679Y72213D01*
X199655Y72094D01*
X199145D01*
X199121Y72213D01*
X198900Y72544D01*
X198570Y72765D01*
X198179Y72842D01*
X195621D01*
X195230Y72765D01*
X194899Y72544D01*
X194678Y72213D01*
X194655Y72094D01*
X194145D01*
X194122Y72213D01*
X193901Y72544D01*
X193570Y72765D01*
X193180Y72842D01*
X190621D01*
X190230Y72765D01*
X189900Y72544D01*
X189679Y72213D01*
X189655Y72094D01*
X189145D01*
X189121Y72213D01*
X188900Y72544D01*
X188570Y72765D01*
X188180Y72842D01*
X185620D01*
X185230Y72765D01*
X184899Y72544D01*
X184678Y72213D01*
X184601Y71823D01*
Y68734D01*
X182919Y67052D01*
X182587Y66555D01*
X182471Y65970D01*
Y61529D01*
X178820D01*
Y61800D01*
X178742Y62190D01*
X178521Y62521D01*
X178190Y62742D01*
X177800Y62820D01*
X174000D01*
X173610Y62742D01*
X173279Y62521D01*
X173058Y62190D01*
X172980Y61800D01*
Y58200D01*
X173058Y57810D01*
X173279Y57479D01*
X173610Y57258D01*
X174000Y57180D01*
X177800D01*
X178190Y57258D01*
X178521Y57479D01*
X178742Y57810D01*
X178820Y58200D01*
Y58471D01*
X182471D01*
Y56683D01*
X176607Y50820D01*
X174050D01*
X173660Y50742D01*
X173329Y50521D01*
X173108Y50190D01*
X173030Y49800D01*
Y46200D01*
X173108Y45810D01*
X173329Y45479D01*
X173660Y45258D01*
X174050Y45180D01*
X177850D01*
X178240Y45258D01*
X178571Y45479D01*
X178792Y45810D01*
X178870Y46200D01*
Y48757D01*
X185081Y54969D01*
X185413Y55465D01*
X185529Y56050D01*
Y60000D01*
Y64823D01*
X185620Y64898D01*
X188180D01*
X188570Y64975D01*
X188900Y65196D01*
X189121Y65527D01*
X189145Y65646D01*
X189655D01*
X189679Y65527D01*
X189900Y65196D01*
X190230Y64975D01*
X190371Y64947D01*
Y62033D01*
X186919Y58581D01*
X186587Y58085D01*
X186471Y57500D01*
Y46683D01*
X176607Y36820D01*
X174050D01*
X173660Y36742D01*
X173329Y36521D01*
X173108Y36190D01*
X173030Y35800D01*
Y32200D01*
X173108Y31810D01*
X173329Y31479D01*
X173660Y31258D01*
X174050Y31180D01*
X177850D01*
X178240Y31258D01*
X178571Y31479D01*
X178792Y31810D01*
X178870Y32200D01*
Y34757D01*
X189081Y44969D01*
X189239Y45205D01*
X189558Y45177D01*
X189784Y45120D01*
X189979Y44829D01*
X190310Y44608D01*
X190700Y44530D01*
X194300D01*
X194690Y44608D01*
X195021Y44829D01*
X195242Y45160D01*
X195320Y45550D01*
Y49350D01*
X195242Y49740D01*
X195021Y50071D01*
X194690Y50292D01*
X194300Y50370D01*
X193429D01*
Y61400D01*
Y64947D01*
X193570Y64975D01*
X193901Y65196D01*
X194122Y65527D01*
X194145Y65646D01*
X194655D01*
X194678Y65527D01*
X194899Y65196D01*
X195230Y64975D01*
X195371Y64947D01*
Y54600D01*
X195487Y54015D01*
X195819Y53519D01*
X197471Y51867D01*
Y42079D01*
X195320D01*
Y42450D01*
X195242Y42840D01*
X195021Y43171D01*
X194690Y43392D01*
X194300Y43470D01*
X190700D01*
X190310Y43392D01*
X189979Y43171D01*
X189758Y42840D01*
X189680Y42450D01*
Y38650D01*
X189758Y38260D01*
X189979Y37929D01*
X190310Y37708D01*
X190700Y37630D01*
X190971D01*
Y31451D01*
X190804Y31202D01*
X190665Y30500D01*
X190804Y29798D01*
X191202Y29202D01*
X191798Y28804D01*
X192500Y28665D01*
X193202Y28804D01*
X193798Y29202D01*
X194196Y29798D01*
X194335Y30500D01*
X194196Y31202D01*
X194029Y31451D01*
Y37630D01*
X194300D01*
X194690Y37708D01*
X195021Y37929D01*
X195242Y38260D01*
X195320Y38650D01*
Y39021D01*
X198749D01*
X199000Y38971D01*
X199585Y39087D01*
X200081Y39419D01*
X200413Y39915D01*
X200529Y40500D01*
Y52500D01*
X200413Y53085D01*
X200081Y53581D01*
X198429Y55234D01*
Y64947D01*
X198570Y64975D01*
X198900Y65196D01*
X199121Y65527D01*
X199145Y65646D01*
X199655D01*
X199679Y65527D01*
X199899Y65196D01*
X200230Y64975D01*
X200621Y64898D01*
X203180D01*
X203471Y64659D01*
Y62681D01*
X202441D01*
X202051Y62603D01*
X201720Y62382D01*
X201499Y62052D01*
X201421Y61661D01*
Y54575D01*
X201499Y54185D01*
X201720Y53854D01*
X202051Y53633D01*
X202441Y53555D01*
X207559D01*
X207949Y53633D01*
X208280Y53854D01*
X208888Y53868D01*
X208971Y53809D01*
Y52191D01*
X208888Y52132D01*
X208280Y52146D01*
X207949Y52367D01*
X207559Y52445D01*
X202441D01*
X202051Y52367D01*
X201720Y52146D01*
X201499Y51815D01*
X201421Y51425D01*
Y44339D01*
X201499Y43948D01*
X201720Y43618D01*
X202051Y43397D01*
X202441Y43319D01*
X203624D01*
Y34180D01*
X203304Y33702D01*
X203165Y33000D01*
X203304Y32298D01*
X203702Y31702D01*
X204298Y31304D01*
X204861Y31192D01*
X213327Y22727D01*
X213327Y22727D01*
X213372Y22696D01*
X213316Y22132D01*
X212983Y21994D01*
X212147Y21353D01*
X211506Y20517D01*
X211103Y19544D01*
X210965Y18500D01*
X211103Y17456D01*
X211506Y16483D01*
X212147Y15647D01*
X212983Y15006D01*
X213956Y14603D01*
X215000Y14466D01*
X216044Y14603D01*
X217017Y15006D01*
X217853Y15647D01*
X218494Y16483D01*
X218759Y17124D01*
X221756D01*
X221794Y16929D01*
X222015Y16598D01*
X222346Y16377D01*
X222736Y16299D01*
X225689D01*
X226079Y16377D01*
X226123Y16407D01*
X226624Y16139D01*
Y14122D01*
X226429Y14084D01*
X226098Y13863D01*
X225877Y13532D01*
X225799Y13142D01*
Y10189D01*
X225877Y9799D01*
X226077Y9500D01*
X225877Y9201D01*
X225799Y8811D01*
Y8711D01*
X224236D01*
X220473Y12473D01*
X220027Y12772D01*
X219500Y12876D01*
X211570D01*
X208377Y16070D01*
Y20000D01*
X208272Y20527D01*
X207973Y20973D01*
X201808Y27139D01*
X201361Y27437D01*
X200835Y27542D01*
X187701D01*
Y27642D01*
X187623Y28032D01*
X187402Y28363D01*
X187071Y28584D01*
X186681Y28661D01*
X184319D01*
X183929Y28584D01*
X183598Y28363D01*
X183377Y28032D01*
X183299Y27642D01*
Y24689D01*
X183377Y24299D01*
X183577Y24000D01*
X183377Y23701D01*
X183299Y23311D01*
Y20358D01*
X183377Y19968D01*
X183598Y19637D01*
X183929Y19416D01*
X184124Y19377D01*
Y18201D01*
X183858D01*
X183468Y18123D01*
X183137Y17902D01*
X182916Y17571D01*
X182878Y17376D01*
X176500D01*
X176500Y17377D01*
X176146Y17306D01*
X176000Y17335D01*
X175298Y17196D01*
X174702Y16798D01*
X174304Y16202D01*
X174165Y15500D01*
X174304Y14798D01*
X174702Y14202D01*
X175298Y13804D01*
X176000Y13665D01*
X176702Y13804D01*
X177298Y14202D01*
X177579Y14624D01*
X182878D01*
X182916Y14429D01*
X183137Y14098D01*
X183468Y13877D01*
X183858Y13799D01*
X184624D01*
Y11859D01*
X184389Y11812D01*
X184059Y11591D01*
X183838Y11260D01*
X183760Y10870D01*
Y8508D01*
X183838Y8118D01*
X183998Y7878D01*
X183838Y7638D01*
X183760Y7248D01*
Y6567D01*
X188240D01*
Y7248D01*
X188162Y7638D01*
X188002Y7878D01*
X188162Y8118D01*
X188240Y8508D01*
Y10870D01*
X188162Y11260D01*
X187941Y11591D01*
X187611Y11812D01*
X187376Y11859D01*
Y13558D01*
X187627Y13747D01*
X187876Y13861D01*
X188189Y13799D01*
X191142D01*
X191532Y13877D01*
X191863Y14098D01*
X192084Y14429D01*
X192161Y14819D01*
Y16549D01*
X192736Y17124D01*
X194741D01*
X195006Y16483D01*
X195647Y15647D01*
X196483Y15006D01*
X197456Y14603D01*
X198500Y14466D01*
X199544Y14603D01*
X200517Y15006D01*
X201353Y15647D01*
X201994Y16483D01*
X202397Y17456D01*
X202535Y18500D01*
X202397Y19544D01*
X201994Y20517D01*
X201353Y21353D01*
X200517Y21994D01*
X199544Y22397D01*
X198500Y22535D01*
X197456Y22397D01*
X196483Y21994D01*
X195647Y21353D01*
X195006Y20517D01*
X194741Y19876D01*
X192165D01*
X191639Y19772D01*
X191192Y19473D01*
X191192Y19473D01*
X189919Y18201D01*
X188189D01*
X187799Y18123D01*
X187500Y17923D01*
X187201Y18123D01*
X186876Y18188D01*
Y19377D01*
X187071Y19416D01*
X187402Y19637D01*
X187623Y19968D01*
X187701Y20358D01*
Y23311D01*
X187623Y23701D01*
X187423Y24000D01*
X187623Y24299D01*
X187701Y24689D01*
Y24789D01*
X200265D01*
X205624Y19430D01*
Y15500D01*
X205728Y14973D01*
X206027Y14527D01*
X210027Y10527D01*
X210027Y10527D01*
X210473Y10228D01*
X211000Y10124D01*
X212830D01*
X213000Y9624D01*
X212647Y9353D01*
X212006Y8517D01*
X211603Y7544D01*
X211531Y7000D01*
X219469D01*
X219397Y7544D01*
X218994Y8517D01*
X218353Y9353D01*
X218000Y9624D01*
X218170Y10124D01*
X218930D01*
X222692Y6361D01*
X222692Y6361D01*
X223139Y6063D01*
X223665Y5958D01*
X225799D01*
Y5858D01*
X225877Y5468D01*
X226098Y5137D01*
X226429Y4916D01*
X226819Y4839D01*
X229181D01*
X229571Y4916D01*
X229902Y5137D01*
X230123Y5468D01*
X230201Y5858D01*
Y5958D01*
X234933D01*
X235006Y5783D01*
X235647Y4947D01*
X236483Y4306D01*
X237456Y3903D01*
X238500Y3765D01*
X239544Y3903D01*
X240517Y4306D01*
X241353Y4947D01*
X241994Y5783D01*
X242397Y6756D01*
X242534Y7800D01*
X242397Y8844D01*
X241994Y9817D01*
X241353Y10653D01*
X240517Y11294D01*
X239544Y11697D01*
X238500Y11834D01*
X237456Y11697D01*
X236483Y11294D01*
X235647Y10653D01*
X235006Y9817D01*
X234603Y8844D01*
X234585Y8711D01*
X230201D01*
Y8811D01*
X230123Y9201D01*
X229923Y9500D01*
X230123Y9799D01*
X230201Y10189D01*
Y13142D01*
X230123Y13532D01*
X229902Y13863D01*
X229571Y14084D01*
X229377Y14122D01*
Y16299D01*
X230020D01*
X230410Y16377D01*
X230741Y16598D01*
X230962Y16929D01*
X231000Y17124D01*
X236820D01*
X237298Y16804D01*
X238000Y16665D01*
X238702Y16804D01*
X239298Y17202D01*
X239696Y17798D01*
X239835Y18500D01*
X239696Y19202D01*
X239298Y19798D01*
X238702Y20196D01*
X238000Y20335D01*
X237298Y20196D01*
X236820Y19876D01*
X231000D01*
X230962Y20071D01*
X230741Y20402D01*
X230410Y20623D01*
X230020Y20701D01*
X229377D01*
Y24019D01*
X229611Y24066D01*
X229941Y24287D01*
X230162Y24618D01*
X230240Y25008D01*
Y27370D01*
X230162Y27760D01*
X230002Y28000D01*
X230162Y28240D01*
X230240Y28630D01*
Y29311D01*
X228000D01*
X225760D01*
Y28630D01*
X225838Y28240D01*
X225998Y28000D01*
X225838Y27760D01*
X225760Y27370D01*
Y25008D01*
X225838Y24618D01*
X226059Y24287D01*
X226389Y24066D01*
X226624Y24019D01*
Y20861D01*
X226123Y20593D01*
X226079Y20623D01*
X225689Y20701D01*
X222736D01*
X222346Y20623D01*
X222015Y20402D01*
X221794Y20071D01*
X221756Y19876D01*
X218759D01*
X218494Y20517D01*
X217853Y21353D01*
X217239Y21824D01*
X217409Y22324D01*
X221820D01*
X222298Y22004D01*
X223000Y21865D01*
X223702Y22004D01*
X224298Y22402D01*
X224696Y22998D01*
X224835Y23700D01*
X224696Y24402D01*
X224298Y24998D01*
X223702Y25396D01*
X223000Y25535D01*
X222298Y25396D01*
X221820Y25076D01*
X214870D01*
X206808Y33139D01*
X206696Y33702D01*
X206377Y34180D01*
Y43319D01*
X207559D01*
X207949Y43397D01*
X208280Y43618D01*
X208888Y43632D01*
X208971Y43573D01*
Y40000D01*
X209087Y39415D01*
X209419Y38919D01*
X209915Y38587D01*
X210500Y38471D01*
X211085Y38587D01*
X211581Y38919D01*
X211684Y39021D01*
X213180D01*
Y38650D01*
X213258Y38260D01*
X213479Y37929D01*
X213810Y37708D01*
X214200Y37630D01*
X214471D01*
Y32000D01*
X214587Y31415D01*
X214919Y30919D01*
X215746Y30091D01*
X215804Y29798D01*
X216202Y29202D01*
X216798Y28804D01*
X217500Y28665D01*
X218202Y28804D01*
X218798Y29202D01*
X219196Y29798D01*
X219335Y30500D01*
X219196Y31202D01*
X218798Y31798D01*
X218202Y32196D01*
X217909Y32254D01*
X217529Y32634D01*
Y37630D01*
X217800D01*
X218190Y37708D01*
X218521Y37929D01*
X218742Y38260D01*
X218820Y38650D01*
Y42450D01*
X218742Y42840D01*
X218521Y43171D01*
X218190Y43392D01*
X217800Y43470D01*
X214200D01*
X213810Y43392D01*
X213479Y43171D01*
X213258Y42840D01*
X213180Y42450D01*
Y42079D01*
X212029D01*
Y60366D01*
X214081Y62419D01*
X214413Y62915D01*
X214529Y63500D01*
Y65197D01*
X214670Y65225D01*
X215001Y65446D01*
X215222Y65777D01*
X215245Y65895D01*
X215755D01*
X215778Y65777D01*
X216000Y65446D01*
X216330Y65225D01*
X216471Y65197D01*
Y62000D01*
X216587Y61415D01*
X216919Y60919D01*
X220471Y57367D01*
Y48979D01*
X218820D01*
Y49350D01*
X218742Y49740D01*
X218521Y50071D01*
X218190Y50292D01*
X217800Y50370D01*
X214200D01*
X213810Y50292D01*
X213479Y50071D01*
X213258Y49740D01*
X213180Y49350D01*
Y45550D01*
X213258Y45160D01*
X213479Y44829D01*
X213810Y44608D01*
X214200Y44530D01*
X217800D01*
X218190Y44608D01*
X218521Y44829D01*
X218742Y45160D01*
X218820Y45550D01*
Y45921D01*
X220471D01*
Y39500D01*
X220587Y38915D01*
X220919Y38419D01*
X224919Y34419D01*
X225415Y34087D01*
X226000Y33971D01*
X232916D01*
X234130Y32757D01*
Y30200D01*
X234208Y29810D01*
X234429Y29479D01*
X234760Y29258D01*
X235150Y29180D01*
X238950D01*
X239340Y29258D01*
X239671Y29479D01*
X239892Y29810D01*
X239970Y30200D01*
Y33800D01*
X239892Y34190D01*
X239671Y34521D01*
X239340Y34742D01*
X238950Y34820D01*
X236393D01*
X234631Y36581D01*
X234135Y36913D01*
X233550Y37029D01*
X226634D01*
X223529Y40134D01*
Y47155D01*
X224029Y47205D01*
X224087Y46915D01*
X224419Y46419D01*
X228669Y42168D01*
X229165Y41837D01*
X229750Y41720D01*
X234130D01*
Y41450D01*
X234208Y41059D01*
X234429Y40729D01*
X234760Y40508D01*
X235150Y40430D01*
X238950D01*
X239340Y40508D01*
X239671Y40729D01*
X239892Y41059D01*
X239969Y41450D01*
Y45050D01*
X239892Y45440D01*
X239671Y45771D01*
X239340Y45992D01*
X238950Y46069D01*
X235150D01*
X234760Y45992D01*
X234429Y45771D01*
X234208Y45440D01*
X234130Y45050D01*
Y44779D01*
X230384D01*
X227029Y48134D01*
Y52471D01*
X234130D01*
Y52200D01*
X234208Y51810D01*
X234429Y51479D01*
X234760Y51258D01*
X235150Y51180D01*
X238950D01*
X239340Y51258D01*
X239671Y51479D01*
X239892Y51810D01*
X239970Y52200D01*
Y55800D01*
X239892Y56190D01*
X239671Y56521D01*
X239340Y56742D01*
X238950Y56820D01*
X235150D01*
X234760Y56742D01*
X234429Y56521D01*
X234208Y56190D01*
X234130Y55800D01*
Y55529D01*
X227029D01*
Y62000D01*
X226913Y62585D01*
X226581Y63081D01*
X224869Y64794D01*
X224955Y65415D01*
X225001Y65446D01*
X225221Y65777D01*
X225245Y65895D01*
X225755D01*
X225779Y65777D01*
X225999Y65446D01*
X226330Y65225D01*
X226720Y65147D01*
X227500D01*
Y69120D01*
Y73092D01*
D02*
G37*
G36*
X307500Y11070D02*
X306930Y10995D01*
X305932Y10582D01*
X305076Y9924D01*
X304418Y9068D01*
X304005Y8070D01*
X303930Y7500D01*
X307500D01*
Y11070D01*
D02*
G37*
G36*
X125831Y12240D02*
X123244D01*
Y11559D01*
X123322Y11169D01*
X123543Y10838D01*
X123874Y10617D01*
X124264Y10539D01*
X125831D01*
Y12240D01*
D02*
G37*
G36*
X198000Y10469D02*
X197456Y10397D01*
X196483Y9994D01*
X195647Y9353D01*
X195006Y8517D01*
X194603Y7544D01*
X194531Y7000D01*
X198000D01*
Y10469D01*
D02*
G37*
G36*
X199000D02*
Y7000D01*
X202469D01*
X202397Y7544D01*
X201994Y8517D01*
X201353Y9353D01*
X200517Y9994D01*
X199544Y10397D01*
X199000Y10469D01*
D02*
G37*
G36*
X125831Y14941D02*
X124264D01*
X123874Y14863D01*
X123543Y14642D01*
X123322Y14311D01*
X123244Y13921D01*
Y13240D01*
X125831D01*
Y14941D01*
D02*
G37*
G36*
X128398D02*
X126831D01*
Y13240D01*
X129417D01*
Y13921D01*
X129340Y14311D01*
X129119Y14642D01*
X128788Y14863D01*
X128398Y14941D01*
D02*
G37*
G36*
X129417Y12240D02*
X126831D01*
Y10539D01*
X128398D01*
X128788Y10617D01*
X129119Y10838D01*
X129340Y11169D01*
X129417Y11559D01*
Y12240D01*
D02*
G37*
G36*
X140000Y20788D02*
X139020Y20659D01*
X138106Y20281D01*
X137321Y19679D01*
X136719Y18894D01*
X136505Y18376D01*
X120000D01*
X119473Y18272D01*
X119027Y17973D01*
X116696Y15643D01*
X116398Y15196D01*
X116293Y14669D01*
Y11201D01*
X115602D01*
X115212Y11123D01*
X114881Y10902D01*
X114660Y10571D01*
X114583Y10181D01*
Y7819D01*
X114660Y7429D01*
X114881Y7098D01*
X115212Y6877D01*
X115602Y6799D01*
X119736D01*
X120126Y6877D01*
X120457Y7098D01*
X120678Y7429D01*
X120756Y7819D01*
Y10181D01*
X120678Y10571D01*
X120457Y10902D01*
X120126Y11123D01*
X119736Y11201D01*
X119046D01*
Y14099D01*
X120570Y15624D01*
X136505D01*
X136719Y15106D01*
X137321Y14321D01*
X138106Y13719D01*
X139020Y13341D01*
X140000Y13212D01*
X140981Y13341D01*
X141894Y13719D01*
X142679Y14321D01*
X143281Y15106D01*
X143659Y16019D01*
X143788Y17000D01*
X143659Y17980D01*
X143281Y18894D01*
X142679Y19679D01*
X141894Y20281D01*
X140981Y20659D01*
X140000Y20788D01*
D02*
G37*
G36*
X188240Y5567D02*
X186500D01*
Y3866D01*
X187221D01*
X187611Y3944D01*
X187941Y4165D01*
X188162Y4496D01*
X188240Y4886D01*
Y5567D01*
D02*
G37*
G36*
X215000Y6000D02*
X211531D01*
X211603Y5456D01*
X212006Y4483D01*
X212647Y3647D01*
X213483Y3006D01*
X214456Y2603D01*
X215000Y2531D01*
Y6000D01*
D02*
G37*
G36*
X219469D02*
X216000D01*
Y2531D01*
X216544Y2603D01*
X217517Y3006D01*
X218353Y3647D01*
X218994Y4483D01*
X219397Y5456D01*
X219469Y6000D01*
D02*
G37*
G36*
X198000D02*
X194531D01*
X194603Y5456D01*
X195006Y4483D01*
X195647Y3647D01*
X196483Y3006D01*
X197456Y2603D01*
X198000Y2531D01*
Y6000D01*
D02*
G37*
G36*
X202469D02*
X199000D01*
Y2531D01*
X199544Y2603D01*
X200517Y3006D01*
X201353Y3647D01*
X201994Y4483D01*
X202397Y5456D01*
X202469Y6000D01*
D02*
G37*
G36*
X171000Y10788D02*
X170019Y10659D01*
X169106Y10281D01*
X168321Y9679D01*
X167719Y8894D01*
X167341Y7981D01*
X167212Y7000D01*
X167341Y6019D01*
X167719Y5106D01*
X168321Y4321D01*
X169106Y3719D01*
X170019Y3341D01*
X171000Y3212D01*
X171981Y3341D01*
X172894Y3719D01*
X173679Y4321D01*
X174281Y5106D01*
X174659Y6019D01*
X174788Y7000D01*
X174659Y7981D01*
X174281Y8894D01*
X173679Y9679D01*
X172894Y10281D01*
X171981Y10659D01*
X171000Y10788D01*
D02*
G37*
G36*
X185500Y5567D02*
X183760D01*
Y4886D01*
X183838Y4496D01*
X184059Y4165D01*
X184389Y3944D01*
X184780Y3866D01*
X185500D01*
Y5567D01*
D02*
G37*
G36*
X234800Y25135D02*
X234098Y24996D01*
X233502Y24598D01*
X233104Y24002D01*
X232965Y23300D01*
X233104Y22598D01*
X233502Y22002D01*
X234098Y21604D01*
X234800Y21465D01*
X235502Y21604D01*
X235980Y21924D01*
X239130D01*
X250327Y10727D01*
X250773Y10428D01*
X251300Y10323D01*
X251300Y10324D01*
X271430D01*
X277506Y4247D01*
X277953Y3949D01*
X278480Y3844D01*
X284201D01*
X284259Y3551D01*
X284480Y3220D01*
X284811Y2999D01*
X285201Y2921D01*
X289531D01*
X289922Y2999D01*
X290252Y3220D01*
X290474Y3551D01*
X290551Y3941D01*
Y6500D01*
X290474Y6890D01*
X290252Y7221D01*
X289922Y7442D01*
X289531Y7520D01*
X285201D01*
X284811Y7442D01*
X284480Y7221D01*
X284259Y6890D01*
X284201Y6597D01*
X279050D01*
X273376Y12270D01*
Y14505D01*
X273894Y14719D01*
X274679Y15321D01*
X275281Y16106D01*
X275659Y17019D01*
X275788Y18000D01*
X275659Y18981D01*
X275281Y19894D01*
X274679Y20679D01*
X273894Y21281D01*
X272980Y21659D01*
X272000Y21788D01*
X271020Y21659D01*
X270106Y21281D01*
X269321Y20679D01*
X268719Y19894D01*
X268341Y18981D01*
X268212Y18000D01*
X268341Y17019D01*
X268719Y16106D01*
X269321Y15321D01*
X270106Y14719D01*
X270623Y14505D01*
Y13076D01*
X251870D01*
X240673Y24273D01*
X240227Y24572D01*
X239700Y24676D01*
X235980D01*
X235502Y24996D01*
X234800Y25135D01*
D02*
G37*
G36*
X307500Y6500D02*
X303930D01*
X304005Y5930D01*
X304418Y4932D01*
X305076Y4076D01*
X305932Y3418D01*
X306930Y3005D01*
X307500Y2930D01*
Y6500D01*
D02*
G37*
G36*
X227500Y32012D02*
X226780D01*
X226389Y31934D01*
X226059Y31713D01*
X225838Y31382D01*
X225760Y30992D01*
Y30311D01*
X227500D01*
Y32012D01*
D02*
G37*
G36*
X229221D02*
X228500D01*
Y30311D01*
X230240D01*
Y30992D01*
X230162Y31382D01*
X229941Y31713D01*
X229611Y31934D01*
X229221Y32012D01*
D02*
G37*
G36*
X263619Y37200D02*
X260500D01*
X257380D01*
Y36100D01*
X257458Y35709D01*
X257679Y35379D01*
X258010Y35158D01*
X258400Y35080D01*
X259123D01*
Y31419D01*
X258400D01*
X258010Y31342D01*
X257679Y31121D01*
X257458Y30790D01*
X257380Y30400D01*
Y29300D01*
X260500D01*
X263619D01*
Y30400D01*
X263542Y30790D01*
X263321Y31121D01*
X262990Y31342D01*
X262600Y31419D01*
X261876D01*
Y35080D01*
X262600D01*
X262990Y35158D01*
X263321Y35379D01*
X263542Y35709D01*
X263619Y36100D01*
Y37200D01*
D02*
G37*
G36*
X153520Y37450D02*
X150400D01*
X147280D01*
Y36350D01*
X147358Y35960D01*
X147579Y35629D01*
X147910Y35408D01*
X148300Y35330D01*
X149024D01*
Y31670D01*
X148300D01*
X147910Y31592D01*
X147579Y31371D01*
X147358Y31040D01*
X147280Y30650D01*
Y29550D01*
X150400D01*
X153520D01*
Y30650D01*
X153442Y31040D01*
X153221Y31371D01*
X152890Y31592D01*
X152500Y31670D01*
X151776D01*
Y35330D01*
X152500D01*
X152890Y35408D01*
X153221Y35629D01*
X153442Y35960D01*
X153520Y36350D01*
Y37450D01*
D02*
G37*
G36*
X152500Y40570D02*
X150900D01*
Y38450D01*
X153520D01*
Y39550D01*
X153442Y39940D01*
X153221Y40271D01*
X152890Y40492D01*
X152500Y40570D01*
D02*
G37*
G36*
X262600Y46419D02*
X258400D01*
X258010Y46342D01*
X257679Y46121D01*
X257458Y45790D01*
X257380Y45400D01*
Y45329D01*
X246814D01*
X246792Y45440D01*
X246571Y45771D01*
X246240Y45992D01*
X245850Y46069D01*
X242050D01*
X241660Y45992D01*
X241329Y45771D01*
X241108Y45440D01*
X241030Y45050D01*
Y41450D01*
X241108Y41059D01*
X241329Y40729D01*
X241660Y40508D01*
X242050Y40430D01*
X245850D01*
X246240Y40508D01*
X246571Y40729D01*
X246792Y41059D01*
X246869Y41450D01*
Y42270D01*
X249471D01*
Y37581D01*
X249338Y37382D01*
X249260Y36992D01*
Y34630D01*
X249338Y34240D01*
X249498Y34000D01*
X249338Y33760D01*
X249260Y33370D01*
Y31008D01*
X249338Y30618D01*
X249559Y30287D01*
X249889Y30066D01*
X249971Y30050D01*
Y24229D01*
X248434D01*
X245479Y27183D01*
Y29180D01*
X245850D01*
X246240Y29258D01*
X246571Y29479D01*
X246792Y29810D01*
X246870Y30200D01*
Y33800D01*
X246792Y34190D01*
X246571Y34521D01*
X246240Y34742D01*
X245850Y34820D01*
X242050D01*
X241660Y34742D01*
X241329Y34521D01*
X241108Y34190D01*
X241030Y33800D01*
Y30200D01*
X241108Y29810D01*
X241329Y29479D01*
X241660Y29258D01*
X242050Y29180D01*
X242421D01*
Y26550D01*
X242537Y25965D01*
X242869Y25469D01*
X246719Y21618D01*
X247215Y21287D01*
X247800Y21170D01*
X257380D01*
Y21100D01*
X257458Y20709D01*
X257679Y20379D01*
X258010Y20158D01*
X258400Y20080D01*
X262600D01*
X262990Y20158D01*
X263321Y20379D01*
X263542Y20709D01*
X263619Y21100D01*
Y23656D01*
X263934Y23971D01*
X282630D01*
Y23700D01*
X282708Y23310D01*
X282929Y22979D01*
X283260Y22758D01*
X283650Y22680D01*
X287450D01*
X287840Y22758D01*
X288171Y22979D01*
X288392Y23310D01*
X288470Y23700D01*
Y27300D01*
X288392Y27690D01*
X288171Y28021D01*
X287840Y28242D01*
X287450Y28320D01*
X283650D01*
X283260Y28242D01*
X282929Y28021D01*
X282708Y27690D01*
X282630Y27300D01*
Y27029D01*
X263759D01*
X263619Y27200D01*
Y28300D01*
X261000D01*
Y26180D01*
X261164D01*
X261355Y25718D01*
X260957Y25319D01*
X258400D01*
X258010Y25242D01*
X257679Y25021D01*
X257458Y24690D01*
X257380Y24300D01*
Y24229D01*
X253029D01*
Y30050D01*
X253111Y30066D01*
X253441Y30287D01*
X253662Y30618D01*
X253740Y31008D01*
Y33370D01*
X253662Y33760D01*
X253502Y34000D01*
X253662Y34240D01*
X253740Y34630D01*
Y36992D01*
X253662Y37382D01*
X253441Y37713D01*
X253111Y37934D01*
X252720Y38012D01*
X252529D01*
Y42270D01*
X257380D01*
Y42200D01*
X257458Y41809D01*
X257679Y41479D01*
X258010Y41258D01*
X258400Y41180D01*
X260957D01*
X261218Y40919D01*
X261367Y40819D01*
X261215Y40319D01*
X261000D01*
Y38200D01*
X263619D01*
Y39300D01*
X263542Y39690D01*
X263354Y39971D01*
X263412Y40201D01*
X263547Y40471D01*
X282630D01*
Y40200D01*
X282708Y39810D01*
X282929Y39479D01*
X283260Y39258D01*
X283650Y39180D01*
X287450D01*
X287840Y39258D01*
X288171Y39479D01*
X288392Y39810D01*
X288470Y40200D01*
Y43800D01*
X288392Y44190D01*
X288171Y44521D01*
X287840Y44742D01*
X287450Y44820D01*
X283650D01*
X283260Y44742D01*
X282929Y44521D01*
X282708Y44190D01*
X282630Y43800D01*
Y43529D01*
X263619D01*
Y45400D01*
X263542Y45790D01*
X263321Y46121D01*
X262990Y46342D01*
X262600Y46419D01*
D02*
G37*
G36*
X260000Y40319D02*
X258400D01*
X258010Y40242D01*
X257679Y40021D01*
X257458Y39690D01*
X257380Y39300D01*
Y38200D01*
X260000D01*
Y40319D01*
D02*
G37*
G36*
X149900Y40570D02*
X148300D01*
X147910Y40492D01*
X147579Y40271D01*
X147358Y39940D01*
X147280Y39550D01*
Y38450D01*
X149900D01*
Y40570D01*
D02*
G37*
G36*
X180500Y27835D02*
X179798Y27696D01*
X179320Y27376D01*
X174500D01*
X174500Y27376D01*
X173973Y27272D01*
X173527Y26973D01*
X154930Y8376D01*
X144495D01*
X144281Y8894D01*
X143679Y9679D01*
X142894Y10281D01*
X141981Y10659D01*
X141000Y10788D01*
X140020Y10659D01*
X139106Y10281D01*
X138321Y9679D01*
X137719Y8894D01*
X137505Y8376D01*
X128071D01*
X128071Y8377D01*
X127544Y8272D01*
X127098Y7973D01*
X126585Y7461D01*
X124264D01*
X123874Y7383D01*
X123543Y7162D01*
X123322Y6831D01*
X123244Y6441D01*
Y4079D01*
X123322Y3689D01*
X123543Y3358D01*
X123874Y3137D01*
X124264Y3059D01*
X128398D01*
X128788Y3137D01*
X129119Y3358D01*
X129340Y3689D01*
X129417Y4079D01*
Y5624D01*
X137505D01*
X137719Y5106D01*
X138321Y4321D01*
X139106Y3719D01*
X140020Y3341D01*
X141000Y3212D01*
X141981Y3341D01*
X142894Y3719D01*
X143679Y4321D01*
X144281Y5106D01*
X144495Y5624D01*
X155500D01*
X156027Y5728D01*
X156473Y6027D01*
X175070Y24624D01*
X179320D01*
X179798Y24304D01*
X180500Y24165D01*
X181202Y24304D01*
X181798Y24702D01*
X182196Y25298D01*
X182335Y26000D01*
X182196Y26702D01*
X181798Y27298D01*
X181202Y27696D01*
X180500Y27835D01*
D02*
G37*
G36*
X122470Y24000D02*
X120050D01*
Y21680D01*
X121450D01*
X121840Y21758D01*
X122171Y21979D01*
X122392Y22310D01*
X122470Y22700D01*
Y24000D01*
D02*
G37*
G36*
X291950Y25000D02*
X289530D01*
Y23700D01*
X289608Y23310D01*
X289829Y22979D01*
X290160Y22758D01*
X290550Y22680D01*
X291950D01*
Y25000D01*
D02*
G37*
G36*
X289531Y15079D02*
X285201D01*
X284811Y15001D01*
X284480Y14780D01*
X284259Y14449D01*
X284244Y14376D01*
X280180D01*
X279702Y14696D01*
X279000Y14835D01*
X278298Y14696D01*
X277702Y14298D01*
X277304Y13702D01*
X277165Y13000D01*
X277304Y12298D01*
X277702Y11702D01*
X278298Y11304D01*
X279000Y11165D01*
X279702Y11304D01*
X280180Y11624D01*
X284181D01*
Y11500D01*
X284259Y11110D01*
X284480Y10779D01*
X284811Y10558D01*
X285201Y10480D01*
X289531D01*
X289922Y10558D01*
X290252Y10779D01*
X290474Y11110D01*
X290551Y11500D01*
Y14059D01*
X290474Y14449D01*
X290252Y14780D01*
X289922Y15001D01*
X289531Y15079D01*
D02*
G37*
G36*
X119050Y24000D02*
X116630D01*
Y22700D01*
X116708Y22310D01*
X116929Y21979D01*
X117260Y21758D01*
X117650Y21680D01*
X119050D01*
Y24000D01*
D02*
G37*
G36*
X260000Y28300D02*
X257380D01*
Y27200D01*
X257458Y26809D01*
X257679Y26479D01*
X258010Y26258D01*
X258400Y26180D01*
X260000D01*
Y28300D01*
D02*
G37*
G36*
X153520Y28550D02*
X150900D01*
Y26430D01*
X152500D01*
X152890Y26508D01*
X153221Y26729D01*
X153442Y27060D01*
X153520Y27450D01*
Y28550D01*
D02*
G37*
G36*
X121450Y27320D02*
X120050D01*
Y25000D01*
X122470D01*
Y26300D01*
X122392Y26690D01*
X122171Y27021D01*
X121840Y27242D01*
X121450Y27320D01*
D02*
G37*
G36*
X291950Y28320D02*
X290550D01*
X290160Y28242D01*
X289829Y28021D01*
X289608Y27690D01*
X289530Y27300D01*
Y26000D01*
X291950D01*
Y28320D01*
D02*
G37*
G36*
X286736Y172960D02*
X285169D01*
Y171260D01*
X287756D01*
Y171941D01*
X287678Y172331D01*
X287457Y172662D01*
X287126Y172883D01*
X286736Y172960D01*
D02*
G37*
G36*
X284169D02*
X282602D01*
X282212Y172883D01*
X281881Y172662D01*
X281660Y172331D01*
X281583Y171941D01*
Y171260D01*
X284169D01*
Y172960D01*
D02*
G37*
G36*
X287756Y170260D02*
X285169D01*
Y168559D01*
X286736D01*
X287126Y168637D01*
X287457Y168858D01*
X287678Y169189D01*
X287756Y169579D01*
Y170260D01*
D02*
G37*
G36*
X250600Y158570D02*
X249000D01*
Y156450D01*
X251620D01*
Y157550D01*
X251542Y157940D01*
X251321Y158271D01*
X250990Y158492D01*
X250600Y158570D01*
D02*
G37*
G36*
X248000D02*
X246400D01*
X246010Y158492D01*
X245679Y158271D01*
X245458Y157940D01*
X245380Y157550D01*
Y156450D01*
X248000D01*
Y158570D01*
D02*
G37*
G36*
X340000Y150955D02*
X338201D01*
Y148502D01*
X338279Y148112D01*
X338499Y147781D01*
X338830Y147560D01*
X339220Y147483D01*
X340000D01*
Y150955D01*
D02*
G37*
G36*
X229970Y162825D02*
X227550D01*
Y160506D01*
X228950D01*
X229340Y160583D01*
X229671Y160804D01*
X229892Y161135D01*
X229970Y161525D01*
Y162825D01*
D02*
G37*
G36*
X284169Y170260D02*
X281583D01*
Y169579D01*
X281660Y169189D01*
X281881Y168858D01*
X282212Y168637D01*
X282602Y168559D01*
X284169D01*
Y170260D01*
D02*
G37*
G36*
X295398Y176701D02*
X291264D01*
X290874Y176623D01*
X290543Y176402D01*
X290322Y176071D01*
X290244Y175681D01*
Y173319D01*
X290322Y172929D01*
X290543Y172598D01*
X290874Y172377D01*
X291264Y172299D01*
X291623D01*
Y169070D01*
X287930Y165376D01*
X270995D01*
X270781Y165894D01*
X270179Y166679D01*
X269394Y167281D01*
X268480Y167659D01*
X267500Y167788D01*
X266519Y167659D01*
X265606Y167281D01*
X264821Y166679D01*
X264219Y165894D01*
X263841Y164980D01*
X263712Y164000D01*
X263841Y163020D01*
X264219Y162106D01*
X264821Y161321D01*
X265606Y160719D01*
X266519Y160341D01*
X267500Y160212D01*
X268480Y160341D01*
X269394Y160719D01*
X270179Y161321D01*
X270781Y162106D01*
X270995Y162624D01*
X288500D01*
X289027Y162728D01*
X289473Y163027D01*
X293973Y167527D01*
X294272Y167973D01*
X294376Y168500D01*
Y172299D01*
X295398D01*
X295788Y172377D01*
X296119Y172598D01*
X296340Y172929D01*
X296417Y173319D01*
Y175681D01*
X296340Y176071D01*
X296119Y176402D01*
X295788Y176623D01*
X295398Y176701D01*
D02*
G37*
G36*
X228950Y166145D02*
X227550D01*
Y163825D01*
X229970D01*
Y165125D01*
X229892Y165515D01*
X229671Y165846D01*
X229340Y166067D01*
X228950Y166145D01*
D02*
G37*
G36*
X140472Y195599D02*
X139684Y195495D01*
X138483Y194998D01*
X137451Y194206D01*
X136660Y193175D01*
X136162Y191974D01*
X136059Y191185D01*
X140472D01*
Y195599D01*
D02*
G37*
G36*
X251620Y155450D02*
X248500D01*
X245380D01*
Y154350D01*
X245458Y153960D01*
X245679Y153629D01*
X246010Y153408D01*
X246400Y153330D01*
X247124D01*
Y145170D01*
X246400D01*
X246010Y145092D01*
X245679Y144871D01*
X245458Y144540D01*
X245380Y144150D01*
Y143050D01*
X248500D01*
X251620D01*
Y144150D01*
X251542Y144540D01*
X251321Y144871D01*
X250990Y145092D01*
X250600Y145170D01*
X249876D01*
Y153330D01*
X250600D01*
X250990Y153408D01*
X251321Y153629D01*
X251542Y153960D01*
X251620Y154350D01*
Y155450D01*
D02*
G37*
G36*
X188864Y105800D02*
X185900D01*
Y102836D01*
X186314Y102890D01*
X187165Y103243D01*
X187896Y103804D01*
X188457Y104535D01*
X188810Y105386D01*
X188864Y105800D01*
D02*
G37*
G36*
X184900D02*
X181936D01*
X181990Y105386D01*
X182343Y104535D01*
X182904Y103804D01*
X183635Y103243D01*
X184486Y102890D01*
X184900Y102836D01*
Y105800D01*
D02*
G37*
G36*
X164450Y102320D02*
X160650D01*
X160260Y102242D01*
X159929Y102021D01*
X159708Y101690D01*
X159630Y101300D01*
Y100579D01*
X147520D01*
Y100650D01*
X147442Y101040D01*
X147221Y101371D01*
X146890Y101592D01*
X146500Y101670D01*
X142300D01*
X141910Y101592D01*
X141579Y101371D01*
X141358Y101040D01*
X141280Y100650D01*
Y100579D01*
X131000D01*
X130415Y100463D01*
X129919Y100131D01*
X125607Y95820D01*
X123050D01*
X122660Y95742D01*
X122329Y95521D01*
X122108Y95190D01*
X122030Y94800D01*
Y91200D01*
X122108Y90810D01*
X122329Y90479D01*
X122660Y90258D01*
X123050Y90180D01*
X126850D01*
X127240Y90258D01*
X127571Y90479D01*
X127792Y90810D01*
X127870Y91200D01*
Y93757D01*
X131633Y97521D01*
X141280D01*
Y97450D01*
X141358Y97060D01*
X141579Y96729D01*
X141910Y96508D01*
X142300Y96430D01*
X146500D01*
X146890Y96508D01*
X147221Y96729D01*
X147442Y97060D01*
X147520Y97450D01*
Y97521D01*
X152871D01*
Y92450D01*
X152789Y92434D01*
X152459Y92213D01*
X152238Y91882D01*
X152160Y91492D01*
Y89130D01*
X152238Y88740D01*
X152398Y88500D01*
X152238Y88260D01*
X152160Y87870D01*
Y85508D01*
X152238Y85118D01*
X152459Y84787D01*
X152789Y84566D01*
X152871Y84550D01*
Y79479D01*
X147520D01*
Y79550D01*
X147442Y79940D01*
X147221Y80271D01*
X146890Y80492D01*
X146500Y80570D01*
X142300D01*
X141910Y80492D01*
X141579Y80271D01*
X141358Y79940D01*
X141280Y79550D01*
Y79479D01*
X127770D01*
Y79800D01*
X127692Y80190D01*
X127471Y80521D01*
X127140Y80742D01*
X126750Y80820D01*
X122950D01*
X122560Y80742D01*
X122229Y80521D01*
X122008Y80190D01*
X121930Y79800D01*
Y76200D01*
X122008Y75810D01*
X122229Y75479D01*
X122560Y75258D01*
X122950Y75180D01*
X126750D01*
X127140Y75258D01*
X127471Y75479D01*
X127692Y75810D01*
X127770Y76200D01*
Y76421D01*
X141280D01*
Y76350D01*
X141358Y75960D01*
X141579Y75629D01*
X141910Y75408D01*
X142300Y75330D01*
X146500D01*
X146890Y75408D01*
X147221Y75629D01*
X147442Y75960D01*
X147520Y76350D01*
Y76421D01*
X155950D01*
X156535Y76537D01*
X157031Y76869D01*
X163531Y83369D01*
X163740Y83680D01*
X164350D01*
X164740Y83758D01*
X165071Y83979D01*
X165292Y84310D01*
X165370Y84700D01*
Y88300D01*
X165292Y88690D01*
X165071Y89021D01*
X164740Y89242D01*
X164350Y89320D01*
X160550D01*
X160160Y89242D01*
X159829Y89021D01*
X159608Y88690D01*
X159530Y88300D01*
Y84700D01*
X159608Y84310D01*
X159824Y83987D01*
X156391Y80554D01*
X155929Y80746D01*
Y84550D01*
X156011Y84566D01*
X156341Y84787D01*
X156562Y85118D01*
X156640Y85508D01*
Y87870D01*
X156562Y88260D01*
X156402Y88500D01*
X156562Y88740D01*
X156640Y89130D01*
Y91492D01*
X156562Y91882D01*
X156341Y92213D01*
X156011Y92434D01*
X155929Y92450D01*
Y97521D01*
X159666D01*
X159708Y97310D01*
X159929Y96979D01*
X160260Y96758D01*
X160650Y96680D01*
X164450D01*
X164840Y96758D01*
X165171Y96979D01*
X165392Y97310D01*
X165470Y97700D01*
Y101300D01*
X165392Y101690D01*
X165171Y102021D01*
X164840Y102242D01*
X164450Y102320D01*
D02*
G37*
G36*
X184900Y109764D02*
X184486Y109710D01*
X183635Y109357D01*
X182904Y108796D01*
X182343Y108065D01*
X181990Y107214D01*
X181936Y106800D01*
X184900D01*
Y109764D01*
D02*
G37*
G36*
X223500Y126335D02*
X222798Y126196D01*
X222202Y125798D01*
X221804Y125202D01*
X221665Y124500D01*
X221804Y123798D01*
X222202Y123202D01*
X222623Y122921D01*
Y118870D01*
X222200D01*
X221810Y118792D01*
X221479Y118571D01*
X221258Y118240D01*
X221216Y118029D01*
X218000D01*
X217415Y117913D01*
X216919Y117581D01*
X216587Y117085D01*
X216471Y116500D01*
Y94302D01*
X216330Y94274D01*
X216000Y94053D01*
X215778Y93722D01*
X215755Y93604D01*
X215245D01*
X215222Y93722D01*
X215001Y94053D01*
X214670Y94274D01*
X214280Y94352D01*
X211877D01*
Y95819D01*
X213059D01*
X213449Y95897D01*
X213780Y96118D01*
X214001Y96448D01*
X214079Y96839D01*
Y103925D01*
X214001Y104315D01*
X213780Y104646D01*
X213449Y104867D01*
X213059Y104945D01*
X207941D01*
X207551Y104867D01*
X207220Y104646D01*
X206999Y104315D01*
X206921Y103925D01*
Y96839D01*
X206999Y96448D01*
X207220Y96118D01*
X207551Y95897D01*
X207941Y95819D01*
X209123D01*
Y92879D01*
X209228Y92353D01*
X209527Y91906D01*
X210701Y90732D01*
Y87427D01*
X210778Y87037D01*
X210999Y86706D01*
X211330Y86485D01*
X211720Y86407D01*
X214280D01*
X214670Y86485D01*
X215001Y86706D01*
X215222Y87037D01*
X215245Y87155D01*
X215755D01*
X215778Y87037D01*
X216000Y86706D01*
X216330Y86485D01*
X216721Y86407D01*
X219280D01*
X219670Y86485D01*
X220001Y86706D01*
X220221Y87037D01*
X220245Y87155D01*
X220755D01*
X220778Y87037D01*
X221000Y86706D01*
X221330Y86485D01*
X221721Y86407D01*
X224279D01*
X224670Y86485D01*
X225001Y86706D01*
X225221Y87037D01*
X225245Y87155D01*
X225755D01*
X225779Y87037D01*
X225999Y86706D01*
X226330Y86485D01*
X226720Y86407D01*
X229279D01*
X229670Y86485D01*
X230000Y86706D01*
X230222Y87037D01*
X230299Y87427D01*
Y88850D01*
X231971D01*
Y81550D01*
X232087Y80965D01*
X232419Y80469D01*
X238630Y74257D01*
Y71700D01*
X238708Y71310D01*
X238929Y70979D01*
X239260Y70758D01*
X239650Y70680D01*
X243450D01*
X243840Y70758D01*
X244171Y70979D01*
X244392Y71310D01*
X244470Y71700D01*
Y75300D01*
X244392Y75690D01*
X244171Y76021D01*
X243840Y76242D01*
X243450Y76320D01*
X240893D01*
X235029Y82183D01*
Y88850D01*
X236537D01*
X238130Y87257D01*
Y84700D01*
X238208Y84310D01*
X238429Y83979D01*
X238760Y83758D01*
X239150Y83680D01*
X242950D01*
X243340Y83758D01*
X243671Y83979D01*
X243892Y84310D01*
X243970Y84700D01*
Y88300D01*
X243892Y88690D01*
X243671Y89021D01*
X243340Y89242D01*
X242950Y89320D01*
X240393D01*
X238252Y91461D01*
X237756Y91793D01*
X237171Y91909D01*
X230299D01*
Y93332D01*
X230222Y93722D01*
X230000Y94053D01*
X229670Y94274D01*
X229279Y94352D01*
X226720D01*
X226330Y94274D01*
X225999Y94053D01*
X225779Y93722D01*
X225755Y93604D01*
X225245D01*
X225221Y93722D01*
X225001Y94053D01*
X224670Y94274D01*
X224529Y94302D01*
Y96867D01*
X226883Y99220D01*
X238130D01*
Y98950D01*
X238208Y98559D01*
X238429Y98229D01*
X238760Y98008D01*
X239150Y97930D01*
X242950D01*
X243340Y98008D01*
X243671Y98229D01*
X243892Y98559D01*
X243969Y98950D01*
Y102550D01*
X243892Y102940D01*
X243671Y103271D01*
X243340Y103492D01*
X242950Y103569D01*
X239150D01*
X238760Y103492D01*
X238429Y103271D01*
X238208Y102940D01*
X238130Y102550D01*
Y102279D01*
X226250D01*
X226029Y102235D01*
X225529Y102628D01*
Y106130D01*
X225800D01*
X226190Y106208D01*
X226521Y106429D01*
X226742Y106760D01*
X226820Y107150D01*
Y110950D01*
X226742Y111340D01*
X226521Y111671D01*
X226190Y111892D01*
X225800Y111970D01*
X222200D01*
X221810Y111892D01*
X221479Y111671D01*
X221258Y111340D01*
X221180Y110950D01*
Y107150D01*
X221258Y106760D01*
X221479Y106429D01*
X221810Y106208D01*
X222200Y106130D01*
X222471D01*
Y99133D01*
X221919Y98581D01*
X221587Y98085D01*
X221471Y97500D01*
Y94302D01*
X221330Y94274D01*
X221000Y94053D01*
X220778Y93722D01*
X220755Y93604D01*
X220245D01*
X220221Y93722D01*
X220001Y94053D01*
X219670Y94274D01*
X219529Y94302D01*
Y114971D01*
X221180D01*
Y114050D01*
X221258Y113660D01*
X221479Y113329D01*
X221810Y113108D01*
X222200Y113030D01*
X225800D01*
X226190Y113108D01*
X226521Y113329D01*
X226742Y113660D01*
X226820Y114050D01*
Y117850D01*
X226742Y118240D01*
X226521Y118571D01*
X226190Y118792D01*
X225800Y118870D01*
X225377D01*
Y124000D01*
X225377Y124000D01*
X225306Y124354D01*
X225335Y124500D01*
X225196Y125202D01*
X224798Y125798D01*
X224202Y126196D01*
X223500Y126335D01*
D02*
G37*
G36*
X185900Y109764D02*
Y106800D01*
X188864D01*
X188810Y107214D01*
X188457Y108065D01*
X187896Y108796D01*
X187165Y109357D01*
X186314Y109710D01*
X185900Y109764D01*
D02*
G37*
G36*
X269100Y97319D02*
X267500D01*
Y95200D01*
X270120D01*
Y96300D01*
X270042Y96690D01*
X269821Y97021D01*
X269490Y97242D01*
X269100Y97319D01*
D02*
G37*
G36*
X146500Y95570D02*
X144900D01*
Y93450D01*
X147520D01*
Y94550D01*
X147442Y94940D01*
X147221Y95271D01*
X146890Y95492D01*
X146500Y95570D01*
D02*
G37*
G36*
X143900D02*
X142300D01*
X141910Y95492D01*
X141579Y95271D01*
X141358Y94940D01*
X141280Y94550D01*
Y93450D01*
X143900D01*
Y95570D01*
D02*
G37*
G36*
X195500Y125735D02*
X194798Y125596D01*
X194202Y125198D01*
X193804Y124602D01*
X193665Y123900D01*
X193804Y123198D01*
X194124Y122720D01*
Y118870D01*
X193700D01*
X193310Y118792D01*
X192979Y118571D01*
X192758Y118240D01*
X192680Y117850D01*
Y114050D01*
X192758Y113660D01*
X192979Y113329D01*
X193310Y113108D01*
X193700Y113030D01*
X197300D01*
X197690Y113108D01*
X198021Y113329D01*
X198242Y113660D01*
X198320Y114050D01*
Y114421D01*
X200371D01*
Y94053D01*
X200230Y94025D01*
X199899Y93804D01*
X199679Y93473D01*
X199655Y93354D01*
X199145D01*
X199121Y93473D01*
X198900Y93804D01*
X198570Y94025D01*
X198429Y94053D01*
Y96100D01*
X198313Y96685D01*
X197981Y97181D01*
X197029Y98133D01*
Y106130D01*
X197300D01*
X197690Y106208D01*
X198021Y106429D01*
X198242Y106760D01*
X198320Y107150D01*
Y110950D01*
X198242Y111340D01*
X198021Y111671D01*
X197690Y111892D01*
X197300Y111970D01*
X193700D01*
X193310Y111892D01*
X192979Y111671D01*
X192758Y111340D01*
X192680Y110950D01*
Y107150D01*
X192758Y106760D01*
X192979Y106429D01*
X193310Y106208D01*
X193700Y106130D01*
X193971D01*
Y101330D01*
X193584Y101013D01*
X193500Y101029D01*
X172370D01*
Y101300D01*
X172292Y101690D01*
X172071Y102021D01*
X171740Y102242D01*
X171350Y102320D01*
X167550D01*
X167160Y102242D01*
X166829Y102021D01*
X166608Y101690D01*
X166530Y101300D01*
Y97700D01*
X166608Y97310D01*
X166829Y96979D01*
X167160Y96758D01*
X167550Y96680D01*
X171350D01*
X171740Y96758D01*
X172071Y96979D01*
X172292Y97310D01*
X172370Y97700D01*
Y97971D01*
X178623D01*
X178671Y97908D01*
X178808Y97471D01*
X177419Y96081D01*
X177087Y95585D01*
X176971Y95000D01*
Y88634D01*
X176366Y88029D01*
X172270D01*
Y88300D01*
X172192Y88690D01*
X171971Y89021D01*
X171640Y89242D01*
X171250Y89320D01*
X167450D01*
X167060Y89242D01*
X166729Y89021D01*
X166508Y88690D01*
X166430Y88300D01*
Y84700D01*
X166508Y84310D01*
X166729Y83979D01*
X167060Y83758D01*
X167450Y83680D01*
X171250D01*
X171640Y83758D01*
X171971Y83979D01*
X172192Y84310D01*
X172270Y84700D01*
Y84971D01*
X174421D01*
Y76320D01*
X174050D01*
X173660Y76242D01*
X173329Y76021D01*
X173108Y75690D01*
X173030Y75300D01*
Y71700D01*
X173108Y71310D01*
X173329Y70979D01*
X173660Y70758D01*
X174050Y70680D01*
X177850D01*
X178240Y70758D01*
X178571Y70979D01*
X178792Y71310D01*
X178870Y71700D01*
Y75300D01*
X178792Y75690D01*
X178571Y76021D01*
X178240Y76242D01*
X177850Y76320D01*
X177479D01*
Y84816D01*
X178081Y85419D01*
X178082Y85419D01*
X179581Y86919D01*
X179913Y87415D01*
X180029Y88000D01*
Y94367D01*
X180633Y94971D01*
X189866D01*
X190299Y94538D01*
X190230Y94025D01*
X190230Y94025D01*
X189900Y93804D01*
X189679Y93473D01*
X189655Y93354D01*
X189145D01*
X189121Y93473D01*
X188900Y93804D01*
X188570Y94025D01*
X188180Y94102D01*
X187400D01*
Y90130D01*
Y86158D01*
X188180D01*
X188570Y86235D01*
X188900Y86456D01*
X189121Y86787D01*
X189145Y86906D01*
X189655D01*
X189679Y86787D01*
X189900Y86456D01*
X190230Y86235D01*
X190621Y86158D01*
X193180D01*
X193570Y86235D01*
X193901Y86456D01*
X194122Y86787D01*
X194145Y86906D01*
X194655D01*
X194678Y86787D01*
X194899Y86456D01*
X195230Y86235D01*
X195621Y86158D01*
X198179D01*
X198570Y86235D01*
X198900Y86456D01*
X199121Y86787D01*
X199145Y86906D01*
X199655D01*
X199679Y86787D01*
X199899Y86456D01*
X200230Y86235D01*
X200621Y86158D01*
X203180D01*
X203570Y86235D01*
X203901Y86456D01*
X204121Y86787D01*
X204199Y87177D01*
Y93083D01*
X204121Y93473D01*
X203901Y93804D01*
X203570Y94025D01*
X203429Y94053D01*
Y116100D01*
X203313Y116685D01*
X202981Y117181D01*
X202485Y117513D01*
X201900Y117629D01*
X201315Y117513D01*
X201265Y117479D01*
X198320D01*
Y117850D01*
X198242Y118240D01*
X198021Y118571D01*
X197690Y118792D01*
X197300Y118870D01*
X196876D01*
Y122720D01*
X197196Y123198D01*
X197335Y123900D01*
X197196Y124602D01*
X196798Y125198D01*
X196202Y125596D01*
X195500Y125735D01*
D02*
G37*
G36*
X119950Y95820D02*
X118550D01*
Y93500D01*
X120970D01*
Y94800D01*
X120892Y95190D01*
X120671Y95521D01*
X120340Y95742D01*
X119950Y95820D01*
D02*
G37*
G36*
X266500Y97319D02*
X264900D01*
X264510Y97242D01*
X264179Y97021D01*
X263958Y96690D01*
X263880Y96300D01*
Y95200D01*
X266500D01*
Y97319D01*
D02*
G37*
G36*
X289950Y97320D02*
X288550D01*
X288160Y97242D01*
X287829Y97021D01*
X287608Y96690D01*
X287530Y96300D01*
Y95000D01*
X289950D01*
Y97320D01*
D02*
G37*
G36*
X117550Y95820D02*
X116150D01*
X115760Y95742D01*
X115429Y95521D01*
X115208Y95190D01*
X115130Y94800D01*
Y93779D01*
X102020D01*
Y94650D01*
X101942Y95040D01*
X101721Y95371D01*
X101390Y95592D01*
X101000Y95670D01*
X98900D01*
Y92250D01*
Y88830D01*
X101000D01*
X101390Y88908D01*
X101721Y89129D01*
X101942Y89460D01*
X102020Y89850D01*
Y90721D01*
X115268D01*
X115429Y90479D01*
X115760Y90258D01*
X116150Y90180D01*
X117550D01*
Y93000D01*
Y95820D01*
D02*
G37*
G36*
X304000Y141988D02*
X300430D01*
X300505Y141418D01*
X300918Y140420D01*
X301576Y139564D01*
X302432Y138907D01*
X303430Y138493D01*
X304000Y138418D01*
Y141988D01*
D02*
G37*
G36*
X308570D02*
X305000D01*
Y138418D01*
X305570Y138493D01*
X306568Y138907D01*
X307424Y139564D01*
X308082Y140420D01*
X308495Y141418D01*
X308570Y141988D01*
D02*
G37*
G36*
X125728Y135941D02*
X124161D01*
Y134240D01*
X126748D01*
Y134921D01*
X126670Y135311D01*
X126449Y135642D01*
X126119Y135863D01*
X125728Y135941D01*
D02*
G37*
G36*
X248000Y142050D02*
X245380D01*
Y140950D01*
X245458Y140560D01*
X245679Y140229D01*
X246010Y140008D01*
X246400Y139930D01*
X248000D01*
Y142050D01*
D02*
G37*
G36*
X305000Y146558D02*
Y142988D01*
X308570D01*
X308495Y143559D01*
X308082Y144556D01*
X307424Y145413D01*
X306568Y146070D01*
X305570Y146483D01*
X305000Y146558D01*
D02*
G37*
G36*
X304000Y146558D02*
X303430Y146483D01*
X302432Y146070D01*
X301576Y145413D01*
X300918Y144556D01*
X300505Y143559D01*
X300430Y142988D01*
X304000D01*
Y146558D01*
D02*
G37*
G36*
X251620Y142050D02*
X249000D01*
Y139930D01*
X250600D01*
X250990Y140008D01*
X251321Y140229D01*
X251542Y140560D01*
X251620Y140950D01*
Y142050D01*
D02*
G37*
G36*
X123161Y135941D02*
X121595D01*
X121204Y135863D01*
X120873Y135642D01*
X120652Y135311D01*
X120575Y134921D01*
Y134240D01*
X123161D01*
Y135941D01*
D02*
G37*
G36*
X291260Y129700D02*
X289540D01*
Y127000D01*
X289618Y126610D01*
X289839Y126279D01*
X290170Y126058D01*
X290560Y125980D01*
X291260D01*
Y129700D01*
D02*
G37*
G36*
Y134420D02*
X290560D01*
X290170Y134342D01*
X289839Y134121D01*
X289618Y133790D01*
X289540Y133400D01*
Y130700D01*
X291260D01*
Y134420D01*
D02*
G37*
G36*
X126748Y133240D02*
X124161D01*
Y131539D01*
X125728D01*
X126119Y131617D01*
X126449Y131838D01*
X126670Y132169D01*
X126748Y132559D01*
Y133240D01*
D02*
G37*
G36*
X123161D02*
X120575D01*
Y132559D01*
X120652Y132169D01*
X120873Y131838D01*
X121204Y131617D01*
X121595Y131539D01*
X123161D01*
Y133240D01*
D02*
G37*
G36*
X292960Y134420D02*
X292260D01*
Y130700D01*
X293979D01*
Y133400D01*
X293902Y133790D01*
X293681Y134121D01*
X293350Y134342D01*
X292960Y134420D01*
D02*
G37*
G36*
X47076Y224913D02*
X43926D01*
Y222000D01*
X47076D01*
Y224913D01*
D02*
G37*
G36*
X180000Y185500D02*
X176531D01*
X176603Y184956D01*
X177006Y183983D01*
X177647Y183147D01*
X178483Y182506D01*
X179456Y182103D01*
X180000Y182031D01*
Y185500D01*
D02*
G37*
G36*
X184469D02*
X181000D01*
Y182031D01*
X181544Y182103D01*
X182517Y182506D01*
X183353Y183147D01*
X183994Y183983D01*
X184397Y184956D01*
X184469Y185500D01*
D02*
G37*
G36*
X164000Y184567D02*
X162260D01*
Y183886D01*
X162338Y183496D01*
X162559Y183165D01*
X162889Y182944D01*
X163279Y182866D01*
X164000D01*
Y184567D01*
D02*
G37*
G36*
X203969Y185500D02*
X200500D01*
Y182031D01*
X201044Y182103D01*
X202017Y182506D01*
X202853Y183147D01*
X203494Y183983D01*
X203897Y184956D01*
X203969Y185500D01*
D02*
G37*
G36*
X199500D02*
X196031D01*
X196103Y184956D01*
X196506Y183983D01*
X197147Y183147D01*
X197983Y182506D01*
X198956Y182103D01*
X199500Y182031D01*
Y185500D01*
D02*
G37*
G36*
X166740Y184567D02*
X165000D01*
Y182866D01*
X165720D01*
X166111Y182944D01*
X166441Y183165D01*
X166662Y183496D01*
X166740Y183886D01*
Y184567D01*
D02*
G37*
G36*
X60512Y208500D02*
X58811D01*
Y206760D01*
X59492D01*
X59882Y206838D01*
X60213Y207059D01*
X60434Y207389D01*
X60512Y207780D01*
Y208500D01*
D02*
G37*
G36*
X109500Y204082D02*
Y200512D01*
X113070D01*
X112995Y201082D01*
X112582Y202080D01*
X111924Y202936D01*
X111068Y203593D01*
X110070Y204007D01*
X109500Y204082D01*
D02*
G37*
G36*
X108500Y204082D02*
X107930Y204007D01*
X106932Y203593D01*
X106076Y202936D01*
X105418Y202080D01*
X105005Y201082D01*
X104930Y200512D01*
X108500D01*
Y204082D01*
D02*
G37*
G36*
X59492Y211240D02*
X58811D01*
Y209500D01*
X60512D01*
Y210221D01*
X60434Y210611D01*
X60213Y210941D01*
X59882Y211162D01*
X59492Y211240D01*
D02*
G37*
G36*
X218721Y211512D02*
X218000D01*
Y209811D01*
X219740D01*
Y210492D01*
X219662Y210882D01*
X219441Y211213D01*
X219111Y211434D01*
X218721Y211512D01*
D02*
G37*
G36*
X217000D02*
X216280D01*
X215889Y211434D01*
X215559Y211213D01*
X215338Y210882D01*
X215260Y210492D01*
Y209811D01*
X217000D01*
Y211512D01*
D02*
G37*
G36*
X84637Y198644D02*
X83464D01*
Y196254D01*
X85657D01*
Y197624D01*
X85579Y198015D01*
X85358Y198345D01*
X85027Y198566D01*
X84637Y198644D01*
D02*
G37*
G36*
X199500Y189969D02*
X198956Y189897D01*
X197983Y189494D01*
X197147Y188853D01*
X196506Y188017D01*
X196103Y187044D01*
X196031Y186500D01*
X199500D01*
Y189969D01*
D02*
G37*
G36*
X181000D02*
Y186500D01*
X184469D01*
X184397Y187044D01*
X183994Y188017D01*
X183353Y188853D01*
X182517Y189494D01*
X181544Y189897D01*
X181000Y189969D01*
D02*
G37*
G36*
X180000D02*
X179456Y189897D01*
X178483Y189494D01*
X177647Y188853D01*
X177006Y188017D01*
X176603Y187044D01*
X176531Y186500D01*
X180000D01*
Y189969D01*
D02*
G37*
G36*
X200500D02*
Y186500D01*
X203969D01*
X203897Y187044D01*
X203494Y188017D01*
X202853Y188853D01*
X202017Y189494D01*
X201044Y189897D01*
X200500Y189969D01*
D02*
G37*
G36*
X108500Y199512D02*
X104930D01*
X105005Y198941D01*
X105418Y197944D01*
X106076Y197087D01*
X106932Y196430D01*
X107930Y196017D01*
X108500Y195942D01*
Y199512D01*
D02*
G37*
G36*
X113070D02*
X109500D01*
Y195942D01*
X110070Y196017D01*
X111068Y196430D01*
X111924Y197087D01*
X112582Y197944D01*
X112995Y198941D01*
X113070Y199512D01*
D02*
G37*
%LPD*%
D10*
X217500Y209311D02*
D03*
Y205689D02*
D03*
X228000Y29811D02*
D03*
Y26189D02*
D03*
X186000Y6067D02*
D03*
Y9689D02*
D03*
X164500Y185067D02*
D03*
Y188689D02*
D03*
X62600Y124789D02*
D03*
Y128411D02*
D03*
X160400Y31689D02*
D03*
Y35311D02*
D03*
X154400Y86689D02*
D03*
Y90311D02*
D03*
X50500Y173189D02*
D03*
Y176811D02*
D03*
X55500Y173189D02*
D03*
Y176811D02*
D03*
X57100Y188989D02*
D03*
Y192611D02*
D03*
X258500Y151311D02*
D03*
Y147689D02*
D03*
X256500Y92061D02*
D03*
Y88439D02*
D03*
X251500Y35811D02*
D03*
Y32189D02*
D03*
X71400Y192678D02*
D03*
Y196300D02*
D03*
D11*
X290450Y94500D02*
D03*
X283550D02*
D03*
X290450Y81500D02*
D03*
X283550D02*
D03*
X292450Y42000D02*
D03*
X285550D02*
D03*
X292450Y25500D02*
D03*
X285550D02*
D03*
X119550Y24500D02*
D03*
X126450D02*
D03*
X119550Y40000D02*
D03*
X126450D02*
D03*
X117950Y78000D02*
D03*
X124850D02*
D03*
X118050Y93000D02*
D03*
X124950D02*
D03*
X227050Y163325D02*
D03*
X233950D02*
D03*
X175900Y60000D02*
D03*
X169000D02*
D03*
X169050Y48000D02*
D03*
X175950D02*
D03*
Y73500D02*
D03*
X169050D02*
D03*
X184100Y137825D02*
D03*
X191000D02*
D03*
X162450Y86500D02*
D03*
X169350D02*
D03*
X325950Y117000D02*
D03*
X319050D02*
D03*
X247950Y100750D02*
D03*
X241050D02*
D03*
X247950Y86500D02*
D03*
X241050D02*
D03*
X241550Y73500D02*
D03*
X248450D02*
D03*
X237050Y54000D02*
D03*
X243950D02*
D03*
X243950Y43250D02*
D03*
X237050D02*
D03*
X243950Y32000D02*
D03*
X237050D02*
D03*
X204100Y137825D02*
D03*
X211000D02*
D03*
X283550Y144000D02*
D03*
X290450D02*
D03*
X283550Y157000D02*
D03*
X290450D02*
D03*
X364550D02*
D03*
X371450D02*
D03*
X164150Y137825D02*
D03*
X171050D02*
D03*
X162550Y99500D02*
D03*
X169450D02*
D03*
X169050Y34000D02*
D03*
X175950D02*
D03*
D12*
X87396Y81717D02*
D03*
Y89000D02*
D03*
Y96284D02*
D03*
X59404D02*
D03*
Y89000D02*
D03*
Y81717D02*
D03*
X330808Y96184D02*
D03*
Y88900D02*
D03*
Y81616D02*
D03*
X358800D02*
D03*
Y88900D02*
D03*
Y96184D02*
D03*
X344608Y43767D02*
D03*
Y36483D02*
D03*
Y29200D02*
D03*
X372600D02*
D03*
Y36483D02*
D03*
Y43767D02*
D03*
X68396Y26717D02*
D03*
Y34000D02*
D03*
Y41284D02*
D03*
X40404D02*
D03*
Y34000D02*
D03*
Y26717D02*
D03*
D13*
X73400Y99295D02*
D03*
Y78705D02*
D03*
X344804Y78605D02*
D03*
Y99195D02*
D03*
X358604Y26188D02*
D03*
Y46779D02*
D03*
X54400Y44295D02*
D03*
Y23705D02*
D03*
D14*
X44655Y134757D02*
D03*
X46623D02*
D03*
X48592D02*
D03*
X50560D02*
D03*
X52529D02*
D03*
X54497D02*
D03*
X56466D02*
D03*
X58434D02*
D03*
X60403D02*
D03*
X62371D02*
D03*
X64340D02*
D03*
X66308D02*
D03*
X68277D02*
D03*
X70245D02*
D03*
Y165944D02*
D03*
X68277D02*
D03*
X66308D02*
D03*
X64340D02*
D03*
X62371D02*
D03*
X60403D02*
D03*
X58434D02*
D03*
X56466D02*
D03*
X54497D02*
D03*
X52529D02*
D03*
X50560D02*
D03*
X48592D02*
D03*
X46623D02*
D03*
X44655D02*
D03*
D15*
X73044Y137551D02*
D03*
Y139521D02*
D03*
Y141490D02*
D03*
Y143458D02*
D03*
Y145428D02*
D03*
Y147397D02*
D03*
Y149365D02*
D03*
Y151335D02*
D03*
Y153304D02*
D03*
Y155272D02*
D03*
Y157241D02*
D03*
Y159211D02*
D03*
Y161179D02*
D03*
Y163148D02*
D03*
X41857D02*
D03*
Y161179D02*
D03*
Y159211D02*
D03*
Y157241D02*
D03*
Y155272D02*
D03*
Y153304D02*
D03*
Y151335D02*
D03*
Y149365D02*
D03*
Y147397D02*
D03*
Y145428D02*
D03*
Y143458D02*
D03*
Y141490D02*
D03*
Y139521D02*
D03*
Y137551D02*
D03*
D16*
X57450Y150350D02*
D03*
D17*
X82311Y136300D02*
D03*
X78689D02*
D03*
X30989Y142600D02*
D03*
X34611D02*
D03*
X31089Y137500D02*
D03*
X34711D02*
D03*
X87311Y171000D02*
D03*
X83689D02*
D03*
X58311Y209000D02*
D03*
X54689D02*
D03*
X84311Y154000D02*
D03*
X80689D02*
D03*
X78000Y172000D02*
D03*
X74378D02*
D03*
X60989Y178300D02*
D03*
X64611D02*
D03*
X41689Y176000D02*
D03*
X45311D02*
D03*
X41878Y171000D02*
D03*
X45500D02*
D03*
X31189Y163000D02*
D03*
X34811D02*
D03*
X84311Y159000D02*
D03*
X80689D02*
D03*
X47689Y182000D02*
D03*
X51311D02*
D03*
X79389Y183400D02*
D03*
X83011D02*
D03*
D18*
X201900Y90130D02*
D03*
X196900D02*
D03*
X191900D02*
D03*
X186900D02*
D03*
Y68870D02*
D03*
X191900D02*
D03*
X196900D02*
D03*
X201900D02*
D03*
X213000Y69120D02*
D03*
X218000D02*
D03*
X223000D02*
D03*
X228000D02*
D03*
Y90380D02*
D03*
X223000D02*
D03*
X218000D02*
D03*
X213000D02*
D03*
X355500Y151455D02*
D03*
X350500D02*
D03*
X345500D02*
D03*
X340500D02*
D03*
Y130195D02*
D03*
X345500D02*
D03*
X350500D02*
D03*
X355500D02*
D03*
D19*
X124634Y209720D02*
D03*
Y217280D02*
D03*
X116366Y213500D02*
D03*
X287366Y12779D02*
D03*
Y5221D02*
D03*
X295634Y9000D02*
D03*
X273366Y125779D02*
D03*
Y118220D02*
D03*
X281634Y122000D02*
D03*
X127634Y57721D02*
D03*
Y65280D02*
D03*
X119366Y61500D02*
D03*
D20*
X192500Y47450D02*
D03*
Y40550D02*
D03*
X195500Y109050D02*
D03*
Y115950D02*
D03*
X313500Y136950D02*
D03*
Y130050D02*
D03*
X224000Y109050D02*
D03*
Y115950D02*
D03*
X216000Y47450D02*
D03*
Y40550D02*
D03*
D21*
X150400Y22950D02*
D03*
Y29050D02*
D03*
Y37950D02*
D03*
Y44050D02*
D03*
X144400Y77950D02*
D03*
Y84050D02*
D03*
Y92950D02*
D03*
Y99050D02*
D03*
X267000Y100800D02*
D03*
Y94700D02*
D03*
Y85800D02*
D03*
Y79700D02*
D03*
X260500Y43800D02*
D03*
Y37700D02*
D03*
Y28800D02*
D03*
Y22700D02*
D03*
X248500Y142550D02*
D03*
Y136450D02*
D03*
Y162050D02*
D03*
Y155950D02*
D03*
D22*
X98400Y84750D02*
D03*
Y92250D02*
D03*
X79900Y30500D02*
D03*
Y38000D02*
D03*
X317200Y92250D02*
D03*
Y84750D02*
D03*
X332000Y39750D02*
D03*
Y32250D02*
D03*
D23*
X51500Y188235D02*
D03*
Y192565D02*
D03*
X54500Y198835D02*
D03*
Y203165D02*
D03*
Y219165D02*
D03*
Y214835D02*
D03*
X164500Y206335D02*
D03*
Y210665D02*
D03*
X185500Y21835D02*
D03*
Y26165D02*
D03*
X228000Y11665D02*
D03*
Y7335D02*
D03*
X217500Y188543D02*
D03*
Y184213D02*
D03*
D24*
X30335Y168500D02*
D03*
X34665D02*
D03*
D25*
X80835Y164500D02*
D03*
X85165D02*
D03*
X61665Y183600D02*
D03*
X57335D02*
D03*
X164335Y197500D02*
D03*
X168665D02*
D03*
X185335Y16000D02*
D03*
X189665D02*
D03*
X228543Y18500D02*
D03*
X224213D02*
D03*
X218165Y197500D02*
D03*
X213835D02*
D03*
D26*
X123661Y126260D02*
D03*
Y133740D02*
D03*
X115000Y130000D02*
D03*
X126331Y5260D02*
D03*
Y12740D02*
D03*
X117669Y9000D02*
D03*
X284669Y178240D02*
D03*
Y170760D02*
D03*
X293331Y174500D02*
D03*
X287669Y62740D02*
D03*
Y55260D02*
D03*
X296331Y59000D02*
D03*
D27*
X375618Y130325D02*
D03*
X365382D02*
D03*
D28*
X236400Y137825D02*
D03*
X224600D02*
D03*
D29*
X299240Y130200D02*
D03*
X291760D02*
D03*
D30*
X295500Y122325D02*
D03*
X193000Y166500D02*
D03*
X215500Y6500D02*
D03*
X198500D02*
D03*
X200000Y186000D02*
D03*
X180500D02*
D03*
X215000Y18500D02*
D03*
X198500D02*
D03*
X200000Y197500D02*
D03*
X180500D02*
D03*
X6500Y135167D02*
D03*
Y127500D02*
D03*
Y119833D02*
D03*
Y112167D02*
D03*
X238500Y7800D02*
D03*
X85500Y210900D02*
D03*
D31*
X210500Y110618D02*
D03*
Y100382D02*
D03*
X205000Y47882D02*
D03*
Y58118D02*
D03*
D32*
X211000Y157175D02*
D03*
Y152825D02*
D03*
D33*
X82964Y190046D02*
D03*
Y195754D02*
D03*
X78436D02*
D03*
Y190046D02*
D03*
D34*
X41847Y171031D02*
X41878D01*
X48592Y135068D02*
X51250Y137727D01*
X33050Y134850D02*
X44655D01*
X75469Y170220D02*
Y172000D01*
X62399Y165944D02*
Y167987D01*
X34811Y163120D02*
X41828D01*
X34519Y142601D02*
X34600Y148100D01*
X34513Y142201D02*
X34519Y142601D01*
X34811Y137300D02*
X35063Y137551D01*
X64368Y165944D02*
Y167987D01*
X57100Y183735D02*
X57335Y183500D01*
X34665Y168430D02*
X42169D01*
X164500Y197122D02*
X164878Y197500D01*
X164500Y197878D02*
X164878Y197500D01*
X228000Y11665D02*
Y18500D01*
Y26189D01*
X217622Y188122D02*
Y197500D01*
X82964Y180064D02*
Y190046D01*
X201200Y172500D02*
X201500Y172800D01*
X151500Y172500D02*
X201200D01*
X228209Y177000D02*
X238193D01*
X211959Y160750D02*
X228209Y177000D01*
X182250Y160750D02*
X211959D01*
X173000Y170000D02*
X182250Y160750D01*
X185335Y16000D02*
X186000Y15335D01*
Y9689D02*
Y15335D01*
X228000Y26189D02*
Y26378D01*
X217500Y205689D02*
Y205878D01*
Y197622D02*
Y205689D01*
X164500Y188689D02*
Y197122D01*
Y188500D02*
Y188689D01*
X371800Y147000D02*
Y151155D01*
X371500Y151455D02*
X371800Y151155D01*
X64840Y128411D02*
X66951Y126300D01*
X62600Y128411D02*
X64840D01*
X62371Y128640D02*
Y134757D01*
Y128640D02*
X62600Y128411D01*
X49850Y126150D02*
X57291D01*
X59050Y127909D01*
Y129172D01*
X60403Y130525D01*
Y134757D01*
X54497Y132697D02*
Y134757D01*
X50600Y128800D02*
X54497Y132697D01*
X56466Y131466D02*
Y134757D01*
X53700Y128700D02*
X56466Y131466D01*
X58434Y130960D02*
Y134757D01*
X56900Y129426D02*
X58434Y130960D01*
X56900Y128800D02*
Y129426D01*
X56438Y134729D02*
X56466Y134757D01*
X58406Y134729D02*
X58434Y134757D01*
X47200Y128800D02*
X49850Y126150D01*
X60375Y134729D02*
X60403Y134757D01*
X73988Y126300D02*
X82800Y117488D01*
X66951Y126300D02*
X73988D01*
X64368Y131288D02*
X67655Y128000D01*
X74692D02*
X80592Y122100D01*
X67655Y128000D02*
X74692D01*
X66336Y131723D02*
X68359Y129700D01*
X75396D02*
X80696Y124400D01*
X68359Y129700D02*
X75396D01*
X76100Y131400D02*
X81000Y126500D01*
X69064Y131400D02*
X76100D01*
X68305Y132159D02*
X69064Y131400D01*
X96000Y112000D02*
Y115000D01*
X88900Y122100D02*
X96000Y115000D01*
X80592Y122100D02*
X88900D01*
X82800Y108600D02*
Y117488D01*
X89752Y124400D02*
X100900Y113252D01*
X80696Y124400D02*
X89752D01*
X90056Y126500D02*
X107000Y109556D01*
X81000Y126500D02*
X90056D01*
X90660Y128300D02*
X112000Y106960D01*
X81800Y128300D02*
X90660D01*
X75344Y134757D02*
X81800Y128300D01*
X70245Y134757D02*
X75344D01*
X78689Y135611D02*
Y136300D01*
Y135611D02*
X82500Y131800D01*
X84000D01*
X77438Y137551D02*
X78689Y136300D01*
X73044Y137551D02*
X77438D01*
X21000Y138500D02*
Y150500D01*
X17667Y135167D02*
X21000Y138500D01*
X6500Y135167D02*
X17667D01*
X21000Y150500D02*
X28600Y158100D01*
X22700Y137200D02*
Y149700D01*
X13000Y127500D02*
X22700Y137200D01*
X6500Y127500D02*
X13000D01*
X24400Y135700D02*
Y148400D01*
X8533Y119833D02*
X24400Y135700D01*
X6500Y119833D02*
X8533D01*
X22700Y149700D02*
X29400Y156400D01*
X24400Y148400D02*
X30500Y154500D01*
X26100Y134700D02*
Y147100D01*
X12000Y120600D02*
X26100Y134700D01*
X12000Y117667D02*
Y120600D01*
X26100Y147100D02*
X31600Y152600D01*
X172350Y107150D02*
Y119543D01*
X170300Y105100D02*
X172350Y107150D01*
X164400Y105100D02*
X170300D01*
X154310Y115190D02*
X164400Y105100D01*
X131492Y108400D02*
X136500Y104600D01*
X117677Y108400D02*
X131492D01*
X84587Y141490D02*
X117677Y108400D01*
X118973Y104700D02*
X128400D01*
X84152Y139521D02*
X118973Y104700D01*
X141710Y111790D02*
X144500Y109000D01*
X128824Y111790D02*
X141710D01*
X148510Y113490D02*
X153000Y109000D01*
X128119Y113490D02*
X148510D01*
X127415Y115190D02*
X154310D01*
X126711Y116890D02*
X162860D01*
X120587Y118894D02*
X165894D01*
X85022Y143458D02*
X116702Y111779D01*
X128812D02*
X128824Y111790D01*
X116702Y111779D02*
X128812D01*
X128108Y113479D02*
X128119Y113490D01*
X117406Y113479D02*
X128108D01*
X127404Y115179D02*
X127415Y115190D01*
X118110Y115179D02*
X127404D01*
X162860Y116890D02*
X168000Y111750D01*
Y109000D02*
Y111750D01*
X118814Y116879D02*
X126700D01*
X85864Y147425D02*
X118110Y115179D01*
X110500Y128981D02*
X120587Y118894D01*
X112000Y104500D02*
Y106960D01*
X107000Y107500D02*
Y109556D01*
X100900Y108900D02*
Y113252D01*
X110500Y128981D02*
Y134000D01*
X85458Y145428D02*
X117406Y113479D01*
X126700Y116879D02*
X126711Y116890D01*
X78436Y184353D02*
X79389Y183400D01*
X78436Y184353D02*
Y190046D01*
X71400Y186100D02*
X73900Y183600D01*
X71400Y186100D02*
Y192678D01*
X210000Y111118D02*
Y121000D01*
X93900Y164411D02*
X96956Y161355D01*
X87311Y171000D02*
X93900Y164411D01*
X97500Y174000D02*
X113900Y157600D01*
X20500Y167744D02*
Y173000D01*
X96956Y153955D02*
Y161355D01*
X95750Y152750D02*
X96956Y153955D01*
X88498Y152750D02*
X95750D01*
X84311Y154000D02*
X87248D01*
X88498Y152750D01*
X97550Y151050D02*
X99800Y153300D01*
X87794Y151050D02*
X97550D01*
X87414Y151429D02*
X87794Y151050D01*
X82571Y151429D02*
X87414D01*
X90300Y157100D02*
Y159365D01*
X85165Y164500D02*
X90300Y159365D01*
X102200Y153300D02*
X103000Y152500D01*
X99800Y153300D02*
X102200D01*
X89300Y175400D02*
X99800Y164900D01*
Y153300D02*
Y164900D01*
X83778Y175400D02*
X89300D01*
X80531Y172153D02*
X83778Y175400D01*
X350000Y157000D02*
X364550D01*
X355500Y151455D02*
X371500D01*
X371450Y151505D02*
X371500Y151455D01*
X371450Y151505D02*
Y157000D01*
X155020Y178330D02*
X211617D01*
X165894Y118894D02*
X168000Y121000D01*
Y123000D01*
X134740Y126260D02*
X138000Y123000D01*
X123661Y126260D02*
X134740D01*
X41828Y139549D02*
X41857Y139521D01*
X39258Y139549D02*
X41828D01*
X37807Y141000D02*
X39258Y139549D01*
X34811Y141000D02*
X37807D01*
X34500Y141311D02*
X34811Y141000D01*
X81796Y149800D02*
X81867Y149730D01*
X82000Y151500D02*
X82500D01*
X80689Y152811D02*
X82000Y151500D01*
X82500D02*
X82571Y151429D01*
X80200Y149800D02*
X81796D01*
X76696Y153304D02*
X80200Y149800D01*
X73044Y153304D02*
X76696D01*
X80689Y152811D02*
Y154000D01*
X79417Y155272D02*
X80689Y154000D01*
X73044Y155272D02*
X79417D01*
X85165Y164500D02*
X85500D01*
X79483Y163148D02*
X80689Y164354D01*
X80835Y164500D01*
X80689Y159000D02*
Y164354D01*
X73044Y163148D02*
X79483D01*
X132000Y183596D02*
X132700Y184296D01*
Y194200D01*
X139000Y200500D01*
X146000Y193500D01*
Y193394D02*
Y193500D01*
Y193394D02*
X147300Y192094D01*
Y174296D02*
Y192094D01*
Y174296D02*
X151596Y170000D01*
X173000D01*
X238193Y177000D02*
X242299Y172894D01*
X245701D01*
X249807Y177000D01*
X274000D01*
X210000Y121000D02*
X212000D01*
X220000Y129000D01*
X236000D01*
X223500Y124500D02*
X224000Y124000D01*
Y115950D02*
Y124000D01*
X46623Y134757D02*
X48592D01*
X44655D02*
X46623D01*
X6500Y135167D02*
X8258Y133408D01*
X176000Y15500D02*
X176500Y16000D01*
X223500Y116450D02*
X224000Y115950D01*
X145000Y207000D02*
X152500D01*
X162000Y197500D01*
X236000Y129000D02*
X255000D01*
X236000Y112000D02*
Y129000D01*
X255000D02*
X264500Y138500D01*
X313000Y117500D02*
X313500Y117000D01*
X307500Y117500D02*
X313000D01*
X248450Y69950D02*
Y73500D01*
X242500Y64000D02*
X248450Y69950D01*
X235500Y64000D02*
X242500D01*
X243950Y54000D02*
Y55550D01*
X235500Y64000D02*
X243950Y55550D01*
X166500Y60000D02*
X169000D01*
X160000Y70000D02*
X166500Y60000D01*
X166000Y73500D02*
X169050D01*
X160000Y70000D02*
X166000Y73500D01*
X149000Y175000D02*
X151500Y172500D01*
X149000Y175000D02*
Y185000D01*
X155020Y191020D01*
Y192100D01*
X264500Y138500D02*
X285000D01*
X287500Y136000D01*
Y115500D02*
Y136000D01*
Y115500D02*
X291500Y111500D01*
X320450D01*
X325950Y117000D01*
X313350Y130200D02*
X313500Y130050D01*
X299240Y130200D02*
X313350D01*
X273366Y125779D02*
X275000Y127413D01*
Y134000D01*
X210500Y92879D02*
X213000Y90380D01*
X210500Y92879D02*
Y100382D01*
X210000Y111118D02*
X210500Y110618D01*
X205000Y33000D02*
Y47882D01*
X369293Y124000D02*
X375618Y130325D01*
X346000Y124000D02*
X369293D01*
X333700Y111700D02*
X346000Y124000D01*
X355630Y130325D02*
X365382D01*
X333700Y111296D02*
Y111700D01*
X328404Y106000D02*
X333700Y111296D01*
X236000Y112000D02*
X242000Y106000D01*
X355500Y130195D02*
X355630Y130325D01*
X119366Y55634D02*
Y61500D01*
X141000Y52500D02*
X147000Y56000D01*
X122500Y52500D02*
X141000D01*
X119366Y55634D02*
X122500Y52500D01*
X124634Y192134D02*
Y209720D01*
X20500Y173000D02*
X36000Y188500D01*
X217500Y188000D02*
X217622Y188122D01*
X217500Y197622D02*
X217622Y197500D01*
X174835Y210665D02*
X193500Y192000D01*
X203500D01*
X105500Y213500D02*
X116366D01*
X97500Y205500D02*
X105500Y213500D01*
X97500Y174000D02*
Y205500D01*
X281634Y122000D02*
X282500Y122866D01*
Y133000D01*
X267500Y164000D02*
X288500D01*
X293000Y168500D01*
Y174169D01*
X293331Y174500D01*
X283429Y177000D02*
X284669Y178240D01*
X274000Y177000D02*
X283429D01*
X322000Y142500D02*
X332000Y132500D01*
Y112000D02*
Y132500D01*
X328500Y108500D02*
X332000Y112000D01*
X285500Y108500D02*
X328500D01*
X281634Y112366D02*
X285500Y108500D01*
X281634Y112366D02*
Y122000D01*
X377500Y142500D02*
X389326Y130674D01*
X322000Y142500D02*
X377500D01*
X322000Y172500D02*
Y180500D01*
X304500Y198000D02*
X322000Y180500D01*
X287146Y13000D02*
X287366Y12779D01*
X279000Y13000D02*
X287146D01*
X272000Y48000D02*
X274500Y50500D01*
X293500D01*
X296331Y53331D01*
Y59000D01*
X286929Y62000D02*
X287669Y62740D01*
X277500Y62000D02*
X286929D01*
X295634Y9000D02*
X306134Y19500D01*
X319500D01*
X308000Y62512D02*
X319500Y51012D01*
Y49500D02*
Y51012D01*
X219500Y11500D02*
X223665Y7335D01*
X211000Y11500D02*
X219500D01*
X207000Y15500D02*
X211000Y11500D01*
X207000Y15500D02*
Y20000D01*
X117669Y9000D02*
Y14669D01*
X120000Y17000D01*
X140000D01*
X135780Y57721D02*
X136000Y57500D01*
X127634Y57721D02*
X135780D01*
X126331Y5260D02*
X128071Y7000D01*
X141000D01*
X104366Y46500D02*
X119366Y61500D01*
X93500Y46500D02*
X104366D01*
X104012Y5988D02*
X105000D01*
X93500Y16500D02*
X104012Y5988D01*
X73044Y147397D02*
X73072Y147425D01*
X46623Y165944D02*
X48592D01*
X50560D01*
X41828Y163120D02*
X41857Y163148D01*
X34811Y163000D02*
Y163120D01*
X52501Y165972D02*
X52529Y165944D01*
X54497D02*
X54525Y165972D01*
X51500Y195835D02*
X54500Y198835D01*
X57000Y196335D01*
X54500Y203165D02*
Y208811D01*
X54689Y209000D01*
X54500Y209189D02*
Y214835D01*
Y209189D02*
X54689Y209000D01*
X56466Y165944D02*
X56494Y165972D01*
X58434Y165944D02*
X58462Y165972D01*
X60403Y165944D02*
X60431Y165972D01*
X45311Y171189D02*
Y176000D01*
Y171189D02*
X45500Y171000D01*
X48592Y167908D01*
Y165944D02*
Y167908D01*
X50500Y169988D02*
Y173189D01*
Y169988D02*
X52501Y167987D01*
Y165972D02*
Y167987D01*
X55500Y170904D02*
Y173189D01*
X54497Y169901D02*
X55500Y170904D01*
X54497Y165944D02*
Y169901D01*
X51311Y177622D02*
Y182000D01*
X50500Y176811D02*
X51311Y177622D01*
X62371Y165944D02*
X62399D01*
X62668Y168255D02*
Y168691D01*
X72856Y170478D02*
X74378Y172000D01*
X64340Y165944D02*
X64368D01*
X74507Y168778D02*
X75556Y167729D01*
X80444D01*
X83689Y170974D02*
Y171000D01*
X80444Y167729D02*
X83689Y170974D01*
X74378Y172000D02*
X75469D01*
Y170220D02*
X76260Y169430D01*
X79740D01*
X80531Y170220D01*
Y172153D01*
X29000Y160000D02*
X33500D01*
X34811Y161311D01*
Y163000D01*
X34665Y168430D02*
Y168500D01*
X42169Y168430D02*
X44655Y165944D01*
X141000Y7000D02*
X155500D01*
X174500Y26000D01*
X180500D01*
X68277Y134757D02*
X68305Y134729D01*
X66308Y134757D02*
X66336Y134729D01*
X64340Y134757D02*
X64368Y134729D01*
X6500Y112167D02*
X12000Y117667D01*
X104000Y104500D02*
X107000Y107500D01*
X95500Y104500D02*
X96500D01*
X132000Y132000D02*
Y183596D01*
X131500Y131500D02*
X132000Y132000D01*
X54469Y134729D02*
X54497Y134757D01*
X64368Y131288D02*
Y134729D01*
X66336Y131723D02*
Y134729D01*
X68305Y132159D02*
Y134729D01*
X62371Y134757D02*
X62399Y134729D01*
X30335Y163854D02*
Y168500D01*
Y163854D02*
X31189Y163000D01*
X71400Y196300D02*
X77890D01*
X78436Y195754D01*
X67142Y194742D02*
X68700Y196300D01*
X71400D01*
X71000Y174000D02*
Y177200D01*
X72800Y179000D01*
X81900D01*
X82964Y180064D01*
X84311Y154000D02*
Y159000D01*
X144400Y84050D02*
Y92950D01*
X150400Y29050D02*
Y37950D01*
X260500Y28800D02*
Y37700D01*
X267000Y85800D02*
Y94700D01*
X96500Y104500D02*
X100900Y108900D01*
X73044Y139521D02*
X84152D01*
X73044Y141490D02*
X84587D01*
X73044Y143458D02*
X85022D01*
X73044Y145428D02*
X85458D01*
X73072Y147425D02*
X85864D01*
X81867Y149730D02*
X85964D01*
X118814Y116879D01*
X41689Y171189D02*
Y176000D01*
X41878Y171000D02*
Y171031D01*
X30335Y168638D02*
X32728Y171031D01*
X30335Y168500D02*
Y168638D01*
X32728Y171031D02*
X41847D01*
X41689Y171189D02*
X41847Y171031D01*
X69178Y172178D02*
X71000Y174000D01*
X64368Y167987D02*
X65158Y168778D01*
X74507D01*
X62668Y168691D02*
X64454Y170478D01*
X72856D01*
X59268Y170099D02*
X63046Y173878D01*
X62399Y167987D02*
X62668Y168255D01*
X60431Y165972D02*
Y168423D01*
X60968Y168960D01*
X62578Y175578D02*
X64611Y177611D01*
Y178300D01*
X51500Y192165D02*
Y192565D01*
Y195835D01*
X57000Y192711D02*
Y196335D01*
Y192711D02*
X57100Y192611D01*
X51311Y182000D02*
X51500Y182189D01*
Y188235D01*
X33400Y182800D02*
X43000D01*
Y204000D01*
Y182225D02*
Y182800D01*
Y182225D02*
X45311Y179914D01*
Y176000D02*
Y179914D01*
X26100Y162900D02*
X29000Y160000D01*
X26100Y162900D02*
Y175500D01*
X33400Y182800D01*
X248500Y142550D02*
Y155950D01*
X48592Y134757D02*
Y135068D01*
X39813Y157270D02*
X41828D01*
X41857Y157241D01*
X28600Y158100D02*
X38983D01*
X39813Y157270D01*
X29400Y156400D02*
X38279D01*
X41828Y155301D02*
X41857Y155272D01*
X38279Y156400D02*
X39378Y155301D01*
X41828D01*
X30500Y154500D02*
X37775D01*
X41828Y153332D02*
X41857Y153304D01*
X37775Y154500D02*
X38943Y153332D01*
X41828D01*
X31600Y152600D02*
X37271D01*
X41828Y151363D02*
X41857Y151335D01*
X37271Y152600D02*
X38508Y151363D01*
X41828D01*
X34500Y141311D02*
X34513Y142201D01*
X35063Y137551D02*
X41857D01*
X44655Y134757D02*
Y134850D01*
X31089Y136811D02*
X33050Y134850D01*
X31089Y136811D02*
Y137500D01*
X30989Y137600D02*
Y142600D01*
Y137600D02*
X31089Y137500D01*
X110500Y134000D02*
X113900Y137400D01*
Y157600D01*
X115000Y130000D02*
X115900Y130900D01*
Y183400D02*
X124634Y192134D01*
X115900Y146500D02*
X122500D01*
X115900Y130900D02*
Y146500D01*
Y183400D01*
X55500Y176811D02*
X57335Y178646D01*
Y183500D01*
Y183600D01*
X57100Y183835D02*
Y188989D01*
Y183835D02*
X57335Y183600D01*
X61665Y178976D02*
Y183600D01*
X60989Y178300D02*
X61665Y178976D01*
X54500Y219165D02*
Y221977D01*
X54477Y222000D02*
X54500Y221977D01*
X56466Y165944D02*
Y169466D01*
X57568Y170568D01*
X62342Y175578D02*
X62578D01*
X57568Y170568D02*
Y170804D01*
X62342Y175578D01*
X63750Y172178D02*
X69178D01*
X60968Y168960D02*
Y169395D01*
X63750Y172178D01*
X59268Y169664D02*
Y170099D01*
X58462Y165972D02*
Y168858D01*
X59268Y169664D01*
X63046Y173878D02*
X64499D01*
X67142Y176520D01*
Y194742D01*
X74100Y183400D02*
X79389D01*
X73900Y183600D02*
X74100Y183400D01*
X64611Y178300D02*
X65311Y179000D01*
Y197311D01*
X72000Y204000D01*
X89800Y183300D02*
X90000Y201100D01*
X87100Y204000D02*
X90000Y201100D01*
X97500Y144000D02*
X108500D01*
X109000Y144500D01*
X389326Y121278D02*
Y130674D01*
X164500Y197878D02*
Y206335D01*
Y206878D01*
X228000Y11122D02*
Y11665D01*
X185500Y16378D02*
Y21835D01*
Y22378D01*
X163957Y210665D02*
X164500D01*
X174835D01*
X211617Y178330D02*
X217500Y184213D01*
X223665Y7335D02*
X228000D01*
X185500Y26165D02*
X200835D01*
X207000Y20000D01*
X162000Y197500D02*
X164335D01*
X164878D01*
X168122D02*
X168665D01*
X180500D01*
X217622D02*
X218165D01*
X227000D01*
X228000Y18500D02*
X228543D01*
X238000D01*
X200000Y197500D02*
X213835D01*
X214378D01*
X176500Y16000D02*
X185335D01*
X215000Y18500D02*
X224213D01*
X224756D01*
X189665Y16000D02*
X192165Y18500D01*
X198500D01*
X203500Y192000D02*
X211287Y184213D01*
X217500D01*
X124634Y217280D02*
X129000Y212913D01*
Y183000D02*
Y212913D01*
X122500Y176500D02*
X129000Y183000D01*
X154000Y192100D02*
X155020D01*
X133187Y212913D02*
X154000Y192100D01*
X129000Y212913D02*
X133187D01*
X149021Y65280D02*
X151500Y62800D01*
X140000Y47000D02*
X144353D01*
X151500Y54147D01*
Y62800D01*
X127634Y65280D02*
X149021D01*
X162600Y78400D02*
X163600D01*
X149479Y65280D02*
X162600Y78400D01*
X149021Y65280D02*
X149479D01*
X272000Y11700D02*
Y18000D01*
Y11700D02*
X278480Y5221D01*
X287366D01*
X267500Y124087D02*
Y134000D01*
Y124087D02*
X273366Y118220D01*
X267500Y106000D02*
Y124087D01*
X242000Y106000D02*
X267500D01*
X328404D01*
X228000Y7335D02*
X238035D01*
X238500Y7800D01*
X205000Y33000D02*
X214300Y23700D01*
X223000D01*
X234800Y23300D02*
X239700D01*
X251300Y11700D01*
X272000D01*
X158622Y216000D02*
X163957Y210665D01*
X150500Y216000D02*
X158622D01*
X195500Y115950D02*
Y123900D01*
X172350Y119543D02*
X181807Y129000D01*
X210000D01*
X85500Y204000D02*
Y210900D01*
X72000Y204000D02*
X85500D01*
X87100D01*
X82311Y136300D02*
X84111Y134500D01*
X85800D01*
D35*
X271080Y230080D02*
X278420D01*
X290450Y81500D02*
X313950D01*
X317200Y84750D01*
X290450Y94500D02*
X314950D01*
X317200Y92250D01*
X332000Y32250D02*
X335050Y29200D01*
X207500Y166500D02*
X271080Y230080D01*
X193000Y166500D02*
X207500D01*
X317200Y84750D02*
X320334Y81616D01*
X330808D01*
X317200Y92250D02*
X321133Y96184D01*
X330808D01*
X95367Y81717D02*
X98400Y84750D01*
X94367Y96284D02*
X98400Y92250D01*
X335050Y29200D02*
X344608D01*
X332000Y39750D02*
X336017Y43767D01*
X344608D01*
X76117Y26717D02*
X79900Y30500D01*
X68396Y26717D02*
X76117D01*
X76617Y41284D02*
X79900Y38000D01*
X68396Y41284D02*
X76617D01*
X87396Y81717D02*
X95367D01*
X87396Y96284D02*
X94367D01*
X279110Y230770D02*
X386300D01*
X278000Y229660D02*
X278420Y230080D01*
X279110Y230770D01*
D36*
X117550Y38000D02*
X119550Y40000D01*
X79900Y38000D02*
X117550D01*
X113550Y30500D02*
X119550Y24500D01*
X79900Y30500D02*
X113550D01*
X126450Y24500D02*
X148850D01*
X150400Y22950D01*
X126450Y40000D02*
X142000D01*
X146050Y44050D01*
X150400D01*
X124950Y93000D02*
X131000Y99050D01*
X144400D01*
X105150Y78000D02*
X117950D01*
X98400Y84750D02*
X105150Y78000D01*
X117300Y92250D02*
X118050Y93000D01*
X98400Y92250D02*
X117300D01*
X262300Y42000D02*
X285550D01*
X260500Y43800D02*
X262300Y42000D01*
X292450Y25500D02*
X325250D01*
X292450Y42000D02*
X294700Y39750D01*
X332000D01*
X281750Y79700D02*
X283550Y81500D01*
X267000Y79700D02*
X281750D01*
X281100Y94500D02*
X283550D01*
X274800Y100800D02*
X281100Y94500D01*
X233950Y163325D02*
X245775D01*
X247050Y162050D01*
X248500D01*
X217150Y163325D02*
X227050D01*
X325250Y25500D02*
X332000Y32250D01*
X209500Y157175D02*
X211000D01*
X207775Y158900D02*
X209500Y157175D01*
X146600Y158900D02*
X207775D01*
X140972Y164528D02*
X146600Y158900D01*
X211000Y157175D02*
X217150Y163325D01*
X350000Y157000D02*
X350500Y156500D01*
X347500Y159500D02*
X350000Y157000D01*
X192500Y30500D02*
Y40550D01*
X216000Y32000D02*
X217500Y30500D01*
X216000Y32000D02*
Y40550D01*
X223450Y116500D02*
X223500Y116450D01*
X267000Y100800D02*
X274800D01*
X140972Y164528D02*
Y190685D01*
X313500Y117000D02*
X319050D01*
X313500D02*
Y130050D01*
X313475Y151000D02*
X329500D01*
X297450D02*
X313475D01*
X313500Y150975D01*
Y136950D02*
Y150975D01*
X290450Y144000D02*
X297450Y151000D01*
X329500D02*
X335000Y156500D01*
X345000D01*
X345500Y156000D01*
Y151455D02*
Y156000D01*
X350500Y151455D02*
Y156500D01*
X326500Y159500D02*
X347500D01*
X324000Y157000D02*
X326500Y159500D01*
X290450Y157000D02*
X324000D01*
X258500Y158000D02*
X259500Y157000D01*
X254450Y162050D02*
X258500Y158000D01*
Y151311D02*
Y158000D01*
Y142000D02*
X259000Y141500D01*
X258500Y142000D02*
Y147689D01*
X281050Y141500D02*
X283550Y144000D01*
X259000Y141500D02*
X281050D01*
X253950Y136450D02*
X259000Y141500D01*
X248500Y136450D02*
X253950D01*
X259500Y157000D02*
X283550D01*
X248500Y162050D02*
X254450D01*
X247125Y137825D02*
X248500Y136450D01*
X236400Y137825D02*
X247125D01*
X211000D02*
X224600D01*
X163517D02*
X164150D01*
X150028Y151315D02*
X163517Y137825D01*
X171050D02*
X184100D01*
X191000D02*
X204100D01*
X211000D02*
Y152825D01*
X224000Y98500D02*
X226250Y100750D01*
X223000Y97500D02*
X224000Y98500D01*
Y109050D01*
X223000Y90380D02*
Y97500D01*
X226250Y100750D02*
X241050D01*
X218000Y116500D02*
X223450D01*
X218000Y90380D02*
Y116500D01*
X233500Y90380D02*
X237171D01*
X228000D02*
X233500D01*
Y81550D02*
Y90380D01*
Y81550D02*
X241550Y73500D01*
X237171Y90380D02*
X241050Y86500D01*
X256500Y100800D02*
X267000D01*
X248000D02*
X256500D01*
X256500Y100800D02*
X256500Y100800D01*
X256500Y92061D02*
Y100800D01*
X256000Y79700D02*
X267000D01*
X254750D02*
X256000D01*
X256500Y80200D01*
Y88439D01*
X247950Y86500D02*
X254750Y79700D01*
X247950Y100750D02*
X248000Y100800D01*
X195500Y97500D02*
X196900Y96100D01*
X193500Y99500D02*
X195500Y97500D01*
Y109050D01*
X201750Y115950D02*
X201900Y116100D01*
X195500Y115950D02*
X201750D01*
X201900Y90130D02*
Y116100D01*
X175950Y85450D02*
X177000Y86500D01*
X175950Y73500D02*
Y85450D01*
X169350Y86500D02*
X177000D01*
X178500Y88000D01*
Y95000D01*
X180000Y96500D01*
X190500D01*
X191900Y95100D01*
Y90130D02*
Y95100D01*
X196900Y90130D02*
Y96100D01*
X169450Y99500D02*
X193500D01*
X154500Y99050D02*
X162100D01*
X144400D02*
X154500D01*
X154400Y98950D02*
X154500Y99050D01*
X154400Y90311D02*
Y98950D01*
X154500Y77950D02*
X155950D01*
X154400Y78050D02*
X154500Y77950D01*
X154400Y78050D02*
Y86689D01*
X162450Y84450D02*
Y86500D01*
X155950Y77950D02*
X162450Y84450D01*
X162100Y99050D02*
X162550Y99500D01*
X205000Y58118D02*
Y65770D01*
X201900Y68870D02*
X205000Y65770D01*
X210500Y40000D02*
Y61000D01*
Y40000D02*
X211050Y40550D01*
X216000D01*
X210500Y61000D02*
X213000Y63500D01*
Y69120D01*
X222000Y47500D02*
Y58000D01*
Y39500D02*
Y47500D01*
X221950Y47450D02*
X222000Y47500D01*
X216000Y47450D02*
X221950D01*
X218000Y62000D02*
Y69120D01*
Y62000D02*
X222000Y58000D01*
Y39500D02*
X226000Y35500D01*
X233550D01*
X229750Y43250D02*
X237050D01*
X225500Y47500D02*
X229750Y43250D01*
X233550Y35500D02*
X237050Y32000D01*
X225500Y54000D02*
Y62000D01*
Y47500D02*
Y54000D01*
X237050D01*
X223000Y64500D02*
Y69120D01*
Y64500D02*
X225500Y62000D01*
X251500Y22700D02*
X260500D01*
X247800D02*
X251500D01*
Y32189D01*
X251000Y43800D02*
X260500D01*
X244500D02*
X251000D01*
Y36311D02*
X251500Y35811D01*
X251000Y36311D02*
Y43800D01*
X243950Y43250D02*
X244500Y43800D01*
X243950Y26550D02*
Y32000D01*
Y26550D02*
X247800Y22700D01*
X199000Y40500D02*
Y52500D01*
X198950Y40550D02*
X199000Y40500D01*
X192500Y40550D02*
X198950D01*
X196900Y54600D02*
X199000Y52500D01*
X196900Y54600D02*
Y68870D01*
X191900Y48050D02*
X192500Y47450D01*
X191900Y48050D02*
Y61400D01*
Y68870D01*
X188000Y57500D02*
X191900Y61400D01*
X188000Y46050D02*
Y57500D01*
X175950Y34000D02*
X188000Y46050D01*
X184000Y60000D02*
Y65970D01*
Y56050D02*
Y60000D01*
X175900D02*
X184000D01*
Y65970D02*
X186900Y68870D01*
X175950Y48000D02*
X184000Y56050D01*
X160500Y22950D02*
X164950D01*
X150400D02*
X160500D01*
X160400Y23050D02*
X160500Y22950D01*
X160400Y23050D02*
Y31689D01*
X160000Y44050D02*
X165100D01*
X150400D02*
X160000D01*
Y35711D02*
X160400Y35311D01*
X160000Y35711D02*
Y44050D01*
X165100D02*
X169050Y48000D01*
Y27050D02*
Y34000D01*
X164950Y22950D02*
X169050Y27050D01*
X124850Y78000D02*
X124900Y77950D01*
X144400D02*
X154500D01*
X124900D02*
X144400D01*
X260500Y22700D02*
X263300Y25500D01*
X285550D01*
D37*
X344804Y78605D02*
X345000Y78409D01*
Y64800D02*
Y78409D01*
X73400Y78705D02*
X73600Y78505D01*
Y66400D02*
Y78505D01*
X358604Y14796D02*
Y26188D01*
Y46779D02*
X372800Y60975D01*
X54400Y44295D02*
Y60300D01*
X41600Y73100D02*
X54400Y60300D01*
X60695Y112000D02*
X73400Y99295D01*
X47900Y112000D02*
X60695D01*
X9000Y147748D02*
X12626Y144122D01*
X54400Y11500D02*
Y23705D01*
Y11500D02*
X57422Y8478D01*
X68805D01*
X14800Y78100D02*
X22800D01*
X9000Y72300D02*
X14800Y78100D01*
X9000Y36000D02*
Y72300D01*
Y36000D02*
X12900Y32100D01*
X41600Y73100D02*
Y92900D01*
X36715Y97785D02*
X41600Y92900D01*
X22800Y97785D02*
X36715D01*
X13185Y210885D02*
X22300D01*
X9000Y206700D02*
X13185Y210885D01*
X9000Y147748D02*
Y206700D01*
X341295Y168522D02*
Y199594D01*
X402600Y113700D02*
Y139500D01*
X397200Y144900D02*
X402600Y139500D01*
X341295Y199594D02*
X352785Y211085D01*
X386300D01*
Y230770D02*
X402800Y214270D01*
X344804Y99195D02*
X355209Y109600D01*
X398500D01*
X402600Y113700D01*
X372800Y60975D02*
Y91400D01*
X379100Y97700D01*
X387600D01*
X358604Y14796D02*
X365300Y8100D01*
X378000D01*
X402800Y162200D02*
Y214270D01*
X384500Y154274D02*
X386626Y156400D01*
X397000D01*
X402800Y162200D01*
D38*
X345000Y64800D02*
D03*
X384500Y154274D02*
D03*
X389326Y121278D02*
D03*
X397200Y144900D02*
D03*
X389326Y168522D02*
D03*
X341295D02*
D03*
X329969Y55344D02*
D03*
X322094Y31722D02*
D03*
X329969Y8100D02*
D03*
X378000D02*
D03*
X20500Y167744D02*
D03*
X12626Y144122D02*
D03*
X20500Y120500D02*
D03*
X68532D02*
D03*
X68805Y8478D02*
D03*
X20774D02*
D03*
X12900Y32100D02*
D03*
X20774Y55722D02*
D03*
X73600Y66400D02*
D03*
X47900Y112000D02*
D03*
D39*
X97500Y144000D02*
D03*
Y174000D02*
D03*
X168000Y123000D02*
D03*
X138000D02*
D03*
X122500Y146500D02*
D03*
Y176500D02*
D03*
X322000Y172500D02*
D03*
Y142500D02*
D03*
X244000Y177000D02*
D03*
X274000D02*
D03*
X267500Y164000D02*
D03*
Y134000D02*
D03*
X319500Y49500D02*
D03*
Y19500D02*
D03*
X247500Y62000D02*
D03*
X277500D02*
D03*
X272000Y48000D02*
D03*
Y18000D02*
D03*
X93500Y16500D02*
D03*
Y46500D02*
D03*
X171000Y7000D02*
D03*
X141000D02*
D03*
X140000Y17000D02*
D03*
Y47000D02*
D03*
D40*
X140972Y190685D02*
D03*
X150028Y151315D02*
D03*
D41*
X68300Y139500D02*
D03*
X65200D02*
D03*
X62100D02*
D03*
X59000D02*
D03*
X55900D02*
D03*
X52800D02*
D03*
X49700D02*
D03*
X46600D02*
D03*
X68300Y142600D02*
D03*
X65200D02*
D03*
X62100D02*
D03*
X59000D02*
D03*
X55900D02*
D03*
X52800D02*
D03*
X49700D02*
D03*
X46600D02*
D03*
X68300Y145700D02*
D03*
X65200D02*
D03*
X62100D02*
D03*
X59000D02*
D03*
X55900D02*
D03*
X52800D02*
D03*
X49700D02*
D03*
X46600D02*
D03*
X68300Y148800D02*
D03*
X65200D02*
D03*
X62100D02*
D03*
X59000D02*
D03*
X55900D02*
D03*
X52800D02*
D03*
X49700D02*
D03*
X46600D02*
D03*
X68300Y151900D02*
D03*
X65200D02*
D03*
X62100D02*
D03*
X59000D02*
D03*
X55900D02*
D03*
X52800D02*
D03*
X49700D02*
D03*
X46600D02*
D03*
X68300Y155000D02*
D03*
X65200D02*
D03*
X62100D02*
D03*
X59000D02*
D03*
X55900D02*
D03*
X52800D02*
D03*
X49700D02*
D03*
X46600D02*
D03*
X68300Y158100D02*
D03*
X65200D02*
D03*
X62100D02*
D03*
X59000D02*
D03*
X55900D02*
D03*
X52800D02*
D03*
X49700D02*
D03*
X46600D02*
D03*
X68300Y161200D02*
D03*
X65200D02*
D03*
X62100D02*
D03*
X59000D02*
D03*
X55900D02*
D03*
X52800D02*
D03*
X49700D02*
D03*
X46600D02*
D03*
D42*
X278000Y229660D02*
D03*
X238620D02*
D03*
X155020Y192100D02*
D03*
Y178330D02*
D03*
Y164540D02*
D03*
D43*
X386300Y191400D02*
D03*
Y211085D02*
D03*
Y230770D02*
D03*
D44*
X105000Y5988D02*
D03*
X109000Y144500D02*
D03*
X304500Y198000D02*
D03*
X308000Y62512D02*
D03*
D45*
X105000Y61500D02*
D03*
X109000Y200012D02*
D03*
X304500Y142488D02*
D03*
X308000Y7000D02*
D03*
D46*
X22800Y78100D02*
D03*
X22300Y191200D02*
D03*
X387600Y78015D02*
D03*
D47*
X22800Y97785D02*
D03*
X22300Y210885D02*
D03*
X387600Y97700D02*
D03*
D48*
X400500Y25100D02*
D03*
X130900Y234200D02*
D03*
D49*
X201500Y172800D02*
D03*
X371800Y147000D02*
D03*
X53700Y128700D02*
D03*
X56900Y128800D02*
D03*
X84000Y131800D02*
D03*
X85800Y134500D02*
D03*
X47200Y128800D02*
D03*
X50600D02*
D03*
X275000Y134000D02*
D03*
X282500Y133000D02*
D03*
X145000Y207000D02*
D03*
X227000Y197500D02*
D03*
X210000Y121000D02*
D03*
X223500Y124500D02*
D03*
X210000Y129000D02*
D03*
X307500Y117500D02*
D03*
X279000Y13000D02*
D03*
X238000Y18500D02*
D03*
X217500Y30500D02*
D03*
X205000Y33000D02*
D03*
X192500Y30500D02*
D03*
X180500Y26000D02*
D03*
X176000Y15500D02*
D03*
X235500Y64000D02*
D03*
X160000Y70000D02*
D03*
X147000Y56000D02*
D03*
X135780Y57721D02*
D03*
X131500Y131500D02*
D03*
X103000Y152500D02*
D03*
X90300Y157100D02*
D03*
X93900Y164411D02*
D03*
X89800Y183300D02*
D03*
X41300Y180300D02*
D03*
X36000Y188500D02*
D03*
X73900Y183600D02*
D03*
X72000Y204000D02*
D03*
X43000D02*
D03*
X96000Y112000D02*
D03*
X95500Y104500D02*
D03*
X104000D02*
D03*
X112000D02*
D03*
X128400Y104700D02*
D03*
X136500Y104600D02*
D03*
X144500Y109000D02*
D03*
X153000D02*
D03*
X168000D02*
D03*
X82800Y108600D02*
D03*
X34600Y148100D02*
D03*
X2400Y220100D02*
D03*
X223000Y23700D02*
D03*
X234800Y23300D02*
D03*
X195500Y123900D02*
D03*
X150500Y216000D02*
D03*
X163600Y78400D02*
D03*
D50*
X185400Y106300D02*
D03*
M02*
