G04 Layer_Color=8388736*
%FSLAX25Y25*%
%MOIN*%
G70*
G01*
G75*
%ADD12R,0.04200X0.03200*%
%ADD16R,0.03800X0.03600*%
%ADD20R,0.02565X0.02184*%
%ADD24R,0.03600X0.03800*%
%ADD25R,0.05200X0.04800*%
%ADD27R,0.02400X0.06400*%
%ADD28R,0.05200X0.06700*%
%ADD56R,0.03753X0.03162*%
%ADD57R,0.03162X0.03753*%
%ADD58R,0.03241X0.03162*%
%ADD59R,0.03162X0.03241*%
%ADD60R,0.04147X0.04540*%
%ADD61R,0.12808X0.10800*%
%ADD62R,0.06784X0.05800*%
%ADD63R,0.04934X0.03162*%
%ADD64R,0.05131X0.03359*%
%ADD65R,0.03359X0.06706*%
%ADD66R,0.05918X0.07887*%
%ADD67C,0.06800*%
%ADD68R,0.07887X0.05918*%
%ADD69R,0.03556X0.03162*%
%ADD70R,0.00084X0.00084*%
%ADD71R,0.03769X0.01981*%
%ADD72R,0.01981X0.03769*%
G04:AMPARAMS|DCode=73|XSize=168mil|YSize=168mil|CornerRadius=44mil|HoleSize=0mil|Usage=FLASHONLY|Rotation=0.000|XOffset=0mil|YOffset=0mil|HoleType=Round|Shape=RoundedRectangle|*
%AMROUNDEDRECTD73*
21,1,0.16800,0.08000,0,0,0.0*
21,1,0.08000,0.16800,0,0,0.0*
1,1,0.08800,0.04000,-0.04000*
1,1,0.08800,-0.04000,-0.04000*
1,1,0.08800,-0.04000,0.04000*
1,1,0.08800,0.04000,0.04000*
%
%ADD73ROUNDEDRECTD73*%
%ADD74C,0.07887*%
%ADD75R,0.07887X0.07887*%
%ADD76C,0.08477*%
%ADD77C,0.06312*%
%ADD78C,0.07001*%
%ADD79R,0.07001X0.07001*%
%ADD80C,0.07493*%
%ADD81C,0.08674*%
%ADD82C,0.02800*%
%ADD83C,0.08674*%
%ADD84C,0.02400*%
%ADD85C,0.05800*%
G36*
X74803Y144561D02*
X71284D01*
Y146294D01*
X74803D01*
Y144561D01*
D02*
G37*
G36*
X43616D02*
X40097D01*
Y146294D01*
X43616D01*
Y144561D01*
D02*
G37*
G36*
X74803Y146530D02*
X71284D01*
Y148263D01*
X74803D01*
Y146530D01*
D02*
G37*
G36*
X43616D02*
X40097D01*
Y148263D01*
X43616D01*
Y146530D01*
D02*
G37*
G36*
X74803Y142592D02*
X71284D01*
Y144325D01*
X74803D01*
Y142592D01*
D02*
G37*
G36*
X43616Y140623D02*
X40097D01*
Y142356D01*
X43616D01*
Y140623D01*
D02*
G37*
G36*
X74803Y138654D02*
X71284D01*
Y140387D01*
X74803D01*
Y138654D01*
D02*
G37*
G36*
X43616Y142592D02*
X40097D01*
Y144325D01*
X43616D01*
Y142592D01*
D02*
G37*
G36*
X74803Y140623D02*
X71284D01*
Y142356D01*
X74803D01*
Y140623D01*
D02*
G37*
G36*
X43616Y154406D02*
X40097D01*
Y156139D01*
X43616D01*
Y154406D01*
D02*
G37*
G36*
X74803Y152437D02*
X71284D01*
Y154170D01*
X74803D01*
Y152437D01*
D02*
G37*
G36*
X43616Y156375D02*
X40097D01*
Y158108D01*
X43616D01*
Y156375D01*
D02*
G37*
G36*
X74803Y154406D02*
X71284D01*
Y156139D01*
X74803D01*
Y154406D01*
D02*
G37*
G36*
X43616Y152437D02*
X40097D01*
Y154170D01*
X43616D01*
Y152437D01*
D02*
G37*
G36*
X74803Y148499D02*
X71284D01*
Y150232D01*
X74803D01*
Y148499D01*
D02*
G37*
G36*
X43616D02*
X40097D01*
Y150232D01*
X43616D01*
Y148499D01*
D02*
G37*
G36*
X74803Y150468D02*
X71284D01*
Y152201D01*
X74803D01*
Y150468D01*
D02*
G37*
G36*
X43616D02*
X40097D01*
Y152201D01*
X43616D01*
Y150468D01*
D02*
G37*
G36*
X57332Y132997D02*
X55600D01*
Y136516D01*
X57332D01*
Y132997D01*
D02*
G37*
G36*
X55363D02*
X53631D01*
Y136516D01*
X55363D01*
Y132997D01*
D02*
G37*
G36*
X61269D02*
X59537D01*
Y136516D01*
X61269D01*
Y132997D01*
D02*
G37*
G36*
X59300D02*
X57568D01*
Y136516D01*
X59300D01*
Y132997D01*
D02*
G37*
G36*
X53395D02*
X51663D01*
Y136516D01*
X53395D01*
Y132997D01*
D02*
G37*
G36*
X47489D02*
X45757D01*
Y136516D01*
X47489D01*
Y132997D01*
D02*
G37*
G36*
X45521D02*
X43789D01*
Y136516D01*
X45521D01*
Y132997D01*
D02*
G37*
G36*
X51426D02*
X49694D01*
Y136516D01*
X51426D01*
Y132997D01*
D02*
G37*
G36*
X49458D02*
X47726D01*
Y136516D01*
X49458D01*
Y132997D01*
D02*
G37*
G36*
X74803Y136685D02*
X71284D01*
Y138418D01*
X74803D01*
Y136685D01*
D02*
G37*
G36*
X43616D02*
X40097D01*
Y138418D01*
X43616D01*
Y136685D01*
D02*
G37*
G36*
Y138654D02*
X40097D01*
Y140387D01*
X43616D01*
Y138654D01*
D02*
G37*
G36*
X70692Y161987D02*
Y160413D01*
Y158887D01*
Y157313D01*
Y155787D01*
Y154213D01*
Y152687D01*
Y151113D01*
Y149587D01*
Y148013D01*
Y146487D01*
Y144913D01*
Y143387D01*
Y141813D01*
Y140287D01*
Y137108D01*
X44208D01*
Y140287D01*
Y141813D01*
Y143387D01*
Y144913D01*
Y146487D01*
Y148013D01*
Y149587D01*
Y151113D01*
Y152687D01*
Y154213D01*
Y155787D01*
Y157313D01*
Y158887D01*
Y160413D01*
Y161987D01*
Y163592D01*
X70692D01*
Y161987D01*
D02*
G37*
G36*
X71111Y132997D02*
X69379D01*
Y136516D01*
X71111D01*
Y132997D01*
D02*
G37*
G36*
X65206D02*
X63474D01*
Y136516D01*
X65206D01*
Y132997D01*
D02*
G37*
G36*
X63237D02*
X61505D01*
Y136516D01*
X63237D01*
Y132997D01*
D02*
G37*
G36*
X69143D02*
X67411D01*
Y136516D01*
X69143D01*
Y132997D01*
D02*
G37*
G36*
X67174D02*
X65442D01*
Y136516D01*
X67174D01*
Y132997D01*
D02*
G37*
G36*
X74803Y156375D02*
X71284D01*
Y158108D01*
X74803D01*
Y156375D01*
D02*
G37*
G36*
X45521Y164184D02*
X43789D01*
Y167703D01*
X45521D01*
Y164184D01*
D02*
G37*
G36*
X74803Y162282D02*
X71284D01*
Y164015D01*
X74803D01*
Y162282D01*
D02*
G37*
G36*
X47489Y164184D02*
X45757D01*
Y167703D01*
X47489D01*
Y164184D01*
D02*
G37*
G36*
X51426D02*
X49694D01*
Y167703D01*
X51426D01*
Y164184D01*
D02*
G37*
G36*
X49458D02*
X47726D01*
Y167703D01*
X49458D01*
Y164184D01*
D02*
G37*
G36*
X43616Y160313D02*
X40097D01*
Y162046D01*
X43616D01*
Y160313D01*
D02*
G37*
G36*
X74803Y158344D02*
X71284D01*
Y160077D01*
X74803D01*
Y158344D01*
D02*
G37*
G36*
X43616D02*
X40097D01*
Y160077D01*
X43616D01*
Y158344D01*
D02*
G37*
G36*
Y162282D02*
X40097D01*
Y164015D01*
X43616D01*
Y162282D01*
D02*
G37*
G36*
X74803Y160313D02*
X71284D01*
Y162046D01*
X74803D01*
Y160313D01*
D02*
G37*
G36*
X65206Y164184D02*
X63474D01*
Y167703D01*
X65206D01*
Y164184D01*
D02*
G37*
G36*
X63237D02*
X61505D01*
Y167703D01*
X63237D01*
Y164184D01*
D02*
G37*
G36*
X71111D02*
X69379D01*
Y167703D01*
X71111D01*
Y164184D01*
D02*
G37*
G36*
X67174D02*
X65442D01*
Y167703D01*
X67174D01*
Y164184D01*
D02*
G37*
G36*
X69143D02*
X67411D01*
Y167703D01*
X69143D01*
Y164184D01*
D02*
G37*
G36*
X57332D02*
X55600D01*
Y167703D01*
X57332D01*
Y164184D01*
D02*
G37*
G36*
X55363D02*
X53631D01*
Y167703D01*
X55363D01*
Y164184D01*
D02*
G37*
G36*
X53395D02*
X51663D01*
Y167703D01*
X53395D01*
Y164184D01*
D02*
G37*
G36*
X61269D02*
X59537D01*
Y167703D01*
X61269D01*
Y164184D01*
D02*
G37*
G36*
X59300D02*
X57568D01*
Y167703D01*
X59300D01*
Y164184D01*
D02*
G37*
%LPC*%
G36*
X56687Y143387D02*
X55113D01*
Y141813D01*
X56687D01*
Y143387D01*
D02*
G37*
G36*
X50487D02*
X48913D01*
Y141813D01*
X50487D01*
Y143387D01*
D02*
G37*
G36*
X53587D02*
X52013D01*
Y141813D01*
X53587D01*
Y143387D01*
D02*
G37*
G36*
X59787D02*
X58213D01*
Y141813D01*
X59787D01*
Y143387D01*
D02*
G37*
G36*
X53587Y161987D02*
X52013D01*
Y160413D01*
X53587D01*
Y161987D01*
D02*
G37*
G36*
X50487D02*
X48913D01*
Y160413D01*
X50487D01*
Y161987D01*
D02*
G37*
G36*
X47387D02*
X45813D01*
Y160413D01*
X47387D01*
Y161987D01*
D02*
G37*
G36*
X62887Y143387D02*
X61313D01*
Y141813D01*
X62887D01*
Y143387D01*
D02*
G37*
G36*
X65987D02*
X64413D01*
Y141813D01*
X65987D01*
Y143387D01*
D02*
G37*
G36*
X69087D02*
X67513D01*
Y141813D01*
X69087D01*
Y143387D01*
D02*
G37*
G36*
X47387D02*
X45813D01*
Y141813D01*
X47387D01*
Y143387D01*
D02*
G37*
G36*
Y140287D02*
X45813D01*
Y138713D01*
X47387D01*
Y140287D01*
D02*
G37*
G36*
X50487D02*
X48913D01*
Y138713D01*
X50487D01*
Y140287D01*
D02*
G37*
G36*
X53587D02*
X52013D01*
Y138713D01*
X53587D01*
Y140287D01*
D02*
G37*
G36*
X69087Y161987D02*
X67513D01*
Y160413D01*
X69087D01*
Y161987D01*
D02*
G37*
G36*
X65987D02*
X64413D01*
Y160413D01*
X65987D01*
Y161987D01*
D02*
G37*
G36*
X62887D02*
X61313D01*
Y160413D01*
X62887D01*
Y161987D01*
D02*
G37*
G36*
X56687Y140287D02*
X55113D01*
Y138713D01*
X56687D01*
Y140287D01*
D02*
G37*
G36*
X69087D02*
X67513D01*
Y138713D01*
X69087D01*
Y140287D01*
D02*
G37*
G36*
X59787Y161987D02*
X58213D01*
Y160413D01*
X59787D01*
Y161987D01*
D02*
G37*
G36*
X56687D02*
X55113D01*
Y160413D01*
X56687D01*
Y161987D01*
D02*
G37*
G36*
X59787Y140287D02*
X58213D01*
Y138713D01*
X59787D01*
Y140287D01*
D02*
G37*
G36*
X62887D02*
X61313D01*
Y138713D01*
X62887D01*
Y140287D01*
D02*
G37*
G36*
X65987D02*
X64413D01*
Y138713D01*
X65987D01*
Y140287D01*
D02*
G37*
G36*
X69087Y152687D02*
X67513D01*
Y151113D01*
X69087D01*
Y152687D01*
D02*
G37*
G36*
X65987D02*
X64413D01*
Y151113D01*
X65987D01*
Y152687D01*
D02*
G37*
G36*
X59787Y158887D02*
X58213D01*
Y157313D01*
X59787D01*
Y158887D01*
D02*
G37*
G36*
X47387Y155787D02*
X45813D01*
Y154213D01*
X47387D01*
Y155787D01*
D02*
G37*
G36*
X56687Y158887D02*
X55113D01*
Y157313D01*
X56687D01*
Y158887D01*
D02*
G37*
G36*
X53587Y152687D02*
X52013D01*
Y151113D01*
X53587D01*
Y152687D01*
D02*
G37*
G36*
X50487D02*
X48913D01*
Y151113D01*
X50487D01*
Y152687D01*
D02*
G37*
G36*
X56687D02*
X55113D01*
Y151113D01*
X56687D01*
Y152687D01*
D02*
G37*
G36*
X62887D02*
X61313D01*
Y151113D01*
X62887D01*
Y152687D01*
D02*
G37*
G36*
X59787D02*
X58213D01*
Y151113D01*
X59787D01*
Y152687D01*
D02*
G37*
G36*
X69087Y155787D02*
X67513D01*
Y154213D01*
X69087D01*
Y155787D01*
D02*
G37*
G36*
X65987D02*
X64413D01*
Y154213D01*
X65987D01*
Y155787D01*
D02*
G37*
G36*
X53587Y158887D02*
X52013D01*
Y157313D01*
X53587D01*
Y158887D01*
D02*
G37*
G36*
X47387D02*
X45813D01*
Y157313D01*
X47387D01*
Y158887D01*
D02*
G37*
G36*
X50487D02*
X48913D01*
Y157313D01*
X50487D01*
Y158887D01*
D02*
G37*
G36*
X53587Y155787D02*
X52013D01*
Y154213D01*
X53587D01*
Y155787D01*
D02*
G37*
G36*
X50487D02*
X48913D01*
Y154213D01*
X50487D01*
Y155787D01*
D02*
G37*
G36*
X56687D02*
X55113D01*
Y154213D01*
X56687D01*
Y155787D01*
D02*
G37*
G36*
X62887D02*
X61313D01*
Y154213D01*
X62887D01*
Y155787D01*
D02*
G37*
G36*
X59787D02*
X58213D01*
Y154213D01*
X59787D01*
Y155787D01*
D02*
G37*
G36*
X65987Y146487D02*
X64413D01*
Y144913D01*
X65987D01*
Y146487D01*
D02*
G37*
G36*
X62887D02*
X61313D01*
Y144913D01*
X62887D01*
Y146487D01*
D02*
G37*
G36*
X69087D02*
X67513D01*
Y144913D01*
X69087D01*
Y146487D01*
D02*
G37*
G36*
X50487Y149587D02*
X48913D01*
Y148013D01*
X50487D01*
Y149587D01*
D02*
G37*
G36*
X47387D02*
X45813D01*
Y148013D01*
X47387D01*
Y149587D01*
D02*
G37*
G36*
X50487Y146487D02*
X48913D01*
Y144913D01*
X50487D01*
Y146487D01*
D02*
G37*
G36*
X47387D02*
X45813D01*
Y144913D01*
X47387D01*
Y146487D01*
D02*
G37*
G36*
X53587D02*
X52013D01*
Y144913D01*
X53587D01*
Y146487D01*
D02*
G37*
G36*
X59787D02*
X58213D01*
Y144913D01*
X59787D01*
Y146487D01*
D02*
G37*
G36*
X56687D02*
X55113D01*
Y144913D01*
X56687D01*
Y146487D01*
D02*
G37*
G36*
X69087Y158887D02*
X67513D01*
Y157313D01*
X69087D01*
Y158887D01*
D02*
G37*
G36*
Y149587D02*
X67513D01*
Y148013D01*
X69087D01*
Y149587D01*
D02*
G37*
G36*
X65987Y158887D02*
X64413D01*
Y157313D01*
X65987D01*
Y158887D01*
D02*
G37*
G36*
X47387Y152687D02*
X45813D01*
Y151113D01*
X47387D01*
Y152687D01*
D02*
G37*
G36*
X62887Y158887D02*
X61313D01*
Y157313D01*
X62887D01*
Y158887D01*
D02*
G37*
G36*
X56687Y149587D02*
X55113D01*
Y148013D01*
X56687D01*
Y149587D01*
D02*
G37*
G36*
X53587D02*
X52013D01*
Y148013D01*
X53587D01*
Y149587D01*
D02*
G37*
G36*
X59787D02*
X58213D01*
Y148013D01*
X59787D01*
Y149587D01*
D02*
G37*
G36*
X65987D02*
X64413D01*
Y148013D01*
X65987D01*
Y149587D01*
D02*
G37*
G36*
X62887D02*
X61313D01*
Y148013D01*
X62887D01*
Y149587D01*
D02*
G37*
%LPD*%
D12*
X248500Y155950D02*
D03*
Y162050D02*
D03*
Y136450D02*
D03*
Y142550D02*
D03*
X260500Y22700D02*
D03*
Y28800D02*
D03*
Y37700D02*
D03*
Y43800D02*
D03*
X267000Y79700D02*
D03*
Y85800D02*
D03*
Y94700D02*
D03*
Y100800D02*
D03*
X144400Y99050D02*
D03*
Y92950D02*
D03*
Y84050D02*
D03*
Y77950D02*
D03*
X150400Y44050D02*
D03*
Y37950D02*
D03*
Y29050D02*
D03*
Y22950D02*
D03*
D16*
X175950Y34000D02*
D03*
X169050D02*
D03*
X169450Y99500D02*
D03*
X162550D02*
D03*
X171050Y137825D02*
D03*
X164150D02*
D03*
X371450Y157000D02*
D03*
X364550D02*
D03*
X290450D02*
D03*
X283550D02*
D03*
X290450Y144000D02*
D03*
X283550D02*
D03*
X211000Y137825D02*
D03*
X204100D02*
D03*
X237050Y32000D02*
D03*
X243950D02*
D03*
X237050Y43250D02*
D03*
X243950D02*
D03*
X243950Y54000D02*
D03*
X237050D02*
D03*
X248450Y73500D02*
D03*
X241550D02*
D03*
X241050Y86500D02*
D03*
X247950D02*
D03*
X241050Y100750D02*
D03*
X247950D02*
D03*
X319050Y117000D02*
D03*
X325950D02*
D03*
X169350Y86500D02*
D03*
X162450D02*
D03*
X191000Y137825D02*
D03*
X184100D02*
D03*
X169050Y73500D02*
D03*
X175950D02*
D03*
Y48000D02*
D03*
X169050D02*
D03*
X169000Y60000D02*
D03*
X175900D02*
D03*
X233950Y163325D02*
D03*
X227050D02*
D03*
X124950Y93000D02*
D03*
X118050D02*
D03*
X124850Y78000D02*
D03*
X117950D02*
D03*
X126450Y40000D02*
D03*
X119550D02*
D03*
X126450Y24500D02*
D03*
X119550D02*
D03*
X285550Y25500D02*
D03*
X292450D02*
D03*
X285550Y42000D02*
D03*
X292450D02*
D03*
X283550Y81500D02*
D03*
X290450D02*
D03*
X283550Y94500D02*
D03*
X290450D02*
D03*
D20*
X211000Y152825D02*
D03*
Y157175D02*
D03*
D24*
X216000Y40550D02*
D03*
Y47450D02*
D03*
X224000Y115950D02*
D03*
Y109050D02*
D03*
X313500Y130050D02*
D03*
Y136950D02*
D03*
X195500Y115950D02*
D03*
Y109050D02*
D03*
X192500Y40550D02*
D03*
Y47450D02*
D03*
D25*
X332000Y32250D02*
D03*
Y39750D02*
D03*
X317200Y84750D02*
D03*
Y92250D02*
D03*
X79900Y38000D02*
D03*
Y30500D02*
D03*
X98400Y92250D02*
D03*
Y84750D02*
D03*
D27*
X291760Y130200D02*
D03*
X299240D02*
D03*
D28*
X224600Y137825D02*
D03*
X236400D02*
D03*
D56*
X213835Y197500D02*
D03*
X218165D02*
D03*
X224213Y18500D02*
D03*
X228543D02*
D03*
X189665Y16000D02*
D03*
X185335D02*
D03*
X168665Y197500D02*
D03*
X164335D02*
D03*
X57335Y183600D02*
D03*
X61665D02*
D03*
X85165Y164500D02*
D03*
X80835D02*
D03*
D57*
X217500Y184213D02*
D03*
Y188543D02*
D03*
X228000Y7335D02*
D03*
Y11665D02*
D03*
X185500Y26165D02*
D03*
Y21835D02*
D03*
X164500Y210665D02*
D03*
Y206335D02*
D03*
X54500Y214835D02*
D03*
Y219165D02*
D03*
Y203165D02*
D03*
Y198835D02*
D03*
X51500Y192565D02*
D03*
Y188235D02*
D03*
D58*
X71400Y196300D02*
D03*
Y192678D02*
D03*
X251500Y32189D02*
D03*
Y35811D02*
D03*
X256500Y88439D02*
D03*
Y92061D02*
D03*
X258500Y147689D02*
D03*
Y151311D02*
D03*
X57100Y192611D02*
D03*
Y188989D02*
D03*
X55500Y176811D02*
D03*
Y173189D02*
D03*
X50500Y176811D02*
D03*
Y173189D02*
D03*
X154400Y90311D02*
D03*
Y86689D02*
D03*
X160400Y35311D02*
D03*
Y31689D02*
D03*
X62600Y128411D02*
D03*
Y124789D02*
D03*
X164500Y188689D02*
D03*
Y185067D02*
D03*
X186000Y9689D02*
D03*
Y6067D02*
D03*
X228000Y26189D02*
D03*
Y29811D02*
D03*
X217500Y205689D02*
D03*
Y209311D02*
D03*
D59*
X83011Y183400D02*
D03*
X79389D02*
D03*
X51311Y182000D02*
D03*
X47689D02*
D03*
X80689Y159000D02*
D03*
X84311D02*
D03*
X34811Y163000D02*
D03*
X31189D02*
D03*
X45500Y171000D02*
D03*
X41878D02*
D03*
X45311Y176000D02*
D03*
X41689D02*
D03*
X64611Y178300D02*
D03*
X60989D02*
D03*
X74378Y172000D02*
D03*
X78000D02*
D03*
X80689Y154000D02*
D03*
X84311D02*
D03*
X54689Y209000D02*
D03*
X58311D02*
D03*
X83689Y171000D02*
D03*
X87311D02*
D03*
X34711Y137500D02*
D03*
X31089D02*
D03*
X34611Y142600D02*
D03*
X30989D02*
D03*
X78689Y136300D02*
D03*
X82311D02*
D03*
D60*
X78436Y190046D02*
D03*
Y195754D02*
D03*
X82964D02*
D03*
Y190046D02*
D03*
D61*
X54400Y23705D02*
D03*
Y44295D02*
D03*
X358604Y46779D02*
D03*
Y26188D02*
D03*
X344804Y99195D02*
D03*
Y78605D02*
D03*
X73400Y78705D02*
D03*
Y99295D02*
D03*
D62*
X40404Y26717D02*
D03*
Y34000D02*
D03*
Y41284D02*
D03*
X68396D02*
D03*
Y34000D02*
D03*
Y26717D02*
D03*
X372600Y43767D02*
D03*
Y36483D02*
D03*
Y29200D02*
D03*
X344608D02*
D03*
Y36483D02*
D03*
Y43767D02*
D03*
X358800Y96184D02*
D03*
Y88900D02*
D03*
Y81616D02*
D03*
X330808D02*
D03*
Y88900D02*
D03*
Y96184D02*
D03*
X59404Y81717D02*
D03*
Y89000D02*
D03*
Y96284D02*
D03*
X87396D02*
D03*
Y89000D02*
D03*
Y81717D02*
D03*
D63*
X296331Y59000D02*
D03*
X287669Y55260D02*
D03*
Y62740D02*
D03*
X293331Y174500D02*
D03*
X284669Y170760D02*
D03*
Y178240D02*
D03*
X117669Y9000D02*
D03*
X126331Y12740D02*
D03*
Y5260D02*
D03*
X115000Y130000D02*
D03*
X123661Y133740D02*
D03*
Y126260D02*
D03*
D64*
X119366Y61500D02*
D03*
X127634Y65280D02*
D03*
Y57721D02*
D03*
X281634Y122000D02*
D03*
X273366Y118220D02*
D03*
Y125779D02*
D03*
X295634Y9000D02*
D03*
X287366Y5221D02*
D03*
Y12779D02*
D03*
X116366Y213500D02*
D03*
X124634Y217280D02*
D03*
Y209720D02*
D03*
D65*
X355500Y130195D02*
D03*
X350500D02*
D03*
X345500D02*
D03*
X340500D02*
D03*
Y151455D02*
D03*
X345500D02*
D03*
X350500D02*
D03*
X355500D02*
D03*
X213000Y90380D02*
D03*
X218000D02*
D03*
X223000D02*
D03*
X228000D02*
D03*
Y69120D02*
D03*
X223000D02*
D03*
X218000D02*
D03*
X213000D02*
D03*
X201900Y68870D02*
D03*
X196900D02*
D03*
X191900D02*
D03*
X186900D02*
D03*
Y90130D02*
D03*
X191900D02*
D03*
X196900D02*
D03*
X201900D02*
D03*
D66*
X205000Y58118D02*
D03*
Y47882D02*
D03*
X210500Y100382D02*
D03*
Y110618D02*
D03*
D67*
X295500Y122325D02*
D03*
X85500Y210900D02*
D03*
X238500Y7800D02*
D03*
X6500Y112167D02*
D03*
Y119833D02*
D03*
Y127500D02*
D03*
Y135167D02*
D03*
X180500Y197500D02*
D03*
X200000D02*
D03*
X198500Y18500D02*
D03*
X215000D02*
D03*
X180500Y186000D02*
D03*
X200000D02*
D03*
X198500Y6500D02*
D03*
X215500D02*
D03*
X193000Y166500D02*
D03*
D68*
X365382Y130325D02*
D03*
X375618D02*
D03*
D69*
X34665Y168500D02*
D03*
X30335D02*
D03*
D70*
X57450Y150350D02*
D03*
D71*
X41857Y137551D02*
D03*
Y139521D02*
D03*
Y141490D02*
D03*
Y143458D02*
D03*
Y145428D02*
D03*
Y147397D02*
D03*
Y149365D02*
D03*
Y151335D02*
D03*
Y153304D02*
D03*
Y155272D02*
D03*
Y157241D02*
D03*
Y159211D02*
D03*
Y161179D02*
D03*
Y163148D02*
D03*
X73044D02*
D03*
Y161179D02*
D03*
Y159211D02*
D03*
Y157241D02*
D03*
Y155272D02*
D03*
Y153304D02*
D03*
Y151335D02*
D03*
Y149365D02*
D03*
Y147397D02*
D03*
Y145428D02*
D03*
Y143458D02*
D03*
Y141490D02*
D03*
Y139521D02*
D03*
Y137551D02*
D03*
D72*
X44655Y165944D02*
D03*
X46623D02*
D03*
X48592D02*
D03*
X50560D02*
D03*
X52529D02*
D03*
X54497D02*
D03*
X56466D02*
D03*
X58434D02*
D03*
X60403D02*
D03*
X62371D02*
D03*
X64340D02*
D03*
X66308D02*
D03*
X68277D02*
D03*
X70245D02*
D03*
Y134757D02*
D03*
X68277D02*
D03*
X66308D02*
D03*
X64340D02*
D03*
X62371D02*
D03*
X60403D02*
D03*
X58434D02*
D03*
X56466D02*
D03*
X54497D02*
D03*
X52529D02*
D03*
X50560D02*
D03*
X48592D02*
D03*
X46623D02*
D03*
X44655D02*
D03*
D73*
X130900Y234200D02*
D03*
X400500Y25100D02*
D03*
D74*
X387600Y97700D02*
D03*
X22300Y210885D02*
D03*
X22800Y97785D02*
D03*
D75*
X387600Y78015D02*
D03*
X22300Y191200D02*
D03*
X22800Y78100D02*
D03*
D76*
X47900Y112000D02*
D03*
X73600Y66400D02*
D03*
X20774Y55722D02*
D03*
X12900Y32100D02*
D03*
X20774Y8478D02*
D03*
X68805D02*
D03*
X68532Y120500D02*
D03*
X20500D02*
D03*
X12626Y144122D02*
D03*
X20500Y167744D02*
D03*
X378000Y8100D02*
D03*
X329969D02*
D03*
X322094Y31722D02*
D03*
X329969Y55344D02*
D03*
X341295Y168522D02*
D03*
X389326D02*
D03*
X397200Y144900D02*
D03*
X389326Y121278D02*
D03*
X384500Y154274D02*
D03*
X345000Y64800D02*
D03*
D77*
X140000Y47000D02*
D03*
Y17000D02*
D03*
X141000Y7000D02*
D03*
X171000D02*
D03*
X93500Y46500D02*
D03*
Y16500D02*
D03*
X272000Y18000D02*
D03*
Y48000D02*
D03*
X277500Y62000D02*
D03*
X247500D02*
D03*
X319500Y19500D02*
D03*
Y49500D02*
D03*
X267500Y134000D02*
D03*
Y164000D02*
D03*
X274000Y177000D02*
D03*
X244000D02*
D03*
X322000Y142500D02*
D03*
Y172500D02*
D03*
X122500Y176500D02*
D03*
Y146500D02*
D03*
X138000Y123000D02*
D03*
X168000D02*
D03*
X97500Y174000D02*
D03*
Y144000D02*
D03*
D78*
X308000Y7000D02*
D03*
X304500Y142488D02*
D03*
X109000Y200012D02*
D03*
X105000Y61500D02*
D03*
D79*
X308000Y62512D02*
D03*
X304500Y198000D02*
D03*
X109000Y144500D02*
D03*
X105000Y5988D02*
D03*
D80*
X386300Y230770D02*
D03*
Y211085D02*
D03*
Y191400D02*
D03*
D81*
X155020Y164540D02*
D03*
Y178330D02*
D03*
Y192100D02*
D03*
X238620Y229660D02*
D03*
X278000D02*
D03*
D82*
X46600Y161200D02*
D03*
X49700D02*
D03*
X52800D02*
D03*
X55900D02*
D03*
X59000D02*
D03*
X62100D02*
D03*
X65200D02*
D03*
X68300D02*
D03*
X46600Y158100D02*
D03*
X49700D02*
D03*
X52800D02*
D03*
X55900D02*
D03*
X59000D02*
D03*
X62100D02*
D03*
X65200D02*
D03*
X68300D02*
D03*
X46600Y155000D02*
D03*
X49700D02*
D03*
X52800D02*
D03*
X55900D02*
D03*
X59000D02*
D03*
X62100D02*
D03*
X65200D02*
D03*
X68300D02*
D03*
X46600Y151900D02*
D03*
X49700D02*
D03*
X52800D02*
D03*
X55900D02*
D03*
X59000D02*
D03*
X62100D02*
D03*
X65200D02*
D03*
X68300D02*
D03*
X46600Y148800D02*
D03*
X49700D02*
D03*
X52800D02*
D03*
X55900D02*
D03*
X59000D02*
D03*
X62100D02*
D03*
X65200D02*
D03*
X68300D02*
D03*
X46600Y145700D02*
D03*
X49700D02*
D03*
X52800D02*
D03*
X55900D02*
D03*
X59000D02*
D03*
X62100D02*
D03*
X65200D02*
D03*
X68300D02*
D03*
X46600Y142600D02*
D03*
X49700D02*
D03*
X52800D02*
D03*
X55900D02*
D03*
X59000D02*
D03*
X62100D02*
D03*
X65200D02*
D03*
X68300D02*
D03*
X46600Y139500D02*
D03*
X49700D02*
D03*
X52800D02*
D03*
X55900D02*
D03*
X59000D02*
D03*
X62100D02*
D03*
X65200D02*
D03*
X68300D02*
D03*
D83*
X150028Y151315D02*
D03*
X140972Y190685D02*
D03*
D84*
X163600Y78400D02*
D03*
X150500Y216000D02*
D03*
X195500Y123900D02*
D03*
X234800Y23300D02*
D03*
X223000Y23700D02*
D03*
X2400Y220100D02*
D03*
X34600Y148100D02*
D03*
X82800Y108600D02*
D03*
X168000Y109000D02*
D03*
X153000D02*
D03*
X144500D02*
D03*
X136500Y104600D02*
D03*
X128400Y104700D02*
D03*
X112000Y104500D02*
D03*
X104000D02*
D03*
X95500D02*
D03*
X96000Y112000D02*
D03*
X43000Y204000D02*
D03*
X72000D02*
D03*
X73900Y183600D02*
D03*
X36000Y188500D02*
D03*
X41300Y180300D02*
D03*
X89800Y183300D02*
D03*
X93900Y164411D02*
D03*
X90300Y157100D02*
D03*
X103000Y152500D02*
D03*
X131500Y131500D02*
D03*
X135780Y57721D02*
D03*
X147000Y56000D02*
D03*
X160000Y70000D02*
D03*
X235500Y64000D02*
D03*
X176000Y15500D02*
D03*
X180500Y26000D02*
D03*
X192500Y30500D02*
D03*
X205000Y33000D02*
D03*
X217500Y30500D02*
D03*
X238000Y18500D02*
D03*
X279000Y13000D02*
D03*
X307500Y117500D02*
D03*
X210000Y129000D02*
D03*
X223500Y124500D02*
D03*
X210000Y121000D02*
D03*
X227000Y197500D02*
D03*
X145000Y207000D02*
D03*
X282500Y133000D02*
D03*
X275000Y134000D02*
D03*
X50600Y128800D02*
D03*
X47200D02*
D03*
X85800Y134500D02*
D03*
X84000Y131800D02*
D03*
X56900Y128800D02*
D03*
X53700Y128700D02*
D03*
X371800Y147000D02*
D03*
X201500Y172800D02*
D03*
D85*
X185400Y106300D02*
D03*
M02*
