G04 Layer_Color=16711935*
%FSLAX25Y25*%
%MOIN*%
G70*
G01*
G75*
%ADD54C,0.00300*%
%ADD88C,0.00000*%
%ADD89C,0.00100*%
D54*
X39505Y137241D02*
X42837Y140573D01*
Y137241D02*
X39505Y140573D01*
X41171Y137241D02*
Y140573D01*
X42837Y138907D02*
X39505D01*
D88*
X248800Y161550D02*
G03*
X248800Y161550I-300J0D01*
G01*
Y142050D02*
G03*
X248800Y142050I-300J0D01*
G01*
X211300Y156675D02*
G03*
X211300Y156675I-300J0D01*
G01*
X260800Y28300D02*
G03*
X260800Y28300I-300J0D01*
G01*
Y43300D02*
G03*
X260800Y43300I-300J0D01*
G01*
X267300Y85300D02*
G03*
X267300Y85300I-300J0D01*
G01*
Y100300D02*
G03*
X267300Y100300I-300J0D01*
G01*
X301000Y127750D02*
G03*
X301000Y127750I-500J0D01*
G01*
X144700Y93450D02*
G03*
X144700Y93450I-300J0D01*
G01*
Y78450D02*
G03*
X144700Y78450I-300J0D01*
G01*
X150700Y38450D02*
G03*
X150700Y38450I-300J0D01*
G01*
Y23450D02*
G03*
X150700Y23450I-300J0D01*
G01*
D89*
X246600Y162450D02*
X250400D01*
Y155550D02*
Y162450D01*
X246600Y155550D02*
X250400D01*
X246600D02*
Y162450D01*
X250400Y155550D02*
Y157550D01*
X246600Y155550D02*
X250400D01*
X246600D02*
Y157550D01*
X250400D01*
X246600Y160450D02*
Y162450D01*
X250400D01*
Y160450D02*
Y162450D01*
X246600Y160450D02*
X250400D01*
X246600Y142950D02*
X250400D01*
Y136050D02*
Y142950D01*
X246600Y136050D02*
X250400D01*
X246600D02*
Y142950D01*
X250400Y136050D02*
Y138050D01*
X246600Y136050D02*
X250400D01*
X246600D02*
Y138050D01*
X250400D01*
X246600Y140950D02*
Y142950D01*
X250400D01*
Y140950D02*
Y142950D01*
X246600Y140950D02*
X250400D01*
X169350Y32400D02*
Y35600D01*
X175650D01*
Y32400D02*
Y35600D01*
X169350Y32400D02*
X175650D01*
X174050Y35600D02*
X175650D01*
Y32400D02*
Y35600D01*
X174050Y32400D02*
X175650D01*
X174050D02*
Y35600D01*
X169350Y32400D02*
X170950D01*
X169350D02*
Y35600D01*
X170950D01*
Y32400D02*
Y35600D01*
X162850Y97900D02*
Y101100D01*
X169150D01*
Y97900D02*
Y101100D01*
X162850Y97900D02*
X169150D01*
X167550Y101100D02*
X169150D01*
Y97900D02*
Y101100D01*
X167550Y97900D02*
X169150D01*
X167550D02*
Y101100D01*
X162850Y97900D02*
X164450D01*
X162850D02*
Y101100D01*
X164450D01*
Y97900D02*
Y101100D01*
X209917Y157067D02*
X212083D01*
Y152933D02*
Y157067D01*
X209917Y152933D02*
X212083D01*
X209917D02*
Y157067D01*
X212083Y152933D02*
Y153917D01*
X209917Y152933D02*
X212083D01*
X209917D02*
Y153917D01*
X212083D01*
X209917Y156083D02*
Y157067D01*
X212083D01*
Y156083D02*
Y157067D01*
X209917Y156083D02*
X212083D01*
X164450Y136225D02*
Y139425D01*
X170750D01*
Y136225D02*
Y139425D01*
X164450Y136225D02*
X170750D01*
X169150Y139425D02*
X170750D01*
Y136225D02*
Y139425D01*
X169150Y136225D02*
X170750D01*
X169150D02*
Y139425D01*
X164450Y136225D02*
X166050D01*
X164450D02*
Y139425D01*
X166050D01*
Y136225D02*
Y139425D01*
X364850Y155400D02*
Y158600D01*
X371150D01*
Y155400D02*
Y158600D01*
X364850Y155400D02*
X371150D01*
X369550Y158600D02*
X371150D01*
Y155400D02*
Y158600D01*
X369550Y155400D02*
X371150D01*
X369550D02*
Y158600D01*
X364850Y155400D02*
X366450D01*
X364850D02*
Y158600D01*
X366450D01*
Y155400D02*
Y158600D01*
X283850Y155400D02*
Y158600D01*
X290150D01*
Y155400D02*
Y158600D01*
X283850Y155400D02*
X290150D01*
X288550Y158600D02*
X290150D01*
Y155400D02*
Y158600D01*
X288550Y155400D02*
X290150D01*
X288550D02*
Y158600D01*
X283850Y155400D02*
X285450D01*
X283850D02*
Y158600D01*
X285450D01*
Y155400D02*
Y158600D01*
X283850Y142400D02*
Y145600D01*
X290150D01*
Y142400D02*
Y145600D01*
X283850Y142400D02*
X290150D01*
X288550Y145600D02*
X290150D01*
Y142400D02*
Y145600D01*
X288550Y142400D02*
X290150D01*
X288550D02*
Y145600D01*
X283850Y142400D02*
X285450D01*
X283850D02*
Y145600D01*
X285450D01*
Y142400D02*
Y145600D01*
X204400Y136225D02*
Y139425D01*
X210700D01*
Y136225D02*
Y139425D01*
X204400Y136225D02*
X210700D01*
X209100Y139425D02*
X210700D01*
Y136225D02*
Y139425D01*
X209100Y136225D02*
X210700D01*
X209100D02*
Y139425D01*
X204400Y136225D02*
X206000D01*
X204400D02*
Y139425D01*
X206000D01*
Y136225D02*
Y139425D01*
X214400Y47150D02*
X217600D01*
Y40850D02*
Y47150D01*
X214400Y40850D02*
X217600D01*
X214400D02*
Y47150D01*
X217600Y40850D02*
Y42450D01*
X214400Y40850D02*
X217600D01*
X214400D02*
Y42450D01*
X217600D01*
X214400Y45550D02*
Y47150D01*
X217600D01*
Y45550D02*
Y47150D01*
X214400Y45550D02*
X217600D01*
X258600Y29200D02*
X262400D01*
Y22300D02*
Y29200D01*
X258600Y22300D02*
X262400D01*
X258600D02*
Y29200D01*
X262400Y22300D02*
Y24300D01*
X258600Y22300D02*
X262400D01*
X258600D02*
Y24300D01*
X262400D01*
X258600Y27200D02*
Y29200D01*
X262400D01*
Y27200D02*
Y29200D01*
X258600Y27200D02*
X262400D01*
X258600Y44200D02*
X262400D01*
Y37300D02*
Y44200D01*
X258600Y37300D02*
X262400D01*
X258600D02*
Y44200D01*
X262400Y37300D02*
Y39300D01*
X258600Y37300D02*
X262400D01*
X258600D02*
Y39300D01*
X262400D01*
X258600Y42200D02*
Y44200D01*
X262400D01*
Y42200D02*
Y44200D01*
X258600Y42200D02*
X262400D01*
X265100Y86200D02*
X268900D01*
Y79300D02*
Y86200D01*
X265100Y79300D02*
X268900D01*
X265100D02*
Y86200D01*
X268900Y79300D02*
Y81300D01*
X265100Y79300D02*
X268900D01*
X265100D02*
Y81300D01*
X268900D01*
X265100Y84200D02*
Y86200D01*
X268900D01*
Y84200D02*
Y86200D01*
X265100Y84200D02*
X268900D01*
X265100Y101200D02*
X268900D01*
Y94300D02*
Y101200D01*
X265100Y94300D02*
X268900D01*
X265100D02*
Y101200D01*
X268900Y94300D02*
Y96300D01*
X265100Y94300D02*
X268900D01*
X265100D02*
Y96300D01*
X268900D01*
X265100Y99200D02*
Y101200D01*
X268900D01*
Y99200D02*
Y101200D01*
X265100Y99200D02*
X268900D01*
X243650Y30400D02*
Y33600D01*
X237350Y30400D02*
X243650D01*
X237350D02*
Y33600D01*
X243650D01*
X237350Y30400D02*
X238950D01*
X237350D02*
Y33600D01*
X238950D01*
Y30400D02*
Y33600D01*
X242050D02*
X243650D01*
Y30400D02*
Y33600D01*
X242050Y30400D02*
X243650D01*
X242050D02*
Y33600D01*
X329600Y39950D02*
X334400D01*
Y32050D02*
Y39950D01*
X329600Y32050D02*
X334400D01*
X329600D02*
Y39950D01*
X334400Y32050D02*
Y34650D01*
X329600Y32050D02*
X334400D01*
X329600D02*
Y34650D01*
X334400D01*
X329600Y37350D02*
Y39950D01*
X334400D01*
Y37350D02*
Y39950D01*
X329600Y37350D02*
X334400D01*
X243650Y41650D02*
Y44850D01*
X237350Y41650D02*
X243650D01*
X237350D02*
Y44850D01*
X243650D01*
X237350Y41650D02*
X238950D01*
X237350D02*
Y44850D01*
X238950D01*
Y41650D02*
Y44850D01*
X242050D02*
X243650D01*
Y41650D02*
Y44850D01*
X242050Y41650D02*
X243650D01*
X242050D02*
Y44850D01*
X237350Y52400D02*
Y55600D01*
X243650D01*
Y52400D02*
Y55600D01*
X237350Y52400D02*
X243650D01*
X242050Y55600D02*
X243650D01*
Y52400D02*
Y55600D01*
X242050Y52400D02*
X243650D01*
X242050D02*
Y55600D01*
X237350Y52400D02*
X238950D01*
X237350D02*
Y55600D01*
X238950D01*
Y52400D02*
Y55600D01*
X241850Y71900D02*
Y75100D01*
X248150D01*
Y71900D02*
Y75100D01*
X241850Y71900D02*
X248150D01*
X246550Y75100D02*
X248150D01*
Y71900D02*
Y75100D01*
X246550Y71900D02*
X248150D01*
X246550D02*
Y75100D01*
X241850Y71900D02*
X243450D01*
X241850D02*
Y75100D01*
X243450D01*
Y71900D02*
Y75100D01*
X247650Y84900D02*
Y88100D01*
X241350Y84900D02*
X247650D01*
X241350D02*
Y88100D01*
X247650D01*
X241350Y84900D02*
X242950D01*
X241350D02*
Y88100D01*
X242950D01*
Y84900D02*
Y88100D01*
X246050D02*
X247650D01*
Y84900D02*
Y88100D01*
X246050Y84900D02*
X247650D01*
X246050D02*
Y88100D01*
X314800Y92450D02*
X319600D01*
Y84550D02*
Y92450D01*
X314800Y84550D02*
X319600D01*
X314800D02*
Y92450D01*
X319600Y84550D02*
Y87150D01*
X314800Y84550D02*
X319600D01*
X314800D02*
Y87150D01*
X319600D01*
X314800Y89850D02*
Y92450D01*
X319600D01*
Y89850D02*
Y92450D01*
X314800Y89850D02*
X319600D01*
X247650Y99150D02*
Y102350D01*
X241350Y99150D02*
X247650D01*
X241350D02*
Y102350D01*
X247650D01*
X241350Y99150D02*
X242950D01*
X241350D02*
Y102350D01*
X242950D01*
Y99150D02*
Y102350D01*
X246050D02*
X247650D01*
Y99150D02*
Y102350D01*
X246050Y99150D02*
X247650D01*
X246050D02*
Y102350D01*
X222400Y109350D02*
X225600D01*
X222400D02*
Y115650D01*
X225600D01*
Y109350D02*
Y115650D01*
X222400Y114050D02*
Y115650D01*
X225600D01*
Y114050D02*
Y115650D01*
X222400Y114050D02*
X225600D01*
Y109350D02*
Y110950D01*
X222400Y109350D02*
X225600D01*
X222400D02*
Y110950D01*
X225600D01*
X311900Y136650D02*
X315100D01*
Y130350D02*
Y136650D01*
X311900Y130350D02*
X315100D01*
X311900D02*
Y136650D01*
X315100Y130350D02*
Y131950D01*
X311900Y130350D02*
X315100D01*
X311900D02*
Y131950D01*
X315100D01*
X311900Y135050D02*
Y136650D01*
X315100D01*
Y135050D02*
Y136650D01*
X311900Y135050D02*
X315100D01*
X325650Y115400D02*
Y118600D01*
X319350Y115400D02*
X325650D01*
X319350D02*
Y118600D01*
X325650D01*
X319350Y115400D02*
X320950D01*
X319350D02*
Y118600D01*
X320950D01*
Y115400D02*
Y118600D01*
X324050D02*
X325650D01*
Y115400D02*
Y118600D01*
X324050Y115400D02*
X325650D01*
X324050D02*
Y118600D01*
X301500Y123250D02*
Y128750D01*
X289500Y123250D02*
X301500D01*
X289500D02*
Y128750D01*
X301500D01*
X296500Y120800D02*
Y123250D01*
X294500Y120800D02*
X296500D01*
X294500D02*
Y123250D01*
X296500D01*
X290760Y128750D02*
Y131200D01*
X292760D01*
Y128750D02*
Y131200D01*
X290760Y128750D02*
X292760D01*
X298240D02*
Y131200D01*
X300240D01*
Y128750D02*
Y131200D01*
X298240Y128750D02*
X300240D01*
X193900Y109350D02*
X197100D01*
X193900D02*
Y115650D01*
X197100D01*
Y109350D02*
Y115650D01*
X193900Y114050D02*
Y115650D01*
X197100D01*
Y114050D02*
Y115650D01*
X193900Y114050D02*
X197100D01*
Y109350D02*
Y110950D01*
X193900Y109350D02*
X197100D01*
X193900D02*
Y110950D01*
X197100D01*
X142500Y92550D02*
X146300D01*
X142500D02*
Y99450D01*
X146300D01*
Y92550D02*
Y99450D01*
X142500Y97450D02*
Y99450D01*
X146300D01*
Y97450D02*
Y99450D01*
X142500Y97450D02*
X146300D01*
Y92550D02*
Y94550D01*
X142500Y92550D02*
X146300D01*
X142500D02*
Y94550D01*
X146300D01*
X162750Y84900D02*
Y88100D01*
X169050D01*
Y84900D02*
Y88100D01*
X162750Y84900D02*
X169050D01*
X167450Y88100D02*
X169050D01*
Y84900D02*
Y88100D01*
X167450Y84900D02*
X169050D01*
X167450D02*
Y88100D01*
X162750Y84900D02*
X164350D01*
X162750D02*
Y88100D01*
X164350D01*
Y84900D02*
Y88100D01*
X77500Y30300D02*
X82300D01*
X77500D02*
Y38200D01*
X82300D01*
Y30300D02*
Y38200D01*
X77500Y35600D02*
Y38200D01*
X82300D01*
Y35600D02*
Y38200D01*
X77500Y35600D02*
X82300D01*
Y30300D02*
Y32900D01*
X77500Y30300D02*
X82300D01*
X77500D02*
Y32900D01*
X82300D01*
X236800Y134675D02*
Y140975D01*
X224200Y134675D02*
X236800D01*
X224200D02*
Y140975D01*
X236800D01*
X224200Y134675D02*
X227200D01*
X224200D02*
Y140975D01*
X227200D01*
Y134675D02*
Y140975D01*
X233800D02*
X236800D01*
Y134675D02*
Y140975D01*
X233800Y134675D02*
X236800D01*
X233800D02*
Y140975D01*
X184400Y136225D02*
Y139425D01*
X190700D01*
Y136225D02*
Y139425D01*
X184400Y136225D02*
X190700D01*
X189100Y139425D02*
X190700D01*
Y136225D02*
Y139425D01*
X189100Y136225D02*
X190700D01*
X189100D02*
Y139425D01*
X184400Y136225D02*
X186000D01*
X184400D02*
Y139425D01*
X186000D01*
Y136225D02*
Y139425D01*
X96000Y84550D02*
X100800D01*
X96000D02*
Y92450D01*
X100800D01*
Y84550D02*
Y92450D01*
X96000Y89850D02*
Y92450D01*
X100800D01*
Y89850D02*
Y92450D01*
X96000Y89850D02*
X100800D01*
Y84550D02*
Y87150D01*
X96000Y84550D02*
X100800D01*
X96000D02*
Y87150D01*
X100800D01*
X142500Y77550D02*
X146300D01*
X142500D02*
Y84450D01*
X146300D01*
Y77550D02*
Y84450D01*
X142500Y82450D02*
Y84450D01*
X146300D01*
Y82450D02*
Y84450D01*
X142500Y82450D02*
X146300D01*
Y77550D02*
Y79550D01*
X142500Y77550D02*
X146300D01*
X142500D02*
Y79550D01*
X146300D01*
X148500Y37550D02*
X152300D01*
X148500D02*
Y44450D01*
X152300D01*
Y37550D02*
Y44450D01*
X148500Y42450D02*
Y44450D01*
X152300D01*
Y42450D02*
Y44450D01*
X148500Y42450D02*
X152300D01*
Y37550D02*
Y39550D01*
X148500Y37550D02*
X152300D01*
X148500D02*
Y39550D01*
X152300D01*
X148500Y22550D02*
X152300D01*
X148500D02*
Y29450D01*
X152300D01*
Y22550D02*
Y29450D01*
X148500Y27450D02*
Y29450D01*
X152300D01*
Y27450D02*
Y29450D01*
X148500Y27450D02*
X152300D01*
Y22550D02*
Y24550D01*
X148500Y22550D02*
X152300D01*
X148500D02*
Y24550D01*
X152300D01*
X190900Y47150D02*
X194100D01*
Y40850D02*
Y47150D01*
X190900Y40850D02*
X194100D01*
X190900D02*
Y47150D01*
X194100Y40850D02*
Y42450D01*
X190900Y40850D02*
X194100D01*
X190900D02*
Y42450D01*
X194100D01*
X190900Y45550D02*
Y47150D01*
X194100D01*
Y45550D02*
Y47150D01*
X190900Y45550D02*
X194100D01*
X175650Y71900D02*
Y75100D01*
X169350Y71900D02*
X175650D01*
X169350D02*
Y75100D01*
X175650D01*
X169350Y71900D02*
X170950D01*
X169350D02*
Y75100D01*
X170950D01*
Y71900D02*
Y75100D01*
X174050D02*
X175650D01*
Y71900D02*
Y75100D01*
X174050Y71900D02*
X175650D01*
X174050D02*
Y75100D01*
X169350Y46400D02*
Y49600D01*
X175650D01*
Y46400D02*
Y49600D01*
X169350Y46400D02*
X175650D01*
X174050Y49600D02*
X175650D01*
Y46400D02*
Y49600D01*
X174050Y46400D02*
X175650D01*
X174050D02*
Y49600D01*
X169350Y46400D02*
X170950D01*
X169350D02*
Y49600D01*
X170950D01*
Y46400D02*
Y49600D01*
X175600Y58400D02*
Y61600D01*
X169300Y58400D02*
X175600D01*
X169300D02*
Y61600D01*
X175600D01*
X169300Y58400D02*
X170900D01*
X169300D02*
Y61600D01*
X170900D01*
Y58400D02*
Y61600D01*
X174000D02*
X175600D01*
Y58400D02*
Y61600D01*
X174000Y58400D02*
X175600D01*
X174000D02*
Y61600D01*
X232050Y161725D02*
Y164925D01*
Y161725D02*
X233650D01*
Y164925D01*
X232050D02*
X233650D01*
X228950Y161725D02*
Y164925D01*
X227350D02*
X228950D01*
X227350Y161725D02*
Y164925D01*
Y161725D02*
X228950D01*
X227350Y164925D02*
X233650D01*
X227350Y161725D02*
Y164925D01*
Y161725D02*
X233650D01*
Y164925D01*
X123050Y91400D02*
Y94600D01*
Y91400D02*
X124650D01*
Y94600D01*
X123050D02*
X124650D01*
X119950Y91400D02*
Y94600D01*
X118350D02*
X119950D01*
X118350Y91400D02*
Y94600D01*
Y91400D02*
X119950D01*
X118350Y94600D02*
X124650D01*
X118350Y91400D02*
Y94600D01*
Y91400D02*
X124650D01*
Y94600D01*
X122950Y76400D02*
Y79600D01*
Y76400D02*
X124550D01*
Y79600D01*
X122950D02*
X124550D01*
X119850Y76400D02*
Y79600D01*
X118250D02*
X119850D01*
X118250Y76400D02*
Y79600D01*
Y76400D02*
X119850D01*
X118250Y79600D02*
X124550D01*
X118250Y76400D02*
Y79600D01*
Y76400D02*
X124550D01*
Y79600D01*
Y38400D02*
Y41600D01*
Y38400D02*
X126150D01*
Y41600D01*
X124550D02*
X126150D01*
X121450Y38400D02*
Y41600D01*
X119850D02*
X121450D01*
X119850Y38400D02*
Y41600D01*
Y38400D02*
X121450D01*
X119850Y41600D02*
X126150D01*
X119850Y38400D02*
Y41600D01*
Y38400D02*
X126150D01*
Y41600D01*
X124550Y22900D02*
Y26100D01*
Y22900D02*
X126150D01*
Y26100D01*
X124550D02*
X126150D01*
X121450Y22900D02*
Y26100D01*
X119850D02*
X121450D01*
X119850Y22900D02*
Y26100D01*
Y22900D02*
X121450D01*
X119850Y26100D02*
X126150D01*
X119850Y22900D02*
Y26100D01*
Y22900D02*
X126150D01*
Y26100D01*
X287450Y23900D02*
Y27100D01*
X285850D02*
X287450D01*
X285850Y23900D02*
Y27100D01*
Y23900D02*
X287450D01*
X290550D02*
Y27100D01*
Y23900D02*
X292150D01*
Y27100D01*
X290550D02*
X292150D01*
X285850Y23900D02*
X292150D01*
Y27100D01*
X285850D02*
X292150D01*
X285850Y23900D02*
Y27100D01*
X287450Y40400D02*
Y43600D01*
X285850D02*
X287450D01*
X285850Y40400D02*
Y43600D01*
Y40400D02*
X287450D01*
X290550D02*
Y43600D01*
Y40400D02*
X292150D01*
Y43600D01*
X290550D02*
X292150D01*
X285850Y40400D02*
X292150D01*
Y43600D01*
X285850D02*
X292150D01*
X285850Y40400D02*
Y43600D01*
X285450Y79900D02*
Y83100D01*
X283850D02*
X285450D01*
X283850Y79900D02*
Y83100D01*
Y79900D02*
X285450D01*
X288550D02*
Y83100D01*
Y79900D02*
X290150D01*
Y83100D01*
X288550D02*
X290150D01*
X283850Y79900D02*
X290150D01*
Y83100D01*
X283850D02*
X290150D01*
X283850Y79900D02*
Y83100D01*
X285450Y92900D02*
Y96100D01*
X283850D02*
X285450D01*
X283850Y92900D02*
Y96100D01*
Y92900D02*
X285450D01*
X288550D02*
Y96100D01*
Y92900D02*
X290150D01*
Y96100D01*
X288550D02*
X290150D01*
X283850Y92900D02*
X290150D01*
Y96100D01*
X283850D02*
X290150D01*
X283850Y92900D02*
Y96100D01*
M02*
