G04 Layer_Color=16711935*
%FSLAX25Y25*%
%MOIN*%
G70*
G01*
G75*
%ADD70C,0.06800*%
%ADD73C,0.08477*%
%ADD74C,0.06312*%
%ADD75C,0.08674*%
%ADD76C,0.02800*%
%ADD77C,0.08674*%
%ADD78C,0.07493*%
%ADD79R,0.07001X0.07001*%
%ADD80C,0.07001*%
%ADD81R,0.07887X0.07887*%
%ADD82C,0.07887*%
G04:AMPARAMS|DCode=83|XSize=168mil|YSize=168mil|CornerRadius=44mil|HoleSize=0mil|Usage=FLASHONLY|Rotation=0.000|XOffset=0mil|YOffset=0mil|HoleType=Round|Shape=RoundedRectangle|*
%AMROUNDEDRECTD83*
21,1,0.16800,0.08000,0,0,0.0*
21,1,0.08000,0.16800,0,0,0.0*
1,1,0.08800,0.04000,-0.04000*
1,1,0.08800,-0.04000,-0.04000*
1,1,0.08800,-0.04000,0.04000*
1,1,0.08800,0.04000,0.04000*
%
%ADD83ROUNDEDRECTD83*%
%ADD84C,0.02400*%
%ADD85C,0.05800*%
D70*
X201500Y173000D02*
D03*
X193000Y166500D02*
D03*
X215500Y6500D02*
D03*
X198500D02*
D03*
X200000Y186000D02*
D03*
X180500D02*
D03*
X215000Y18500D02*
D03*
X198500D02*
D03*
X200000Y197500D02*
D03*
X180500D02*
D03*
X6500Y135167D02*
D03*
Y127500D02*
D03*
Y119833D02*
D03*
Y112167D02*
D03*
X238500Y7800D02*
D03*
X85500Y210900D02*
D03*
D73*
X345000Y64800D02*
D03*
X384500Y154274D02*
D03*
X389326Y121278D02*
D03*
X397200Y144900D02*
D03*
X389326Y168522D02*
D03*
X341295D02*
D03*
X329969Y55344D02*
D03*
X322094Y31722D02*
D03*
X329969Y8100D02*
D03*
X378000D02*
D03*
X20500Y167744D02*
D03*
X12626Y144122D02*
D03*
X20500Y120500D02*
D03*
X68532D02*
D03*
X68805Y8478D02*
D03*
X20774D02*
D03*
X12900Y32100D02*
D03*
X20774Y55722D02*
D03*
X73600Y66400D02*
D03*
X47900Y112000D02*
D03*
D74*
X97500Y144000D02*
D03*
Y174000D02*
D03*
X168000Y123000D02*
D03*
X138000D02*
D03*
X122500Y146500D02*
D03*
Y176500D02*
D03*
X322000Y172500D02*
D03*
Y142500D02*
D03*
X244000Y177000D02*
D03*
X274000D02*
D03*
X267500Y164000D02*
D03*
Y134000D02*
D03*
X319500Y49500D02*
D03*
Y19500D02*
D03*
X247500Y62000D02*
D03*
X277500D02*
D03*
X272000Y48000D02*
D03*
Y18000D02*
D03*
X93500Y16500D02*
D03*
Y46500D02*
D03*
X171000Y7000D02*
D03*
X141000D02*
D03*
X140000Y17000D02*
D03*
Y47000D02*
D03*
D75*
X140972Y190685D02*
D03*
X150028Y151315D02*
D03*
D76*
X68300Y139500D02*
D03*
X65200D02*
D03*
X62100D02*
D03*
X59000D02*
D03*
X55900D02*
D03*
X52800D02*
D03*
X49700D02*
D03*
X46600D02*
D03*
X68300Y142600D02*
D03*
X65200D02*
D03*
X62100D02*
D03*
X59000D02*
D03*
X55900D02*
D03*
X52800D02*
D03*
X49700D02*
D03*
X46600D02*
D03*
X68300Y145700D02*
D03*
X65200D02*
D03*
X62100D02*
D03*
X59000D02*
D03*
X55900D02*
D03*
X52800D02*
D03*
X49700D02*
D03*
X46600D02*
D03*
X68300Y148800D02*
D03*
X65200D02*
D03*
X62100D02*
D03*
X59000D02*
D03*
X55900D02*
D03*
X52800D02*
D03*
X49700D02*
D03*
X46600D02*
D03*
X68300Y151900D02*
D03*
X65200D02*
D03*
X62100D02*
D03*
X59000D02*
D03*
X55900D02*
D03*
X52800D02*
D03*
X49700D02*
D03*
X46600D02*
D03*
X68300Y155000D02*
D03*
X65200D02*
D03*
X62100D02*
D03*
X59000D02*
D03*
X55900D02*
D03*
X52800D02*
D03*
X49700D02*
D03*
X46600D02*
D03*
X68300Y158100D02*
D03*
X65200D02*
D03*
X62100D02*
D03*
X59000D02*
D03*
X55900D02*
D03*
X52800D02*
D03*
X49700D02*
D03*
X46600D02*
D03*
X68300Y161200D02*
D03*
X65200D02*
D03*
X62100D02*
D03*
X59000D02*
D03*
X55900D02*
D03*
X52800D02*
D03*
X49700D02*
D03*
X46600D02*
D03*
D77*
X278000Y229660D02*
D03*
X238620D02*
D03*
X155020Y192100D02*
D03*
Y178330D02*
D03*
Y164540D02*
D03*
D78*
X386300Y191400D02*
D03*
Y211085D02*
D03*
Y230770D02*
D03*
D79*
X105000Y5988D02*
D03*
X109000Y144500D02*
D03*
X304500Y198000D02*
D03*
X308000Y62512D02*
D03*
D80*
X105000Y61500D02*
D03*
X109000Y200012D02*
D03*
X304500Y142488D02*
D03*
X308000Y7000D02*
D03*
D81*
X22800Y78100D02*
D03*
X22300Y191200D02*
D03*
X387600Y78015D02*
D03*
D82*
X22800Y97785D02*
D03*
X22300Y210885D02*
D03*
X387600Y97700D02*
D03*
D83*
X400500Y25100D02*
D03*
X130900Y234200D02*
D03*
D84*
X371800Y147000D02*
D03*
X53700Y128700D02*
D03*
X56900Y128800D02*
D03*
X84000Y131800D02*
D03*
X85800Y134500D02*
D03*
X47200Y128800D02*
D03*
X50600D02*
D03*
X275000Y134000D02*
D03*
X282500Y133000D02*
D03*
X145000Y207000D02*
D03*
X227000Y197500D02*
D03*
X210000Y121000D02*
D03*
X223500Y124500D02*
D03*
X210000Y129000D02*
D03*
X307500Y117500D02*
D03*
X279000Y13000D02*
D03*
X238000Y18500D02*
D03*
X217500Y30500D02*
D03*
X205000Y33000D02*
D03*
X192500Y30500D02*
D03*
X180500Y26000D02*
D03*
X176000Y15500D02*
D03*
X235500Y64000D02*
D03*
X160000Y70000D02*
D03*
X147000Y56000D02*
D03*
X135780Y57721D02*
D03*
X131500Y131500D02*
D03*
X103000Y152500D02*
D03*
X90300Y157100D02*
D03*
X93900Y164411D02*
D03*
X89800Y183300D02*
D03*
X41300Y180300D02*
D03*
X36000Y188500D02*
D03*
X73900Y183600D02*
D03*
X72000Y204000D02*
D03*
X43000D02*
D03*
X96000Y112000D02*
D03*
X95500Y104500D02*
D03*
X104000D02*
D03*
X112000D02*
D03*
X128400Y104700D02*
D03*
X136500Y104600D02*
D03*
X144500Y109000D02*
D03*
X153000D02*
D03*
X168000D02*
D03*
X82800Y108600D02*
D03*
X34600Y148100D02*
D03*
X1800Y220000D02*
D03*
X223000Y23700D02*
D03*
X234800Y23300D02*
D03*
X195500Y123900D02*
D03*
X150500Y216000D02*
D03*
X163600Y78400D02*
D03*
D85*
X185400Y106300D02*
D03*
M02*
