G04 Layer_Physical_Order=2*
G04 Layer_Color=16711680*
%FSLAX25Y25*%
%MOIN*%
G70*
G01*
G75*
%ADD26C,0.06000*%
%ADD34C,0.00700*%
%ADD36C,0.08000*%
%ADD37C,0.02000*%
G04:AMPARAMS|DCode=38|XSize=160mil|YSize=160mil|CornerRadius=40mil|HoleSize=0mil|Usage=FLASHONLY|Rotation=0.000|XOffset=0mil|YOffset=0mil|HoleType=Round|Shape=RoundedRectangle|*
%AMROUNDEDRECTD38*
21,1,0.16000,0.08000,0,0,0.0*
21,1,0.08000,0.16000,0,0,0.0*
1,1,0.08000,0.04000,-0.04000*
1,1,0.08000,-0.04000,-0.04000*
1,1,0.08000,-0.04000,0.04000*
1,1,0.08000,0.04000,0.04000*
%
%ADD38ROUNDEDRECTD38*%
%ADD39C,0.07087*%
%ADD40R,0.07087X0.07087*%
%ADD41C,0.07677*%
%ADD42C,0.05512*%
%ADD43C,0.06201*%
%ADD44R,0.06201X0.06201*%
%ADD45C,0.06693*%
%ADD46C,0.07874*%
%ADD47C,0.02000*%
%ADD48C,0.07874*%
%ADD49C,0.01600*%
%ADD50C,0.05000*%
G36*
X376827Y180727D02*
X376827Y180727D01*
X377273Y180428D01*
X377800Y180324D01*
X377800Y180324D01*
X392730D01*
X403124Y169930D01*
Y161900D01*
X379000D01*
Y178900D01*
X309700D01*
Y123947D01*
X308330Y122576D01*
X235870D01*
X210377Y148070D01*
Y174000D01*
X210377Y174000D01*
X210272Y174527D01*
X209973Y174973D01*
X209973Y174973D01*
X206623Y178323D01*
X206177Y178622D01*
X206167Y178624D01*
X206217Y179124D01*
X237000D01*
X237527Y179228D01*
X237973Y179527D01*
X245070Y186624D01*
X370930D01*
X376827Y180727D01*
D02*
G37*
G36*
X408471Y161900D02*
X405876D01*
Y170500D01*
X405772Y171027D01*
X405473Y171473D01*
X394273Y182673D01*
X393827Y182972D01*
X393300Y183076D01*
X378370D01*
X372473Y188973D01*
X372027Y189272D01*
X371500Y189376D01*
X244500D01*
X243973Y189272D01*
X243527Y188973D01*
X236430Y181876D01*
X201804D01*
X201705Y182376D01*
X202017Y182506D01*
X202853Y183147D01*
X203494Y183983D01*
X203897Y184956D01*
X203969Y185500D01*
X196031D01*
X196103Y184956D01*
X196506Y183983D01*
X197147Y183147D01*
X197983Y182506D01*
X198295Y182376D01*
X198196Y181876D01*
X182304D01*
X182204Y182376D01*
X182517Y182506D01*
X183353Y183147D01*
X183994Y183983D01*
X184397Y184956D01*
X184469Y185500D01*
X176531D01*
X176603Y184956D01*
X177006Y183983D01*
X177647Y183147D01*
X178483Y182506D01*
X178796Y182376D01*
X178696Y181876D01*
X177143D01*
X176616Y181772D01*
X176169Y181473D01*
X176169Y181473D01*
X174402Y179706D01*
X159794D01*
X159333Y180820D01*
X158541Y181851D01*
X157510Y182642D01*
X156309Y183140D01*
X155020Y183310D01*
X153731Y183140D01*
X152530Y182642D01*
X151499Y181851D01*
X150707Y180820D01*
X150210Y179619D01*
X150040Y178330D01*
X150210Y177041D01*
X150707Y175840D01*
X151499Y174809D01*
X152530Y174018D01*
X153731Y173520D01*
X155020Y173350D01*
X156309Y173520D01*
X157510Y174018D01*
X158541Y174809D01*
X159333Y175840D01*
X159794Y176953D01*
X174972D01*
X175499Y177058D01*
X175946Y177357D01*
X177713Y179124D01*
X199010D01*
X199092Y178624D01*
X198789Y178376D01*
X191000D01*
X190473Y178272D01*
X190027Y177973D01*
X190027Y177973D01*
X183430Y171376D01*
X149500D01*
X148973Y171272D01*
X148527Y170973D01*
X148527Y170973D01*
X143027Y165473D01*
X142728Y165027D01*
X142624Y164500D01*
Y122570D01*
X142177Y122124D01*
X141704Y122357D01*
X141788Y123000D01*
X141659Y123980D01*
X141281Y124894D01*
X140679Y125679D01*
X139894Y126281D01*
X138980Y126659D01*
X138000Y126788D01*
X137020Y126659D01*
X136106Y126281D01*
X135321Y125679D01*
X134719Y124894D01*
X134505Y124376D01*
X130500D01*
X129973Y124272D01*
X129527Y123973D01*
X111861Y106308D01*
X111298Y106196D01*
X110702Y105798D01*
X110304Y105202D01*
X110165Y104500D01*
X110304Y103798D01*
X110702Y103202D01*
X111298Y102804D01*
X112000Y102665D01*
X112702Y102804D01*
X113298Y103202D01*
X113696Y103798D01*
X113808Y104361D01*
X131070Y121624D01*
X134505D01*
X134719Y121106D01*
X135321Y120321D01*
X136106Y119719D01*
X137020Y119341D01*
X138000Y119212D01*
X138643Y119296D01*
X138876Y118823D01*
X138430Y118376D01*
X135000D01*
X134803Y118337D01*
X134603Y118318D01*
X134541Y118285D01*
X134473Y118272D01*
X134306Y118160D01*
X134128Y118065D01*
X134084Y118012D01*
X134027Y117973D01*
X133915Y117806D01*
X133787Y117651D01*
X127754Y106407D01*
X127698Y106396D01*
X127102Y105998D01*
X126704Y105402D01*
X126565Y104700D01*
X126704Y103998D01*
X127102Y103402D01*
X127698Y103004D01*
X128400Y102865D01*
X129102Y103004D01*
X129698Y103402D01*
X130096Y103998D01*
X130235Y104700D01*
X130161Y105071D01*
X135824Y115624D01*
X139000D01*
X139028Y115629D01*
X139259Y115373D01*
X139330Y115180D01*
X139228Y115027D01*
X139227Y115021D01*
X139224Y115016D01*
X135665Y106207D01*
X135202Y105898D01*
X134804Y105302D01*
X134665Y104600D01*
X134804Y103898D01*
X135202Y103302D01*
X135798Y102904D01*
X136500Y102765D01*
X137202Y102904D01*
X137798Y103302D01*
X138196Y103898D01*
X138335Y104600D01*
X138220Y105182D01*
X141428Y113124D01*
X181000D01*
X181527Y113228D01*
X181973Y113527D01*
X190970Y122524D01*
X194320D01*
X194798Y122204D01*
X195500Y122065D01*
X196202Y122204D01*
X196798Y122602D01*
X197196Y123198D01*
X197335Y123900D01*
X197196Y124602D01*
X196798Y125198D01*
X196202Y125596D01*
X195500Y125735D01*
X194798Y125596D01*
X194320Y125276D01*
X190400D01*
X190400Y125277D01*
X189873Y125172D01*
X189427Y124873D01*
X180430Y115876D01*
X140530D01*
X140451Y115966D01*
X140293Y116347D01*
X144973Y121027D01*
X145272Y121473D01*
X145377Y122000D01*
X145376Y122000D01*
Y148445D01*
X145876Y148615D01*
X146506Y147794D01*
X147538Y147002D01*
X148739Y146505D01*
X150028Y146335D01*
X151316Y146505D01*
X152517Y147002D01*
X153549Y147794D01*
X154340Y148825D01*
X154527Y149276D01*
X177815D01*
X178595Y149431D01*
X179257Y149873D01*
X191983Y162599D01*
X193000Y162466D01*
X194044Y162603D01*
X195017Y163006D01*
X195853Y163647D01*
X196494Y164483D01*
X196897Y165456D01*
X197035Y166500D01*
X196897Y167544D01*
X196494Y168517D01*
X195853Y169353D01*
X195017Y169994D01*
X194044Y170397D01*
X193000Y170535D01*
X191956Y170397D01*
X190983Y169994D01*
X190147Y169353D01*
X189506Y168517D01*
X189103Y167544D01*
X188965Y166500D01*
X189099Y165483D01*
X176970Y153354D01*
X154527D01*
X154340Y153805D01*
X153549Y154836D01*
X152517Y155627D01*
X151316Y156125D01*
X150028Y156295D01*
X148739Y156125D01*
X147538Y155627D01*
X146506Y154836D01*
X145876Y154015D01*
X145376Y154185D01*
Y163930D01*
X150070Y168624D01*
X151454D01*
X151615Y168150D01*
X151499Y168061D01*
X150707Y167030D01*
X150210Y165829D01*
X150106Y165040D01*
X155020D01*
X159934D01*
X159830Y165829D01*
X159333Y167030D01*
X158541Y168061D01*
X158425Y168150D01*
X158586Y168624D01*
X184000D01*
X184527Y168728D01*
X184973Y169027D01*
X191570Y175624D01*
X199348D01*
X199875Y175728D01*
X200242Y175974D01*
X205080D01*
X207624Y173430D01*
Y147500D01*
X207728Y146973D01*
X208027Y146527D01*
X234327Y120227D01*
X234327Y120227D01*
X234773Y119928D01*
X235300Y119824D01*
X235300Y119824D01*
X307392D01*
X307441Y119324D01*
X306798Y119196D01*
X306202Y118798D01*
X305804Y118202D01*
X305692Y117639D01*
X257430Y69376D01*
X239500D01*
X238973Y69272D01*
X238527Y68973D01*
X238527Y68973D01*
X235361Y65808D01*
X234798Y65696D01*
X234202Y65298D01*
X233804Y64702D01*
X233692Y64139D01*
X212027Y42473D01*
X211877Y42248D01*
X211377Y42400D01*
Y119820D01*
X211696Y120298D01*
X211835Y121000D01*
X211696Y121702D01*
X211298Y122298D01*
X210702Y122696D01*
X210000Y122835D01*
X209298Y122696D01*
X209111Y122571D01*
X203396Y123659D01*
X202876Y124424D01*
Y171620D01*
X203196Y172098D01*
X203335Y172800D01*
X203196Y173502D01*
X202798Y174098D01*
X202202Y174496D01*
X201500Y174635D01*
X200798Y174496D01*
X200202Y174098D01*
X199804Y173502D01*
X199665Y172800D01*
X199804Y172098D01*
X200124Y171620D01*
Y124000D01*
X200151Y123862D01*
X200152Y123721D01*
X200203Y123601D01*
X200228Y123473D01*
X200307Y123356D01*
X200362Y123226D01*
X201441Y121640D01*
X201823Y121263D01*
X202321Y121061D01*
X206663Y120234D01*
X206810Y119757D01*
X166830Y79776D01*
X164780D01*
X164302Y80096D01*
X163600Y80235D01*
X162898Y80096D01*
X162302Y79698D01*
X161904Y79102D01*
X161765Y78400D01*
X161904Y77698D01*
X162302Y77102D01*
X162898Y76704D01*
X163600Y76565D01*
X164302Y76704D01*
X164780Y77024D01*
X167400D01*
X167927Y77128D01*
X168373Y77427D01*
X208162Y117215D01*
X208624Y117024D01*
Y38570D01*
X204861Y34808D01*
X204298Y34696D01*
X203702Y34298D01*
X203304Y33702D01*
X203165Y33000D01*
X203304Y32298D01*
X203702Y31702D01*
X204298Y31304D01*
X205000Y31165D01*
X205702Y31304D01*
X206298Y31702D01*
X206696Y32298D01*
X206808Y32861D01*
X210973Y37027D01*
X211123Y37252D01*
X211624Y37100D01*
Y35126D01*
X210477Y33979D01*
X210178Y33533D01*
X210077Y33024D01*
X206930Y29876D01*
X203918D01*
X201626Y32168D01*
Y33710D01*
X201522Y34237D01*
X201223Y34683D01*
X196683Y39223D01*
X196237Y39522D01*
X195710Y39626D01*
X188820D01*
X185876Y42570D01*
Y42577D01*
X185772Y43104D01*
X185473Y43550D01*
X185473Y43550D01*
X166550Y62473D01*
X166103Y62772D01*
X165815Y62829D01*
X161775Y69697D01*
X161835Y70000D01*
X161696Y70702D01*
X161298Y71298D01*
X160702Y71696D01*
X160139Y71808D01*
X155376Y76570D01*
Y94430D01*
X168139Y107192D01*
X168702Y107304D01*
X169298Y107702D01*
X169696Y108298D01*
X169835Y109000D01*
X169696Y109702D01*
X169298Y110298D01*
X168702Y110696D01*
X168000Y110835D01*
X167298Y110696D01*
X166702Y110298D01*
X166304Y109702D01*
X166192Y109139D01*
X154138Y97085D01*
X153676Y97276D01*
Y107299D01*
X153702Y107304D01*
X154298Y107702D01*
X154696Y108298D01*
X154835Y109000D01*
X154696Y109702D01*
X154298Y110298D01*
X153702Y110696D01*
X153000Y110835D01*
X152298Y110696D01*
X151702Y110298D01*
X151304Y109702D01*
X151173Y109044D01*
X151028Y108827D01*
X150924Y108300D01*
Y72230D01*
X150424Y72023D01*
X145876Y76570D01*
Y107820D01*
X146196Y108298D01*
X146335Y109000D01*
X146196Y109702D01*
X145798Y110298D01*
X145202Y110696D01*
X144500Y110835D01*
X143798Y110696D01*
X143202Y110298D01*
X142804Y109702D01*
X142665Y109000D01*
X142804Y108298D01*
X143124Y107820D01*
Y76846D01*
X142623Y76552D01*
X142250Y76626D01*
X134820D01*
X105973Y105473D01*
X105527Y105772D01*
X105256Y105825D01*
X104702Y106196D01*
X104000Y106335D01*
X103298Y106196D01*
X102702Y105798D01*
X102304Y105202D01*
X102165Y104500D01*
X102304Y103798D01*
X102702Y103202D01*
X103298Y102804D01*
X104000Y102665D01*
X104702Y102804D01*
X104730Y102823D01*
X132215Y75338D01*
X132024Y74876D01*
X127070D01*
X97308Y104639D01*
X97196Y105202D01*
X96798Y105798D01*
X96202Y106196D01*
X95500Y106335D01*
X94798Y106196D01*
X94202Y105798D01*
X93804Y105202D01*
X93665Y104500D01*
X93804Y103798D01*
X94202Y103202D01*
X94798Y102804D01*
X95361Y102692D01*
X124715Y73338D01*
X124524Y72876D01*
X122070D01*
X91876Y103070D01*
Y113000D01*
X91772Y113527D01*
X91473Y113973D01*
X91473Y113973D01*
X86300Y119147D01*
Y122574D01*
X114854D01*
X115381Y122678D01*
X115828Y122977D01*
X131473Y138622D01*
X131772Y139069D01*
X131876Y139596D01*
Y169830D01*
X146270Y184224D01*
X159094D01*
X159621Y184328D01*
X160067Y184627D01*
X175914Y200474D01*
X177110D01*
X177356Y199974D01*
X177006Y199517D01*
X176603Y198544D01*
X176465Y197500D01*
X176603Y196456D01*
X177006Y195483D01*
X177647Y194647D01*
X178483Y194006D01*
X179456Y193603D01*
X180500Y193465D01*
X181544Y193603D01*
X182517Y194006D01*
X183353Y194647D01*
X183994Y195483D01*
X184397Y196456D01*
X184472Y197026D01*
X185000Y197205D01*
X190029Y192177D01*
X190475Y191878D01*
X191002Y191773D01*
X191002Y191774D01*
X201802D01*
X202329Y191878D01*
X202775Y192177D01*
X206722Y196124D01*
X225820D01*
X226298Y195804D01*
X227000Y195665D01*
X227702Y195804D01*
X228298Y196202D01*
X228696Y196798D01*
X228835Y197500D01*
X228696Y198202D01*
X228298Y198798D01*
X227702Y199196D01*
X227000Y199335D01*
X226298Y199196D01*
X225820Y198876D01*
X206152D01*
X205625Y198772D01*
X205178Y198473D01*
X204500Y197795D01*
X203972Y197974D01*
X203897Y198544D01*
X203494Y199517D01*
X202853Y200353D01*
X202017Y200994D01*
X201044Y201397D01*
X200000Y201535D01*
X198956Y201397D01*
X197983Y200994D01*
X197147Y200353D01*
X196506Y199517D01*
X196103Y198544D01*
X195966Y197500D01*
X196103Y196456D01*
X196506Y195483D01*
X196856Y195026D01*
X196609Y194526D01*
X191572D01*
X183275Y202823D01*
X182829Y203122D01*
X182302Y203226D01*
X175344D01*
X174817Y203122D01*
X174371Y202823D01*
X158524Y186976D01*
X156858D01*
X156759Y187476D01*
X157510Y187787D01*
X158541Y188579D01*
X159333Y189610D01*
X159830Y190811D01*
X160000Y192100D01*
X159830Y193389D01*
X159333Y194590D01*
X158541Y195621D01*
X157510Y196413D01*
X156309Y196910D01*
X155020Y197080D01*
X153731Y196910D01*
X152530Y196413D01*
X151499Y195621D01*
X150707Y194590D01*
X150210Y193389D01*
X150040Y192100D01*
X150210Y190811D01*
X150707Y189610D01*
X151499Y188579D01*
X152530Y187787D01*
X153281Y187476D01*
X153182Y186976D01*
X145700D01*
X145700Y186977D01*
X145173Y186872D01*
X144727Y186573D01*
X144727Y186573D01*
X130538Y172385D01*
X130076Y172576D01*
Y190130D01*
X145139Y205192D01*
X145702Y205304D01*
X146298Y205702D01*
X146696Y206298D01*
X146835Y207000D01*
X146696Y207702D01*
X146298Y208298D01*
X145702Y208696D01*
X145584Y208719D01*
X145443Y209199D01*
X150603Y214185D01*
X151202Y214304D01*
X151798Y214702D01*
X152196Y215298D01*
X152335Y216000D01*
X152196Y216702D01*
X151798Y217298D01*
X151202Y217696D01*
X150500Y217835D01*
X149798Y217696D01*
X149202Y217298D01*
X148804Y216702D01*
X148699Y216174D01*
X102043Y171090D01*
X102037Y171080D01*
X102027Y171073D01*
X101884Y170860D01*
X101737Y170649D01*
X101735Y170637D01*
X101728Y170627D01*
X101678Y170375D01*
X101624Y170124D01*
X101626Y170112D01*
X101624Y170100D01*
Y153680D01*
X101304Y153202D01*
X101165Y152500D01*
X101304Y151798D01*
X101624Y151320D01*
Y145100D01*
X101159Y144981D01*
X100781Y145894D01*
X100179Y146679D01*
X99394Y147281D01*
X98480Y147659D01*
X97500Y147788D01*
X96520Y147659D01*
X95606Y147281D01*
X94821Y146679D01*
X94219Y145894D01*
X93841Y144981D01*
X93712Y144000D01*
X93841Y143019D01*
X94219Y142106D01*
X94821Y141321D01*
X95606Y140719D01*
X96520Y140341D01*
X97500Y140212D01*
X98480Y140341D01*
X99394Y140719D01*
X100179Y141321D01*
X100781Y142106D01*
X101159Y143019D01*
X101624Y142900D01*
Y140570D01*
X94230Y133176D01*
X87682D01*
X87415Y133676D01*
X87496Y133798D01*
X87536Y134000D01*
X85800D01*
Y134500D01*
X85300D01*
Y136236D01*
X85098Y136196D01*
X84502Y135798D01*
X84104Y135202D01*
X83965Y134500D01*
X83968Y134486D01*
X83507Y134240D01*
X80276Y137470D01*
Y168925D01*
X90167Y181538D01*
X90502Y181604D01*
X91098Y182002D01*
X91496Y182598D01*
X91635Y183300D01*
X91496Y184002D01*
X91098Y184598D01*
X90502Y184996D01*
X89800Y185135D01*
X89098Y184996D01*
X88502Y184598D01*
X88104Y184002D01*
X87965Y183300D01*
X87982Y183212D01*
X77817Y170249D01*
X77732Y170082D01*
X77628Y169927D01*
X77612Y169845D01*
X77574Y169770D01*
X77560Y169584D01*
X77524Y169400D01*
Y136900D01*
X77628Y136373D01*
X77927Y135927D01*
X82192Y131661D01*
X82304Y131098D01*
X82702Y130502D01*
X83298Y130104D01*
X84000Y129965D01*
X84702Y130104D01*
X85180Y130424D01*
X94800D01*
X95327Y130528D01*
X95773Y130827D01*
X103973Y139027D01*
X104272Y139473D01*
X104376Y140000D01*
Y151320D01*
X104696Y151798D01*
X104835Y152500D01*
X104696Y153202D01*
X104376Y153680D01*
Y169516D01*
X126936Y191316D01*
X127396Y191065D01*
X127324Y190700D01*
Y140770D01*
X113580Y127026D01*
X86300D01*
Y129400D01*
X81047D01*
X75123Y135323D01*
X74677Y135622D01*
X74150Y135726D01*
X52750D01*
X52750Y135726D01*
X52223Y135622D01*
X51777Y135323D01*
X51777Y135323D01*
X47061Y130608D01*
X46498Y130496D01*
X45902Y130098D01*
X45504Y129502D01*
X45484Y129400D01*
X42000D01*
X38800Y132600D01*
Y187124D01*
X92430D01*
X96124Y183430D01*
Y177495D01*
X95606Y177281D01*
X94821Y176679D01*
X94219Y175894D01*
X93841Y174980D01*
X93712Y174000D01*
X93841Y173020D01*
X94219Y172106D01*
X94821Y171321D01*
X95606Y170719D01*
X96520Y170341D01*
X97500Y170212D01*
X98480Y170341D01*
X99394Y170719D01*
X100179Y171321D01*
X100781Y172106D01*
X101159Y173020D01*
X101288Y174000D01*
X101159Y174980D01*
X100781Y175894D01*
X100179Y176679D01*
X99394Y177281D01*
X98876Y177495D01*
Y184000D01*
X98772Y184527D01*
X98473Y184973D01*
X93973Y189473D01*
X93527Y189772D01*
X93000Y189876D01*
X38800D01*
Y197853D01*
X43139Y202192D01*
X43702Y202304D01*
X44180Y202624D01*
X70820D01*
X71298Y202304D01*
X72000Y202165D01*
X72702Y202304D01*
X73298Y202702D01*
X73696Y203298D01*
X73835Y204000D01*
X73696Y204702D01*
X73298Y205298D01*
X72702Y205696D01*
X72000Y205835D01*
X71298Y205696D01*
X70820Y205377D01*
X44180D01*
X43702Y205696D01*
X43000Y205835D01*
X42298Y205696D01*
X41702Y205298D01*
X41304Y204702D01*
X41192Y204139D01*
X39262Y202208D01*
X38800Y202400D01*
Y214000D01*
X25637D01*
X25540Y214125D01*
X24591Y214854D01*
X23486Y215311D01*
X22300Y215468D01*
X21114Y215311D01*
X20009Y214854D01*
X19060Y214125D01*
X18963Y214000D01*
X1529D01*
Y217961D01*
X1900Y218241D01*
Y220100D01*
X2400D01*
Y220600D01*
X4136D01*
X4096Y220802D01*
X3698Y221398D01*
X3545Y221500D01*
X3696Y222000D01*
X168750D01*
X168942Y221538D01*
X142712Y195308D01*
X142261Y195495D01*
X140972Y195665D01*
X139684Y195495D01*
X138483Y194998D01*
X137451Y194206D01*
X136660Y193175D01*
X136162Y191974D01*
X135993Y190685D01*
X136162Y189396D01*
X136660Y188195D01*
X137451Y187164D01*
X138483Y186373D01*
X139684Y185875D01*
X140972Y185705D01*
X142261Y185875D01*
X143462Y186373D01*
X144494Y187164D01*
X145285Y188195D01*
X145782Y189396D01*
X145952Y190685D01*
X145782Y191974D01*
X145596Y192424D01*
X175171Y222000D01*
X398461D01*
Y206445D01*
X387587Y195571D01*
X387435Y195635D01*
X386300Y195784D01*
X385165Y195635D01*
X384108Y195197D01*
X383200Y194500D01*
X382503Y193592D01*
X382065Y192535D01*
X381916Y191400D01*
X382065Y190265D01*
X382503Y189208D01*
X383200Y188300D01*
X384108Y187603D01*
X385165Y187165D01*
X386300Y187016D01*
X387435Y187165D01*
X388492Y187603D01*
X389400Y188300D01*
X390097Y189208D01*
X390535Y190265D01*
X390684Y191400D01*
X390535Y192535D01*
X390471Y192687D01*
X401942Y204158D01*
X402384Y204820D01*
X402539Y205600D01*
Y222000D01*
X408471D01*
Y161900D01*
D02*
G37*
G36*
X92327Y65527D02*
X92773Y65228D01*
X93300Y65124D01*
X102165D01*
X102335Y64624D01*
X102076Y64424D01*
X101418Y63568D01*
X101005Y62570D01*
X100930Y62000D01*
X105000D01*
X109070D01*
X108995Y62570D01*
X108582Y63568D01*
X107924Y64424D01*
X107665Y64624D01*
X107835Y65124D01*
X132582D01*
X139124Y58582D01*
Y53400D01*
X139228Y52873D01*
X139527Y52427D01*
X140761Y51192D01*
X140527Y50719D01*
X140000Y50788D01*
X139020Y50659D01*
X138106Y50281D01*
X137321Y49679D01*
X136719Y48894D01*
X136341Y47980D01*
X136212Y47000D01*
X136341Y46020D01*
X136719Y45106D01*
X137321Y44321D01*
X138106Y43719D01*
X139020Y43341D01*
X140000Y43212D01*
X140981Y43341D01*
X141894Y43719D01*
X142679Y44321D01*
X142924Y44640D01*
X143424Y44471D01*
Y20700D01*
X143528Y20173D01*
X143827Y19727D01*
X161562Y1991D01*
X161371Y1529D01*
X108765D01*
X108616Y2029D01*
X108821Y2167D01*
X109042Y2498D01*
X109120Y2888D01*
Y9089D01*
X109042Y9479D01*
X108821Y9809D01*
X108491Y10031D01*
X108100Y10108D01*
X101900D01*
X101509Y10031D01*
X101179Y9809D01*
X100958Y9479D01*
X100880Y9089D01*
Y2888D01*
X100958Y2498D01*
X101179Y2167D01*
X101384Y2029D01*
X101235Y1529D01*
X1529D01*
Y16800D01*
X86300D01*
Y37353D01*
X92002Y43055D01*
X92519Y42841D01*
X93500Y42712D01*
X94481Y42841D01*
X95394Y43219D01*
X96179Y43821D01*
X96781Y44606D01*
X97159Y45520D01*
X97288Y46500D01*
X97159Y47480D01*
X96781Y48394D01*
X96179Y49179D01*
X95394Y49781D01*
X94481Y50159D01*
X93500Y50288D01*
X92519Y50159D01*
X91606Y49781D01*
X90821Y49179D01*
X90219Y48394D01*
X89841Y47480D01*
X89712Y46500D01*
X89841Y45520D01*
X90055Y45002D01*
X86762Y41708D01*
X86300Y41900D01*
Y70900D01*
X86762Y71092D01*
X92327Y65527D01*
D02*
G37*
G36*
X309700Y116771D02*
Y66632D01*
X304900D01*
X304509Y66554D01*
X304179Y66333D01*
X303958Y66002D01*
X303880Y65612D01*
Y59411D01*
X303958Y59021D01*
X304179Y58691D01*
X304283Y58621D01*
X304132Y58121D01*
X279255D01*
X279156Y58621D01*
X279394Y58719D01*
X280179Y59321D01*
X280781Y60106D01*
X281159Y61019D01*
X281288Y62000D01*
X281159Y62981D01*
X280781Y63894D01*
X280179Y64679D01*
X279394Y65281D01*
X278481Y65659D01*
X277500Y65788D01*
X276519Y65659D01*
X275606Y65281D01*
X274821Y64679D01*
X274219Y63894D01*
X274005Y63376D01*
X253877D01*
X251092Y66162D01*
X251283Y66624D01*
X258000D01*
X258527Y66728D01*
X258973Y67027D01*
X307639Y115692D01*
X308202Y115804D01*
X308798Y116202D01*
X309196Y116798D01*
X309200Y116820D01*
X309700Y116771D01*
D02*
G37*
G36*
X118027Y68527D02*
X118252Y68376D01*
X118100Y67876D01*
X93870D01*
X86300Y75447D01*
Y99546D01*
X86800Y99753D01*
X118027Y68527D01*
D02*
G37*
G36*
X252333Y61027D02*
X252333Y61027D01*
X252780Y60728D01*
X253307Y60624D01*
X274005D01*
X274219Y60106D01*
X274821Y59321D01*
X275606Y58719D01*
X275844Y58621D01*
X275745Y58121D01*
X253326D01*
X250945Y60502D01*
X251159Y61019D01*
X251214Y61439D01*
X251742Y61618D01*
X252333Y61027D01*
D02*
G37*
G36*
X408471Y1529D02*
X273629D01*
X273438Y1991D01*
X275570Y4124D01*
X291500D01*
X292027Y4228D01*
X292473Y4527D01*
X301964Y14018D01*
X321201D01*
X321727Y14122D01*
X321729Y14124D01*
X365500D01*
X365884Y14200D01*
X408471D01*
Y1529D01*
D02*
G37*
G36*
X170124Y37082D02*
Y21000D01*
X170163Y20803D01*
X170182Y20602D01*
X170215Y20541D01*
X170228Y20473D01*
X170340Y20306D01*
X170435Y20128D01*
X174176Y15556D01*
X174165Y15500D01*
X174304Y14798D01*
X174702Y14202D01*
X175298Y13804D01*
X176000Y13665D01*
X176702Y13804D01*
X177298Y14202D01*
X177696Y14798D01*
X177835Y15500D01*
X177696Y16202D01*
X177298Y16798D01*
X176702Y17196D01*
X176331Y17269D01*
X172876Y21491D01*
Y22468D01*
X173338Y22659D01*
X177971Y18027D01*
X177971Y18027D01*
X178417Y17728D01*
X178944Y17624D01*
X178944Y17624D01*
X188500D01*
X189027Y17728D01*
X189473Y18027D01*
X192920Y21474D01*
X195109D01*
X195356Y20974D01*
X195006Y20517D01*
X194603Y19544D01*
X194465Y18500D01*
X194603Y17456D01*
X195006Y16483D01*
X195647Y15647D01*
X196483Y15006D01*
X197456Y14603D01*
X198500Y14466D01*
X199544Y14603D01*
X200517Y15006D01*
X201353Y15647D01*
X201994Y16483D01*
X202397Y17456D01*
X202535Y18500D01*
X202397Y19544D01*
X201994Y20517D01*
X201644Y20974D01*
X201890Y21474D01*
X211610D01*
X211856Y20974D01*
X211506Y20517D01*
X211103Y19544D01*
X210965Y18500D01*
X211103Y17456D01*
X211506Y16483D01*
X212147Y15647D01*
X212983Y15006D01*
X213956Y14603D01*
X215000Y14466D01*
X216044Y14603D01*
X217017Y15006D01*
X217853Y15647D01*
X218494Y16483D01*
X218897Y17456D01*
X218972Y18026D01*
X219500Y18205D01*
X220179Y17527D01*
X220625Y17228D01*
X221152Y17124D01*
X236820D01*
X237298Y16804D01*
X238000Y16665D01*
X238702Y16804D01*
X239298Y17202D01*
X239696Y17798D01*
X239835Y18500D01*
X239696Y19202D01*
X239298Y19798D01*
X238702Y20196D01*
X238000Y20335D01*
X237298Y20196D01*
X236820Y19876D01*
X221722D01*
X217775Y23823D01*
X217622Y23925D01*
X217774Y24425D01*
X219302D01*
X219829Y24530D01*
X220275Y24828D01*
X220573Y25275D01*
X220623Y25525D01*
X222823Y27725D01*
X223122Y28171D01*
X223226Y28698D01*
Y41587D01*
X243258Y61618D01*
X243786Y61439D01*
X243841Y61019D01*
X244219Y60106D01*
X244821Y59321D01*
X245606Y58719D01*
X246519Y58341D01*
X247500Y58212D01*
X248481Y58341D01*
X248998Y58555D01*
X251783Y55771D01*
X251783Y55771D01*
X252229Y55472D01*
X252756Y55368D01*
X252756Y55368D01*
X309700D01*
Y16770D01*
X301394D01*
X301394Y16771D01*
X300867Y16666D01*
X300421Y16367D01*
X300421Y16367D01*
X290930Y6876D01*
X275000D01*
X275000Y6876D01*
X274473Y6772D01*
X274027Y6473D01*
X270930Y3376D01*
X239676D01*
Y3958D01*
X240517Y4306D01*
X241353Y4947D01*
X241994Y5783D01*
X242397Y6756D01*
X242534Y7800D01*
X242397Y8844D01*
X241994Y9817D01*
X241353Y10653D01*
X240517Y11294D01*
X239544Y11697D01*
X238500Y11834D01*
X237456Y11697D01*
X236483Y11294D01*
X235647Y10653D01*
X235006Y9817D01*
X234603Y8844D01*
X234466Y7800D01*
X234603Y6756D01*
X235006Y5783D01*
X235647Y4947D01*
X236483Y4306D01*
X236924Y4123D01*
Y3376D01*
X218775D01*
X218529Y3876D01*
X218994Y4483D01*
X219397Y5456D01*
X219469Y6000D01*
X211531D01*
X211603Y5456D01*
X212006Y4483D01*
X212471Y3876D01*
X212225Y3376D01*
X201775D01*
X201529Y3876D01*
X201994Y4483D01*
X202397Y5456D01*
X202469Y6000D01*
X194531D01*
X194603Y5456D01*
X195006Y4483D01*
X195471Y3876D01*
X195225Y3376D01*
X173269D01*
X173099Y3876D01*
X173679Y4321D01*
X174281Y5106D01*
X174659Y6019D01*
X174788Y7000D01*
X174659Y7981D01*
X174281Y8894D01*
X173679Y9679D01*
X172894Y10281D01*
X171981Y10659D01*
X171000Y10788D01*
X170019Y10659D01*
X169838Y10584D01*
X148742Y55529D01*
X148835Y56000D01*
X148696Y56702D01*
X148298Y57298D01*
X147702Y57696D01*
X147000Y57835D01*
X146298Y57696D01*
X145702Y57298D01*
X145304Y56702D01*
X145165Y56000D01*
X145304Y55298D01*
X145702Y54702D01*
X146265Y54326D01*
X167659Y8748D01*
X167341Y7981D01*
X167212Y7000D01*
X167341Y6019D01*
X167719Y5106D01*
X168321Y4321D01*
X168901Y3876D01*
X168731Y3376D01*
X164070D01*
X146176Y21270D01*
Y49100D01*
X146177Y49100D01*
X146072Y49627D01*
X145773Y50073D01*
X141876Y53970D01*
Y59152D01*
X141876Y59152D01*
X141772Y59679D01*
X141473Y60125D01*
X141473Y60125D01*
X134125Y67473D01*
X133900Y67624D01*
X134052Y68124D01*
X139082D01*
X170124Y37082D01*
D02*
G37*
G36*
X243908Y66162D02*
X220877Y43130D01*
X220578Y42683D01*
X220474Y42157D01*
Y29268D01*
X218384Y27178D01*
X211182D01*
X210991Y27640D01*
X212474Y29124D01*
X216320D01*
X216798Y28804D01*
X217500Y28665D01*
X218202Y28804D01*
X218798Y29202D01*
X219196Y29798D01*
X219335Y30500D01*
X219196Y31202D01*
X218798Y31798D01*
X218202Y32196D01*
X217500Y32335D01*
X216798Y32196D01*
X216320Y31876D01*
X213222D01*
X212812Y32377D01*
X212823Y32432D01*
X213973Y33583D01*
X214272Y34029D01*
X214376Y34556D01*
Y40930D01*
X235639Y62192D01*
X236202Y62304D01*
X236798Y62702D01*
X237196Y63298D01*
X237308Y63861D01*
X240070Y66624D01*
X243717D01*
X243908Y66162D01*
D02*
G37*
G36*
X179124Y36430D02*
Y27180D01*
X178804Y26702D01*
X178665Y26000D01*
X178804Y25298D01*
X179202Y24702D01*
X179798Y24304D01*
X180500Y24165D01*
X181202Y24304D01*
X181798Y24702D01*
X182196Y25298D01*
X182335Y26000D01*
X182196Y26702D01*
X181876Y27180D01*
Y35604D01*
X182376Y35858D01*
X182524Y35750D01*
Y35140D01*
X182628Y34613D01*
X182927Y34167D01*
X187567Y29527D01*
X188013Y29228D01*
X188540Y29124D01*
X191320D01*
X191798Y28804D01*
X192500Y28665D01*
X193202Y28804D01*
X193798Y29202D01*
X194196Y29798D01*
X194335Y30500D01*
X194196Y31202D01*
X193798Y31798D01*
X193202Y32196D01*
X192500Y32335D01*
X191798Y32196D01*
X191320Y31876D01*
X189110D01*
X185276Y35710D01*
Y36219D01*
X185738Y36411D01*
X187092Y35057D01*
X187092Y35057D01*
X187539Y34758D01*
X188066Y34654D01*
X189474D01*
X190001Y34758D01*
X190447Y35057D01*
X190564Y35174D01*
X194436D01*
X197174Y32436D01*
Y30894D01*
X197278Y30367D01*
X197577Y29921D01*
X200659Y26838D01*
X200468Y26376D01*
X190500D01*
X190500Y26377D01*
X189973Y26272D01*
X189527Y25973D01*
X186430Y22876D01*
X179418D01*
X177376Y24918D01*
Y37470D01*
X177876Y37677D01*
X179124Y36430D01*
D02*
G37*
%LPC*%
G36*
X267500Y167788D02*
X266519Y167659D01*
X265606Y167281D01*
X264821Y166679D01*
X264219Y165894D01*
X263841Y164980D01*
X263712Y164000D01*
X263841Y163020D01*
X264219Y162106D01*
X264821Y161321D01*
X265606Y160719D01*
X266124Y160505D01*
Y160000D01*
X266228Y159473D01*
X266527Y159027D01*
X286123Y139430D01*
Y131070D01*
X283430Y128376D01*
X282570D01*
X276808Y134139D01*
X276696Y134702D01*
X276298Y135298D01*
X275702Y135696D01*
X275000Y135835D01*
X274298Y135696D01*
X273702Y135298D01*
X273304Y134702D01*
X273165Y134000D01*
X273304Y133298D01*
X273702Y132702D01*
X274298Y132304D01*
X274861Y132192D01*
X281027Y126027D01*
X281027Y126027D01*
X281473Y125728D01*
X282000Y125624D01*
X284000D01*
X284527Y125728D01*
X284973Y126027D01*
X288473Y129527D01*
X288772Y129973D01*
X288877Y130500D01*
X288877Y130500D01*
Y140000D01*
X288772Y140527D01*
X288473Y140973D01*
X269241Y160206D01*
X269327Y160639D01*
X269417Y160737D01*
X270179Y161321D01*
X270781Y162106D01*
X271159Y163020D01*
X271288Y164000D01*
X271159Y164980D01*
X270781Y165894D01*
X270179Y166679D01*
X269394Y167281D01*
X268480Y167659D01*
X267500Y167788D01*
D02*
G37*
G36*
X244000Y180788D02*
X243020Y180659D01*
X242106Y180281D01*
X241321Y179679D01*
X240719Y178894D01*
X240341Y177980D01*
X240212Y177000D01*
X240341Y176020D01*
X240719Y175106D01*
X241321Y174321D01*
X242106Y173719D01*
X243020Y173341D01*
X244000Y173212D01*
X244981Y173341D01*
X245498Y173555D01*
X281123Y137930D01*
Y134180D01*
X280804Y133702D01*
X280665Y133000D01*
X280804Y132298D01*
X281202Y131702D01*
X281798Y131304D01*
X282500Y131165D01*
X283202Y131304D01*
X283798Y131702D01*
X284196Y132298D01*
X284335Y133000D01*
X284196Y133702D01*
X283876Y134180D01*
Y138500D01*
X283772Y139027D01*
X283473Y139473D01*
X247445Y175502D01*
X247659Y176020D01*
X247788Y177000D01*
X247659Y177980D01*
X247281Y178894D01*
X246679Y179679D01*
X245894Y180281D01*
X244981Y180659D01*
X244000Y180788D01*
D02*
G37*
G36*
X267500Y137788D02*
X266519Y137659D01*
X265606Y137281D01*
X264821Y136679D01*
X264219Y135894D01*
X263841Y134980D01*
X263712Y134000D01*
X263841Y133019D01*
X264219Y132106D01*
X264821Y131321D01*
X265606Y130719D01*
X266519Y130341D01*
X267500Y130212D01*
X268480Y130341D01*
X269394Y130719D01*
X270179Y131321D01*
X270781Y132106D01*
X271159Y133019D01*
X271288Y134000D01*
X271159Y134980D01*
X270781Y135894D01*
X270179Y136679D01*
X269394Y137281D01*
X268480Y137659D01*
X267500Y137788D01*
D02*
G37*
G36*
X274000Y180788D02*
X273020Y180659D01*
X272106Y180281D01*
X271321Y179679D01*
X270719Y178894D01*
X270341Y177980D01*
X270212Y177000D01*
X270341Y176020D01*
X270719Y175106D01*
X271321Y174321D01*
X272106Y173719D01*
X273020Y173341D01*
X274000Y173212D01*
X274980Y173341D01*
X275894Y173719D01*
X276679Y174321D01*
X277281Y175106D01*
X277659Y176020D01*
X277788Y177000D01*
X277659Y177980D01*
X277281Y178894D01*
X276679Y179679D01*
X275894Y180281D01*
X274980Y180659D01*
X274000Y180788D01*
D02*
G37*
G36*
X305000Y146558D02*
Y142988D01*
X308570D01*
X308495Y143559D01*
X308082Y144556D01*
X307424Y145413D01*
X306568Y146070D01*
X305570Y146483D01*
X305000Y146558D01*
D02*
G37*
G36*
X304000Y146558D02*
X303430Y146483D01*
X302432Y146070D01*
X301576Y145413D01*
X300918Y144556D01*
X300505Y143559D01*
X300430Y142988D01*
X304000D01*
Y146558D01*
D02*
G37*
G36*
X308570Y141988D02*
X305000D01*
Y138418D01*
X305570Y138493D01*
X306568Y138907D01*
X307424Y139564D01*
X308082Y140420D01*
X308495Y141418D01*
X308570Y141988D01*
D02*
G37*
G36*
X304000D02*
X300430D01*
X300505Y141418D01*
X300918Y140420D01*
X301576Y139564D01*
X302432Y138907D01*
X303430Y138493D01*
X304000Y138418D01*
Y141988D01*
D02*
G37*
G36*
X394141Y168022D02*
X389826D01*
Y163707D01*
X390589Y163808D01*
X391766Y164296D01*
X392777Y165071D01*
X393552Y166082D01*
X394040Y167259D01*
X394141Y168022D01*
D02*
G37*
G36*
X389826Y173337D02*
Y169022D01*
X394141D01*
X394040Y169785D01*
X393552Y170962D01*
X392777Y171973D01*
X391766Y172748D01*
X390589Y173236D01*
X389826Y173337D01*
D02*
G37*
G36*
X388826Y173337D02*
X388063Y173236D01*
X386886Y172748D01*
X385875Y171973D01*
X385100Y170962D01*
X384612Y169785D01*
X384511Y169022D01*
X388826D01*
Y173337D01*
D02*
G37*
G36*
Y168022D02*
X384511D01*
X384612Y167259D01*
X385100Y166082D01*
X385875Y165071D01*
X386886Y164296D01*
X388063Y163808D01*
X388826Y163707D01*
Y168022D01*
D02*
G37*
G36*
X210000Y130835D02*
X209298Y130696D01*
X208702Y130298D01*
X208304Y129702D01*
X208165Y129000D01*
X208304Y128298D01*
X208702Y127702D01*
X209298Y127304D01*
X209861Y127192D01*
X213527Y123527D01*
X213973Y123228D01*
X214500Y123124D01*
X222320D01*
X222798Y122804D01*
X223500Y122665D01*
X224202Y122804D01*
X224798Y123202D01*
X225196Y123798D01*
X225335Y124500D01*
X225196Y125202D01*
X224798Y125798D01*
X224202Y126196D01*
X223500Y126335D01*
X222798Y126196D01*
X222320Y125876D01*
X215070D01*
X211808Y129139D01*
X211696Y129702D01*
X211298Y130298D01*
X210702Y130696D01*
X210000Y130835D01*
D02*
G37*
G36*
X168000Y126788D02*
X167019Y126659D01*
X166106Y126281D01*
X165321Y125679D01*
X164719Y124894D01*
X164341Y123980D01*
X164212Y123000D01*
X164341Y122020D01*
X164719Y121106D01*
X165321Y120321D01*
X166106Y119719D01*
X167019Y119341D01*
X168000Y119212D01*
X168981Y119341D01*
X169894Y119719D01*
X170679Y120321D01*
X171281Y121106D01*
X171659Y122020D01*
X171788Y123000D01*
X171659Y123980D01*
X171281Y124894D01*
X170679Y125679D01*
X169894Y126281D01*
X168981Y126659D01*
X168000Y126788D01*
D02*
G37*
G36*
X188864Y105800D02*
X185900D01*
Y102836D01*
X186314Y102890D01*
X187165Y103243D01*
X187896Y103804D01*
X188457Y104535D01*
X188810Y105386D01*
X188864Y105800D01*
D02*
G37*
G36*
X184900D02*
X181936D01*
X181990Y105386D01*
X182343Y104535D01*
X182904Y103804D01*
X183635Y103243D01*
X184486Y102890D01*
X184900Y102836D01*
Y105800D01*
D02*
G37*
G36*
Y109764D02*
X184486Y109710D01*
X183635Y109357D01*
X182904Y108796D01*
X182343Y108065D01*
X181990Y107214D01*
X181936Y106800D01*
X184900D01*
Y109764D01*
D02*
G37*
G36*
X131500Y133335D02*
X130798Y133196D01*
X130202Y132798D01*
X129804Y132202D01*
X129692Y131639D01*
X111430Y113376D01*
X97180D01*
X96702Y113696D01*
X96000Y113835D01*
X95298Y113696D01*
X94702Y113298D01*
X94304Y112702D01*
X94165Y112000D01*
X94304Y111298D01*
X94702Y110702D01*
X95298Y110304D01*
X96000Y110165D01*
X96702Y110304D01*
X97180Y110624D01*
X112000D01*
X112527Y110728D01*
X112973Y111027D01*
X131639Y129692D01*
X132202Y129804D01*
X132798Y130202D01*
X133196Y130798D01*
X133335Y131500D01*
X133196Y132202D01*
X132798Y132798D01*
X132202Y133196D01*
X131500Y133335D01*
D02*
G37*
G36*
X185900Y109764D02*
Y106800D01*
X188864D01*
X188810Y107214D01*
X188457Y108065D01*
X187896Y108796D01*
X187165Y109357D01*
X186314Y109710D01*
X185900Y109764D01*
D02*
G37*
G36*
X86300Y136236D02*
Y135000D01*
X87536D01*
X87496Y135202D01*
X87098Y135798D01*
X86502Y136196D01*
X86300Y136236D01*
D02*
G37*
G36*
X75636Y183100D02*
X74400D01*
Y181864D01*
X74602Y181904D01*
X75198Y182302D01*
X75596Y182898D01*
X75636Y183100D01*
D02*
G37*
G36*
X73400D02*
X72164D01*
X72204Y182898D01*
X72602Y182302D01*
X73198Y181904D01*
X73400Y181864D01*
Y183100D01*
D02*
G37*
G36*
Y185336D02*
X73198Y185296D01*
X72602Y184898D01*
X72204Y184302D01*
X72164Y184100D01*
X73400D01*
Y185336D01*
D02*
G37*
G36*
X180000Y189969D02*
X179456Y189897D01*
X178483Y189494D01*
X177647Y188853D01*
X177006Y188017D01*
X176603Y187044D01*
X176531Y186500D01*
X180000D01*
Y189969D01*
D02*
G37*
G36*
X74400Y185336D02*
Y184100D01*
X75636D01*
X75596Y184302D01*
X75198Y184898D01*
X74602Y185296D01*
X74400Y185336D01*
D02*
G37*
G36*
X41800Y182036D02*
Y180800D01*
X43036D01*
X42996Y181002D01*
X42598Y181598D01*
X42002Y181996D01*
X41800Y182036D01*
D02*
G37*
G36*
X122500Y180288D02*
X121519Y180159D01*
X120606Y179781D01*
X119821Y179179D01*
X119219Y178394D01*
X118841Y177480D01*
X118712Y176500D01*
X118841Y175520D01*
X119219Y174606D01*
X119821Y173821D01*
X120606Y173219D01*
X121519Y172841D01*
X122500Y172712D01*
X123480Y172841D01*
X124394Y173219D01*
X125179Y173821D01*
X125781Y174606D01*
X126159Y175520D01*
X126288Y176500D01*
X126159Y177480D01*
X125781Y178394D01*
X125179Y179179D01*
X124394Y179781D01*
X123480Y180159D01*
X122500Y180288D01*
D02*
G37*
G36*
X40800Y179800D02*
X39564D01*
X39604Y179598D01*
X40002Y179002D01*
X40598Y178604D01*
X40800Y178564D01*
Y179800D01*
D02*
G37*
G36*
Y182036D02*
X40598Y181996D01*
X40002Y181598D01*
X39604Y181002D01*
X39564Y180800D01*
X40800D01*
Y182036D01*
D02*
G37*
G36*
X43036Y179800D02*
X41800D01*
Y178564D01*
X42002Y178604D01*
X42598Y179002D01*
X42996Y179598D01*
X43036Y179800D01*
D02*
G37*
G36*
X109500Y204082D02*
Y200512D01*
X113070D01*
X112995Y201082D01*
X112582Y202080D01*
X111924Y202936D01*
X111068Y203593D01*
X110070Y204007D01*
X109500Y204082D01*
D02*
G37*
G36*
X108500Y204082D02*
X107930Y204007D01*
X106932Y203593D01*
X106076Y202936D01*
X105418Y202080D01*
X105005Y201082D01*
X104930Y200512D01*
X108500D01*
Y204082D01*
D02*
G37*
G36*
X386300Y215469D02*
X385165Y215320D01*
X384108Y214882D01*
X383200Y214185D01*
X382503Y213277D01*
X382065Y212220D01*
X381916Y211085D01*
X382065Y209950D01*
X382503Y208893D01*
X383200Y207985D01*
X384108Y207288D01*
X385165Y206851D01*
X386300Y206701D01*
X387435Y206851D01*
X388492Y207288D01*
X389400Y207985D01*
X390097Y208893D01*
X390535Y209950D01*
X390684Y211085D01*
X390535Y212220D01*
X390097Y213277D01*
X389400Y214185D01*
X388492Y214882D01*
X387435Y215320D01*
X386300Y215469D01*
D02*
G37*
G36*
X4136Y219600D02*
X2900D01*
Y218364D01*
X3102Y218404D01*
X3698Y218802D01*
X4096Y219398D01*
X4136Y219600D01*
D02*
G37*
G36*
X85500Y214934D02*
X84456Y214797D01*
X83483Y214394D01*
X82647Y213753D01*
X82006Y212917D01*
X81603Y211944D01*
X81466Y210900D01*
X81603Y209856D01*
X82006Y208883D01*
X82647Y208047D01*
X83483Y207406D01*
X84456Y207003D01*
X85500Y206866D01*
X86544Y207003D01*
X87517Y207406D01*
X88353Y208047D01*
X88994Y208883D01*
X89397Y209856D01*
X89534Y210900D01*
X89397Y211944D01*
X88994Y212917D01*
X88353Y213753D01*
X87517Y214394D01*
X86544Y214797D01*
X85500Y214934D01*
D02*
G37*
G36*
X108500Y199512D02*
X104930D01*
X105005Y198941D01*
X105418Y197944D01*
X106076Y197087D01*
X106932Y196430D01*
X107930Y196017D01*
X108500Y195942D01*
Y199512D01*
D02*
G37*
G36*
X199500Y189969D02*
X198956Y189897D01*
X197983Y189494D01*
X197147Y188853D01*
X196506Y188017D01*
X196103Y187044D01*
X196031Y186500D01*
X199500D01*
Y189969D01*
D02*
G37*
G36*
X181000D02*
Y186500D01*
X184469D01*
X184397Y187044D01*
X183994Y188017D01*
X183353Y188853D01*
X182517Y189494D01*
X181544Y189897D01*
X181000Y189969D01*
D02*
G37*
G36*
X200500D02*
Y186500D01*
X203969D01*
X203897Y187044D01*
X203494Y188017D01*
X202853Y188853D01*
X202017Y189494D01*
X201044Y189897D01*
X200500Y189969D01*
D02*
G37*
G36*
X113070Y199512D02*
X109500D01*
Y195942D01*
X110070Y196017D01*
X111068Y196430D01*
X111924Y197087D01*
X112582Y197944D01*
X112995Y198941D01*
X113070Y199512D01*
D02*
G37*
G36*
X307600Y202120D02*
X301400D01*
X301009Y202042D01*
X300679Y201821D01*
X300458Y201491D01*
X300380Y201100D01*
Y194900D01*
X300458Y194509D01*
X300679Y194179D01*
X301009Y193958D01*
X301400Y193880D01*
X307600D01*
X307991Y193958D01*
X308321Y194179D01*
X308542Y194509D01*
X308620Y194900D01*
Y201100D01*
X308542Y201491D01*
X308321Y201821D01*
X307991Y202042D01*
X307600Y202120D01*
D02*
G37*
G36*
X90300Y158935D02*
X89598Y158796D01*
X89002Y158398D01*
X88604Y157802D01*
X88465Y157100D01*
X88604Y156398D01*
X89002Y155802D01*
X89598Y155404D01*
X90300Y155265D01*
X91002Y155404D01*
X91598Y155802D01*
X91996Y156398D01*
X92135Y157100D01*
X91996Y157802D01*
X91598Y158398D01*
X91002Y158796D01*
X90300Y158935D01*
D02*
G37*
G36*
X159934Y164040D02*
X155520D01*
Y159626D01*
X156309Y159730D01*
X157510Y160228D01*
X158541Y161019D01*
X159333Y162050D01*
X159830Y163251D01*
X159934Y164040D01*
D02*
G37*
G36*
X154520D02*
X150106D01*
X150210Y163251D01*
X150707Y162050D01*
X151499Y161019D01*
X152530Y160228D01*
X153731Y159730D01*
X154520Y159626D01*
Y164040D01*
D02*
G37*
G36*
X122500Y150288D02*
X121519Y150159D01*
X120606Y149781D01*
X119821Y149179D01*
X119219Y148394D01*
X118841Y147480D01*
X118712Y146500D01*
X118841Y145519D01*
X119219Y144606D01*
X119821Y143821D01*
X120606Y143219D01*
X121519Y142841D01*
X122500Y142712D01*
X123480Y142841D01*
X124394Y143219D01*
X125179Y143821D01*
X125781Y144606D01*
X126159Y145519D01*
X126288Y146500D01*
X126159Y147480D01*
X125781Y148394D01*
X125179Y149179D01*
X124394Y149781D01*
X123480Y150159D01*
X122500Y150288D01*
D02*
G37*
G36*
X70240Y139000D02*
X68800D01*
Y137560D01*
X69080Y137616D01*
X69742Y138058D01*
X70184Y138720D01*
X70240Y139000D01*
D02*
G37*
G36*
X46100D02*
X44660D01*
X44716Y138720D01*
X45158Y138058D01*
X45820Y137616D01*
X46100Y137560D01*
Y139000D01*
D02*
G37*
G36*
X112100Y148620D02*
X105900D01*
X105509Y148542D01*
X105179Y148321D01*
X104958Y147991D01*
X104880Y147600D01*
Y141400D01*
X104958Y141009D01*
X105179Y140679D01*
X105509Y140458D01*
X105900Y140380D01*
X112100D01*
X112491Y140458D01*
X112821Y140679D01*
X113042Y141009D01*
X113120Y141400D01*
Y147600D01*
X113042Y147991D01*
X112821Y148321D01*
X112491Y148542D01*
X112100Y148620D01*
D02*
G37*
G36*
X93400Y166147D02*
X93198Y166107D01*
X92602Y165709D01*
X92204Y165113D01*
X92164Y164911D01*
X93400D01*
Y166147D01*
D02*
G37*
G36*
X94400D02*
Y164911D01*
X95636D01*
X95596Y165113D01*
X95198Y165709D01*
X94602Y166107D01*
X94400Y166147D01*
D02*
G37*
G36*
X46100Y163140D02*
X45820Y163084D01*
X45158Y162642D01*
X44716Y161980D01*
X44660Y161700D01*
X46100D01*
Y163140D01*
D02*
G37*
G36*
X65700D02*
Y161200D01*
X64700D01*
Y163140D01*
X64420Y163084D01*
X64024Y162820D01*
X63650Y162682D01*
X63276Y162820D01*
X62880Y163084D01*
X62600Y163140D01*
Y161200D01*
X61600D01*
Y163140D01*
X61320Y163084D01*
X60924Y162820D01*
X60550Y162682D01*
X60176Y162820D01*
X59780Y163084D01*
X59500Y163140D01*
Y161200D01*
X58500D01*
Y163140D01*
X58220Y163084D01*
X57824Y162820D01*
X57450Y162682D01*
X57076Y162820D01*
X56680Y163084D01*
X56400Y163140D01*
Y161200D01*
X55400D01*
Y163140D01*
X55120Y163084D01*
X54724Y162820D01*
X54350Y162682D01*
X53976Y162820D01*
X53580Y163084D01*
X53300Y163140D01*
Y161200D01*
X52300D01*
Y163140D01*
X52020Y163084D01*
X51624Y162820D01*
X51250Y162682D01*
X50876Y162820D01*
X50480Y163084D01*
X50200Y163140D01*
Y161200D01*
X49200D01*
Y163140D01*
X48920Y163084D01*
X48524Y162820D01*
X48150Y162682D01*
X47776Y162820D01*
X47380Y163084D01*
X47100Y163140D01*
Y161200D01*
X46600D01*
Y160700D01*
X44660D01*
X44716Y160420D01*
X44980Y160024D01*
X45118Y159650D01*
X44980Y159276D01*
X44716Y158880D01*
X44660Y158600D01*
X46600D01*
Y157600D01*
X44660D01*
X44716Y157320D01*
X44980Y156924D01*
X45118Y156550D01*
X44980Y156176D01*
X44716Y155780D01*
X44660Y155500D01*
X46600D01*
Y154500D01*
X44660D01*
X44716Y154220D01*
X45158Y153558D01*
Y153342D01*
X44716Y152680D01*
X44660Y152400D01*
X46600D01*
Y151400D01*
X44660D01*
X44716Y151120D01*
X44980Y150724D01*
X45118Y150350D01*
X44980Y149976D01*
X44716Y149580D01*
X44660Y149300D01*
X46600D01*
Y148300D01*
X44660D01*
X44716Y148020D01*
X44980Y147624D01*
X45118Y147250D01*
X44980Y146876D01*
X44716Y146480D01*
X44660Y146200D01*
X46600D01*
Y145200D01*
X44660D01*
X44716Y144920D01*
X45158Y144258D01*
Y144042D01*
X44716Y143380D01*
X44660Y143100D01*
X46600D01*
Y142100D01*
X44660D01*
X44716Y141820D01*
X45158Y141158D01*
Y140942D01*
X44716Y140280D01*
X44660Y140000D01*
X46600D01*
Y139500D01*
X47100D01*
Y137560D01*
X47380Y137616D01*
X47776Y137880D01*
X48150Y138018D01*
X48524Y137880D01*
X48920Y137616D01*
X49200Y137560D01*
Y139500D01*
X50200D01*
Y137560D01*
X50480Y137616D01*
X50876Y137880D01*
X51250Y138018D01*
X51624Y137880D01*
X52020Y137616D01*
X52300Y137560D01*
Y139500D01*
X53300D01*
Y137560D01*
X53580Y137616D01*
X53976Y137880D01*
X54350Y138018D01*
X54724Y137880D01*
X55120Y137616D01*
X55400Y137560D01*
Y139500D01*
X56400D01*
Y137560D01*
X56680Y137616D01*
X57076Y137880D01*
X57450Y138018D01*
X57824Y137880D01*
X58220Y137616D01*
X58500Y137560D01*
Y139500D01*
X59500D01*
Y137560D01*
X59780Y137616D01*
X60176Y137880D01*
X60550Y138018D01*
X60924Y137880D01*
X61320Y137616D01*
X61600Y137560D01*
Y139500D01*
X62600D01*
Y137560D01*
X62880Y137616D01*
X63276Y137880D01*
X63650Y138018D01*
X64024Y137880D01*
X64420Y137616D01*
X64700Y137560D01*
Y139500D01*
X65700D01*
Y137560D01*
X65980Y137616D01*
X66376Y137880D01*
X66750Y138018D01*
X67124Y137880D01*
X67520Y137616D01*
X67800Y137560D01*
Y139500D01*
X68300D01*
Y140000D01*
X70240D01*
X70184Y140280D01*
X69920Y140676D01*
X69782Y141050D01*
X69920Y141424D01*
X70184Y141820D01*
X70240Y142100D01*
X68300D01*
Y143100D01*
X70240D01*
X70184Y143380D01*
X69920Y143776D01*
X69782Y144150D01*
X69920Y144524D01*
X70184Y144920D01*
X70240Y145200D01*
X68300D01*
Y146200D01*
X70240D01*
X70184Y146480D01*
X69920Y146876D01*
X69782Y147250D01*
X69920Y147624D01*
X70184Y148020D01*
X70240Y148300D01*
X68300D01*
Y149300D01*
X70240D01*
X70184Y149580D01*
X69920Y149976D01*
X69782Y150350D01*
X69920Y150724D01*
X70184Y151120D01*
X70240Y151400D01*
X68300D01*
Y152400D01*
X70240D01*
X70184Y152680D01*
X69920Y153076D01*
X69782Y153450D01*
X69920Y153824D01*
X70184Y154220D01*
X70240Y154500D01*
X68300D01*
Y155500D01*
X70240D01*
X70184Y155780D01*
X69920Y156176D01*
X69782Y156550D01*
X69920Y156924D01*
X70184Y157320D01*
X70240Y157600D01*
X68300D01*
Y158600D01*
X70240D01*
X70184Y158880D01*
X69920Y159276D01*
X69782Y159650D01*
X69920Y160024D01*
X70184Y160420D01*
X70240Y160700D01*
X68300D01*
Y161200D01*
X67800D01*
Y163140D01*
X67520Y163084D01*
X67124Y162820D01*
X66750Y162682D01*
X66376Y162820D01*
X65980Y163084D01*
X65700Y163140D01*
D02*
G37*
G36*
X68800D02*
Y161700D01*
X70240D01*
X70184Y161980D01*
X69742Y162642D01*
X69080Y163084D01*
X68800Y163140D01*
D02*
G37*
G36*
X95636Y163911D02*
X94400D01*
Y162675D01*
X94602Y162715D01*
X95198Y163113D01*
X95596Y163709D01*
X95636Y163911D01*
D02*
G37*
G36*
X93400D02*
X92164D01*
X92204Y163709D01*
X92602Y163113D01*
X93198Y162715D01*
X93400Y162675D01*
Y163911D01*
D02*
G37*
G36*
X104500Y61000D02*
X100930D01*
X101005Y60430D01*
X101418Y59432D01*
X102076Y58576D01*
X102932Y57918D01*
X103930Y57505D01*
X104500Y57430D01*
Y61000D01*
D02*
G37*
G36*
X109070D02*
X105500D01*
Y57430D01*
X106070Y57505D01*
X107068Y57918D01*
X107924Y58576D01*
X108582Y59432D01*
X108995Y60430D01*
X109070Y61000D01*
D02*
G37*
G36*
X20274Y7978D02*
X15959D01*
X16060Y7215D01*
X16547Y6038D01*
X17323Y5027D01*
X18334Y4251D01*
X19511Y3764D01*
X20274Y3664D01*
Y7978D01*
D02*
G37*
G36*
X68805Y13358D02*
X67542Y13192D01*
X66365Y12704D01*
X65355Y11929D01*
X64579Y10918D01*
X64091Y9741D01*
X63925Y8478D01*
X64091Y7215D01*
X64579Y6038D01*
X65355Y5027D01*
X66365Y4251D01*
X67542Y3764D01*
X68805Y3598D01*
X70069Y3764D01*
X71246Y4251D01*
X72256Y5027D01*
X73032Y6038D01*
X73520Y7215D01*
X73686Y8478D01*
X73520Y9741D01*
X73032Y10918D01*
X72256Y11929D01*
X71246Y12704D01*
X70069Y13192D01*
X68805Y13358D01*
D02*
G37*
G36*
X25589Y7978D02*
X21274D01*
Y3664D01*
X22037Y3764D01*
X23214Y4251D01*
X24225Y5027D01*
X25001Y6038D01*
X25488Y7215D01*
X25589Y7978D01*
D02*
G37*
G36*
X141000Y10788D02*
X140020Y10659D01*
X139106Y10281D01*
X138321Y9679D01*
X137719Y8894D01*
X137341Y7981D01*
X137212Y7000D01*
X137341Y6019D01*
X137719Y5106D01*
X138321Y4321D01*
X139106Y3719D01*
X140020Y3341D01*
X141000Y3212D01*
X141981Y3341D01*
X142894Y3719D01*
X143679Y4321D01*
X144281Y5106D01*
X144659Y6019D01*
X144788Y7000D01*
X144659Y7981D01*
X144281Y8894D01*
X143679Y9679D01*
X142894Y10281D01*
X141981Y10659D01*
X141000Y10788D01*
D02*
G37*
G36*
X21274Y13292D02*
Y8978D01*
X25589D01*
X25488Y9741D01*
X25001Y10918D01*
X24225Y11929D01*
X23214Y12704D01*
X22037Y13192D01*
X21274Y13292D01*
D02*
G37*
G36*
X20274D02*
X19511Y13192D01*
X18334Y12704D01*
X17323Y11929D01*
X16547Y10918D01*
X16060Y9741D01*
X15959Y8978D01*
X20274D01*
Y13292D01*
D02*
G37*
G36*
X135780Y59556D02*
X135077Y59416D01*
X134482Y59018D01*
X134084Y58423D01*
X133944Y57721D01*
X133999Y57446D01*
X128527Y51973D01*
X128228Y51527D01*
X128124Y51000D01*
Y27500D01*
X128228Y26973D01*
X128527Y26527D01*
X136555Y18498D01*
X136341Y17980D01*
X136212Y17000D01*
X136341Y16019D01*
X136719Y15106D01*
X137321Y14321D01*
X138106Y13719D01*
X139020Y13341D01*
X140000Y13212D01*
X140981Y13341D01*
X141894Y13719D01*
X142679Y14321D01*
X143281Y15106D01*
X143659Y16019D01*
X143788Y17000D01*
X143659Y17980D01*
X143281Y18894D01*
X142679Y19679D01*
X141894Y20281D01*
X140981Y20659D01*
X140000Y20788D01*
X139020Y20659D01*
X138502Y20445D01*
X130876Y28070D01*
Y50430D01*
X136469Y56022D01*
X136482Y56025D01*
X137077Y56423D01*
X137475Y57018D01*
X137615Y57721D01*
X137475Y58423D01*
X137077Y59018D01*
X136482Y59416D01*
X135780Y59556D01*
D02*
G37*
G36*
X93500Y20288D02*
X92519Y20159D01*
X91606Y19781D01*
X90821Y19179D01*
X90219Y18394D01*
X89841Y17481D01*
X89712Y16500D01*
X89841Y15519D01*
X90219Y14606D01*
X90821Y13821D01*
X91606Y13219D01*
X92519Y12841D01*
X93500Y12712D01*
X94481Y12841D01*
X95394Y13219D01*
X96179Y13821D01*
X96781Y14606D01*
X97159Y15519D01*
X97288Y16500D01*
X97159Y17481D01*
X96781Y18394D01*
X96179Y19179D01*
X95394Y19781D01*
X94481Y20159D01*
X93500Y20288D01*
D02*
G37*
G36*
X334783Y7600D02*
X330469D01*
Y3286D01*
X331232Y3386D01*
X332409Y3873D01*
X333419Y4649D01*
X334195Y5660D01*
X334682Y6837D01*
X334783Y7600D01*
D02*
G37*
G36*
X312070Y6500D02*
X308500D01*
Y2930D01*
X309070Y3005D01*
X310068Y3418D01*
X310924Y4076D01*
X311582Y4932D01*
X311995Y5930D01*
X312070Y6500D01*
D02*
G37*
G36*
X307500D02*
X303930D01*
X304005Y5930D01*
X304418Y4932D01*
X305076Y4076D01*
X305932Y3418D01*
X306930Y3005D01*
X307500Y2930D01*
Y6500D01*
D02*
G37*
G36*
X329468Y7600D02*
X325154D01*
X325255Y6837D01*
X325742Y5660D01*
X326518Y4649D01*
X327528Y3873D01*
X328705Y3386D01*
X329468Y3286D01*
Y7600D01*
D02*
G37*
G36*
X378000Y12980D02*
X376737Y12814D01*
X375560Y12326D01*
X374549Y11551D01*
X373774Y10540D01*
X373286Y9363D01*
X373120Y8100D01*
X373286Y6837D01*
X373774Y5660D01*
X374549Y4649D01*
X375560Y3873D01*
X376737Y3386D01*
X378000Y3220D01*
X379263Y3386D01*
X380440Y3873D01*
X381451Y4649D01*
X382226Y5660D01*
X382714Y6837D01*
X382880Y8100D01*
X382714Y9363D01*
X382226Y10540D01*
X381451Y11551D01*
X380440Y12326D01*
X379263Y12814D01*
X378000Y12980D01*
D02*
G37*
G36*
X330469Y12914D02*
Y8600D01*
X334783D01*
X334682Y9363D01*
X334195Y10540D01*
X333419Y11551D01*
X332409Y12326D01*
X331232Y12814D01*
X330469Y12914D01*
D02*
G37*
G36*
X307500Y11070D02*
X306930Y10995D01*
X305932Y10582D01*
X305076Y9924D01*
X304418Y9068D01*
X304005Y8070D01*
X303930Y7500D01*
X307500D01*
Y11070D01*
D02*
G37*
G36*
X329468Y12914D02*
X328705Y12814D01*
X327528Y12326D01*
X326518Y11551D01*
X325742Y10540D01*
X325255Y9363D01*
X325154Y8600D01*
X329468D01*
Y12914D01*
D02*
G37*
G36*
X308500Y11070D02*
Y7500D01*
X312070D01*
X311995Y8070D01*
X311582Y9068D01*
X310924Y9924D01*
X310068Y10582D01*
X309070Y10995D01*
X308500Y11070D01*
D02*
G37*
G36*
X272000Y21788D02*
X271020Y21659D01*
X270106Y21281D01*
X269321Y20679D01*
X268719Y19894D01*
X268341Y18981D01*
X268212Y18000D01*
X268341Y17019D01*
X268719Y16106D01*
X269321Y15321D01*
X270106Y14719D01*
X271020Y14341D01*
X272000Y14212D01*
X272980Y14341D01*
X273894Y14719D01*
X274679Y15321D01*
X275281Y16106D01*
X275659Y17019D01*
X275788Y18000D01*
X275659Y18981D01*
X275281Y19894D01*
X274679Y20679D01*
X273894Y21281D01*
X272980Y21659D01*
X272000Y21788D01*
D02*
G37*
G36*
X223000Y25535D02*
X222298Y25396D01*
X221702Y24998D01*
X221304Y24402D01*
X221165Y23700D01*
X221304Y22998D01*
X221702Y22402D01*
X222298Y22004D01*
X223000Y21865D01*
X223702Y22004D01*
X224180Y22324D01*
X233288D01*
X233502Y22002D01*
X234098Y21604D01*
X234800Y21465D01*
X235502Y21604D01*
X236098Y22002D01*
X236496Y22598D01*
X236635Y23300D01*
X236496Y24002D01*
X236098Y24598D01*
X235502Y24996D01*
X234800Y25135D01*
X234452Y25066D01*
X234400Y25076D01*
X224180D01*
X223702Y25396D01*
X223000Y25535D01*
D02*
G37*
G36*
X199000Y10469D02*
Y7000D01*
X202469D01*
X202397Y7544D01*
X201994Y8517D01*
X201353Y9353D01*
X200517Y9994D01*
X199544Y10397D01*
X199000Y10469D01*
D02*
G37*
G36*
X198000D02*
X197456Y10397D01*
X196483Y9994D01*
X195647Y9353D01*
X195006Y8517D01*
X194603Y7544D01*
X194531Y7000D01*
X198000D01*
Y10469D01*
D02*
G37*
G36*
X272000Y51788D02*
X271020Y51659D01*
X270106Y51281D01*
X269321Y50679D01*
X268719Y49894D01*
X268341Y48981D01*
X268212Y48000D01*
X268341Y47019D01*
X268719Y46106D01*
X269321Y45321D01*
X270106Y44719D01*
X271020Y44341D01*
X272000Y44212D01*
X272980Y44341D01*
X273498Y44555D01*
X277624Y40430D01*
Y14180D01*
X277304Y13702D01*
X277165Y13000D01*
X277304Y12298D01*
X277702Y11702D01*
X278298Y11304D01*
X279000Y11165D01*
X279702Y11304D01*
X280298Y11702D01*
X280696Y12298D01*
X280835Y13000D01*
X280696Y13702D01*
X280377Y14180D01*
Y41000D01*
X280272Y41527D01*
X279973Y41973D01*
X279973Y41973D01*
X275445Y46502D01*
X275659Y47019D01*
X275788Y48000D01*
X275659Y48981D01*
X275281Y49894D01*
X274679Y50679D01*
X273894Y51281D01*
X272980Y51659D01*
X272000Y51788D01*
D02*
G37*
G36*
X216000Y10469D02*
Y7000D01*
X219469D01*
X219397Y7544D01*
X218994Y8517D01*
X218353Y9353D01*
X217517Y9994D01*
X216544Y10397D01*
X216000Y10469D01*
D02*
G37*
G36*
X215000D02*
X214456Y10397D01*
X213483Y9994D01*
X212647Y9353D01*
X212006Y8517D01*
X211603Y7544D01*
X211531Y7000D01*
X215000D01*
Y10469D01*
D02*
G37*
%LPD*%
D26*
X85500Y210900D02*
D03*
X238500Y7800D02*
D03*
X6500Y112167D02*
D03*
Y119833D02*
D03*
Y127500D02*
D03*
Y135167D02*
D03*
X180500Y197500D02*
D03*
X200000D02*
D03*
X198500Y18500D02*
D03*
X215000D02*
D03*
X180500Y186000D02*
D03*
X200000D02*
D03*
X198500Y6500D02*
D03*
X215500D02*
D03*
X193000Y166500D02*
D03*
D34*
X32200Y193200D02*
X43000Y204000D01*
X32200Y149700D02*
Y193200D01*
Y149700D02*
X34600Y148100D01*
X159094Y185600D02*
X175344Y201850D01*
X145700Y185600D02*
X159094D01*
X130500Y170400D02*
X145700Y185600D01*
X130500Y139596D02*
Y170400D01*
X190400Y123900D02*
X195500D01*
X181000Y114500D02*
X190400Y123900D01*
X234400Y23700D02*
X234800Y23300D01*
X223000Y23700D02*
X234400D01*
X238300Y2000D02*
X271500D01*
X163500D02*
X238300D01*
Y7600D01*
X238500Y7800D01*
X163600Y78400D02*
X167400D01*
X210000Y121000D01*
X103000Y152500D02*
Y170100D01*
X150500Y216000D01*
X140500Y53400D02*
X144800Y49100D01*
Y20700D02*
Y49100D01*
Y20700D02*
X163500Y2000D01*
X140500Y53400D02*
Y59152D01*
X315000Y24000D02*
Y35600D01*
X329969Y50568D01*
Y55344D01*
X328569Y56744D02*
X329969Y55344D01*
X252756Y56744D02*
X328569D01*
X393300Y181700D02*
X404500Y170500D01*
X377800Y181700D02*
X393300D01*
X371500Y188000D02*
X377800Y181700D01*
X404500Y54500D02*
Y170500D01*
X33900Y34200D02*
X81200D01*
X20774Y47326D02*
X33900Y34200D01*
X20774Y47326D02*
Y55722D01*
X81200Y34200D02*
X93500Y46500D01*
X82800Y77000D02*
Y108600D01*
Y77000D02*
X93300Y66500D01*
X133152D01*
X97500Y174000D02*
Y184000D01*
X93000Y188500D02*
X97500Y184000D01*
X36000Y188500D02*
X93000D01*
X114854Y123950D02*
X130500Y139596D01*
X81954Y123950D02*
X114854D01*
X87500Y101000D02*
Y113000D01*
Y101000D02*
X119000Y69500D01*
X90500Y102500D02*
Y113000D01*
Y102500D02*
X121500Y71500D01*
X171500Y21000D02*
Y37652D01*
X139652Y69500D02*
X171500Y37652D01*
X119000Y69500D02*
X139652D01*
X176000Y24348D02*
Y37960D01*
X126500Y73500D02*
X140460D01*
X173500Y24444D02*
Y38056D01*
X121500Y71500D02*
X140056D01*
X173500Y38056D01*
X140460Y73500D02*
X176000Y37960D01*
X173500Y24444D02*
X178944Y19000D01*
X188500D01*
X192350Y22850D01*
X216802D01*
X190500Y25000D02*
X208808D01*
X187000Y21500D02*
X190500Y25000D01*
X178848Y21500D02*
X187000D01*
X176000Y24348D02*
X178848Y21500D01*
X171500Y21000D02*
X176000Y15500D01*
X208808Y25000D02*
X209610Y25802D01*
X95500Y104500D02*
X126500Y73500D01*
X142250Y75250D02*
X180500Y37000D01*
X134250Y75250D02*
X142250D01*
X105000Y104500D02*
X134250Y75250D01*
X104000Y104500D02*
X105000D01*
X133152Y66500D02*
X140500Y59152D01*
X180500Y26000D02*
Y37000D01*
X209610Y25802D02*
X219302D01*
Y26150D01*
X183900Y35140D02*
X188540Y30500D01*
X183900Y35140D02*
Y36908D01*
X165002Y59671D02*
X182800Y41873D01*
X165577Y61500D02*
X184500Y42577D01*
X165000Y61500D02*
X165577D01*
X184500Y42000D02*
X188250Y38250D01*
X184500Y42000D02*
Y42577D01*
X182800Y41296D02*
X188066Y36030D01*
X182800Y41296D02*
Y41873D01*
X188540Y30500D02*
X192500D01*
X188066Y36030D02*
X189474D01*
X189994Y36550D01*
X195006D01*
X195710Y38250D02*
X200250Y33710D01*
X188250Y38250D02*
X195710D01*
X195006Y36550D02*
X198550Y33006D01*
Y30894D02*
Y33006D01*
Y30894D02*
X202644Y26800D01*
X200250Y31598D02*
X203348Y28500D01*
X200250Y31598D02*
Y33710D01*
X211904Y30500D02*
X217500D01*
X203348Y28500D02*
X207500D01*
X202644Y26800D02*
X208204D01*
X211904Y30500D01*
X160000Y70000D02*
X165000Y61500D01*
X207500Y28500D02*
X211450Y32450D01*
X221850Y42157D02*
X245799Y66106D01*
X221850Y28698D02*
Y42157D01*
X219302Y26150D02*
X221850Y28698D01*
X245799Y66106D02*
X249201D01*
X247500Y62000D02*
X252756Y56744D01*
X239500Y68000D02*
X258000D01*
X43000Y204000D02*
X72000D01*
X103000Y140000D02*
Y152500D01*
X147000Y56000D02*
X170000Y7000D01*
X171000D01*
X129500Y27500D02*
Y51000D01*
Y27500D02*
X140000Y17000D01*
X315000Y24000D02*
X319500Y19500D01*
X272000Y48000D02*
X279000Y41000D01*
Y13000D02*
Y41000D01*
X244000Y177000D02*
X282500Y138500D01*
Y133000D02*
Y138500D01*
X275000Y5500D02*
X291500D01*
X301394Y15394D01*
X321201D01*
X321307Y15500D01*
X365500D01*
X404500Y54500D01*
X271500Y2000D02*
X275000Y5500D01*
X205000Y33000D02*
X210000Y38000D01*
X267500Y160000D02*
Y164000D01*
Y160000D02*
X287500Y140000D01*
Y130500D02*
Y140000D01*
X284000Y127000D02*
X287500Y130500D01*
X282000Y127000D02*
X284000D01*
X275000Y134000D02*
X282000Y127000D01*
X258000Y68000D02*
X307500Y117500D01*
X221152Y18500D02*
X238000D01*
X216802Y22850D02*
X221152Y18500D01*
X253307Y62000D02*
X277500D01*
X249201Y66106D02*
X253307Y62000D01*
X213000Y34556D02*
Y41500D01*
X211450Y32450D02*
Y33006D01*
X213000Y34556D01*
X154000Y76000D02*
X160000Y70000D01*
X201500Y124000D02*
X202579Y122414D01*
X214500Y124500D02*
X223500D01*
X210000Y129000D02*
X214500Y124500D01*
X206152Y197500D02*
X227000D01*
X201802Y193150D02*
X206152Y197500D01*
X191002Y193150D02*
X201802D01*
X182302Y201850D02*
X191002Y193150D01*
X175344Y201850D02*
X182302D01*
X154000Y76000D02*
Y95000D01*
X168000Y109000D01*
X164177Y59671D02*
X165002D01*
X152300Y71548D02*
X164177Y59671D01*
X152300Y71548D02*
Y108300D01*
X153000Y109000D01*
X183592Y36908D02*
X183900D01*
X144500Y76000D02*
X183592Y36908D01*
X144500Y76000D02*
Y109000D01*
X140500Y114500D02*
X181000D01*
X136500Y104600D02*
X140500Y114500D01*
X174972Y178330D02*
X177143Y180500D01*
X155020Y178330D02*
X174972D01*
X177143Y180500D02*
X237000D01*
X244500Y188000D01*
X205650Y177350D02*
X209000Y174000D01*
X199698Y177350D02*
X205650D01*
X199348Y177000D02*
X199698Y177350D01*
X209000Y147500D02*
Y174000D01*
X149500Y170000D02*
X184000D01*
X191000Y177000D01*
X199348D01*
X128400Y104700D02*
X135000Y117000D01*
X144000Y164500D02*
X149500Y170000D01*
X135000Y117000D02*
X139000D01*
X144000Y122000D01*
Y164500D01*
X82850Y125650D02*
X114150D01*
X128700Y140200D01*
Y190700D01*
X145000Y207000D01*
X78900Y136900D02*
Y169400D01*
X89800Y183300D01*
X213000Y41500D02*
X235500Y64000D01*
X239500Y68000D01*
X202579Y122414D02*
X209035Y121184D01*
X210000Y38000D02*
Y121000D01*
X209035Y121184D02*
X209646Y121067D01*
X210000Y121000D01*
X112000Y112000D02*
X131500Y131500D01*
X96000Y112000D02*
X112000D01*
X130500Y123000D02*
X138000D01*
X112000Y104500D02*
X130500Y123000D01*
X94800Y131800D02*
X103000Y140000D01*
X78900Y136900D02*
X84000Y131800D01*
X94800D01*
X47200Y128800D02*
X52750Y134350D01*
X74150D02*
X82850Y125650D01*
X73254Y132650D02*
X81954Y123950D01*
X72550Y130950D02*
X90500Y113000D01*
X71700Y128800D02*
X87500Y113000D01*
X52750Y134350D02*
X74150D01*
X56900Y128800D02*
X71700D01*
X56010Y130950D02*
X72550D01*
X50600Y128800D02*
Y129241D01*
X54009Y132650D01*
X73254D01*
X53700Y128700D02*
X53759D01*
X56010Y130950D01*
X209000Y147500D02*
X235300Y121200D01*
X308900D01*
X334700Y147000D01*
X371800D01*
X201500Y172800D02*
Y173000D01*
Y124000D02*
Y172800D01*
X129500Y51000D02*
X136000Y57500D01*
X244500Y188000D02*
X371500D01*
D36*
X322094Y31722D02*
X365222D01*
X387600Y78015D02*
X387606Y78009D01*
Y54106D02*
Y78009D01*
X11500Y191200D02*
X22300D01*
X9200Y188900D02*
X11500Y191200D01*
X9200Y163000D02*
Y188900D01*
X23500Y136400D02*
X47900Y112000D01*
X23500Y136400D02*
Y148700D01*
X68532Y73532D02*
X73600Y66400D01*
X68532Y73532D02*
Y120500D01*
X365222Y31722D02*
X387606Y54106D01*
X9200Y163000D02*
X23500Y148700D01*
X345000Y64800D02*
X359700D01*
X374700Y79800D01*
Y133600D01*
X383700Y142600D01*
Y153474D01*
X384500Y154274D01*
D37*
X386300Y191400D02*
X400500Y205600D01*
Y228500D01*
X140972Y190685D02*
Y191000D01*
Y190685D02*
X189787Y239500D01*
X389500D02*
X400500Y228500D01*
X150028Y151315D02*
X177815D01*
X193000Y166500D01*
X238120Y239120D02*
X238500Y239500D01*
X189787D02*
X238500D01*
X389500D01*
X238120Y231000D02*
Y239120D01*
D38*
X130900Y234200D02*
D03*
X400500Y25100D02*
D03*
D39*
X387600Y97700D02*
D03*
X22300Y210885D02*
D03*
X22800Y97785D02*
D03*
D40*
X387600Y78015D02*
D03*
X22300Y191200D02*
D03*
X22800Y78100D02*
D03*
D41*
X47900Y112000D02*
D03*
X73600Y66400D02*
D03*
X20774Y55722D02*
D03*
X12900Y32100D02*
D03*
X20774Y8478D02*
D03*
X68805D02*
D03*
X68532Y120500D02*
D03*
X20500D02*
D03*
X12626Y144122D02*
D03*
X20500Y167744D02*
D03*
X378000Y8100D02*
D03*
X329969D02*
D03*
X322094Y31722D02*
D03*
X329969Y55344D02*
D03*
X341295Y168522D02*
D03*
X389326D02*
D03*
X397200Y144900D02*
D03*
X389326Y121278D02*
D03*
X384500Y154274D02*
D03*
X345000Y64800D02*
D03*
D42*
X140000Y47000D02*
D03*
Y17000D02*
D03*
X141000Y7000D02*
D03*
X171000D02*
D03*
X93500Y46500D02*
D03*
Y16500D02*
D03*
X272000Y18000D02*
D03*
Y48000D02*
D03*
X277500Y62000D02*
D03*
X247500D02*
D03*
X319500Y19500D02*
D03*
Y49500D02*
D03*
X267500Y134000D02*
D03*
Y164000D02*
D03*
X274000Y177000D02*
D03*
X244000D02*
D03*
X322000Y142500D02*
D03*
Y172500D02*
D03*
X122500Y176500D02*
D03*
Y146500D02*
D03*
X138000Y123000D02*
D03*
X168000D02*
D03*
X97500Y174000D02*
D03*
Y144000D02*
D03*
D43*
X308000Y7000D02*
D03*
X304500Y142488D02*
D03*
X109000Y200012D02*
D03*
X105000Y61500D02*
D03*
D44*
X308000Y62512D02*
D03*
X304500Y198000D02*
D03*
X109000Y144500D02*
D03*
X105000Y5988D02*
D03*
D45*
X386300Y230770D02*
D03*
Y211085D02*
D03*
Y191400D02*
D03*
D46*
X155020Y164540D02*
D03*
Y178330D02*
D03*
Y192100D02*
D03*
X238620Y229660D02*
D03*
X278000D02*
D03*
D47*
X46600Y161200D02*
D03*
X49700D02*
D03*
X52800D02*
D03*
X55900D02*
D03*
X59000D02*
D03*
X62100D02*
D03*
X65200D02*
D03*
X68300D02*
D03*
X46600Y158100D02*
D03*
X49700D02*
D03*
X52800D02*
D03*
X55900D02*
D03*
X59000D02*
D03*
X62100D02*
D03*
X65200D02*
D03*
X68300D02*
D03*
X46600Y155000D02*
D03*
X49700D02*
D03*
X52800D02*
D03*
X55900D02*
D03*
X59000D02*
D03*
X62100D02*
D03*
X65200D02*
D03*
X68300D02*
D03*
X46600Y151900D02*
D03*
X49700D02*
D03*
X52800D02*
D03*
X55900D02*
D03*
X59000D02*
D03*
X62100D02*
D03*
X65200D02*
D03*
X68300D02*
D03*
X46600Y148800D02*
D03*
X49700D02*
D03*
X52800D02*
D03*
X55900D02*
D03*
X59000D02*
D03*
X62100D02*
D03*
X65200D02*
D03*
X68300D02*
D03*
X46600Y145700D02*
D03*
X49700D02*
D03*
X52800D02*
D03*
X55900D02*
D03*
X59000D02*
D03*
X62100D02*
D03*
X65200D02*
D03*
X68300D02*
D03*
X46600Y142600D02*
D03*
X49700D02*
D03*
X52800D02*
D03*
X55900D02*
D03*
X59000D02*
D03*
X62100D02*
D03*
X65200D02*
D03*
X68300D02*
D03*
X46600Y139500D02*
D03*
X49700D02*
D03*
X52800D02*
D03*
X55900D02*
D03*
X59000D02*
D03*
X62100D02*
D03*
X65200D02*
D03*
X68300D02*
D03*
D48*
X150028Y151315D02*
D03*
X140972Y190685D02*
D03*
D49*
X163600Y78400D02*
D03*
X150500Y216000D02*
D03*
X195500Y123900D02*
D03*
X234800Y23300D02*
D03*
X223000Y23700D02*
D03*
X2400Y220100D02*
D03*
X34600Y148100D02*
D03*
X82800Y108600D02*
D03*
X168000Y109000D02*
D03*
X153000D02*
D03*
X144500D02*
D03*
X136500Y104600D02*
D03*
X128400Y104700D02*
D03*
X112000Y104500D02*
D03*
X104000D02*
D03*
X95500D02*
D03*
X96000Y112000D02*
D03*
X43000Y204000D02*
D03*
X72000D02*
D03*
X73900Y183600D02*
D03*
X36000Y188500D02*
D03*
X41300Y180300D02*
D03*
X89800Y183300D02*
D03*
X93900Y164411D02*
D03*
X90300Y157100D02*
D03*
X103000Y152500D02*
D03*
X131500Y131500D02*
D03*
X135780Y57721D02*
D03*
X147000Y56000D02*
D03*
X160000Y70000D02*
D03*
X235500Y64000D02*
D03*
X176000Y15500D02*
D03*
X180500Y26000D02*
D03*
X192500Y30500D02*
D03*
X205000Y33000D02*
D03*
X217500Y30500D02*
D03*
X238000Y18500D02*
D03*
X279000Y13000D02*
D03*
X307500Y117500D02*
D03*
X210000Y129000D02*
D03*
X223500Y124500D02*
D03*
X210000Y121000D02*
D03*
X227000Y197500D02*
D03*
X145000Y207000D02*
D03*
X282500Y133000D02*
D03*
X275000Y134000D02*
D03*
X50600Y128800D02*
D03*
X47200D02*
D03*
X85800Y134500D02*
D03*
X84000Y131800D02*
D03*
X56900Y128800D02*
D03*
X53700Y128700D02*
D03*
X371800Y147000D02*
D03*
X201500Y172800D02*
D03*
D50*
X185400Y106300D02*
D03*
M02*
