G04 Layer_Color=8421504*
%FSLAX25Y25*%
%MOIN*%
G70*
G01*
G75*
%ADD10R,0.02441X0.02362*%
%ADD11R,0.03800X0.03600*%
%ADD12R,0.05984X0.05000*%
%ADD13R,0.12008X0.10000*%
%ADD17R,0.02362X0.02441*%
%ADD18R,0.02559X0.05905*%
%ADD19R,0.04331X0.02559*%
%ADD20R,0.03600X0.03800*%
%ADD21R,0.04200X0.03200*%
%ADD22R,0.05200X0.04800*%
%ADD23R,0.02362X0.02953*%
%ADD24R,0.02756X0.02362*%
%ADD25R,0.02953X0.02362*%
%ADD26R,0.04134X0.02362*%
%ADD27R,0.07087X0.05118*%
%ADD28R,0.05200X0.06700*%
%ADD29R,0.02400X0.06400*%
%ADD30C,0.06000*%
%ADD31R,0.05118X0.07087*%
%ADD32R,0.02565X0.02184*%
%ADD33R,0.03347X0.03740*%
%ADD55R,0.00100X0.00100*%
G36*
X61706Y144749D02*
Y143551D01*
X61150Y142994D01*
X59951D01*
X59394Y143551D01*
Y144749D01*
X59951Y145306D01*
X61150D01*
X61706Y144749D01*
D02*
G37*
G36*
X64806D02*
Y143551D01*
X64249Y142994D01*
X63051D01*
X62494Y143551D01*
Y144749D01*
X63051Y145306D01*
X64249D01*
X64806Y144749D01*
D02*
G37*
G36*
X55506D02*
Y143551D01*
X54949Y142994D01*
X53750D01*
X53194Y143551D01*
Y144749D01*
X53750Y145306D01*
X54949D01*
X55506Y144749D01*
D02*
G37*
G36*
X58606D02*
Y143551D01*
X58049Y142994D01*
X56850D01*
X56294Y143551D01*
Y144749D01*
X56850Y145306D01*
X58049D01*
X58606Y144749D01*
D02*
G37*
G36*
X43242Y144935D02*
X40471D01*
Y145920D01*
X43242D01*
Y144935D01*
D02*
G37*
G36*
X74429D02*
X71658D01*
Y145920D01*
X74429D01*
Y144935D01*
D02*
G37*
G36*
X67906Y144749D02*
Y143551D01*
X67349Y142994D01*
X66150D01*
X65594Y143551D01*
Y144749D01*
X66150Y145306D01*
X67349D01*
X67906Y144749D01*
D02*
G37*
G36*
X70147Y142994D02*
X69251D01*
X68694Y143551D01*
Y144749D01*
X69251Y145306D01*
X70147D01*
Y142994D01*
D02*
G37*
G36*
X52406Y144749D02*
Y143551D01*
X51850Y142994D01*
X50651D01*
X50094Y143551D01*
Y144749D01*
X50651Y145306D01*
X51850D01*
X52406Y144749D01*
D02*
G37*
G36*
X43242Y140997D02*
X40471D01*
Y141982D01*
X43242D01*
Y140997D01*
D02*
G37*
G36*
X74429D02*
X71658D01*
Y141982D01*
X74429D01*
Y140997D01*
D02*
G37*
G36*
X67906Y141649D02*
Y140451D01*
X67349Y139894D01*
X66150D01*
X65594Y140451D01*
Y141649D01*
X66150Y142206D01*
X67349D01*
X67906Y141649D01*
D02*
G37*
G36*
X70147Y139894D02*
X69251D01*
X68694Y140451D01*
Y141649D01*
X69251Y142206D01*
X70147D01*
Y139894D01*
D02*
G37*
G36*
X46206Y144749D02*
Y143551D01*
X45649Y142994D01*
X44753D01*
Y145306D01*
X45649D01*
X46206Y144749D01*
D02*
G37*
G36*
X49306D02*
Y143551D01*
X48750Y142994D01*
X47550D01*
X46994Y143551D01*
Y144749D01*
X47550Y145306D01*
X48750D01*
X49306Y144749D01*
D02*
G37*
G36*
X43242Y142966D02*
X40471D01*
Y143951D01*
X43242D01*
Y142966D01*
D02*
G37*
G36*
X74429D02*
X71658D01*
Y143951D01*
X74429D01*
Y142966D01*
D02*
G37*
G36*
X43242Y148873D02*
X40471D01*
Y149858D01*
X43242D01*
Y148873D01*
D02*
G37*
G36*
X74429D02*
X71658D01*
Y149858D01*
X74429D01*
Y148873D01*
D02*
G37*
G36*
X43242Y146904D02*
X40471D01*
Y147889D01*
X43242D01*
Y146904D01*
D02*
G37*
G36*
X74429D02*
X71658D01*
Y147889D01*
X74429D01*
Y146904D01*
D02*
G37*
G36*
X52406Y150950D02*
Y149750D01*
X51850Y149194D01*
X50651D01*
X50094Y149750D01*
Y150950D01*
X50651Y151506D01*
X51850D01*
X52406Y150950D01*
D02*
G37*
G36*
X55506D02*
Y149750D01*
X54949Y149194D01*
X53750D01*
X53194Y149750D01*
Y150950D01*
X53750Y151506D01*
X54949D01*
X55506Y150950D01*
D02*
G37*
G36*
X46206D02*
Y149750D01*
X45649Y149194D01*
X44753D01*
Y151506D01*
X45649D01*
X46206Y150950D01*
D02*
G37*
G36*
X49306D02*
Y149750D01*
X48750Y149194D01*
X47550D01*
X46994Y149750D01*
Y150950D01*
X47550Y151506D01*
X48750D01*
X49306Y150950D01*
D02*
G37*
G36*
X70147Y146094D02*
X69251D01*
X68694Y146651D01*
Y147850D01*
X69251Y148406D01*
X70147D01*
Y146094D01*
D02*
G37*
G36*
X52406Y147850D02*
Y146651D01*
X51850Y146094D01*
X50651D01*
X50094Y146651D01*
Y147850D01*
X50651Y148406D01*
X51850D01*
X52406Y147850D01*
D02*
G37*
G36*
X55506D02*
Y146651D01*
X54949Y146094D01*
X53750D01*
X53194Y146651D01*
Y147850D01*
X53750Y148406D01*
X54949D01*
X55506Y147850D01*
D02*
G37*
G36*
X46206D02*
Y146651D01*
X45649Y146094D01*
X44753D01*
Y148406D01*
X45649D01*
X46206Y147850D01*
D02*
G37*
G36*
X49306D02*
Y146651D01*
X48750Y146094D01*
X47550D01*
X46994Y146651D01*
Y147850D01*
X47550Y148406D01*
X48750D01*
X49306Y147850D01*
D02*
G37*
G36*
X64806D02*
Y146651D01*
X64249Y146094D01*
X63051D01*
X62494Y146651D01*
Y147850D01*
X63051Y148406D01*
X64249D01*
X64806Y147850D01*
D02*
G37*
G36*
X67906D02*
Y146651D01*
X67349Y146094D01*
X66150D01*
X65594Y146651D01*
Y147850D01*
X66150Y148406D01*
X67349D01*
X67906Y147850D01*
D02*
G37*
G36*
X58606D02*
Y146651D01*
X58049Y146094D01*
X56850D01*
X56294Y146651D01*
Y147850D01*
X56850Y148406D01*
X58049D01*
X58606Y147850D01*
D02*
G37*
G36*
X61706D02*
Y146651D01*
X61150Y146094D01*
X59951D01*
X59394Y146651D01*
Y147850D01*
X59951Y148406D01*
X61150D01*
X61706Y147850D01*
D02*
G37*
G36*
X66800Y133371D02*
X65816D01*
Y136142D01*
X66800D01*
Y133371D01*
D02*
G37*
G36*
X68769D02*
X67785D01*
Y136142D01*
X68769D01*
Y133371D01*
D02*
G37*
G36*
X62863D02*
X61879D01*
Y136142D01*
X62863D01*
Y133371D01*
D02*
G37*
G36*
X64832D02*
X63848D01*
Y136142D01*
X64832D01*
Y133371D01*
D02*
G37*
G36*
X74429Y137059D02*
X71658D01*
Y138044D01*
X74429D01*
Y137059D01*
D02*
G37*
G36*
X46206Y138549D02*
Y137653D01*
X44753D01*
Y139106D01*
X45649D01*
X46206Y138549D01*
D02*
G37*
G36*
X70737Y133371D02*
X69753D01*
Y136142D01*
X70737D01*
Y133371D01*
D02*
G37*
G36*
X43242Y137059D02*
X40471D01*
Y138044D01*
X43242D01*
Y137059D01*
D02*
G37*
G36*
X60895Y133371D02*
X59911D01*
Y136142D01*
X60895D01*
Y133371D01*
D02*
G37*
G36*
X49084D02*
X48100D01*
Y136142D01*
X49084D01*
Y133371D01*
D02*
G37*
G36*
X51052D02*
X50068D01*
Y136142D01*
X51052D01*
Y133371D01*
D02*
G37*
G36*
X45147D02*
X44163D01*
Y136142D01*
X45147D01*
Y133371D01*
D02*
G37*
G36*
X47115D02*
X46131D01*
Y136142D01*
X47115D01*
Y133371D01*
D02*
G37*
G36*
X56958D02*
X55974D01*
Y136142D01*
X56958D01*
Y133371D01*
D02*
G37*
G36*
X58926D02*
X57942D01*
Y136142D01*
X58926D01*
Y133371D01*
D02*
G37*
G36*
X53021D02*
X52037D01*
Y136142D01*
X53021D01*
Y133371D01*
D02*
G37*
G36*
X54989D02*
X54005D01*
Y136142D01*
X54989D01*
Y133371D01*
D02*
G37*
G36*
X49306Y141649D02*
Y140451D01*
X48750Y139894D01*
X47550D01*
X46994Y140451D01*
Y141649D01*
X47550Y142206D01*
X48750D01*
X49306Y141649D01*
D02*
G37*
G36*
X52406D02*
Y140451D01*
X51850Y139894D01*
X50651D01*
X50094Y140451D01*
Y141649D01*
X50651Y142206D01*
X51850D01*
X52406Y141649D01*
D02*
G37*
G36*
X74429Y139028D02*
X71658D01*
Y140013D01*
X74429D01*
Y139028D01*
D02*
G37*
G36*
X46206Y141649D02*
Y140451D01*
X45649Y139894D01*
X44753D01*
Y142206D01*
X45649D01*
X46206Y141649D01*
D02*
G37*
G36*
X61706D02*
Y140451D01*
X61150Y139894D01*
X59951D01*
X59394Y140451D01*
Y141649D01*
X59951Y142206D01*
X61150D01*
X61706Y141649D01*
D02*
G37*
G36*
X64806D02*
Y140451D01*
X64249Y139894D01*
X63051D01*
X62494Y140451D01*
Y141649D01*
X63051Y142206D01*
X64249D01*
X64806Y141649D01*
D02*
G37*
G36*
X55506D02*
Y140451D01*
X54949Y139894D01*
X53750D01*
X53194Y140451D01*
Y141649D01*
X53750Y142206D01*
X54949D01*
X55506Y141649D01*
D02*
G37*
G36*
X58606D02*
Y140451D01*
X58049Y139894D01*
X56850D01*
X56294Y140451D01*
Y141649D01*
X56850Y142206D01*
X58049D01*
X58606Y141649D01*
D02*
G37*
G36*
X43242Y139028D02*
X40471D01*
Y140013D01*
X43242D01*
Y139028D01*
D02*
G37*
G36*
X55506Y138549D02*
Y137653D01*
X53194D01*
Y138549D01*
X53750Y139106D01*
X54949D01*
X55506Y138549D01*
D02*
G37*
G36*
X58606D02*
Y137653D01*
X56294D01*
Y138549D01*
X56850Y139106D01*
X58049D01*
X58606Y138549D01*
D02*
G37*
G36*
X49306D02*
Y137653D01*
X46994D01*
Y138549D01*
X47550Y139106D01*
X48750D01*
X49306Y138549D01*
D02*
G37*
G36*
X52406D02*
Y137653D01*
X50094D01*
Y138549D01*
X50651Y139106D01*
X51850D01*
X52406Y138549D01*
D02*
G37*
G36*
X67906D02*
Y137653D01*
X65594D01*
Y138549D01*
X66150Y139106D01*
X67349D01*
X67906Y138549D01*
D02*
G37*
G36*
X70147Y137653D02*
X68694D01*
Y138549D01*
X69251Y139106D01*
X70147D01*
Y137653D01*
D02*
G37*
G36*
X61706Y138549D02*
Y137653D01*
X59394D01*
Y138549D01*
X59951Y139106D01*
X61150D01*
X61706Y138549D01*
D02*
G37*
G36*
X64806D02*
Y137653D01*
X62494D01*
Y138549D01*
X63051Y139106D01*
X64249D01*
X64806Y138549D01*
D02*
G37*
G36*
X58606Y150950D02*
Y149750D01*
X58049Y149194D01*
X56850D01*
X56294Y149750D01*
Y150950D01*
X56850Y151506D01*
X58049D01*
X58606Y150950D01*
D02*
G37*
G36*
X52406Y162151D02*
X51850Y161594D01*
X50651D01*
X50094Y162151D01*
Y163047D01*
X52406D01*
Y162151D01*
D02*
G37*
G36*
X55506D02*
X54949Y161594D01*
X53750D01*
X53194Y162151D01*
Y163047D01*
X55506D01*
Y162151D01*
D02*
G37*
G36*
X46206D02*
X45649Y161594D01*
X44753D01*
Y163047D01*
X46206D01*
Y162151D01*
D02*
G37*
G36*
X49306D02*
X48750Y161594D01*
X47550D01*
X46994Y162151D01*
Y163047D01*
X49306D01*
Y162151D01*
D02*
G37*
G36*
X64806D02*
X64249Y161594D01*
X63051D01*
X62494Y162151D01*
Y163047D01*
X64806D01*
Y162151D01*
D02*
G37*
G36*
X67906D02*
X67349Y161594D01*
X66150D01*
X65594Y162151D01*
Y163047D01*
X67906D01*
Y162151D01*
D02*
G37*
G36*
X58606D02*
X58049Y161594D01*
X56850D01*
X56294Y162151D01*
Y163047D01*
X58606D01*
Y162151D01*
D02*
G37*
G36*
X61706D02*
X61150Y161594D01*
X59951D01*
X59394Y162151D01*
Y163047D01*
X61706D01*
Y162151D01*
D02*
G37*
G36*
X74429Y160687D02*
X71658D01*
Y161672D01*
X74429D01*
Y160687D01*
D02*
G37*
G36*
X64806Y160249D02*
Y159051D01*
X64249Y158494D01*
X63051D01*
X62494Y159051D01*
Y160249D01*
X63051Y160806D01*
X64249D01*
X64806Y160249D01*
D02*
G37*
G36*
X67906D02*
Y159051D01*
X67349Y158494D01*
X66150D01*
X65594Y159051D01*
Y160249D01*
X66150Y160806D01*
X67349D01*
X67906Y160249D01*
D02*
G37*
G36*
X58606D02*
Y159051D01*
X58049Y158494D01*
X56850D01*
X56294Y159051D01*
Y160249D01*
X56850Y160806D01*
X58049D01*
X58606Y160249D01*
D02*
G37*
G36*
X61706D02*
Y159051D01*
X61150Y158494D01*
X59951D01*
X59394Y159051D01*
Y160249D01*
X59951Y160806D01*
X61150D01*
X61706Y160249D01*
D02*
G37*
G36*
X74429Y158718D02*
X71658D01*
Y159703D01*
X74429D01*
Y158718D01*
D02*
G37*
G36*
X43242Y160687D02*
X40471D01*
Y161672D01*
X43242D01*
Y160687D01*
D02*
G37*
G36*
X70147Y158494D02*
X69251D01*
X68694Y159051D01*
Y160249D01*
X69251Y160806D01*
X70147D01*
Y158494D01*
D02*
G37*
G36*
X43242Y158718D02*
X40471D01*
Y159703D01*
X43242D01*
Y158718D01*
D02*
G37*
G36*
X60895Y164558D02*
X59911D01*
Y167329D01*
X60895D01*
Y164558D01*
D02*
G37*
G36*
X62863D02*
X61879D01*
Y167329D01*
X62863D01*
Y164558D01*
D02*
G37*
G36*
X56958D02*
X55974D01*
Y167329D01*
X56958D01*
Y164558D01*
D02*
G37*
G36*
X58926D02*
X57942D01*
Y167329D01*
X58926D01*
Y164558D01*
D02*
G37*
G36*
X68769D02*
X67785D01*
Y167329D01*
X68769D01*
Y164558D01*
D02*
G37*
G36*
X70737D02*
X69753D01*
Y167329D01*
X70737D01*
Y164558D01*
D02*
G37*
G36*
X64832D02*
X63848D01*
Y167329D01*
X64832D01*
Y164558D01*
D02*
G37*
G36*
X66800D02*
X65816D01*
Y167329D01*
X66800D01*
Y164558D01*
D02*
G37*
G36*
X54989D02*
X54005D01*
Y167329D01*
X54989D01*
Y164558D01*
D02*
G37*
G36*
X74429Y162656D02*
X71658D01*
Y163641D01*
X74429D01*
Y162656D01*
D02*
G37*
G36*
X45147Y164558D02*
X44163D01*
Y167329D01*
X45147D01*
Y164558D01*
D02*
G37*
G36*
X70147Y161594D02*
X69251D01*
X68694Y162151D01*
Y163047D01*
X70147D01*
Y161594D01*
D02*
G37*
G36*
X43242Y162656D02*
X40471D01*
Y163641D01*
X43242D01*
Y162656D01*
D02*
G37*
G36*
X51052Y164558D02*
X50068D01*
Y167329D01*
X51052D01*
Y164558D01*
D02*
G37*
G36*
X53021D02*
X52037D01*
Y167329D01*
X53021D01*
Y164558D01*
D02*
G37*
G36*
X47115D02*
X46131D01*
Y167329D01*
X47115D01*
Y164558D01*
D02*
G37*
G36*
X49084D02*
X48100D01*
Y167329D01*
X49084D01*
Y164558D01*
D02*
G37*
G36*
X61706Y154050D02*
Y152850D01*
X61150Y152294D01*
X59951D01*
X59394Y152850D01*
Y154050D01*
X59951Y154606D01*
X61150D01*
X61706Y154050D01*
D02*
G37*
G36*
X64806D02*
Y152850D01*
X64249Y152294D01*
X63051D01*
X62494Y152850D01*
Y154050D01*
X63051Y154606D01*
X64249D01*
X64806Y154050D01*
D02*
G37*
G36*
X55506D02*
Y152850D01*
X54949Y152294D01*
X53750D01*
X53194Y152850D01*
Y154050D01*
X53750Y154606D01*
X54949D01*
X55506Y154050D01*
D02*
G37*
G36*
X58606D02*
Y152850D01*
X58049Y152294D01*
X56850D01*
X56294Y152850D01*
Y154050D01*
X56850Y154606D01*
X58049D01*
X58606Y154050D01*
D02*
G37*
G36*
X43242Y152811D02*
X40471D01*
Y153796D01*
X43242D01*
Y152811D01*
D02*
G37*
G36*
X74429D02*
X71658D01*
Y153796D01*
X74429D01*
Y152811D01*
D02*
G37*
G36*
X67906Y154050D02*
Y152850D01*
X67349Y152294D01*
X66150D01*
X65594Y152850D01*
Y154050D01*
X66150Y154606D01*
X67349D01*
X67906Y154050D01*
D02*
G37*
G36*
X70147Y152294D02*
X69251D01*
X68694Y152850D01*
Y154050D01*
X69251Y154606D01*
X70147D01*
Y152294D01*
D02*
G37*
G36*
X52406Y154050D02*
Y152850D01*
X51850Y152294D01*
X50651D01*
X50094Y152850D01*
Y154050D01*
X50651Y154606D01*
X51850D01*
X52406Y154050D01*
D02*
G37*
G36*
X67906Y150950D02*
Y149750D01*
X67349Y149194D01*
X66150D01*
X65594Y149750D01*
Y150950D01*
X66150Y151506D01*
X67349D01*
X67906Y150950D01*
D02*
G37*
G36*
X70147Y149194D02*
X69251D01*
X68694Y149750D01*
Y150950D01*
X69251Y151506D01*
X70147D01*
Y149194D01*
D02*
G37*
G36*
X61706Y150950D02*
Y149750D01*
X61150Y149194D01*
X59951D01*
X59394Y149750D01*
Y150950D01*
X59951Y151506D01*
X61150D01*
X61706Y150950D01*
D02*
G37*
G36*
X64806D02*
Y149750D01*
X64249Y149194D01*
X63051D01*
X62494Y149750D01*
Y150950D01*
X63051Y151506D01*
X64249D01*
X64806Y150950D01*
D02*
G37*
G36*
X46206Y154050D02*
Y152850D01*
X45649Y152294D01*
X44753D01*
Y154606D01*
X45649D01*
X46206Y154050D01*
D02*
G37*
G36*
X49306D02*
Y152850D01*
X48750Y152294D01*
X47550D01*
X46994Y152850D01*
Y154050D01*
X47550Y154606D01*
X48750D01*
X49306Y154050D01*
D02*
G37*
G36*
X43242Y150842D02*
X40471D01*
Y151827D01*
X43242D01*
Y150842D01*
D02*
G37*
G36*
X74429D02*
X71658D01*
Y151827D01*
X74429D01*
Y150842D01*
D02*
G37*
G36*
X43242Y156749D02*
X40471D01*
Y157734D01*
X43242D01*
Y156749D01*
D02*
G37*
G36*
X74429D02*
X71658D01*
Y157734D01*
X74429D01*
Y156749D01*
D02*
G37*
G36*
X67906Y157150D02*
Y155950D01*
X67349Y155394D01*
X66150D01*
X65594Y155950D01*
Y157150D01*
X66150Y157706D01*
X67349D01*
X67906Y157150D01*
D02*
G37*
G36*
X70147Y155394D02*
X69251D01*
X68694Y155950D01*
Y157150D01*
X69251Y157706D01*
X70147D01*
Y155394D01*
D02*
G37*
G36*
X52406Y160249D02*
Y159051D01*
X51850Y158494D01*
X50651D01*
X50094Y159051D01*
Y160249D01*
X50651Y160806D01*
X51850D01*
X52406Y160249D01*
D02*
G37*
G36*
X55506D02*
Y159051D01*
X54949Y158494D01*
X53750D01*
X53194Y159051D01*
Y160249D01*
X53750Y160806D01*
X54949D01*
X55506Y160249D01*
D02*
G37*
G36*
X46206D02*
Y159051D01*
X45649Y158494D01*
X44753D01*
Y160806D01*
X45649D01*
X46206Y160249D01*
D02*
G37*
G36*
X49306D02*
Y159051D01*
X48750Y158494D01*
X47550D01*
X46994Y159051D01*
Y160249D01*
X47550Y160806D01*
X48750D01*
X49306Y160249D01*
D02*
G37*
G36*
X64806Y157150D02*
Y155950D01*
X64249Y155394D01*
X63051D01*
X62494Y155950D01*
Y157150D01*
X63051Y157706D01*
X64249D01*
X64806Y157150D01*
D02*
G37*
G36*
X46206D02*
Y155950D01*
X45649Y155394D01*
X44753D01*
Y157706D01*
X45649D01*
X46206Y157150D01*
D02*
G37*
G36*
X49306D02*
Y155950D01*
X48750Y155394D01*
X47550D01*
X46994Y155950D01*
Y157150D01*
X47550Y157706D01*
X48750D01*
X49306Y157150D01*
D02*
G37*
G36*
X43242Y154780D02*
X40471D01*
Y155765D01*
X43242D01*
Y154780D01*
D02*
G37*
G36*
X74429D02*
X71658D01*
Y155765D01*
X74429D01*
Y154780D01*
D02*
G37*
G36*
X58606Y157150D02*
Y155950D01*
X58049Y155394D01*
X56850D01*
X56294Y155950D01*
Y157150D01*
X56850Y157706D01*
X58049D01*
X58606Y157150D01*
D02*
G37*
G36*
X61706D02*
Y155950D01*
X61150Y155394D01*
X59951D01*
X59394Y155950D01*
Y157150D01*
X59951Y157706D01*
X61150D01*
X61706Y157150D01*
D02*
G37*
G36*
X52406D02*
Y155950D01*
X51850Y155394D01*
X50651D01*
X50094Y155950D01*
Y157150D01*
X50651Y157706D01*
X51850D01*
X52406Y157150D01*
D02*
G37*
G36*
X55506D02*
Y155950D01*
X54949Y155394D01*
X53750D01*
X53194Y155950D01*
Y157150D01*
X53750Y157706D01*
X54949D01*
X55506Y157150D01*
D02*
G37*
D10*
X217500Y209311D02*
D03*
Y205689D02*
D03*
X228000Y29811D02*
D03*
Y26189D02*
D03*
X186000Y6067D02*
D03*
Y9689D02*
D03*
X164500Y185067D02*
D03*
Y188689D02*
D03*
X62600Y124789D02*
D03*
Y128411D02*
D03*
X160400Y31689D02*
D03*
Y35311D02*
D03*
X154400Y86689D02*
D03*
Y90311D02*
D03*
X50500Y173189D02*
D03*
Y176811D02*
D03*
X55500Y173189D02*
D03*
Y176811D02*
D03*
X57100Y188989D02*
D03*
Y192611D02*
D03*
X258500Y151311D02*
D03*
Y147689D02*
D03*
X256500Y92061D02*
D03*
Y88439D02*
D03*
X251500Y35811D02*
D03*
Y32189D02*
D03*
X71400Y192678D02*
D03*
Y196300D02*
D03*
D11*
X290450Y94500D02*
D03*
X283550D02*
D03*
X290450Y81500D02*
D03*
X283550D02*
D03*
X292450Y42000D02*
D03*
X285550D02*
D03*
X292450Y25500D02*
D03*
X285550D02*
D03*
X119550Y24500D02*
D03*
X126450D02*
D03*
X119550Y40000D02*
D03*
X126450D02*
D03*
X117950Y78000D02*
D03*
X124850D02*
D03*
X118050Y93000D02*
D03*
X124950D02*
D03*
X227050Y163325D02*
D03*
X233950D02*
D03*
X175900Y60000D02*
D03*
X169000D02*
D03*
X169050Y48000D02*
D03*
X175950D02*
D03*
Y73500D02*
D03*
X169050D02*
D03*
X184100Y137825D02*
D03*
X191000D02*
D03*
X162450Y86500D02*
D03*
X169350D02*
D03*
X325950Y117000D02*
D03*
X319050D02*
D03*
X247950Y100750D02*
D03*
X241050D02*
D03*
X247950Y86500D02*
D03*
X241050D02*
D03*
X241550Y73500D02*
D03*
X248450D02*
D03*
X237050Y54000D02*
D03*
X243950D02*
D03*
X243950Y43250D02*
D03*
X237050D02*
D03*
X243950Y32000D02*
D03*
X237050D02*
D03*
X204100Y137825D02*
D03*
X211000D02*
D03*
X283550Y144000D02*
D03*
X290450D02*
D03*
X283550Y157000D02*
D03*
X290450D02*
D03*
X364550D02*
D03*
X371450D02*
D03*
X164150Y137825D02*
D03*
X171050D02*
D03*
X162550Y99500D02*
D03*
X169450D02*
D03*
X169050Y34000D02*
D03*
X175950D02*
D03*
D12*
X87396Y81717D02*
D03*
Y89000D02*
D03*
Y96284D02*
D03*
X59404D02*
D03*
Y89000D02*
D03*
Y81717D02*
D03*
X330808Y96184D02*
D03*
Y88900D02*
D03*
Y81616D02*
D03*
X358800D02*
D03*
Y88900D02*
D03*
Y96184D02*
D03*
X344608Y43767D02*
D03*
Y36483D02*
D03*
Y29200D02*
D03*
X372600D02*
D03*
Y36483D02*
D03*
Y43767D02*
D03*
X68396Y26717D02*
D03*
Y34000D02*
D03*
Y41284D02*
D03*
X40404D02*
D03*
Y34000D02*
D03*
Y26717D02*
D03*
D13*
X73400Y99295D02*
D03*
Y78705D02*
D03*
X344804Y78605D02*
D03*
Y99195D02*
D03*
X358604Y26188D02*
D03*
Y46779D02*
D03*
X54400Y44295D02*
D03*
Y23705D02*
D03*
D17*
X82311Y136300D02*
D03*
X78689D02*
D03*
X30989Y142600D02*
D03*
X34611D02*
D03*
X31089Y137500D02*
D03*
X34711D02*
D03*
X87311Y171000D02*
D03*
X83689D02*
D03*
X58311Y209000D02*
D03*
X54689D02*
D03*
X84311Y154000D02*
D03*
X80689D02*
D03*
X78000Y172000D02*
D03*
X74378D02*
D03*
X60989Y178300D02*
D03*
X64611D02*
D03*
X41689Y176000D02*
D03*
X45311D02*
D03*
X41878Y171000D02*
D03*
X45500D02*
D03*
X31189Y163000D02*
D03*
X34811D02*
D03*
X84311Y159000D02*
D03*
X80689D02*
D03*
X47689Y182000D02*
D03*
X51311D02*
D03*
X79389Y183400D02*
D03*
X83011D02*
D03*
D18*
X201900Y90130D02*
D03*
X196900D02*
D03*
X191900D02*
D03*
X186900D02*
D03*
Y68870D02*
D03*
X191900D02*
D03*
X196900D02*
D03*
X201900D02*
D03*
X213000Y69120D02*
D03*
X218000D02*
D03*
X223000D02*
D03*
X228000D02*
D03*
Y90380D02*
D03*
X223000D02*
D03*
X218000D02*
D03*
X213000D02*
D03*
X355500Y151455D02*
D03*
X350500D02*
D03*
X345500D02*
D03*
X340500D02*
D03*
Y130195D02*
D03*
X345500D02*
D03*
X350500D02*
D03*
X355500D02*
D03*
D19*
X124634Y209720D02*
D03*
Y217280D02*
D03*
X116366Y213500D02*
D03*
X287366Y12779D02*
D03*
Y5221D02*
D03*
X295634Y9000D02*
D03*
X273366Y125779D02*
D03*
Y118220D02*
D03*
X281634Y122000D02*
D03*
X127634Y57721D02*
D03*
Y65280D02*
D03*
X119366Y61500D02*
D03*
D20*
X192500Y47450D02*
D03*
Y40550D02*
D03*
X195500Y109050D02*
D03*
Y115950D02*
D03*
X313500Y136950D02*
D03*
Y130050D02*
D03*
X224000Y109050D02*
D03*
Y115950D02*
D03*
X216000Y47450D02*
D03*
Y40550D02*
D03*
D21*
X150400Y22950D02*
D03*
Y29050D02*
D03*
Y37950D02*
D03*
Y44050D02*
D03*
X144400Y77950D02*
D03*
Y84050D02*
D03*
Y92950D02*
D03*
Y99050D02*
D03*
X267000Y100800D02*
D03*
Y94700D02*
D03*
Y85800D02*
D03*
Y79700D02*
D03*
X260500Y43800D02*
D03*
Y37700D02*
D03*
Y28800D02*
D03*
Y22700D02*
D03*
X248500Y142550D02*
D03*
Y136450D02*
D03*
Y162050D02*
D03*
Y155950D02*
D03*
D22*
X98400Y84750D02*
D03*
Y92250D02*
D03*
X79900Y30500D02*
D03*
Y38000D02*
D03*
X317200Y92250D02*
D03*
Y84750D02*
D03*
X332000Y39750D02*
D03*
Y32250D02*
D03*
D23*
X51500Y188235D02*
D03*
Y192565D02*
D03*
X54500Y198835D02*
D03*
Y203165D02*
D03*
Y219165D02*
D03*
Y214835D02*
D03*
X164500Y206335D02*
D03*
Y210665D02*
D03*
X185500Y21835D02*
D03*
Y26165D02*
D03*
X228000Y11665D02*
D03*
Y7335D02*
D03*
X217500Y188543D02*
D03*
Y184213D02*
D03*
D24*
X30335Y168500D02*
D03*
X34665D02*
D03*
D25*
X80835Y164500D02*
D03*
X85165D02*
D03*
X61665Y183600D02*
D03*
X57335D02*
D03*
X164335Y197500D02*
D03*
X168665D02*
D03*
X185335Y16000D02*
D03*
X189665D02*
D03*
X228543Y18500D02*
D03*
X224213D02*
D03*
X218165Y197500D02*
D03*
X213835D02*
D03*
D26*
X123661Y126260D02*
D03*
Y133740D02*
D03*
X115000Y130000D02*
D03*
X126331Y5260D02*
D03*
Y12740D02*
D03*
X117669Y9000D02*
D03*
X284669Y178240D02*
D03*
Y170760D02*
D03*
X293331Y174500D02*
D03*
X287669Y62740D02*
D03*
Y55260D02*
D03*
X296331Y59000D02*
D03*
D27*
X375618Y130325D02*
D03*
X365382D02*
D03*
D28*
X236400Y137825D02*
D03*
X224600D02*
D03*
D29*
X299240Y130200D02*
D03*
X291760D02*
D03*
D30*
X295500Y122325D02*
D03*
D31*
X210500Y110618D02*
D03*
Y100382D02*
D03*
X205000Y47882D02*
D03*
Y58118D02*
D03*
D32*
X211000Y157175D02*
D03*
Y152825D02*
D03*
D33*
X82964Y190046D02*
D03*
Y195754D02*
D03*
X78436D02*
D03*
Y190046D02*
D03*
D55*
X57450Y150350D02*
D03*
M02*
