M48
;Layer_Color=9474304
;FILE_FORMAT=2:5
INCH,LZ
;TYPE=PLATED
T1F00S00C0.00800
T2F00S00C0.01000
T3F00S00C0.02800
T4F00S00C0.03000
T5F00S00C0.03346
T6F00S00C0.04016
T7F00S00C0.04134
T8F00S00C0.04724
T9F00S00C0.04921
T10F00S00C0.05118
T11F00S00C0.12500
%
T01
X0176Y00155
X01805Y0026
X01925Y00305
X0205Y0033
X0147Y0056
X02175Y00305
X0223Y00237
X02348Y00233
X0238Y00185
X0279Y0013
X03718Y0147
X03075Y01175
X02825Y0133
X0275Y0134
X02235Y01245
X02355Y0064
X0227Y01975
X02015Y01728
X021Y0129
Y0121
X01955Y01239
X0168Y0109
X0153
X01445
X01365Y01046
X01284Y01047
X0112Y01045
X0104
X00955
X0096Y0112
X00828Y01086
X0084Y01318
X00858Y01345
X00903Y01571
X00939Y0164411
X0103Y01525
X00898Y01833
X00739Y01836
X0072Y0204
X0145Y0207
X01315Y01315
X00569Y01288
X013578Y0057721
X016Y007
X01636Y00784
X00537Y01287
X00506Y01288
X00472
X00346Y01481
X00413Y01803
X0036Y01885
X0043Y0204
X00024Y02201
X01505Y0216
T02
X0059Y01395
X00621
X00652
X00683
Y01426
X00652
X00621
X0059
Y01457
X00621
X00652
X00683
Y01488
X00652
X00621
X0059
Y01519
X00621
X00652
X00683
Y0155
X00652
X00621
X0059
Y01581
X00621
X00652
X00683
Y01612
X00652
X00621
X0059
X00559
Y01581
Y0155
Y01519
Y01488
Y01457
Y01426
Y01395
X00528
X00497
X00466
Y01426
X00497
X00528
Y01457
X00497
X00466
Y01488
X00497
X00528
Y01519
X00497
X00466
Y0155
X00497
X00528
Y01581
X00497
X00466
Y01612
X00497
X00528
T03
X01854Y01063
T04
X01985Y00065
Y00185
X0215
X02155Y00065
X02385Y00078
X0193Y01665
X02Y0186
Y01975
X01805
Y0186
X00855Y02109
X00065Y0135167
Y01275
Y0119833
Y0112167
T05
X00935Y00165
Y00465
X014Y0047
Y0017
X0141Y0007
X0171
X0272Y0018
Y0048
X03195Y00495
Y00195
X02775Y0062
X02475
X02675Y0134
Y0164
X0274Y0177
X0244
X0322Y01725
Y01425
X0168Y0123
X0138
X01225Y01465
X00975Y0144
Y0174
X01225Y01765
T06
X015502Y016454
Y017833
Y01921
X023862Y022966
X0278
T07
X0105Y0005988
X0308Y0007
Y0062512
X03045Y0142488
Y0198
X0109Y0200012
Y01445
X0105Y00615
T08
X03876Y0078015
Y00977
X03863Y01914
Y0211085
X00223Y0210885
Y01912
X00228Y0097785
Y00781
X03863Y023077
T09
X0150028Y0151315
X0140972Y0190685
T10
X0020774Y0008478
X00129Y00321
X0020774Y0055722
X0068805Y0008478
X0329969Y00081
X0322094Y0031722
X0329969Y0055344
X0378Y00081
X0389326Y0121278
X03972Y01449
X03845Y0154274
X0389326Y0168522
X0341295
X0345Y00648
X00736Y00664
X0068532Y01205
X00479Y0112
X00205Y01205
X0012626Y0144122
X00205Y0167744
T11
X04005Y00251
X01309Y02342
M30
